<svg width="125" height="157" viewBox="0 0 125 157" fill="none" xmlns="http://www.w3.org/2000/svg">
<rect width="125" height="140.233" transform="matrix(-1 0 0 1 125 16.4321)" fill="#FDC600"/>
<rect width="125" height="25.1555" transform="matrix(-1 0 0 1 125 16.2139)" fill="#FFE278"/>
<path d="M15.37 139.931C15.37 139.031 15.5233 138.371 15.83 137.951C16.1433 137.524 16.5867 137.311 17.16 137.311C17.7733 137.311 18.2233 137.528 18.51 137.961C18.8033 138.394 18.95 139.051 18.95 139.931C18.95 140.838 18.7933 141.501 18.48 141.921C18.1667 142.341 17.7267 142.551 17.16 142.551C16.5467 142.551 16.0933 142.334 15.8 141.901C15.5133 141.468 15.37 140.811 15.37 139.931ZM16.12 139.931C16.12 140.224 16.1367 140.491 16.17 140.731C16.21 140.971 16.27 141.178 16.35 141.351C16.4367 141.524 16.5467 141.661 16.68 141.761C16.8133 141.854 16.9733 141.901 17.16 141.901C17.5067 141.901 17.7667 141.748 17.94 141.441C18.1133 141.128 18.2 140.624 18.2 139.931C18.2 139.644 18.18 139.381 18.14 139.141C18.1067 138.894 18.0467 138.684 17.96 138.511C17.88 138.338 17.7733 138.204 17.64 138.111C17.5067 138.011 17.3467 137.961 17.16 137.961C16.82 137.961 16.56 138.118 16.38 138.431C16.2067 138.744 16.12 139.244 16.12 139.931ZM22.2864 138.081H20.6264V142.431H19.9064V137.431H22.2864V138.081ZM22.5282 139.931C22.5282 139.031 22.6815 138.371 22.9882 137.951C23.3015 137.524 23.7449 137.311 24.3182 137.311C24.9315 137.311 25.3815 137.528 25.6682 137.961C25.9615 138.394 26.1082 139.051 26.1082 139.931C26.1082 140.838 25.9515 141.501 25.6382 141.921C25.3249 142.341 24.8849 142.551 24.3182 142.551C23.7049 142.551 23.2515 142.334 22.9582 141.901C22.6715 141.468 22.5282 140.811 22.5282 139.931ZM23.2782 139.931C23.2782 140.224 23.2949 140.491 23.3282 140.731C23.3682 140.971 23.4282 141.178 23.5082 141.351C23.5949 141.524 23.7049 141.661 23.8382 141.761C23.9715 141.854 24.1315 141.901 24.3182 141.901C24.6649 141.901 24.9249 141.748 25.0982 141.441C25.2715 141.128 25.3582 140.624 25.3582 139.931C25.3582 139.644 25.3382 139.381 25.2982 139.141C25.2649 138.894 25.2049 138.684 25.1182 138.511C25.0382 138.338 24.9315 138.204 24.7982 138.111C24.6649 138.011 24.5049 137.961 24.3182 137.961C23.9782 137.961 23.7182 138.118 23.5382 138.431C23.3649 138.744 23.2782 139.244 23.2782 139.931ZM27.4846 135.431H28.2346V138.901L28.0846 140.661H27.6346L27.4846 138.901V135.431ZM27.3546 141.981C27.3546 141.794 27.3979 141.654 27.4846 141.561C27.5779 141.468 27.7013 141.421 27.8546 141.421C28.0079 141.421 28.1279 141.468 28.2146 141.561C28.3079 141.654 28.3546 141.794 28.3546 141.981C28.3546 142.174 28.3079 142.318 28.2146 142.411C28.1279 142.504 28.0079 142.551 27.8546 142.551C27.7013 142.551 27.5779 142.504 27.4846 142.411C27.3979 142.318 27.3546 142.174 27.3546 141.981Z" fill="#0D2115"/>
<path d="M101.83 143.687C101.577 143.367 101.363 143.014 101.19 142.627C101.023 142.247 100.887 141.857 100.78 141.457C100.673 141.05 100.597 140.644 100.55 140.237C100.503 139.824 100.48 139.43 100.48 139.057C100.48 138.69 100.503 138.304 100.55 137.897C100.597 137.49 100.673 137.084 100.78 136.677C100.887 136.264 101.027 135.86 101.2 135.467C101.38 135.074 101.597 134.707 101.85 134.367L102.3 134.637C102.087 134.977 101.91 135.334 101.77 135.707C101.63 136.08 101.517 136.46 101.43 136.847C101.35 137.227 101.29 137.607 101.25 137.987C101.217 138.36 101.2 138.717 101.2 139.057C101.2 139.377 101.22 139.73 101.26 140.117C101.3 140.497 101.363 140.88 101.45 141.267C101.543 141.654 101.66 142.03 101.8 142.397C101.94 142.764 102.107 143.094 102.3 143.387L101.83 143.687ZM103.274 140.817H104.404V135.947L104.494 135.357L104.154 135.837L103.314 136.517L102.934 136.067L104.754 134.367H105.124V140.817H106.214V141.487H103.274V140.817ZM107.316 143.387C107.509 143.094 107.676 142.764 107.816 142.397C107.956 142.03 108.069 141.654 108.156 141.267C108.249 140.88 108.316 140.497 108.356 140.117C108.396 139.73 108.416 139.377 108.416 139.057C108.416 138.717 108.396 138.36 108.356 137.987C108.323 137.607 108.263 137.227 108.176 136.847C108.096 136.46 107.983 136.08 107.836 135.707C107.696 135.334 107.523 134.977 107.316 134.637L107.766 134.367C108.019 134.707 108.233 135.074 108.406 135.467C108.586 135.86 108.729 136.264 108.836 136.677C108.943 137.084 109.019 137.49 109.066 137.897C109.113 138.304 109.136 138.69 109.136 139.057C109.136 139.43 109.113 139.824 109.066 140.237C109.019 140.644 108.943 141.05 108.836 141.457C108.729 141.857 108.589 142.247 108.416 142.627C108.243 143.014 108.033 143.367 107.786 143.687L107.316 143.387Z" fill="#0D2115"/>
<path d="M16.372 63.6322V62.2042H16.708C16.848 62.2042 17.0207 62.1995 17.226 62.1902C17.4313 62.1808 17.5947 62.1528 17.716 62.1062C17.968 62.0315 18.1827 61.8915 18.36 61.6862C18.5373 61.4808 18.626 61.2148 18.626 60.8882C18.626 60.4308 18.514 60.1135 18.29 59.9362C18.0753 59.7588 17.772 59.6702 17.38 59.6702C17.0627 59.6702 16.764 59.7215 16.484 59.8242C16.2133 59.9175 15.9987 60.0155 15.84 60.1182L15.392 58.5922C15.4853 58.5362 15.616 58.4755 15.784 58.4102C15.952 58.3448 16.1387 58.2842 16.344 58.2282C16.5587 58.1722 16.7827 58.1302 17.016 58.1022C17.2587 58.0648 17.5013 58.0462 17.744 58.0462C18.0987 58.0462 18.4393 58.0835 18.766 58.1582C19.102 58.2235 19.396 58.3495 19.648 58.5362C19.9 58.7135 20.1007 58.9608 20.25 59.2782C20.3993 59.5955 20.474 60.0015 20.474 60.4962C20.474 60.9722 20.3713 61.4155 20.166 61.8262C19.97 62.2368 19.648 62.5402 19.2 62.7362V62.8202C19.6853 62.9508 20.0587 63.2122 20.32 63.6042C20.5907 63.9962 20.726 64.5282 20.726 65.2002C20.726 65.7322 20.6373 66.1895 20.46 66.5722C20.292 66.9548 20.0587 67.2675 19.76 67.5102C19.4707 67.7528 19.1347 67.9302 18.752 68.0422C18.3693 68.1542 17.9727 68.2102 17.562 68.2102C17.058 68.2102 16.596 68.1635 16.176 68.0702C15.756 67.9862 15.42 67.8695 15.168 67.7202L15.63 66.1522C15.8073 66.2548 16.05 66.3528 16.358 66.4462C16.6753 66.5395 17.044 66.5862 17.464 66.5862C17.8467 66.5862 18.178 66.4648 18.458 66.2222C18.738 65.9702 18.878 65.5782 18.878 65.0462C18.878 64.5888 18.7473 64.2482 18.486 64.0242C18.234 63.7908 17.786 63.6648 17.142 63.6462C17.0393 63.6462 16.9693 63.6462 16.932 63.6462C16.8947 63.6368 16.8153 63.6322 16.694 63.6322H16.372ZM21.7 61.4342C21.98 61.2662 22.33 61.1308 22.75 61.0282C23.17 60.9255 23.646 60.8742 24.178 60.8742C24.9713 60.8742 25.522 61.0795 25.83 61.4902C26.1473 61.9008 26.306 62.4842 26.306 63.2402C26.306 63.6788 26.292 64.1128 26.264 64.5422C26.2453 64.9622 26.2313 65.3775 26.222 65.7882C26.2127 66.1895 26.2173 66.5815 26.236 66.9642C26.264 67.3375 26.3293 67.6922 26.432 68.0282H25.074L24.808 67.1742H24.752C24.6027 67.4448 24.3927 67.6688 24.122 67.8462C23.8513 68.0235 23.5107 68.1122 23.1 68.1122C22.5493 68.1122 22.1153 67.9302 21.798 67.5662C21.4807 67.1928 21.322 66.6982 21.322 66.0822C21.322 65.2422 21.6207 64.6448 22.218 64.2902C22.8153 63.9355 23.6227 63.7862 24.64 63.8422C24.6867 63.3008 24.6493 62.9088 24.528 62.6662C24.416 62.4235 24.1687 62.3022 23.786 62.3022C23.506 62.3022 23.2167 62.3348 22.918 62.4002C22.6193 62.4655 22.3533 62.5588 22.12 62.6802L21.7 61.4342ZM23.702 66.6842C23.954 66.6842 24.1593 66.6235 24.318 66.5022C24.4767 66.3715 24.5933 66.2315 24.668 66.0822V64.9202C24.4533 64.8922 24.248 64.8875 24.052 64.9062C23.856 64.9248 23.6833 64.9668 23.534 65.0322C23.3847 65.0975 23.2633 65.1955 23.17 65.3262C23.086 65.4475 23.044 65.6062 23.044 65.8022C23.044 66.0915 23.1 66.3108 23.212 66.4602C23.3333 66.6095 23.4967 66.6842 23.702 66.6842ZM33.3912 69.6102H32.1592L31.9772 68.0142H28.2392L28.0572 69.6102H26.8392V66.4882H27.5112C27.5672 66.3855 27.6419 66.2082 27.7352 65.9562C27.8285 65.6948 27.9172 65.3448 28.0012 64.9062C28.0945 64.4675 28.1739 63.9262 28.2392 63.2822C28.3045 62.6382 28.3372 61.8822 28.3372 61.0142H32.5512V66.4882H33.3912V69.6102ZM30.8852 66.5722V62.4982H29.8212C29.8025 62.8342 29.7745 63.1982 29.7372 63.5902C29.7092 63.9822 29.6672 64.3648 29.6112 64.7382C29.5552 65.1022 29.4899 65.4475 29.4152 65.7742C29.3499 66.1008 29.2705 66.3668 29.1772 66.5722H30.8852ZM37.5574 64.9622L37.6834 63.8282H37.6414L37.1234 65.0182L35.2474 68.0142H34.1274V61.0142H35.7934V64.1922L35.6674 65.2842H35.7094L36.2134 64.1222L38.1034 61.0142H39.2234V68.0142H37.5574V64.9622ZM41.0181 65.1022V63.8562H41.6901C41.9421 63.8562 42.1475 63.7815 42.3061 63.6322C42.4648 63.4828 42.5441 63.3008 42.5441 63.0862C42.5441 62.6195 42.2548 62.3862 41.6761 62.3862C41.3961 62.3862 41.1488 62.4235 40.9341 62.4982C40.7195 62.5728 40.5468 62.6522 40.4161 62.7362L40.0381 61.4062C40.2808 61.2662 40.5981 61.1495 40.9901 61.0562C41.3821 60.9535 41.7881 60.9022 42.2081 60.9022C43.5428 60.9022 44.2101 61.4808 44.2101 62.6382C44.2101 62.9835 44.1355 63.3102 43.9861 63.6182C43.8368 63.9168 43.6128 64.1315 43.3141 64.2622V64.3182C43.7061 64.4302 43.9908 64.6262 44.1681 64.9062C44.3455 65.1862 44.4341 65.5642 44.4341 66.0402C44.4341 66.3388 44.3828 66.6188 44.2801 66.8802C44.1868 67.1322 44.0375 67.3515 43.8321 67.5382C43.6268 67.7248 43.3655 67.8742 43.0481 67.9862C42.7401 68.0982 42.3715 68.1542 41.9421 68.1542C41.5221 68.1542 41.1488 68.1075 40.8221 68.0142C40.5048 67.9302 40.2388 67.8228 40.0241 67.6922L40.3601 66.3342C40.5375 66.4368 40.7428 66.5208 40.9761 66.5862C41.2188 66.6422 41.4755 66.6702 41.7461 66.6702C42.4275 66.6702 42.7681 66.3948 42.7681 65.8442C42.7681 65.6108 42.6795 65.4288 42.5021 65.2982C42.3341 65.1675 42.0168 65.1022 41.5501 65.1022H41.0181ZM45.3933 61.4342C45.6733 61.2662 46.0233 61.1308 46.4433 61.0282C46.8633 60.9255 47.3393 60.8742 47.8713 60.8742C48.6647 60.8742 49.2153 61.0795 49.5233 61.4902C49.8407 61.9008 49.9993 62.4842 49.9993 63.2402C49.9993 63.6788 49.9853 64.1128 49.9573 64.5422C49.9387 64.9622 49.9247 65.3775 49.9153 65.7882C49.906 66.1895 49.9107 66.5815 49.9293 66.9642C49.9573 67.3375 50.0227 67.6922 50.1253 68.0282H48.7673L48.5013 67.1742H48.4453C48.296 67.4448 48.086 67.6688 47.8153 67.8462C47.5447 68.0235 47.204 68.1122 46.7933 68.1122C46.2427 68.1122 45.8087 67.9302 45.4913 67.5662C45.174 67.1928 45.0153 66.6982 45.0153 66.0822C45.0153 65.2422 45.314 64.6448 45.9113 64.2902C46.5087 63.9355 47.316 63.7862 48.3333 63.8422C48.38 63.3008 48.3427 62.9088 48.2213 62.6662C48.1093 62.4235 47.862 62.3022 47.4793 62.3022C47.1993 62.3022 46.91 62.3348 46.6113 62.4002C46.3127 62.4655 46.0467 62.5588 45.8133 62.6802L45.3933 61.4342ZM47.3953 66.6842C47.6473 66.6842 47.8527 66.6235 48.0113 66.5022C48.17 66.3715 48.2867 66.2315 48.3613 66.0822V64.9202C48.1467 64.8922 47.9413 64.8875 47.7453 64.9062C47.5493 64.9248 47.3767 64.9668 47.2273 65.0322C47.078 65.0975 46.9567 65.1955 46.8633 65.3262C46.7793 65.4475 46.7373 65.6062 46.7373 65.8022C46.7373 66.0915 46.7933 66.3108 46.9053 66.4602C47.0267 66.6095 47.19 66.6842 47.3953 66.6842ZM54.5925 64.9622L54.7185 63.8282H54.6765L54.1585 65.0182L52.2825 68.0142H51.1625V61.0142H52.8285V64.1922L52.7025 65.2842H52.7445L53.2485 64.1222L55.1385 61.0142H56.2585V68.0142H54.5925V64.9622ZM53.1645 58.1582C53.1925 58.5128 53.2672 58.7695 53.3885 58.9282C53.5099 59.0868 53.6639 59.1662 53.8505 59.1662C54.0465 59.1662 54.2005 59.0915 54.3125 58.9422C54.4339 58.7835 54.5179 58.5268 54.5645 58.1722L55.8245 58.4802C55.7219 59.1148 55.4839 59.5815 55.1105 59.8802C54.7465 60.1695 54.3125 60.3142 53.8085 60.3142C53.5659 60.3142 53.3279 60.2815 53.0945 60.2162C52.8612 60.1508 52.6512 60.0482 52.4645 59.9082C52.2779 59.7588 52.1192 59.5675 51.9885 59.3342C51.8672 59.1008 51.7879 58.8115 51.7505 58.4662L53.1645 58.1582ZM60.8113 65.2282H59.1313V68.0142H57.4653V61.0142H59.1313V63.7022H60.8113V61.0142H62.4773V68.0142H60.8113V65.2282ZM67.116 64.9622L67.242 63.8282H67.2L66.682 65.0182L64.806 68.0142H63.686V61.0142H65.352V64.1922L65.226 65.2842H65.268L65.772 64.1222L67.662 61.0142H68.782V68.0142H67.116V64.9622ZM73.1807 62.5402H72.1727C72.1354 63.3522 72.0841 64.0988 72.0187 64.7802C71.9534 65.4615 71.8507 66.0495 71.7107 66.5442C71.5707 67.0295 71.3794 67.4122 71.1367 67.6922C70.9034 67.9628 70.5954 68.0982 70.2127 68.0982C69.9794 68.0982 69.7787 68.0795 69.6107 68.0422C69.4427 68.0142 69.2981 67.9628 69.1767 67.8882L69.3727 66.4322C69.5967 66.5068 69.7834 66.5022 69.9327 66.4182C70.0914 66.3342 70.2221 66.1055 70.3247 65.7322C70.4274 65.3495 70.5067 64.7848 70.5627 64.0382C70.6281 63.2915 70.6747 62.2835 70.7027 61.0142H74.8467V68.0142H73.1807V62.5402ZM79.4754 64.9622L79.6014 63.8282H79.5594L79.0414 65.0182L77.1654 68.0142H76.0454V61.0142H77.7114V64.1922L77.5854 65.2842H77.6274L78.1314 64.1222L80.0214 61.0142H81.1414V68.0142H79.4754V64.9622ZM16.218 79.5302H17.814V74.0282L17.996 73.0762L17.422 73.9022L16.498 74.6162L15.728 73.6782L18.43 71.0462H19.41V79.5302H20.978V81.0142H16.218V79.5302ZM22.9035 79.5302H24.4995V74.0282L24.6815 73.0762L24.1075 73.9022L23.1835 74.6162L22.4135 73.6782L25.1155 71.0462H26.0955V79.5302H27.6635V81.0142H22.9035V79.5302ZM36.8282 77.7942L36.9262 76.3522H36.8562L36.4362 77.6542L35.4142 79.7542H34.7842L33.6642 77.6542L33.2302 76.3522H33.1462L33.3282 77.7942V81.0142H31.8442V74.0142H33.5942L34.8682 76.5902L35.1482 77.5282H35.2042L35.4982 76.5622L36.6742 74.0142H38.4102V81.0142H36.8282V77.7942ZM44.3418 80.4962C44.1085 80.7015 43.7911 80.8695 43.3898 81.0002C42.9885 81.1308 42.5685 81.1962 42.1298 81.1962C41.6445 81.1962 41.2245 81.1122 40.8698 80.9442C40.5245 80.7762 40.2398 80.5335 40.0158 80.2162C39.7918 79.8988 39.6238 79.5162 39.5118 79.0682C39.4091 78.6108 39.3578 78.0928 39.3578 77.5142C39.3578 76.2542 39.6051 75.3255 40.0998 74.7282C40.6038 74.1215 41.2991 73.8182 42.1858 73.8182C42.4845 73.8182 42.7738 73.8648 43.0538 73.9582C43.3338 74.0422 43.5811 74.1915 43.7958 74.4062C44.0198 74.6115 44.1971 74.8915 44.3278 75.2462C44.4678 75.5915 44.5378 76.0302 44.5378 76.5622C44.5378 76.7675 44.5238 76.9868 44.4958 77.2202C44.4771 77.4535 44.4445 77.7055 44.3978 77.9762H40.9958C41.0145 78.5548 41.1358 78.9982 41.3598 79.3062C41.5838 79.6142 41.9431 79.7682 42.4378 79.7682C42.7365 79.7682 43.0071 79.7215 43.2498 79.6282C43.5018 79.5348 43.6931 79.4368 43.8238 79.3342L44.3418 80.4962ZM42.1578 75.2462C41.8031 75.2462 41.5371 75.3908 41.3598 75.6802C41.1825 75.9602 41.0798 76.3568 41.0518 76.8702H42.9838C43.0118 76.3382 42.9558 75.9368 42.8158 75.6662C42.6758 75.3862 42.4565 75.2462 42.1578 75.2462ZM45.5981 74.0142H46.8441L47.0121 74.8122H47.0541C47.2688 74.4762 47.5068 74.2335 47.7681 74.0842C48.0388 73.9255 48.3701 73.8462 48.7621 73.8462C49.4714 73.8462 50.0034 74.1168 50.3581 74.6582C50.7221 75.1902 50.9041 76.0815 50.9041 77.3322C50.9041 78.5828 50.6801 79.5442 50.2321 80.2162C49.7841 80.8788 49.1354 81.2102 48.2861 81.2102C48.0621 81.2102 47.8708 81.1915 47.7121 81.1542C47.5534 81.1168 47.4041 81.0562 47.2641 80.9722V83.8142H45.5981V74.0142ZM47.2641 79.4462C47.3574 79.5395 47.4601 79.6095 47.5721 79.6562C47.6934 79.7028 47.8474 79.7262 48.0341 79.7262C48.4074 79.7262 48.6921 79.5442 48.8881 79.1802C49.0841 78.8068 49.1821 78.1768 49.1821 77.2902C49.1821 76.6275 49.1074 76.1375 48.9581 75.8202C48.8088 75.4935 48.5614 75.3302 48.2161 75.3302C47.7494 75.3302 47.4321 75.6055 47.2641 76.1562V79.4462ZM51.6078 77.5142C51.6078 76.2728 51.8505 75.3488 52.3358 74.7422C52.8211 74.1355 53.4978 73.8322 54.3658 73.8322C55.2991 73.8322 55.9945 74.1402 56.4518 74.7562C56.9091 75.3722 57.1378 76.2915 57.1378 77.5142C57.1378 78.7648 56.8951 79.6935 56.4098 80.3002C55.9245 80.8975 55.2431 81.1962 54.3658 81.1962C52.5271 81.1962 51.6078 79.9688 51.6078 77.5142ZM53.3298 77.5142C53.3298 78.2142 53.4091 78.7555 53.5678 79.1382C53.7265 79.5208 53.9925 79.7122 54.3658 79.7122C54.7205 79.7122 54.9818 79.5488 55.1498 79.2222C55.3271 78.8862 55.4158 78.3168 55.4158 77.5142C55.4158 76.7955 55.3365 76.2495 55.1778 75.8762C55.0191 75.5028 54.7485 75.3162 54.3658 75.3162C54.0391 75.3162 53.7825 75.4842 53.5958 75.8202C53.4185 76.1468 53.3298 76.7115 53.3298 77.5142ZM61.3842 75.5402H59.7602V81.0142H58.0942V74.0142H63.0502V81.0142H61.3842V75.5402ZM64.2602 74.0142H65.5062L65.6742 74.8122H65.7162C65.9309 74.4762 66.1689 74.2335 66.4302 74.0842C66.7009 73.9255 67.0322 73.8462 67.4242 73.8462C68.1335 73.8462 68.6655 74.1168 69.0202 74.6582C69.3842 75.1902 69.5662 76.0815 69.5662 77.3322C69.5662 78.5828 69.3422 79.5442 68.8942 80.2162C68.4462 80.8788 67.7975 81.2102 66.9482 81.2102C66.7242 81.2102 66.5329 81.1915 66.3742 81.1542C66.2155 81.1168 66.0662 81.0562 65.9262 80.9722V83.8142H64.2602V74.0142ZM65.9262 79.4462C66.0195 79.5395 66.1222 79.6095 66.2342 79.6562C66.3555 79.7028 66.5095 79.7262 66.6962 79.7262C67.0695 79.7262 67.3542 79.5442 67.5502 79.1802C67.7462 78.8068 67.8442 78.1768 67.8442 77.2902C67.8442 76.6275 67.7695 76.1375 67.6202 75.8202C67.4709 75.4935 67.2235 75.3302 66.8782 75.3302C66.4115 75.3302 66.0942 75.6055 65.9262 76.1562V79.4462ZM73.9519 77.9622L74.0779 76.8282H74.0359L73.5179 78.0182L71.6419 81.0142H70.5219V74.0142H72.1879V77.1922L72.0619 78.2842H72.1039L72.6079 77.1222L74.4979 74.0142H75.6179V81.0142H73.9519V77.9622ZM79.8907 78.3682L79.2607 78.5362L78.2667 81.0142H76.3207L77.3847 78.7602L77.9307 78.3122C77.5573 78.2188 77.254 77.9948 77.0207 77.6402C76.7873 77.2855 76.6707 76.8375 76.6707 76.2962C76.6707 75.4468 76.904 74.8215 77.3707 74.4202C77.8373 74.0188 78.5793 73.8228 79.5967 73.8322C79.9887 73.8322 80.3527 73.8508 80.6887 73.8882C81.034 73.9255 81.3233 73.9722 81.5567 74.0282V81.0142H79.8907V78.3682ZM79.8907 77.4302V75.4142C79.7507 75.3488 79.578 75.3162 79.3727 75.3162C78.7193 75.3162 78.3927 75.6755 78.3927 76.3942C78.3927 77.0848 78.7613 77.4395 79.4987 77.4582L79.8907 77.4302ZM86.9312 75.5402H85.3912V81.0142H83.7252V75.5402H82.1292V74.0142H86.9312V75.5402ZM90.9734 77.9622L91.0994 76.8282H91.0574L90.5394 78.0182L88.6634 81.0142H87.5434V74.0142H89.2094V77.1922L89.0834 78.2842H89.1254L89.6294 77.1222L91.5194 74.0142H92.6394V81.0142H90.9734V77.9622ZM97.2761 77.9622L97.4021 76.8282H97.3601L96.8421 78.0182L94.9661 81.0142H93.8461V74.0142H95.5121V77.1922L95.3861 78.2842H95.4281L95.9321 77.1222L97.8221 74.0142H98.9421V81.0142H97.2761V77.9622ZM95.8481 71.1582C95.8761 71.5128 95.9508 71.7695 96.0721 71.9282C96.1935 72.0868 96.3475 72.1662 96.5341 72.1662C96.7301 72.1662 96.8841 72.0915 96.9961 71.9422C97.1175 71.7835 97.2015 71.5268 97.2481 71.1722L98.5081 71.4802C98.4055 72.1148 98.1675 72.5815 97.7941 72.8802C97.4301 73.1695 96.9961 73.3142 96.4921 73.3142C96.2495 73.3142 96.0115 73.2815 95.7781 73.2162C95.5448 73.1508 95.3348 73.0482 95.1481 72.9082C94.9615 72.7588 94.8028 72.5675 94.6721 72.3342C94.5508 72.1008 94.4715 71.8115 94.4341 71.4662L95.8481 71.1582Z" fill="#0D2115"/>
<path d="M82.8949 52.5269L61.3663 13.7684M61.3663 13.7684C76.4947 16.7411 106.843 19.9914 107.209 9.21159C107.575 -1.56825 76.7996 7.75786 61.3663 13.7684ZM61.3663 13.7684C51.5527 7.70793 30.4096 -2.25755 24.3459 6.36424C18.2822 14.986 46.4996 14.8928 61.3663 13.7684ZM61.3663 13.7684L35.9761 53.3675" stroke="#C855A6" stroke-width="6"/>
</svg>
