<svg width="168" height="99" viewBox="0 0 168 99" fill="none" xmlns="http://www.w3.org/2000/svg">
<path d="M23.8243 81.7239C44.3897 80.5848 60.3358 79.3193 71.6626 77.9272C70.5869 81.2176 69.7643 84.6979 69.1947 88.3681C68.6252 92.0382 68.3405 95.3603 68.3405 98.3344H0.474587L0.379669 96.3411C0.379669 90.1399 2.1831 84.7612 5.78996 80.2052C9.4601 75.6491 14.554 71.4411 21.0717 67.5812C22.97 66.4422 25.9441 64.9868 29.9939 63.215C35.246 60.937 39.2958 58.9437 42.1433 57.2352C44.9908 55.4634 46.4146 53.7232 46.4146 52.0147C46.4146 49.8633 45.5287 48.1548 43.7569 46.8892C41.9851 45.6236 39.2325 44.9908 35.4991 44.9908C31.386 44.9908 28.2537 46.0349 26.1023 48.1231C24.0141 50.2113 22.97 52.869 22.97 56.0962C22.97 57.1086 23.0649 58.1527 23.2548 59.2284C15.2817 58.216 7.53011 57.5199 0 57.1403C0 51.7616 1.39212 46.9208 4.17636 42.6179C7.02388 38.2517 11.2635 34.803 16.8953 32.2719C22.5903 29.7408 29.5509 28.4752 37.7771 28.4752C45.3072 28.4752 51.5718 29.5193 56.5707 31.6075C61.633 33.6324 65.3348 36.2268 67.6761 39.3907C70.0806 42.4913 71.2829 45.6869 71.2829 48.9774C71.2829 52.7741 70.4287 56.0329 68.7202 58.7539C67.0749 61.4748 64.6704 63.911 61.5064 66.0625C58.4058 68.1507 54.2295 70.4287 48.9774 72.8965C48.218 73.2762 46.9841 73.7192 45.2756 74.2254C43.5671 74.6683 42.4913 74.9531 42.0484 75.0796C37.5556 76.4085 33.9804 77.5159 31.3227 78.4017C28.665 79.2876 26.1656 80.395 23.8243 81.7239ZM117.409 80.7747C123.104 80.6481 127.312 80.5216 130.033 80.395V98.3344H79.8218V80.395C86.6558 80.6481 91.813 80.7747 95.2933 80.7747V48.0282C93.0153 53.0272 88.3643 56.2544 81.3405 57.7098C81.1506 50.2429 80.4546 43.4405 79.2523 37.3025C84.3145 36.6065 87.8265 35.7522 89.7881 34.7398C91.813 33.664 93.3633 32.4934 94.439 31.2278C95.5781 29.9623 96.3374 29.108 96.7171 28.6651V28.4752H117.409V80.7747Z" fill="#0D2115"/>
<path d="M61.7912 53.2486C82.3566 52.1096 98.3027 50.8441 109.63 49.4519C108.554 52.7424 107.731 56.2227 107.162 59.8928C106.592 63.563 106.307 66.8851 106.307 69.8592H38.4415L38.3466 67.8659C38.3466 61.6646 40.15 56.286 43.7569 51.73C47.427 47.1739 52.5209 42.9659 59.0386 39.1059C60.9369 37.9669 63.911 36.5115 67.9608 34.7397C73.2129 32.4617 77.2627 30.4685 80.1102 28.76C82.9577 26.9882 84.3815 25.248 84.3815 23.5395C84.3815 21.388 83.4956 19.6795 81.7238 18.414C79.952 17.1484 77.1994 16.5156 73.466 16.5156C69.3529 16.5156 66.2207 17.5597 64.0692 19.6479C61.981 21.7361 60.9369 24.3938 60.9369 27.621C60.9369 28.6334 61.0318 29.6775 61.2217 30.7532C53.2486 29.7408 45.497 29.0447 37.9669 28.665C37.9669 23.2864 39.359 18.4456 42.1433 14.1427C44.9908 9.77649 49.2304 6.32783 54.8622 3.7967C60.5572 1.26557 67.5179 0 75.744 0C83.2741 0 89.5387 1.04409 94.5377 3.13228C99.5999 5.15718 103.302 7.75159 105.643 10.9155C108.048 14.0161 109.25 17.2117 109.25 20.5021C109.25 24.2988 108.396 27.5577 106.687 30.2786C105.042 32.9996 102.637 35.4358 99.4734 37.5873C96.3727 39.6755 92.1964 41.9535 86.9443 44.4213C86.1849 44.801 84.951 45.2439 83.2425 45.7502C81.534 46.1931 80.4583 46.4779 80.0153 46.6044C75.5225 47.9333 71.9473 49.0406 69.2896 49.9265C66.632 50.8124 64.1325 51.9198 61.7912 53.2486ZM155.376 52.2995C161.071 52.1729 165.279 52.0463 168 51.9198V69.8592H117.789V51.9198C124.623 52.1729 129.78 52.2995 133.26 52.2995V19.553C130.982 24.552 126.331 27.7791 119.307 29.2345C119.118 21.7677 118.421 14.9653 117.219 8.82732C122.281 8.13126 125.793 7.277 127.755 6.26455C129.78 5.18882 131.33 4.01817 132.406 2.75261C133.545 1.48704 134.304 0.632784 134.684 0.189838V0H155.376V52.2995Z" fill="#07150C"/>
<path d="M72.407 77.3688C61.0802 78.7609 45.1341 80.0265 24.5687 81.1655C26.91 79.8367 29.4095 78.7293 32.0672 77.8434C34.7249 76.9575 38.3001 75.8501 42.7928 74.5213C43.2358 74.3947 44.3115 74.11 46.02 73.667C47.7285 73.1608 48.9625 72.7179 49.7218 72.3382C54.9739 69.8703 59.1503 67.5923 62.2509 65.5041C65.4148 63.3527 67.8194 60.9165 69.4646 58.1955C71.1731 55.4745 72.0274 52.2157 72.0274 48.419C72.0274 45.1285 70.8251 41.933 68.4205 38.8324C66.0792 35.6685 62.3774 33.0741 57.3152 31.0491C52.3162 28.961 46.0517 27.9169 38.5216 27.9169C30.2954 27.9169 23.3348 29.1824 17.6397 31.7136C12.008 34.2447 7.76833 37.6934 4.92081 42.0596C2.13657 46.3625 0.744446 51.2033 0.744446 56.5819C8.27456 56.9616 16.0261 57.6576 23.9992 58.6701C23.8094 57.5944 23.7144 56.5503 23.7144 55.5378C23.7144 52.3106 24.7585 49.6529 26.8467 47.5648C28.9982 45.4766 32.1305 44.4325 36.2435 44.4325C39.977 44.4325 42.7296 45.0653 44.5013 46.3308C46.2731 47.5964 47.159 49.3049 47.159 51.4564C47.159 53.1649 45.7353 54.905 42.8877 56.6768C40.0402 58.3853 35.9904 60.3786 30.7383 62.6566C26.6885 64.4284 23.7144 65.8838 21.8161 67.0228C15.2984 70.8828 10.2045 75.0908 6.5344 79.6468C2.92755 84.2029 1.12412 89.5815 1.12412 95.7828L1.21903 97.776H69.0849C69.0849 94.802 69.3697 91.4799 69.9392 87.8097C70.5087 84.1396 71.3313 80.6593 72.407 77.3688Z" fill="#0D2115"/>
<path d="M130.778 79.8367C128.057 79.9632 123.849 80.0898 118.154 80.2163V27.9169H97.4615V28.1067C97.0818 28.5497 96.3225 29.4039 95.1835 30.6695C94.1078 31.935 92.5574 33.1057 90.5325 34.1814C88.5709 35.1939 85.059 36.0481 79.9967 36.7442C81.199 42.8822 81.8951 49.6846 82.0849 57.1514C89.1088 55.696 93.7597 52.4688 96.0378 47.4698V80.2163C92.5574 80.2163 87.4003 80.0898 80.5662 79.8367V97.776H130.778V79.8367Z" fill="#0D2115"/>
<path d="M73.1515 76.8103C61.8247 78.2025 45.8786 79.468 25.3131 80.607C27.6544 79.2782 30.1539 78.1708 32.8116 77.2849C35.4693 76.399 39.0445 75.2917 43.5373 73.9628C43.9802 73.8363 45.056 73.5515 46.7645 73.1086C48.473 72.6023 49.7069 72.1594 50.4662 71.7797C55.7183 69.3119 59.8947 67.0339 62.9953 64.9457C66.1592 62.7942 68.5638 60.358 70.2091 57.637C71.9176 54.9161 72.7718 51.6572 72.7718 47.8605C72.7718 44.5701 71.5695 41.3745 69.165 38.2739C66.8237 35.11 63.1219 32.5156 58.0596 30.4907C53.0607 28.4025 46.7961 27.3584 39.266 27.3584C31.0398 27.3584 24.0792 28.624 18.3842 31.1551C12.7524 33.6862 8.51278 37.1349 5.66526 41.5011C2.88101 45.804 1.48889 50.6448 1.48889 56.0234C9.019 56.4031 16.7706 57.0992 24.7436 58.1116C24.5538 57.0359 24.4589 55.9918 24.4589 54.9793C24.4589 51.7522 25.503 49.0945 27.5912 47.0063C29.7426 44.9181 32.8749 43.874 36.988 43.874C40.7214 43.874 43.474 44.5068 45.2458 45.7724C47.0176 47.0379 47.9035 48.7464 47.9035 50.8979C47.9035 52.6064 46.4797 54.3466 43.6322 56.1184C40.7847 57.8269 36.7349 59.8201 31.4828 62.0981C27.433 63.8699 24.4589 65.3253 22.5605 66.4643C16.0429 70.3243 10.949 74.5323 7.27885 79.0884C3.67199 83.6444 1.86856 89.023 1.86856 95.2243L1.96348 97.2176H69.8294C69.8294 94.2435 70.1141 90.9214 70.6836 87.2512C71.2531 83.5811 72.0758 80.1008 73.1515 76.8103Z" fill="#0D2115"/>
<path d="M131.522 79.2782C128.801 79.4047 124.593 79.5313 118.898 79.6579V27.3584H98.206V27.5482C97.8263 27.9912 97.0669 28.8454 95.9279 30.111C94.8522 31.3766 93.3019 32.5472 91.277 33.6229C89.3154 34.6354 85.8034 35.4897 80.7412 36.1857C81.9435 42.3237 82.6395 49.1261 82.8294 56.5929C89.8532 55.1375 94.5042 51.9104 96.7822 46.9114V79.6579C93.3019 79.6579 88.1447 79.5313 81.3107 79.2782V97.2176H131.522V79.2782Z" fill="#0D2115"/>
<path d="M73.8959 76.2521C62.5691 77.6442 46.623 78.9098 26.0576 80.0488C28.3989 78.72 30.8984 77.6126 33.5561 76.7267C36.2137 75.8408 39.789 74.7334 44.2817 73.4046C44.7247 73.278 45.8004 72.9933 47.5089 72.5503C49.2174 72.0441 50.4514 71.6012 51.2107 71.2215C56.4628 68.7536 60.6391 66.4756 63.7398 64.3874C66.9037 62.236 69.3083 59.7998 70.9535 57.0788C72.662 54.3578 73.5163 51.099 73.5163 47.3023C73.5163 44.0119 72.314 40.8163 69.9094 37.7157C67.5681 34.5518 63.8663 31.9574 58.8041 29.9324C53.8051 27.8443 47.5406 26.8002 40.0104 26.8002C31.7843 26.8002 24.8237 28.0657 19.1286 30.5969C13.4969 33.128 9.25722 36.5767 6.4097 40.9429C3.62546 45.2458 2.23334 50.0866 2.23334 55.4652C9.76345 55.8449 17.515 56.5409 25.4881 57.5534C25.2983 56.4777 25.2033 55.4336 25.2033 54.4211C25.2033 51.1939 26.2474 48.5362 28.3356 46.4481C30.4871 44.3599 33.6193 43.3158 37.7324 43.3158C41.4658 43.3158 44.2184 43.9486 45.9902 45.2141C47.762 46.4797 48.6479 48.1882 48.6479 50.3397C48.6479 52.0482 47.2242 53.7883 44.3766 55.5601C41.5291 57.2686 37.4793 59.2619 32.2272 61.5399C28.1774 63.3117 25.2033 64.7671 23.305 65.9061C16.7873 69.7661 11.6934 73.9741 8.0233 78.5301C4.41644 83.0862 2.61301 88.4648 2.61301 94.6661L2.70792 96.6593H70.5738C70.5738 93.6853 70.8586 90.3632 71.4281 86.693C71.9976 83.0229 72.8202 79.5426 73.8959 76.2521Z" fill="#0D2014"/>
<path d="M132.266 78.72C129.545 78.8465 125.337 78.9731 119.642 79.0996V26.8002H98.9504V26.99C98.5707 27.433 97.8114 28.2872 96.6724 29.5528C95.5967 30.8183 94.0463 31.989 92.0214 33.0647C90.0598 34.0772 86.5479 34.9314 81.4856 35.6275C82.6879 41.7655 83.384 48.5679 83.5738 56.0347C90.5977 54.5793 95.2486 51.3521 97.5266 46.3531V79.0996C94.0463 79.0996 88.8892 78.9731 82.0551 78.72V96.6593H132.266V78.72Z" fill="#0D2014"/>
<path d="M74.6404 75.6939C63.3136 77.086 47.3675 78.3516 26.802 79.4906C29.1433 78.1617 31.6428 77.0544 34.3005 76.1685C36.9582 75.2826 40.5334 74.1752 45.0262 72.8464C45.4691 72.7198 46.5448 72.4351 48.2534 71.9921C49.9619 71.4859 51.1958 71.0429 51.9551 70.6633C57.2072 68.1954 61.3836 65.9174 64.4842 63.8292C67.6481 61.6778 70.0527 59.2415 71.6979 56.5206C73.4065 53.7996 74.2607 50.5408 74.2607 46.7441C74.2607 43.4536 73.0584 40.2581 70.6539 37.1574C68.3126 33.9935 64.6108 31.3991 59.5485 29.3742C54.5495 27.286 48.285 26.2419 40.7549 26.2419C32.5287 26.2419 25.5681 27.5075 19.8731 30.0386C14.2413 32.5698 10.0017 36.0184 7.15415 40.3846C4.3699 44.6875 2.97778 49.5283 2.97778 54.907C10.5079 55.2867 18.2595 55.9827 26.2325 56.9952C26.0427 55.9194 25.9478 54.8753 25.9478 53.8629C25.9478 50.6357 26.9919 47.978 29.0801 45.8898C31.2315 43.8017 34.3638 42.7576 38.4769 42.7576C42.2103 42.7576 44.9629 43.3903 46.7347 44.6559C48.5065 45.9215 49.3924 47.63 49.3924 49.7814C49.3924 51.49 47.9686 53.2301 45.1211 55.0019C42.2736 56.7104 38.2238 58.7037 32.9717 60.9817C28.9219 62.7535 25.9478 64.2089 24.0494 65.3479C17.5318 69.2079 12.4379 73.4159 8.76774 77.9719C5.16088 82.5279 3.35745 87.9066 3.35745 94.1078L3.45237 96.1011H71.3183C71.3183 93.127 71.603 89.8049 72.1725 86.1348C72.742 82.4647 73.5647 78.9844 74.6404 75.6939Z" fill="#0D2014"/>
<path d="M133.011 78.1617C130.29 78.2883 126.082 78.4148 120.387 78.5414V26.2419H99.6949V26.4318C99.3152 26.8747 98.5558 27.729 97.4168 28.9946C96.3411 30.2601 94.7908 31.4308 92.7659 32.5065C90.8043 33.5189 87.2923 34.3732 82.2301 35.0693C83.4324 41.2072 84.1284 48.0097 84.3182 55.4765C91.3421 54.0211 95.9931 50.7939 98.2711 45.7949V78.5414C94.7908 78.5414 89.6336 78.4148 82.7996 78.1617V96.1011H133.011V78.1617Z" fill="#0D2014"/>
<path d="M75.3848 75.1355C64.058 76.5277 48.1119 77.7932 27.5464 78.9322C29.8877 77.6034 32.3872 76.496 35.0449 75.6101C37.7026 74.7242 41.2778 73.6169 45.7706 72.288C46.2135 72.1615 47.2892 71.8767 48.9977 71.4338C50.7063 70.9275 51.9402 70.4846 52.6995 70.1049C57.9516 67.6371 62.128 65.359 65.2286 63.2709C68.3925 61.1194 70.7971 58.6832 72.4423 55.9622C74.1508 53.2413 75.0051 49.9824 75.0051 46.1857C75.0051 42.8953 73.8028 39.6997 71.3982 36.5991C69.0569 33.4352 65.3552 30.8408 60.2929 28.8159C55.2939 26.7277 49.0294 25.6836 41.4993 25.6836C33.2731 25.6836 26.3125 26.9492 20.6175 29.4803C14.9857 32.0114 10.7461 35.4601 7.89853 39.8263C5.11429 44.1292 3.72217 48.97 3.72217 54.3486C11.2523 54.7283 19.0039 55.4244 26.9769 56.4368C26.7871 55.3611 26.6922 54.317 26.6922 53.3045C26.6922 50.0774 27.7363 47.4197 29.8244 45.3315C31.9759 43.2433 35.1082 42.1992 39.2213 42.1992C42.9547 42.1992 45.7073 42.832 47.4791 44.0976C49.2509 45.3631 50.1368 47.0716 50.1368 49.2231C50.1368 50.9316 48.713 52.6718 45.8655 54.4436C43.018 56.1521 38.9681 58.1453 33.7161 60.4233C29.6662 62.1951 26.6922 63.6505 24.7938 64.7895C18.2762 68.6495 13.1823 72.8575 9.51213 77.4136C5.90527 81.9696 4.10184 87.3482 4.10184 93.5495L4.19675 95.5428H72.0627C72.0627 92.5687 72.3474 89.2466 72.9169 85.5764C73.4864 81.9063 74.309 78.426 75.3848 75.1355Z" fill="#0C2014"/>
<path d="M133.755 77.6034C131.034 77.7299 126.826 77.8565 121.131 77.9831V25.6836H100.439V25.8734C100.06 26.3164 99.3002 27.1706 98.1612 28.4362C97.0855 29.7018 95.5352 30.8724 93.5103 31.9481C91.5486 32.9606 88.0367 33.8148 82.9744 34.5109C84.1767 40.6489 84.8728 47.4513 85.0626 54.9181C92.0865 53.4627 96.7375 50.2355 99.0155 45.2366V77.9831C95.5352 77.9831 90.378 77.8565 83.544 77.6034V95.5428H133.755V77.6034Z" fill="#0C2014"/>
<path d="M76.1292 74.5771C64.8024 75.9692 48.8563 77.2347 28.2909 78.3738C30.6322 77.0449 33.1317 75.9375 35.7893 75.0516C38.447 74.1658 42.0222 73.0584 46.515 71.7295C46.9579 71.603 48.0337 71.3182 49.7422 70.8753C51.4507 70.3691 52.6846 69.9261 53.444 69.5464C58.6961 67.0786 62.8724 64.8006 65.9731 62.7124C69.137 60.5609 71.5415 58.1247 73.1868 55.4038C74.8953 52.6828 75.7495 49.424 75.7495 45.6273C75.7495 42.3368 74.5473 39.1413 72.1427 36.0406C69.8014 32.8767 66.0996 30.2823 61.0374 28.2574C56.0384 26.1692 49.7738 25.1251 42.2437 25.1251C34.0175 25.1251 27.0569 26.3907 21.3619 28.9218C15.7301 31.4529 11.4905 34.9016 8.64298 39.2678C5.85873 43.5707 4.46661 48.4115 4.46661 53.7902C11.9967 54.1698 19.7483 54.8659 27.7214 55.8783C27.5315 54.8026 27.4366 53.7585 27.4366 52.7461C27.4366 49.5189 28.4807 46.8612 30.5689 44.773C32.7203 42.6848 35.8526 41.6407 39.9657 41.6407C43.6991 41.6407 46.4517 42.2735 48.2235 43.5391C49.9953 44.8047 50.8812 46.5132 50.8812 48.6646C50.8812 50.3731 49.4574 52.1133 46.6099 53.8851C43.7624 55.5936 39.7126 57.5869 34.4605 59.8649C30.4107 61.6367 27.4366 63.0921 25.5383 64.2311C19.0206 68.091 13.9267 72.299 10.2566 76.8551C6.64971 81.4111 4.84628 86.7898 4.84628 92.991L4.9412 94.9843H72.8071C72.8071 92.0102 73.0919 88.6881 73.6614 85.018C74.2309 81.3478 75.0535 77.8675 76.1292 74.5771Z" fill="#0C2014"/>
<path d="M134.5 77.0449C131.779 77.1715 127.571 77.298 121.876 77.4246V25.1251H101.184V25.315C100.804 25.7579 100.045 26.6122 98.9057 27.8777C97.8299 29.1433 96.2796 30.3139 94.2547 31.3897C92.2931 32.4021 88.7812 33.2564 83.7189 33.9524C84.9212 40.0904 85.6172 46.8928 85.8071 54.3597C92.831 52.9043 97.4819 49.6771 99.7599 44.6781V77.4246C96.2796 77.4246 91.1224 77.298 84.2884 77.0449V94.9843H134.5V77.0449Z" fill="#0C2014"/>
<path d="M76.8737 74.0188C65.5469 75.411 49.6007 76.6765 29.0353 77.8155C31.3766 76.4867 33.8761 75.3793 36.5338 74.4934C39.1915 73.6075 42.7667 72.5002 47.2594 71.1713C47.7024 71.0448 48.7781 70.76 50.4866 70.3171C52.1951 69.8108 53.4291 69.3679 54.1884 68.9882C59.4405 66.5204 63.6169 64.2423 66.7175 62.1542C69.8814 60.0027 72.286 57.5665 73.9312 54.8455C75.6397 52.1246 76.494 48.8657 76.494 45.069C76.494 41.7786 75.2917 38.583 72.8871 35.4824C70.5458 32.3185 66.8441 29.7241 61.7818 27.6992C56.7828 25.611 50.5183 24.5669 42.9882 24.5669C34.762 24.5669 27.8014 25.8325 22.1063 28.3636C16.4746 30.8947 12.2349 34.3434 9.38742 38.7096C6.60318 43.0125 5.21106 47.8533 5.21106 53.2319C12.7412 53.6116 20.4928 54.3077 28.4658 55.3201C28.276 54.2444 28.1811 53.2003 28.1811 52.1878C28.1811 48.9607 29.2251 46.303 31.3133 44.2148C33.4648 42.1266 36.5971 41.0825 40.7102 41.0825C44.4436 41.0825 47.1962 41.7153 48.968 42.9809C50.7397 44.2464 51.6256 45.9549 51.6256 48.1064C51.6256 49.8149 50.2019 51.5551 47.3544 53.3269C44.5068 55.0354 40.457 57.0286 35.2049 59.3066C31.1551 61.0784 28.1811 62.5338 26.2827 63.6728C19.7651 67.5328 14.6712 71.7408 11.001 76.2969C7.39416 80.8529 5.59073 86.2315 5.59073 92.4328L5.68565 94.4261H73.5516C73.5516 91.452 73.8363 88.1299 74.4058 84.4597C74.9753 80.7896 75.7979 77.3093 76.8737 74.0188Z" fill="#0C1F14"/>
<path d="M135.244 76.4867C132.523 76.6132 128.315 76.7398 122.62 76.8664V24.5669H101.928V24.7567C101.548 25.1997 100.789 26.0539 99.6501 27.3195C98.5744 28.5851 97.0241 29.7557 94.9992 30.8314C93.0375 31.8439 89.5256 32.6981 84.4633 33.3942C85.6656 39.5322 86.3617 46.3346 86.5515 53.8014C93.5754 52.346 98.2263 49.1188 100.504 44.1199V76.8664C97.0241 76.8664 91.8669 76.7398 85.0328 76.4867V94.4261H135.244V76.4867Z" fill="#0C1F14"/>
<path d="M77.6181 73.4605C66.2913 74.8526 50.3452 76.1182 29.7798 77.2572C32.1211 75.9283 34.6205 74.821 37.2782 73.9351C39.9359 73.0492 43.5111 71.9418 48.0039 70.613C48.4468 70.4864 49.5226 70.2017 51.2311 69.7587C52.9396 69.2525 54.1735 68.8095 54.9329 68.4299C60.185 65.962 64.3613 63.684 67.4619 61.5958C70.6259 59.4444 73.0304 57.0081 74.6757 54.2872C76.3842 51.5662 77.2384 48.3074 77.2384 44.5107C77.2384 41.2202 76.0361 38.0247 73.6316 34.924C71.2903 31.7601 67.5885 29.1657 62.5262 27.1408C57.5273 25.0526 51.2627 24.0085 43.7326 24.0085C35.5064 24.0085 28.5458 25.2741 22.8508 27.8052C17.219 30.3364 12.9794 33.785 10.1319 38.1512C7.34763 42.4541 5.95551 47.2949 5.95551 52.6736C13.4856 53.0533 21.2372 53.7493 29.2103 54.7618C29.0204 53.686 28.9255 52.6419 28.9255 51.6295C28.9255 48.4023 29.9696 45.7446 32.0578 43.6564C34.2092 41.5683 37.3415 40.5242 41.4546 40.5242C45.188 40.5242 47.9406 41.1569 49.7124 42.4225C51.4842 43.6881 52.3701 45.3966 52.3701 47.548C52.3701 49.2566 50.9463 50.9967 48.0988 52.7685C45.2513 54.477 41.2015 56.4703 35.9494 58.7483C31.8996 60.5201 28.9255 61.9755 27.0272 63.1145C20.5095 66.9745 15.4156 71.1825 11.7455 75.7385C8.1386 80.2945 6.33517 85.6732 6.33517 91.8745L6.43009 93.8677H74.296C74.296 90.8936 74.5807 87.5715 75.1503 83.9014C75.7198 80.2313 76.5424 76.751 77.6181 73.4605Z" fill="#0C1F14"/>
<path d="M135.989 75.9283C133.268 76.0549 129.06 76.1814 123.365 76.308V24.0085H102.673V24.1984C102.293 24.6413 101.534 25.4956 100.395 26.7612C99.3188 28.0267 97.7685 29.1974 95.7436 30.2731C93.782 31.2855 90.27 32.1398 85.2078 32.8359C86.4101 38.9739 87.1061 45.7763 87.296 53.2431C94.3198 51.7877 98.9708 48.5605 101.249 43.5615V76.308C97.7685 76.308 92.6113 76.1814 85.7773 75.9283V93.8677H135.989V75.9283Z" fill="#0C1F14"/>
<path d="M78.3627 72.902C67.0359 74.2941 51.0898 75.5597 30.5244 76.6987C32.8657 75.3699 35.3652 74.2625 38.0229 73.3766C40.6805 72.4907 44.2558 71.3833 48.7485 70.0545C49.1915 69.9279 50.2672 69.6432 51.9757 69.2002C53.6842 68.694 54.9181 68.2511 55.6775 67.8714C60.9296 65.4035 65.1059 63.1255 68.2066 61.0373C71.3705 58.8859 73.7751 56.4497 75.4203 53.7287C77.1288 51.0077 77.9831 47.7489 77.9831 43.9522C77.9831 40.6618 76.7808 37.4662 74.3762 34.3656C72.0349 31.2017 68.3331 28.6073 63.2709 26.5824C58.2719 24.4942 52.0074 23.4501 44.4772 23.4501C36.2511 23.4501 29.2905 24.7156 23.5954 27.2468C17.9637 29.7779 13.724 33.2266 10.8765 37.5928C8.09226 41.8957 6.70013 46.7365 6.70013 52.1151C14.2302 52.4948 21.9818 53.1908 29.9549 54.2033C29.7651 53.1276 29.6701 52.0835 29.6701 51.071C29.6701 47.8438 30.7142 45.1861 32.8024 43.098C34.9539 41.0098 38.0861 39.9657 42.1992 39.9657C45.9326 39.9657 48.6852 40.5985 50.457 41.864C52.2288 43.1296 53.1147 44.8381 53.1147 46.9896C53.1147 48.6981 51.691 50.4382 48.8434 52.21C45.9959 53.9185 41.9461 55.9118 36.694 58.1898C32.6442 59.9616 29.6701 61.417 27.7718 62.556C21.2541 66.416 16.1602 70.624 12.4901 75.18C8.88323 79.7361 7.0798 85.1147 7.0798 91.316L7.17472 93.3092H75.0406C75.0406 90.3352 75.3254 87.0131 75.8949 83.3429C76.4644 79.6728 77.287 76.1925 78.3627 72.902Z" fill="#0C1F13"/>
<path d="M136.733 75.3699C134.012 75.4964 129.804 75.623 124.109 75.7495V23.4501H103.417V23.6399C103.038 24.0829 102.278 24.9371 101.139 26.2027C100.063 27.4682 98.5131 28.6389 96.4882 29.7146C94.5266 30.7271 91.0147 31.5813 85.9524 32.2774C87.1547 38.4154 87.8508 45.2178 88.0406 52.6846C95.0645 51.2292 99.7154 48.002 101.993 43.003V75.7495C98.5131 75.7495 93.356 75.623 86.5219 75.3699V93.3092H136.733V75.3699Z" fill="#0C1F13"/>
<path d="M79.1072 72.3438C67.7804 73.7359 51.8343 75.0015 31.2688 76.1405C33.6101 74.8116 36.1096 73.7043 38.7673 72.8184C41.425 71.9325 45.0002 70.8251 49.493 69.4963C49.9359 69.3697 51.0116 69.085 52.7202 68.642C54.4287 68.1358 55.6626 67.6928 56.4219 67.3132C61.674 64.8453 65.8504 62.5673 68.951 60.4791C72.1149 58.3277 74.5195 55.8914 76.1647 53.1705C77.8733 50.4495 78.7275 47.1907 78.7275 43.394C78.7275 40.1035 77.5252 36.908 75.1207 33.8073C72.7794 30.6434 69.0776 28.049 64.0153 26.0241C59.0163 23.9359 52.7518 22.8918 45.2217 22.8918C36.9955 22.8918 30.0349 24.1574 24.3399 26.6885C18.7081 29.2197 14.4685 32.6683 11.6209 37.0345C8.8367 41.3375 7.44458 46.1782 7.44458 51.5569C14.9747 51.9366 22.7263 52.6326 30.6993 53.6451C30.5095 52.5693 30.4146 51.5252 30.4146 50.5128C30.4146 47.2856 31.4587 44.6279 33.5469 42.5397C35.6983 40.4516 38.8306 39.4075 42.9437 39.4075C46.6771 39.4075 49.4297 40.0402 51.2015 41.3058C52.9733 42.5714 53.8592 44.2799 53.8592 46.4313C53.8592 48.1399 52.4354 49.88 49.5879 51.6518C46.7404 53.3603 42.6906 55.3536 37.4385 57.6316C33.3887 59.4034 30.4146 60.8588 28.5162 61.9978C21.9986 65.8578 16.9047 70.0658 13.2345 74.6218C9.62768 79.1778 7.82425 84.5565 7.82425 90.7578L7.91917 92.751H75.7851C75.7851 89.7769 76.0698 86.4548 76.6393 82.7847C77.2088 79.1146 78.0314 75.6343 79.1072 72.3438Z" fill="#0C1F13"/>
<path d="M137.478 74.8116C134.757 74.9382 130.549 75.0648 124.854 75.1913V22.8918H104.162V23.0817C103.782 23.5246 103.023 24.3789 101.884 25.6445C100.808 26.91 99.2576 28.0807 97.2327 29.1564C95.2711 30.1688 91.7591 31.0231 86.6969 31.7192C87.8991 37.8572 88.5952 44.6596 88.785 52.1264C95.8089 50.671 100.46 47.4438 102.738 42.4448V75.1913C99.2576 75.1913 94.1004 75.0648 87.2664 74.8116V92.751H137.478V74.8116Z" fill="#0C1F13"/>
<path d="M79.8516 71.7854C68.5248 73.1776 52.5787 74.4431 32.0133 75.5821C34.3546 74.2533 36.8541 73.1459 39.5117 72.26C42.1694 71.3741 45.7447 70.2668 50.2374 68.9379C50.6804 68.8114 51.7561 68.5266 53.4646 68.0837C55.1731 67.5774 56.407 67.1345 57.1664 66.7548C62.4185 64.287 66.5948 62.0089 69.6955 59.9208C72.8594 57.7693 75.264 55.3331 76.9092 52.6121C78.6177 49.8912 79.472 46.6323 79.472 42.8356C79.472 39.5452 78.2697 36.3496 75.8651 33.249C73.5238 30.0851 69.822 27.4907 64.7598 25.4658C59.7608 23.3776 53.4962 22.3335 45.9661 22.3335C37.74 22.3335 30.7794 23.5991 25.0843 26.1302C19.4526 28.6613 15.2129 32.11 12.3654 36.4762C9.58115 40.7791 8.18903 45.6199 8.18903 50.9985C15.7191 51.3782 23.4707 52.0743 31.4438 53.0867C31.2539 52.011 31.159 50.9669 31.159 49.9544C31.159 46.7273 32.2031 44.0696 34.2913 41.9814C36.4428 39.8932 39.575 38.8491 43.6881 38.8491C47.4215 38.8491 50.1741 39.4819 51.9459 40.7475C53.7177 42.013 54.6036 43.7215 54.6036 45.873C54.6036 47.5815 53.1799 49.3217 50.3323 51.0935C47.4848 52.802 43.435 54.7952 38.1829 57.0732C34.1331 58.845 31.159 60.3004 29.2607 61.4394C22.743 65.2994 17.6491 69.5074 13.979 74.0635C10.3721 78.6195 8.5687 83.9981 8.5687 90.1994L8.66361 92.1927H76.5295C76.5295 89.2186 76.8143 85.8965 77.3838 82.2263C77.9533 78.5562 78.7759 75.0759 79.8516 71.7854Z" fill="#0C1E13"/>
<path d="M138.222 74.2533C135.501 74.3798 131.293 74.5064 125.598 74.633V22.3335H104.906V22.5233C104.526 22.9663 103.767 23.8205 102.628 25.0861C101.552 26.3517 100.002 27.5223 97.9771 28.598C96.0155 29.6105 92.5036 30.4648 87.4413 31.1608C88.6436 37.2988 89.3397 44.1012 89.5295 51.568C96.5534 50.1126 101.204 46.8855 103.482 41.8865V74.633C100.002 74.633 94.8449 74.5064 88.0108 74.2533V92.1927H138.222V74.2533Z" fill="#0C1E13"/>
<path d="M80.5961 71.227C69.2693 72.6191 53.3232 73.8847 32.7577 75.0237C35.099 73.6948 37.5985 72.5874 40.2562 71.7015C42.9139 70.8157 46.4891 69.7083 50.9819 68.3794C51.4248 68.2529 52.5005 67.9681 54.209 67.5252C55.9176 67.019 57.1515 66.576 57.9108 66.1963C63.1629 63.7285 67.3393 61.4505 70.4399 59.3623C73.6038 57.2108 76.0084 54.7746 77.6536 52.0537C79.3621 49.3327 80.2164 46.0739 80.2164 42.2772C80.2164 38.9867 79.0141 35.7912 76.6095 32.6905C74.2682 29.5266 70.5665 26.9322 65.5042 24.9073C60.5052 22.8191 54.2407 21.775 46.7106 21.775C38.4844 21.775 31.5238 23.0406 25.8288 25.5717C20.197 28.1029 15.9574 31.5515 13.1098 35.9177C10.3256 40.2206 8.93347 45.0614 8.93347 50.4401C16.4636 50.8197 24.2152 51.5158 32.1882 52.5282C31.9984 51.4525 31.9035 50.4084 31.9035 49.396C31.9035 46.1688 32.9476 43.5111 35.0357 41.4229C37.1872 39.3347 40.3195 38.2906 44.4326 38.2906C48.166 38.2906 50.9186 38.9234 52.6904 40.189C54.4622 41.4546 55.3481 43.1631 55.3481 45.3145C55.3481 47.023 53.9243 48.7632 51.0768 50.535C48.2293 52.2435 44.1794 54.2368 38.9274 56.5148C34.8776 58.2866 31.9035 59.742 30.0051 60.881C23.4875 64.7409 18.3936 68.949 14.7234 73.505C11.1166 78.061 9.31314 83.4397 9.31314 89.6409L9.40806 91.6342H77.274C77.274 88.6601 77.5587 85.338 78.1282 81.6679C78.6977 77.9977 79.5203 74.5174 80.5961 71.227Z" fill="#0C1E13"/>
<path d="M138.967 73.6948C136.246 73.8214 132.038 73.9479 126.343 74.0745V21.775H105.651V21.9649C105.271 22.4078 104.512 23.2621 103.373 24.5276C102.297 25.7932 100.746 26.9638 98.7216 28.0396C96.7599 29.052 93.248 29.9063 88.1858 30.6023C89.388 36.7403 90.0841 43.5427 90.2739 51.0096C97.2978 49.5542 101.949 46.327 104.227 41.328V74.0745C100.746 74.0745 95.5893 73.9479 88.7553 73.6948V91.6342H138.967V73.6948Z" fill="#0C1E13"/>
<path d="M81.3405 70.6687C70.0137 72.0609 54.0676 73.3264 33.5022 74.4654C35.8435 73.1366 38.343 72.0292 41.0006 71.1433C43.6583 70.2574 47.2335 69.1501 51.7263 67.8212C52.1693 67.6947 53.245 67.4099 54.9535 66.967C56.662 66.4607 57.8959 66.0178 58.6553 65.6381C63.9074 63.1703 68.0837 60.8923 71.1844 58.8041C74.3483 56.6526 76.7528 54.2164 78.3981 51.4954C80.1066 48.7745 80.9608 45.5156 80.9608 41.7189C80.9608 38.4285 79.7586 35.2329 77.354 32.1323C75.0127 28.9684 71.3109 26.374 66.2487 24.3491C61.2497 22.2609 54.9851 21.2168 47.455 21.2168C39.2289 21.2168 32.2682 22.4824 26.5732 25.0135C20.9414 27.5446 16.7018 30.9933 13.8543 35.3595C11.07 39.6624 9.67792 44.5032 9.67792 49.8818C17.208 50.2615 24.9596 50.9576 32.9327 51.97C32.7428 50.8943 32.6479 49.8502 32.6479 48.8377C32.6479 45.6106 33.692 42.9529 35.7802 40.8647C37.9317 38.7765 41.0639 37.7324 45.177 37.7324C48.9104 37.7324 51.663 38.3652 53.4348 39.6308C55.2066 40.8963 56.0925 42.6048 56.0925 44.7563C56.0925 46.4648 54.6687 48.205 51.8212 49.9768C48.9737 51.6853 44.9239 53.6785 39.6718 55.9565C35.622 57.7283 32.6479 59.1837 30.7496 60.3227C24.2319 64.1827 19.138 68.3907 15.4679 72.9468C11.861 77.5028 10.0576 82.8814 10.0576 89.0827L10.1525 91.076H78.0184C78.0184 88.1019 78.3032 84.7798 78.8727 81.1096C79.4422 77.4395 80.2648 73.9592 81.3405 70.6687Z" fill="#0B1E13"/>
<path d="M139.711 73.1366C136.99 73.2631 132.782 73.3897 127.087 73.5163V21.2168H106.395V21.4066C106.015 21.8496 105.256 22.7038 104.117 23.9694C103.041 25.235 101.491 26.4056 99.466 27.4813C97.5044 28.4938 93.9925 29.3481 88.9302 30.0441C90.1325 36.1821 90.8285 42.9845 91.0184 50.4513C98.0423 48.9959 102.693 45.7688 104.971 40.7698V73.5163C101.491 73.5163 96.3337 73.3897 89.4997 73.1366V91.076H139.711V73.1366Z" fill="#0B1E13"/>
<path d="M82.0849 70.1104C70.7581 71.5025 54.812 72.7681 34.2466 73.9071C36.5879 72.5782 39.0873 71.4709 41.745 70.585C44.4027 69.6991 47.9779 68.5917 52.4707 67.2629C52.9136 67.1363 53.9894 66.8516 55.6979 66.4086C57.4064 65.9024 58.6403 65.4594 59.3997 65.0798C64.6518 62.6119 68.8281 60.3339 71.9287 58.2457C75.0927 56.0943 77.4972 53.658 79.1425 50.9371C80.851 48.2161 81.7052 44.9573 81.7052 41.1606C81.7052 37.8701 80.5029 34.6746 78.0984 31.5739C75.7571 28.41 72.0553 25.8156 66.993 23.7907C61.9941 21.7025 55.7295 20.6584 48.1994 20.6584C39.9732 20.6584 33.0126 21.924 27.3176 24.4551C21.6858 26.9863 17.4462 30.4349 14.5987 34.8011C11.8144 39.1041 10.4223 43.9448 10.4223 49.3235C17.9524 49.7032 25.704 50.3992 33.6771 51.4117C33.4872 50.3359 33.3923 49.2918 33.3923 48.2794C33.3923 45.0522 34.4364 42.3945 36.5246 40.3063C38.676 38.2182 41.8083 37.1741 45.9214 37.1741C49.6548 37.1741 52.4074 37.8068 54.1792 39.0724C55.951 40.338 56.8369 42.0465 56.8369 44.1979C56.8369 45.9065 55.4131 47.6466 52.5656 49.4184C49.7181 51.1269 45.6683 53.1202 40.4162 55.3982C36.3664 57.17 33.3923 58.6254 31.494 59.7644C24.9763 63.6244 19.8824 67.8324 16.2123 72.3884C12.6054 76.9444 10.802 82.3231 10.802 88.5244L10.8969 90.5176H78.7628C78.7628 87.5435 79.0475 84.2214 79.6171 80.5513C80.1866 76.8812 81.0092 73.4009 82.0849 70.1104Z" fill="#0B1E13"/>
<path d="M140.455 72.5782C137.734 72.7048 133.526 72.8314 127.831 72.9579V20.6584H107.139V20.8483C106.76 21.2912 106 22.1455 104.861 23.4111C103.786 24.6766 102.235 25.8473 100.21 26.923C98.2488 27.9354 94.7368 28.7897 89.6746 29.4858C90.8769 35.6238 91.5729 42.4262 91.7628 49.893C98.7866 48.4376 103.438 45.2104 105.716 40.2114V72.9579C102.235 72.9579 97.0781 72.8314 90.2441 72.5782V90.5176H140.455V72.5782Z" fill="#0B1E13"/>
<path d="M82.8293 69.5522C71.5025 70.9443 55.5564 72.2098 34.991 73.3489C37.3323 72.02 39.8318 70.9126 42.4895 70.0267C45.1472 69.1409 48.7224 68.0335 53.2151 66.7046C53.6581 66.5781 54.7338 66.2933 56.4423 65.8504C58.1508 65.3442 59.3848 64.9012 60.1441 64.5215C65.3962 62.0537 69.5726 59.7757 72.6732 57.6875C75.8371 55.536 78.2417 53.0998 79.8869 50.3789C81.5954 47.6579 82.4497 44.3991 82.4497 40.6024C82.4497 37.3119 81.2474 34.1163 78.8428 31.0157C76.5015 27.8518 72.7997 25.2574 67.7375 23.2325C62.7385 21.1443 56.474 20.1002 48.9439 20.1002C40.7177 20.1002 33.7571 21.3658 28.062 23.8969C22.4303 26.428 18.1906 29.8767 15.3431 34.2429C12.5589 38.5458 11.1667 43.3866 11.1667 48.7653C18.6969 49.1449 26.4484 49.841 34.4215 50.8534C34.2317 49.7777 34.1367 48.7336 34.1367 47.7212C34.1367 44.494 35.1808 41.8363 37.269 39.7481C39.4205 37.6599 42.5528 36.6158 46.6658 36.6158C50.3993 36.6158 53.1519 37.2486 54.9236 38.5142C56.6954 39.7798 57.5813 41.4883 57.5813 43.6397C57.5813 45.3482 56.1576 47.0884 53.3101 48.8602C50.4625 50.5687 46.4127 52.562 41.1606 54.84C37.1108 56.6118 34.1367 58.0672 32.2384 59.2062C25.7207 63.0661 20.6268 67.2741 16.9567 71.8302C13.3498 76.3862 11.5464 81.7649 11.5464 87.9661L11.6413 89.9594H79.5072C79.5072 86.9853 79.792 83.6632 80.3615 79.9931C80.931 76.3229 81.7536 72.8426 82.8293 69.5522Z" fill="#0B1D12"/>
<path d="M141.2 72.02C138.479 72.1466 134.271 72.2731 128.576 72.3997V20.1002H107.884V20.2901C107.504 20.733 106.745 21.5873 105.606 22.8528C104.53 24.1184 102.98 25.289 100.955 26.3648C98.9932 27.3772 95.4813 28.2315 90.419 28.9275C91.6213 35.0655 92.3174 41.8679 92.5072 49.3348C99.5311 47.8794 104.182 44.6522 106.46 39.6532V72.3997C102.98 72.3997 97.8226 72.2731 90.9885 72.02V89.9594H141.2V72.02Z" fill="#0B1D12"/>
<path d="M83.5738 68.9937C72.247 70.3858 56.3009 71.6514 35.7354 72.7904C38.0767 71.4615 40.5762 70.3542 43.2339 69.4683C45.8916 68.5824 49.4668 67.475 53.9596 66.1462C54.4025 66.0196 55.4783 65.7349 57.1868 65.2919C58.8953 64.7857 60.1292 64.3427 60.8885 63.9631C66.1406 61.4952 70.317 59.2172 73.4176 57.129C76.5816 54.9776 78.9861 52.5413 80.6314 49.8204C82.3399 47.0994 83.1941 43.8406 83.1941 40.0439C83.1941 36.7534 81.9918 33.5579 79.5873 30.4572C77.246 27.2933 73.5442 24.6989 68.4819 22.674C63.483 20.5858 57.2184 19.5417 49.6883 19.5417C41.4621 19.5417 34.5015 20.8073 28.8065 23.3384C23.1747 25.8696 18.9351 29.3182 16.0876 33.6844C13.3033 37.9874 11.9112 42.8281 11.9112 48.2068C19.4413 48.5865 27.1929 49.2825 35.1659 50.295C34.9761 49.2192 34.8812 48.1751 34.8812 47.1627C34.8812 43.9355 35.9253 41.2778 38.0135 39.1896C40.1649 37.1015 43.2972 36.0574 47.4103 36.0574C51.1437 36.0574 53.8963 36.6901 55.6681 37.9557C57.4399 39.2213 58.3258 40.9298 58.3258 43.0812C58.3258 44.7898 56.902 46.5299 54.0545 48.3017C51.207 50.0102 47.1572 52.0035 41.9051 54.2815C37.8553 56.0533 34.8812 57.5087 32.9828 58.6477C26.4652 62.5077 21.3713 66.7157 17.7012 71.2717C14.0943 75.8277 12.2909 81.2064 12.2909 87.4077L12.3858 89.4009H80.2517C80.2517 86.4268 80.5364 83.1047 81.1059 79.4346C81.6754 75.7645 82.4981 72.2842 83.5738 68.9937Z" fill="#0B1D12"/>
<path d="M141.944 71.4615C139.223 71.5881 135.015 71.7147 129.32 71.8412V19.5417H108.628V19.7316C108.249 20.1745 107.489 21.0288 106.35 22.2944C105.275 23.5599 103.724 24.7306 101.699 25.8063C99.7377 26.8187 96.2257 27.673 91.1635 28.3691C92.3658 34.5071 93.0618 41.3095 93.2517 48.7763C100.276 47.3209 104.926 44.0937 107.204 39.0947V71.8412C103.724 71.8412 98.567 71.7147 91.733 71.4615V89.4009H141.944V71.4615Z" fill="#0B1D12"/>
<path d="M84.3182 68.4355C72.9914 69.8276 57.0453 71.0931 36.4799 72.2322C38.8212 70.9033 41.3207 69.7959 43.9784 68.91C46.6361 68.0242 50.2113 66.9168 54.704 65.5879C55.147 65.4614 56.2227 65.1766 57.9312 64.7337C59.6397 64.2275 60.8737 63.7845 61.633 63.4048C66.8851 60.937 71.0615 58.659 74.1621 56.5708C77.326 54.4193 79.7306 51.9831 81.3758 49.2622C83.0843 46.5412 83.9386 43.2824 83.9386 39.4857C83.9386 36.1952 82.7363 32.9997 80.3317 29.899C77.9904 26.7351 74.2886 24.1407 69.2264 22.1158C64.2274 20.0276 57.9629 18.9835 50.4327 18.9835C42.2066 18.9835 35.246 20.2491 29.5509 22.7802C23.9192 25.3113 19.6795 28.76 16.832 33.1262C14.0478 37.4291 12.6556 42.2699 12.6556 47.6486C20.1857 48.0282 27.9373 48.7243 35.9104 49.7367C35.7206 48.661 35.6256 47.6169 35.6256 46.6045C35.6256 43.3773 36.6697 40.7196 38.7579 38.6314C40.9094 36.5432 44.0416 35.4991 48.1547 35.4991C51.8881 35.4991 54.6407 36.1319 56.4125 37.3975C58.1843 38.6631 59.0702 40.3716 59.0702 42.523C59.0702 44.2315 57.6465 45.9717 54.7989 47.7435C51.9514 49.452 47.9016 51.4453 42.6495 53.7233C38.5997 55.4951 35.6256 56.9505 33.7273 58.0895C27.2096 61.9494 22.1157 66.1574 18.4456 70.7135C14.8387 75.2695 13.0353 80.6482 13.0353 86.8494L13.1302 88.8427H80.9961C80.9961 85.8686 81.2809 82.5465 81.8504 78.8764C82.4199 75.2062 83.2425 71.7259 84.3182 68.4355Z" fill="#0B1D12"/>
<path d="M142.689 70.9033C139.968 71.0299 135.76 71.1564 130.065 71.283V18.9835H109.373V19.1734C108.993 19.6163 108.234 20.4706 107.095 21.7361C106.019 23.0017 104.469 24.1723 102.444 25.2481C100.482 26.2605 96.9702 27.1148 91.9079 27.8108C93.1102 33.9488 93.8063 40.7512 93.9961 48.2181C101.02 46.7627 105.671 43.5355 107.949 38.5365V71.283C104.469 71.283 99.3115 71.1564 92.4774 70.9033V88.8427H142.689V70.9033Z" fill="#0B1D12"/>
<path d="M85.0627 67.8771C73.7359 69.2692 57.7898 70.5348 37.2243 71.6738C39.5656 70.345 42.0651 69.2376 44.7228 68.3517C47.3805 67.4658 50.9557 66.3584 55.4485 65.0296C55.8914 64.903 56.9671 64.6183 58.6757 64.1753C60.3842 63.6691 61.6181 63.2262 62.3774 62.8465C67.6295 60.3786 71.8059 58.1006 74.9065 56.0124C78.0704 53.861 80.475 51.4248 82.1202 48.7038C83.8288 45.9828 84.683 42.724 84.683 38.9273C84.683 35.6369 83.4807 32.4413 81.0762 29.3407C78.7349 26.1768 75.0331 23.5824 69.9708 21.5574C64.9718 19.4693 58.7073 18.4252 51.1772 18.4252C42.951 18.4252 35.9904 19.6907 30.2954 22.2219C24.6636 24.753 20.424 28.2017 17.5764 32.5679C14.7922 36.8708 13.4001 41.7116 13.4001 47.0902C20.9302 47.4699 28.6818 48.1659 36.6548 49.1784C36.465 48.1027 36.3701 47.0586 36.3701 46.0461C36.3701 42.8189 37.4142 40.1612 39.5024 38.0731C41.6538 35.9849 44.7861 34.9408 48.8992 34.9408C52.6326 34.9408 55.3852 35.5736 57.157 36.8391C58.9288 38.1047 59.8147 39.8132 59.8147 41.9647C59.8147 43.6732 58.3909 45.4133 55.5434 47.1851C52.6959 48.8936 48.6461 50.8869 43.394 53.1649C39.3442 54.9367 36.3701 56.3921 34.4717 57.5311C27.9541 61.3911 22.8602 65.5991 19.19 70.1551C15.5832 74.7112 13.7798 80.0898 13.7798 86.2911L13.8747 88.2843H81.7406C81.7406 85.3103 82.0253 81.9882 82.5948 78.318C83.1643 74.6479 83.987 71.1676 85.0627 67.8771Z" fill="#0B1D12"/>
<path d="M143.433 70.345C140.712 70.4715 136.504 70.5981 130.809 70.7246V18.4252H110.117V18.615C109.737 19.058 108.978 19.9122 107.839 21.1778C106.763 22.4433 105.213 23.614 103.188 24.6897C101.227 25.7022 97.7146 26.5564 92.6524 27.2525C93.8547 33.3905 94.5507 40.1929 94.7405 47.6597C101.764 46.2043 106.415 42.9771 108.693 37.9781V70.7246C105.213 70.7246 100.056 70.5981 93.2219 70.345V88.2843H143.433V70.345Z" fill="#0B1D12"/>
<path d="M85.8071 67.3186C74.4803 68.7108 58.5342 69.9763 37.9688 71.1153C40.3101 69.7865 42.8096 68.6791 45.4673 67.7932C48.1249 66.9073 51.7002 65.8 56.1929 64.4711C56.6359 64.3446 57.7116 64.0598 59.4201 63.6169C61.1286 63.1106 62.3625 62.6677 63.1219 62.288C68.374 59.8202 72.5503 57.5422 75.651 55.454C78.8149 53.3025 81.2195 50.8663 82.8647 48.1453C84.5732 45.4244 85.4275 42.1655 85.4275 38.3688C85.4275 35.0784 84.2252 31.8828 81.8206 28.7822C79.4793 25.6183 75.7775 23.0239 70.7153 20.999C65.7163 18.9108 59.4517 17.8667 51.9216 17.8667C43.6955 17.8667 36.7349 19.1323 31.0398 21.6634C25.4081 24.1945 21.1684 27.6432 18.3209 32.0094C15.5367 36.3123 14.1445 41.1531 14.1445 46.5317C21.6746 46.9114 29.4262 47.6075 37.3993 48.6199C37.2094 47.5442 37.1145 46.5001 37.1145 45.4876C37.1145 42.2605 38.1586 39.6028 40.2468 37.5146C42.3983 35.4264 45.5305 34.3823 49.6436 34.3823C53.377 34.3823 56.1296 35.0151 57.9014 36.2807C59.6732 37.5462 60.5591 39.2547 60.5591 41.4062C60.5591 43.1147 59.1354 44.8549 56.2878 46.6267C53.4403 48.3352 49.3905 50.3284 44.1384 52.6064C40.0886 54.3782 37.1145 55.8336 35.2162 56.9726C28.6985 60.8326 23.6046 65.0406 19.9345 69.5967C16.3276 74.1527 14.5242 79.5313 14.5242 85.7326L14.6191 87.7259H82.485C82.485 84.7518 82.7698 81.4297 83.3393 77.7595C83.9088 74.0894 84.7314 70.6091 85.8071 67.3186Z" fill="#0B1D12"/>
<path d="M144.178 69.7865C141.457 69.913 137.249 70.0396 131.554 70.1662V17.8667H110.862V18.0565C110.482 18.4995 109.723 19.3537 108.584 20.6193C107.508 21.8849 105.958 23.0555 103.933 24.1312C101.971 25.1437 98.4591 25.998 93.3968 26.694C94.5991 32.832 95.2952 39.6344 95.485 47.1012C102.509 45.6458 107.16 42.4187 109.438 37.4197V70.1662C105.958 70.1662 100.8 70.0396 93.9663 69.7865V87.7259H144.178V69.7865Z" fill="#0B1D12"/>
<path d="M86.5516 66.7604C75.2248 68.1525 59.2787 69.4181 38.7132 70.5571C41.0545 69.2283 43.554 68.1209 46.2117 67.235C48.8694 66.3491 52.4446 65.2417 56.9374 63.9129C57.3803 63.7863 58.456 63.5016 60.1646 63.0586C61.8731 62.5524 63.107 62.1095 63.8663 61.7298C69.1184 59.2619 73.2948 56.9839 76.3954 54.8957C79.5593 52.7443 81.9639 50.3081 83.6091 47.5871C85.3176 44.8661 86.1719 41.6073 86.1719 37.8106C86.1719 34.5202 84.9696 31.3246 82.565 28.224C80.2238 25.0601 76.522 22.4657 71.4597 20.4407C66.4607 18.3526 60.1962 17.3085 52.6661 17.3085C44.4399 17.3085 37.4793 18.574 31.7843 21.1052C26.1525 23.6363 21.9129 27.085 19.0653 31.4512C16.2811 35.7541 14.889 40.5949 14.889 45.9735C22.4191 46.3532 30.1707 47.0492 38.1437 48.0617C37.9539 46.986 37.859 45.9419 37.859 44.9294C37.859 41.7022 38.9031 39.0445 40.9913 36.9564C43.1427 34.8682 46.275 33.8241 50.3881 33.8241C54.1215 33.8241 56.8741 34.4569 58.6459 35.7224C60.4177 36.988 61.3036 38.6965 61.3036 40.848C61.3036 42.5565 59.8798 44.2966 57.0323 46.0684C54.1848 47.7769 50.135 49.7702 44.8829 52.0482C40.8331 53.82 37.859 55.2754 35.9606 56.4144C29.443 60.2744 24.3491 64.4824 20.6789 69.0384C17.0721 73.5945 15.2686 78.9731 15.2686 85.1744L15.3636 87.1676H83.2295C83.2295 84.1936 83.5142 80.8715 84.0837 77.2013C84.6532 73.5312 85.4758 70.0509 86.5516 66.7604Z" fill="#0B1C11"/>
<path d="M144.922 69.2283C142.201 69.3548 137.993 69.4814 132.298 69.6079V17.3085H111.606V17.4983C111.226 17.9413 110.467 18.7955 109.328 20.0611C108.252 21.3266 106.702 22.4973 104.677 23.573C102.715 24.5855 99.2035 25.4397 94.1413 26.1358C95.3435 32.2738 96.0396 39.0762 96.2294 46.543C103.253 45.0876 107.904 41.8604 110.182 36.8614V69.6079C106.702 69.6079 101.545 69.4814 94.7108 69.2283V87.1676H144.922V69.2283Z" fill="#0B1C11"/>
<path d="M87.296 66.2021C75.9692 67.5942 60.0231 68.8597 39.4577 69.9988C41.799 68.6699 44.2985 67.5625 46.9561 66.6766C49.6138 65.7908 53.1891 64.6834 57.6818 63.3545C58.1248 63.228 59.2005 62.9432 60.909 62.5003C62.6175 61.9941 63.8514 61.5511 64.6108 61.1714C69.8629 58.7036 74.0392 56.4256 77.1399 54.3374C80.3038 52.1859 82.7084 49.7497 84.3536 47.0288C86.0621 44.3078 86.9164 41.049 86.9164 37.2523C86.9164 33.9618 85.7141 30.7663 83.3095 27.6656C80.9682 24.5017 77.2664 21.9073 72.2042 19.8824C67.2052 17.7942 60.9406 16.7501 53.4105 16.7501C45.1844 16.7501 38.2238 18.0157 32.5287 20.5468C26.8969 23.0779 22.6573 26.5266 19.8098 30.8928C17.0255 35.1957 15.6334 40.0365 15.6334 45.4152C23.1635 45.7948 30.9151 46.4909 38.8882 47.5033C38.6983 46.4276 38.6034 45.3835 38.6034 44.3711C38.6034 41.1439 39.6475 38.4862 41.7357 36.398C43.8872 34.3098 47.0194 33.2657 51.1325 33.2657C54.8659 33.2657 57.6185 33.8985 59.3903 35.1641C61.1621 36.4297 62.048 38.1382 62.048 40.2896C62.048 41.9981 60.6242 43.7383 57.7767 45.5101C54.9292 47.2186 50.8794 49.2119 45.6273 51.4899C41.5775 53.2617 38.6034 54.7171 36.7051 55.8561C30.1874 59.716 25.0935 63.924 21.4234 68.4801C17.8165 73.0361 16.0131 78.4148 16.0131 84.616L16.108 86.6093H83.9739C83.9739 83.6352 84.2587 80.3131 84.8282 76.643C85.3977 72.9728 86.2203 69.4925 87.296 66.2021Z" fill="#0B1C11"/>
<path d="M145.666 68.6699C142.946 68.7965 138.738 68.923 133.042 69.0496V16.7501H112.35V16.94C111.971 17.3829 111.211 18.2372 110.072 19.5027C108.997 20.7683 107.446 21.9389 105.422 23.0147C103.46 24.0271 99.948 24.8814 94.8857 25.5774C96.088 31.7154 96.784 38.5178 96.9739 45.9847C103.998 44.5293 108.649 41.3021 110.927 36.3031V69.0496C107.446 69.0496 102.289 68.923 95.4552 68.6699V86.6093H145.666V68.6699Z" fill="#0B1C11"/>
<path d="M88.0404 65.6438C76.7136 67.036 60.7675 68.3015 40.2021 69.4405C42.5434 68.1117 45.0428 67.0043 47.7005 66.1184C50.3582 65.2325 53.9334 64.1252 58.4262 62.7963C58.8691 62.6698 59.9449 62.385 61.6534 61.9421C63.3619 61.4358 64.5958 60.9929 65.3552 60.6132C70.6073 58.1454 74.7836 55.8673 77.8843 53.7792C81.0482 51.6277 83.4527 49.1915 85.098 46.4705C86.8065 43.7496 87.6607 40.4907 87.6607 36.694C87.6607 33.4036 86.4585 30.208 84.0539 27.1074C81.7126 23.9435 78.0108 21.3491 72.9486 19.3242C67.9496 17.236 61.685 16.1919 54.1549 16.1919C45.9287 16.1919 38.9681 17.4575 33.2731 19.9886C27.6413 22.5197 23.4017 25.9684 20.5542 30.3346C17.7699 34.6375 16.3778 39.4783 16.3778 44.8569C23.9079 45.2366 31.6595 45.9327 39.6326 46.9451C39.4427 45.8694 39.3478 44.8253 39.3478 43.8128C39.3478 40.5857 40.3919 37.928 42.4801 35.8398C44.6315 33.7516 47.7638 32.7075 51.8769 32.7075C55.6103 32.7075 58.3629 33.3403 60.1347 34.6059C61.9065 35.8714 62.7924 37.5799 62.7924 39.7314C62.7924 41.4399 61.3686 43.1801 58.5211 44.9519C55.6736 46.6604 51.6238 48.6536 46.3717 50.9316C42.3219 52.7034 39.3478 54.1588 37.4495 55.2978C30.9318 59.1578 25.8379 63.3658 22.1678 67.9219C18.5609 72.4779 16.7575 77.8565 16.7575 84.0578L16.8524 86.0511H84.7183C84.7183 83.077 85.0031 79.7549 85.5726 76.0847C86.1421 72.4146 86.9647 68.9343 88.0404 65.6438Z" fill="#0A1C11"/>
<path d="M146.411 68.1117C143.69 68.2382 139.482 68.3648 133.787 68.4914V16.1919H113.095V16.3817C112.715 16.8247 111.956 17.6789 110.817 18.9445C109.741 20.2101 108.191 21.3807 106.166 22.4564C104.204 23.4689 100.692 24.3231 95.6301 25.0192C96.8324 31.1572 97.5284 37.9596 97.7183 45.4264C104.742 43.971 109.393 40.7438 111.671 35.7449V68.4914C108.191 68.4914 103.034 68.3648 96.1996 68.1117V86.0511H146.411V68.1117Z" fill="#0A1C11"/>
<path d="M88.7849 65.0854C77.458 66.4775 61.5119 67.743 40.9465 68.8821C43.2878 67.5532 45.7873 66.4458 48.445 65.5599C51.1027 64.6741 54.6779 63.5667 59.1706 62.2378C59.6136 62.1113 60.6893 61.8265 62.3978 61.3836C64.1063 60.8774 65.3403 60.4344 66.0996 60.0547C71.3517 57.5869 75.5281 55.3089 78.6287 53.2207C81.7926 51.0692 84.1972 48.633 85.8424 45.9121C87.5509 43.1911 88.4052 39.9323 88.4052 36.1356C88.4052 32.8451 87.2029 29.6496 84.7983 26.5489C82.457 23.385 78.7553 20.7906 73.693 18.7657C68.694 16.6775 62.4295 15.6334 54.8994 15.6334C46.6732 15.6334 39.7126 16.899 34.0175 19.4301C28.3858 21.9612 24.1461 25.4099 21.2986 29.7761C18.5144 34.079 17.1223 38.9198 17.1223 44.2985C24.6524 44.6781 32.4039 45.3742 40.377 46.3866C40.1872 45.3109 40.0923 44.2668 40.0923 43.2544C40.0923 40.0272 41.1363 37.3695 43.2245 35.2813C45.376 33.1931 48.5083 32.149 52.6213 32.149C56.3548 32.149 59.1074 32.7818 60.8792 34.0474C62.6509 35.313 63.5368 37.0215 63.5368 39.1729C63.5368 40.8814 62.1131 42.6216 59.2656 44.3934C56.418 46.1019 52.3682 48.0952 47.1161 50.3732C43.0663 52.145 40.0923 53.6004 38.1939 54.7394C31.6762 58.5993 26.5823 62.8074 22.9122 67.3634C19.3054 71.9194 17.5019 77.2981 17.5019 83.4993L17.5968 85.4926H85.4628C85.4628 82.5185 85.7475 79.1964 86.317 75.5263C86.8865 71.8561 87.7091 68.3758 88.7849 65.0854Z" fill="#0A1C11"/>
<path d="M147.155 67.5532C144.434 67.6798 140.226 67.8063 134.531 67.9329V15.6334H113.839V15.8233C113.46 16.2662 112.7 17.1205 111.561 18.386C110.486 19.6516 108.935 20.8222 106.91 21.898C104.949 22.9104 101.437 23.7647 96.3745 24.4607C97.5768 30.5987 98.2729 37.4011 98.4627 44.868C105.487 43.4126 110.138 40.1854 112.416 35.1864V67.9329C108.935 67.9329 103.778 67.8063 96.944 67.5532V85.4926H147.155V67.5532Z" fill="#0A1C11"/>
<path d="M89.5293 64.527C78.2025 65.9191 62.2564 67.1847 41.691 68.3237C44.0322 66.9949 46.5317 65.8875 49.1894 65.0016C51.8471 64.1157 55.4223 63.0083 59.9151 61.6795C60.358 61.5529 61.4338 61.2682 63.1423 60.8252C64.8508 60.319 66.0847 59.8761 66.8441 59.4964C72.0961 57.0285 76.2725 54.7505 79.3731 52.6623C82.5371 50.5109 84.9416 48.0747 86.5869 45.3537C88.2954 42.6327 89.1496 39.3739 89.1496 35.5772C89.1496 32.2868 87.9473 29.0912 85.5428 25.9906C83.2015 22.8267 79.4997 20.2323 74.4374 18.2074C69.4385 16.1192 63.1739 15.0751 55.6438 15.0751C47.4176 15.0751 40.457 16.3406 34.762 18.8718C29.1302 21.4029 24.8906 24.8516 22.0431 29.2178C19.2588 33.5207 17.8667 38.3615 17.8667 43.7401C25.3968 44.1198 33.1484 44.8158 41.1215 45.8283C40.9316 44.7526 40.8367 43.7085 40.8367 42.696C40.8367 39.4688 41.8808 36.8111 43.969 34.723C46.1204 32.6348 49.2527 31.5907 53.3658 31.5907C57.0992 31.5907 59.8518 32.2235 61.6236 33.489C63.3954 34.7546 64.2813 36.4631 64.2813 38.6146C64.2813 40.3231 62.8575 42.0632 60.01 43.835C57.1625 45.5435 53.1127 47.5368 47.8606 49.8148C43.8108 51.5866 40.8367 53.042 38.9384 54.181C32.4207 58.041 27.3268 62.249 23.6567 66.805C20.0498 71.3611 18.2464 76.7397 18.2464 82.941L18.3413 84.9342H86.2072C86.2072 81.9602 86.4919 78.6381 87.0614 74.9679C87.631 71.2978 88.4536 67.8175 89.5293 64.527Z" fill="#0A1B11"/>
<path d="M147.9 66.9949C145.179 67.1214 140.971 67.248 135.276 67.3745V15.0751H114.584V15.2649C114.204 15.7079 113.445 16.5621 112.306 17.8277C111.23 19.0932 109.68 20.2639 107.655 21.3396C105.693 22.3521 102.181 23.2063 97.119 23.9024C98.3213 30.0404 99.0173 36.8428 99.2072 44.3096C106.231 42.8542 110.882 39.627 113.16 34.628V67.3745C109.68 67.3745 104.523 67.248 97.6885 66.9949V84.9342H147.9V66.9949Z" fill="#0A1B11"/>
<path d="M90.2737 63.9688C78.9469 65.3609 63.0008 66.6265 42.4354 67.7655C44.7767 66.4366 47.2762 65.3293 49.9339 64.4434C52.5916 63.5575 56.1668 62.4501 60.6595 61.1213C61.1025 60.9947 62.1782 60.71 63.8867 60.267C65.5952 59.7608 66.8292 59.3178 67.5885 58.9382C72.8406 56.4703 77.017 54.1923 80.1176 52.1041C83.2815 49.9527 85.6861 47.5164 87.3313 44.7955C89.0398 42.0745 89.8941 38.8157 89.8941 35.019C89.8941 31.7285 88.6918 28.533 86.2872 25.4323C83.9459 22.2684 80.2441 19.674 75.1819 17.6491C70.1829 15.5609 63.9184 14.5168 56.3883 14.5168C48.1621 14.5168 41.2015 15.7824 35.5064 18.3135C29.8747 20.8447 25.635 24.2933 22.7875 28.6595C20.0033 32.9625 18.6111 37.8032 18.6111 43.1819C26.1413 43.5616 33.8928 44.2576 41.8659 45.2701C41.6761 44.1943 41.5811 43.1502 41.5811 42.1378C41.5811 38.9106 42.6252 36.2529 44.7134 34.1647C46.8649 32.0766 49.9972 31.0325 54.1102 31.0325C57.8437 31.0325 60.5963 31.6652 62.368 32.9308C64.1398 34.1964 65.0257 35.9049 65.0257 38.0563C65.0257 39.7649 63.602 41.505 60.7544 43.2768C57.9069 44.9853 53.8571 46.9786 48.605 49.2566C44.5552 51.0284 41.5811 52.4838 39.6828 53.6228C33.1651 57.4828 28.0712 61.6908 24.4011 66.2468C20.7942 70.8028 18.9908 76.1815 18.9908 82.3828L19.0857 84.376H86.9516C86.9516 81.4019 87.2364 78.0798 87.8059 74.4097C88.3754 70.7396 89.198 67.2593 90.2737 63.9688Z" fill="#0A1B11"/>
<path d="M148.644 66.4366C145.923 66.5632 141.715 66.6898 136.02 66.8163V14.5168H115.328V14.7067C114.949 15.1496 114.189 16.0039 113.05 17.2695C111.974 18.535 110.424 19.7057 108.399 20.7814C106.438 21.7938 102.926 22.6481 97.8634 23.3442C99.0657 29.4822 99.7618 36.2846 99.9516 43.7514C106.975 42.296 111.626 39.0688 113.904 34.0698V66.8163C110.424 66.8163 105.267 66.6898 98.4329 66.4366V84.376H148.644V66.4366Z" fill="#0A1B11"/>
<path d="M91.0184 63.4103C79.6916 64.8024 63.7455 66.068 43.18 67.207C45.5213 65.8782 48.0208 64.7708 50.6785 63.8849C53.3362 62.999 56.9114 61.8916 61.4042 60.5628C61.8471 60.4362 62.9228 60.1515 64.6314 59.7085C66.3399 59.2023 67.5738 58.7594 68.3331 58.3797C73.5852 55.9118 77.7616 53.6338 80.8622 51.5456C84.0261 49.3942 86.4307 46.958 88.0759 44.237C89.7844 41.516 90.6387 38.2572 90.6387 34.4605C90.6387 31.1701 89.4364 27.9745 87.0318 24.8739C84.6906 21.71 80.9888 19.1156 75.9265 17.0907C70.9275 15.0025 64.663 13.9584 57.1329 13.9584C48.9067 13.9584 41.9461 15.2239 36.2511 17.7551C30.6193 20.2862 26.3797 23.7349 23.5321 28.1011C20.7479 32.404 19.3558 37.2448 19.3558 42.6234C26.8859 43.0031 34.6375 43.6991 42.6105 44.7116C42.4207 43.6359 42.3258 42.5918 42.3258 41.5793C42.3258 38.3521 43.3699 35.6944 45.458 33.6063C47.6095 31.5181 50.7418 30.474 54.8549 30.474C58.5883 30.474 61.3409 31.1068 63.1127 32.3723C64.8845 33.6379 65.7704 35.3464 65.7704 37.4979C65.7704 39.2064 64.3466 40.9465 61.4991 42.7183C58.6516 44.4268 54.6017 46.4201 49.3497 48.6981C45.2999 50.4699 42.3258 51.9253 40.4274 53.0643C33.9098 56.9243 28.8159 61.1323 25.1457 65.6883C21.5389 70.2444 19.7354 75.623 19.7354 81.8243L19.8304 83.8175H87.6963C87.6963 80.8435 87.981 77.5214 88.5505 73.8512C89.12 70.1811 89.9426 66.7008 91.0184 63.4103Z" fill="#0A1B10"/>
<path d="M149.389 65.8782C146.668 66.0047 142.46 66.1313 136.765 66.2578V13.9584H116.073V14.1482C115.693 14.5912 114.934 15.4454 113.795 16.711C112.719 17.9765 111.169 19.1472 109.144 20.2229C107.182 21.2354 103.67 22.0896 98.6081 22.7857C99.8103 28.9237 100.506 35.7261 100.696 43.1929C107.72 41.7375 112.371 38.5103 114.649 33.5113V66.2578C111.169 66.2578 106.012 66.1313 99.1776 65.8782V83.8175H149.389V65.8782Z" fill="#0A1B10"/>
<path d="M91.7628 62.852C80.436 64.2441 64.4899 65.5097 43.9245 66.6487C46.2658 65.3198 48.7653 64.2124 51.4229 63.3265C54.0806 62.4407 57.6558 61.3333 62.1486 60.0044C62.5916 59.8779 63.6673 59.5931 65.3758 59.1502C67.0843 58.644 68.3182 58.201 69.0776 57.8213C74.3297 55.3535 78.506 53.0755 81.6067 50.9873C84.7706 48.8358 87.1751 46.3996 88.8204 43.6787C90.5289 40.9577 91.3831 37.6989 91.3831 33.9022C91.3831 30.6117 90.1809 27.4162 87.7763 24.3155C85.435 21.1516 81.7332 18.5572 76.671 16.5323C71.672 14.4441 65.4074 13.4 57.8773 13.4C49.6512 13.4 42.6905 14.6656 36.9955 17.1967C31.3637 19.7279 27.1241 23.1765 24.2766 27.5427C21.4923 31.8456 20.1002 36.6864 20.1002 42.0651C27.6303 42.4447 35.3819 43.1408 43.355 44.1532C43.1651 43.0775 43.0702 42.0334 43.0702 41.021C43.0702 37.7938 44.1143 35.1361 46.2025 33.0479C48.354 30.9597 51.4862 29.9156 55.5993 29.9156C59.3327 29.9156 62.0853 30.5484 63.8571 31.814C65.6289 33.0796 66.5148 34.7881 66.5148 36.9395C66.5148 38.648 65.091 40.3882 62.2435 42.16C59.396 43.8685 55.3462 45.8618 50.0941 48.1398C46.0443 49.9116 43.0702 51.367 41.1719 52.506C34.6542 56.3659 29.5603 60.574 25.8902 65.13C22.2833 69.686 20.4799 75.0647 20.4799 81.2659L20.5748 83.2592H88.4407C88.4407 80.2851 88.7255 76.963 89.295 73.2929C89.8645 69.6227 90.6871 66.1424 91.7628 62.852Z" fill="#0A1B10"/>
<path d="M150.133 65.3198C147.412 65.4464 143.204 65.5729 137.509 65.6995V13.4H116.817V13.5899C116.438 14.0328 115.678 14.8871 114.539 16.1526C113.464 17.4182 111.913 18.5888 109.888 19.6646C107.927 20.677 104.415 21.5313 99.3525 22.2273C100.555 28.3653 101.251 35.1677 101.441 42.6346C108.465 41.1792 113.116 37.952 115.394 32.953V65.6995C111.913 65.6995 106.756 65.5729 99.922 65.3198V83.2592H150.133V65.3198Z" fill="#0A1B10"/>
<path d="M92.5073 62.2937C81.1805 63.6859 65.2343 64.9514 44.6689 66.0904C47.0102 64.7616 49.5097 63.6542 52.1674 62.7683C54.8251 61.8824 58.4003 60.7751 62.8931 59.4462C63.336 59.3197 64.4117 59.0349 66.1202 58.592C67.8288 58.0857 69.0627 57.6428 69.822 57.2631C75.0741 54.7953 79.2505 52.5173 82.3511 50.4291C85.515 48.2776 87.9196 45.8414 89.5648 43.1204C91.2733 40.3995 92.1276 37.1406 92.1276 33.3439C92.1276 30.0535 90.9253 26.8579 88.5207 23.7573C86.1794 20.5934 82.4777 17.999 77.4154 15.9741C72.4164 13.8859 66.1519 12.8418 58.6218 12.8418C50.3956 12.8418 43.435 14.1074 37.74 16.6385C32.1082 19.1696 27.8685 22.6183 25.021 26.9845C22.2368 31.2874 20.8447 36.1282 20.8447 41.5068C28.3748 41.8865 36.1264 42.5826 44.0994 43.595C43.9096 42.5193 43.8147 41.4752 43.8147 40.4627C43.8147 37.2356 44.8588 34.5779 46.9469 32.4897C49.0984 30.4015 52.2307 29.3574 56.3438 29.3574C60.0772 29.3574 62.8298 29.9902 64.6016 31.2558C66.3734 32.5213 67.2593 34.2298 67.2593 36.3813C67.2593 38.0898 65.8355 39.83 62.988 41.6018C60.1404 43.3103 56.0906 45.3035 50.8385 47.5815C46.7887 49.3533 43.8147 50.8087 41.9163 51.9477C35.3987 55.8077 30.3048 60.0157 26.6346 64.5718C23.0278 69.1278 21.2243 74.5064 21.2243 80.7077L21.3193 82.701H89.1852C89.1852 79.7269 89.4699 76.4048 90.0394 72.7346C90.6089 69.0645 91.4315 65.5842 92.5073 62.2937Z" fill="#0A1A10"/>
<path d="M150.878 64.7616C148.157 64.8881 143.949 65.0147 138.254 65.1413V12.8418H117.562V13.0316C117.182 13.4746 116.423 14.3288 115.284 15.5944C114.208 16.86 112.658 18.0306 110.633 19.1063C108.671 20.1188 105.159 20.9731 100.097 21.6691C101.299 27.8071 101.995 34.6095 102.185 42.0763C109.209 40.6209 113.86 37.3938 116.138 32.3948V65.1413C112.658 65.1413 107.5 65.0147 100.666 64.7616V82.701H150.878V64.7616Z" fill="#0A1A10"/>
<path d="M93.2517 61.7353C81.9249 63.1274 65.9788 64.393 45.4134 65.532C47.7547 64.2031 50.2541 63.0957 52.9118 62.2099C55.5695 61.324 59.1447 60.2166 63.6375 58.8877C64.0804 58.7612 65.1562 58.4764 66.8647 58.0335C68.5732 57.5273 69.8071 57.0843 70.5665 56.7046C75.8186 54.2368 79.9949 51.9588 83.0956 49.8706C86.2595 47.7191 88.664 45.2829 90.3093 42.562C92.0178 39.841 92.872 36.5822 92.872 32.7855C92.872 29.495 91.6698 26.2995 89.2652 23.1988C86.9239 20.0349 83.2221 17.4405 78.1599 15.4156C73.1609 13.3274 66.8963 12.2833 59.3662 12.2833C51.14 12.2833 44.1794 13.5489 38.4844 16.08C32.8526 18.6112 28.613 22.0598 25.7655 26.426C22.9812 30.7289 21.5891 35.5697 21.5891 40.9484C29.1192 41.328 36.8708 42.0241 44.8439 43.0365C44.654 41.9608 44.5591 40.9167 44.5591 39.9043C44.5591 36.6771 45.6032 34.0194 47.6914 31.9312C49.8428 29.843 52.9751 28.7989 57.0882 28.7989C60.8216 28.7989 63.5742 29.4317 65.346 30.6973C67.1178 31.9629 68.0037 33.6714 68.0037 35.8228C68.0037 37.5313 66.5799 39.2715 63.7324 41.0433C60.8849 42.7518 56.8351 44.7451 51.583 47.0231C47.5332 48.7949 44.5591 50.2503 42.6608 51.3893C36.1431 55.2492 31.0492 59.4573 27.3791 64.0133C23.7722 68.5693 21.9688 73.948 21.9688 80.1492L22.0637 82.1425H89.9296C89.9296 79.1684 90.2144 75.8463 90.7839 72.1762C91.3534 68.506 92.176 65.0257 93.2517 61.7353Z" fill="#0A1A10"/>
<path d="M151.622 64.2031C148.901 64.3297 144.693 64.4562 138.998 64.5828V12.2833H118.306V12.4732C117.927 12.9161 117.167 13.7704 116.028 15.0359C114.952 16.3015 113.402 17.4721 111.377 18.5479C109.416 19.5603 105.904 20.4146 100.841 21.1106C102.044 27.2486 102.74 34.051 102.93 41.5179C109.953 40.0625 114.604 36.8353 116.882 31.8363V64.5828C113.402 64.5828 108.245 64.4562 101.411 64.2031V82.1425H151.622V64.2031Z" fill="#0A1A10"/>
<path d="M93.9962 61.177C82.6694 62.5692 66.7232 63.8347 46.1578 64.9737C48.4991 63.6449 50.9986 62.5375 53.6563 61.6516C56.314 60.7657 59.8892 59.6584 64.3819 58.3295C64.8249 58.203 65.9006 57.9182 67.6091 57.4753C69.3176 56.969 70.5516 56.5261 71.3109 56.1464C76.563 53.6786 80.7394 51.4006 83.84 49.3124C87.0039 47.1609 89.4085 44.7247 91.0537 42.0037C92.7622 39.2828 93.6165 36.0239 93.6165 32.2272C93.6165 28.9368 92.4142 25.7412 90.0096 22.6406C87.6683 19.4767 83.9666 16.8823 78.9043 14.8574C73.9053 12.7692 67.6408 11.7251 60.1107 11.7251C51.8845 11.7251 44.9239 12.9907 39.2288 15.5218C33.5971 18.0529 29.3574 21.5016 26.5099 25.8678C23.7257 30.1707 22.3336 35.0115 22.3336 40.3901C29.8637 40.7698 37.6153 41.4659 45.5883 42.4783C45.3985 41.4026 45.3036 40.3585 45.3036 39.346C45.3036 36.1189 46.3476 33.4612 48.4358 31.373C50.5873 29.2848 53.7196 28.2407 57.8326 28.2407C61.5661 28.2407 64.3187 28.8735 66.0905 30.1391C67.8622 31.4046 68.7481 33.1131 68.7481 35.2646C68.7481 36.9731 67.3244 38.7133 64.4769 40.4851C61.6293 42.1936 57.5795 44.1868 52.3274 46.4648C48.2776 48.2366 45.3036 49.692 43.4052 50.831C36.8876 54.691 31.7937 58.899 28.1235 63.4551C24.5167 68.0111 22.7132 73.3897 22.7132 79.591L22.8081 81.5843H90.6741C90.6741 78.6102 90.9588 75.2881 91.5283 71.6179C92.0978 67.9478 92.9204 64.4675 93.9962 61.177Z" fill="#091A10"/>
<path d="M152.367 63.6449C149.646 63.7714 145.438 63.898 139.743 64.0246V11.7251H119.051V11.9149C118.671 12.3579 117.912 13.2121 116.773 14.4777C115.697 15.7433 114.147 16.9139 112.122 17.9896C110.16 19.0021 106.648 19.8564 101.586 20.5524C102.788 26.6904 103.484 33.4928 103.674 40.9596C110.698 39.5042 115.349 36.2771 117.627 31.2781V64.0246C114.147 64.0246 108.989 63.898 102.155 63.6449V81.5843H152.367V63.6449Z" fill="#091A10"/>
<path d="M94.7406 60.6187C83.4138 62.0108 67.4677 63.2764 46.9023 64.4154C49.2436 63.0865 51.743 61.9792 54.4007 61.0933C57.0584 60.2074 60.6336 59.1 65.1264 57.7712C65.5693 57.6446 66.6451 57.3599 68.3536 56.9169C70.0621 56.4107 71.296 55.9677 72.0554 55.5881C77.3075 53.1202 81.4838 50.8422 84.5844 48.754C87.7484 46.6026 90.1529 44.1663 91.7982 41.4454C93.5067 38.7244 94.3609 35.4656 94.3609 31.6689C94.3609 28.3784 93.1586 25.1829 90.7541 22.0822C88.4128 18.9183 84.711 16.3239 79.6487 14.299C74.6498 12.2108 68.3852 11.1667 60.8551 11.1667C52.6289 11.1667 45.6683 12.4323 39.9733 14.9634C34.3415 17.4946 30.1019 20.9432 27.2544 25.3094C24.4701 29.6124 23.078 34.4531 23.078 39.8318C30.6081 40.2115 38.3597 40.9075 46.3328 41.92C46.1429 40.8442 46.048 39.8001 46.048 38.7877C46.048 35.5605 47.0921 32.9028 49.1803 30.8146C51.3317 28.7265 54.464 27.6824 58.5771 27.6824C62.3105 27.6824 65.0631 28.3151 66.8349 29.5807C68.6067 30.8463 69.4926 32.5548 69.4926 34.7062C69.4926 36.4148 68.0688 38.1549 65.2213 39.9267C62.3738 41.6352 58.324 43.6285 53.0719 45.9065C49.0221 47.6783 46.048 49.1337 44.1497 50.2727C37.632 54.1327 32.5381 58.3407 28.868 62.8967C25.2611 67.4527 23.4577 72.8314 23.4577 79.0327L23.5526 81.0259H91.4185C91.4185 78.0518 91.7032 74.7297 92.2728 71.0596C92.8423 67.3895 93.6649 63.9092 94.7406 60.6187Z" fill="#091A10"/>
<path d="M153.111 63.0865C150.39 63.2131 146.182 63.3397 140.487 63.4662V11.1667H119.795V11.3566C119.415 11.7995 118.656 12.6538 117.517 13.9194C116.441 15.1849 114.891 16.3556 112.866 17.4313C110.904 18.4437 107.393 19.298 102.33 19.9941C103.533 26.1321 104.229 32.9345 104.418 40.4013C111.442 38.9459 116.093 35.7187 118.371 30.7197V63.4662C114.891 63.4662 109.734 63.3397 102.9 63.0865V81.0259H153.111V63.0865Z" fill="#091A10"/>
<path d="M95.485 60.0605C84.1582 61.4526 68.2121 62.7181 47.6466 63.8572C49.9879 62.5283 52.4874 61.4209 55.1451 60.535C57.8028 59.6492 61.378 58.5418 65.8708 57.2129C66.3137 57.0864 67.3895 56.8016 69.098 56.3587C70.8065 55.8525 72.0404 55.4095 72.7997 55.0298C78.0518 52.562 82.2282 50.284 85.3288 48.1958C88.4927 46.0443 90.8973 43.6081 92.5425 40.8872C94.2511 38.1662 95.1053 34.9074 95.1053 31.1107C95.1053 27.8202 93.903 24.6247 91.4985 21.524C89.1572 18.3601 85.4554 15.7657 80.3931 13.7408C75.3941 11.6526 69.1296 10.6085 61.5995 10.6085C53.3733 10.6085 46.4127 11.8741 40.7177 14.4052C35.0859 16.9363 30.8463 20.385 27.9988 24.7512C25.2145 29.0541 23.8224 33.8949 23.8224 39.2736C31.3525 39.6532 39.1041 40.3493 47.0771 41.3617C46.8873 40.286 46.7924 39.2419 46.7924 38.2295C46.7924 35.0023 47.8365 32.3446 49.9247 30.2564C52.0761 28.1682 55.2084 27.1241 59.3215 27.1241C63.0549 27.1241 65.8075 27.7569 67.5793 29.0225C69.3511 30.2881 70.237 31.9966 70.237 34.148C70.237 35.8565 68.8132 37.5967 65.9657 39.3685C63.1182 41.077 59.0684 43.0703 53.8163 45.3483C49.7665 47.1201 46.7924 48.5755 44.894 49.7145C38.3764 53.5744 33.2825 57.7824 29.6123 62.3385C26.0055 66.8945 24.2021 72.2732 24.2021 78.4744L24.297 80.4677H92.1629C92.1629 77.4936 92.4476 74.1715 93.0171 70.5014C93.5866 66.8312 94.4093 63.3509 95.485 60.0605Z" fill="#09190F"/>
<path d="M153.855 62.5283C151.134 62.6549 146.926 62.7814 141.231 62.908V10.6085H120.539V10.7984C120.16 11.2413 119.4 12.0956 118.261 13.3611C117.186 14.6267 115.635 15.7973 113.61 16.8731C111.649 17.8855 108.137 18.7398 103.075 19.4358C104.277 25.5738 104.973 32.3762 105.163 39.8431C112.187 38.3877 116.838 35.1605 119.116 30.1615V62.908C115.635 62.908 110.478 62.7814 103.644 62.5283V80.4677H153.855V62.5283Z" fill="#09190F"/>
<path d="M96.2294 59.502C84.9026 60.8941 68.9565 62.1597 48.3911 63.2987C50.7324 61.9698 53.2319 60.8625 55.8896 59.9766C58.5472 59.0907 62.1225 57.9833 66.6152 56.6545C67.0582 56.5279 68.1339 56.2432 69.8424 55.8002C71.5509 55.294 72.7848 54.851 73.5442 54.4714C78.7963 52.0035 82.9726 49.7255 86.0733 47.6373C89.2372 45.4859 91.6418 43.0496 93.287 40.3287C94.9955 37.6077 95.8498 34.3489 95.8498 30.5522C95.8498 27.2617 94.6475 24.0662 92.2429 20.9655C89.9016 17.8016 86.1998 15.2072 81.1376 13.1823C76.1386 11.0941 69.8741 10.05 62.3439 10.05C54.1178 10.05 47.1572 11.3156 41.4621 13.8467C35.8304 16.3779 31.5907 19.8265 28.7432 24.1927C25.959 28.4957 24.5668 33.3364 24.5668 38.7151C32.0969 39.0948 39.8485 39.7908 47.8216 40.8033C47.6318 39.7275 47.5368 38.6835 47.5368 37.671C47.5368 34.4438 48.5809 31.7861 50.6691 29.6979C52.8206 27.6098 55.9528 26.5657 60.0659 26.5657C63.7993 26.5657 66.5519 27.1985 68.3237 28.464C70.0955 29.7296 70.9814 31.4381 70.9814 33.5896C70.9814 35.2981 69.5577 37.0382 66.7101 38.81C63.8626 40.5185 59.8128 42.5118 54.5607 44.7898C50.5109 46.5616 47.5368 48.017 45.6385 49.156C39.1208 53.016 34.0269 57.224 30.3568 61.78C26.7499 66.336 24.9465 71.7147 24.9465 77.916L25.0414 79.9092H92.9073C92.9073 76.9351 93.1921 73.613 93.7616 69.9429C94.3311 66.2728 95.1537 62.7925 96.2294 59.502Z" fill="#09190F"/>
<path d="M154.6 61.9698C151.879 62.0964 147.671 62.223 141.976 62.3495V10.05H121.284V10.2399C120.904 10.6828 120.145 11.5371 119.006 12.8027C117.93 14.0682 116.38 15.2389 114.355 16.3146C112.393 17.327 108.881 18.1813 103.819 18.8774C105.021 25.0154 105.717 31.8178 105.907 39.2846C112.931 37.8292 117.582 34.602 119.86 29.603V62.3495C116.38 62.3495 111.223 62.223 104.389 61.9698V79.9092H154.6V61.9698Z" fill="#09190F"/>
<path d="M96.9739 58.9436C85.6471 60.3358 69.701 61.6013 49.1355 62.7403C51.4768 61.4115 53.9763 60.3041 56.634 59.4182C59.2917 58.5323 62.8669 57.425 67.3597 56.0961C67.8026 55.9696 68.8783 55.6848 70.5869 55.2419C72.2954 54.7356 73.5293 54.2927 74.2886 53.913C79.5407 51.4452 83.7171 49.1672 86.8177 47.079C89.9816 44.9275 92.3862 42.4913 94.0314 39.7703C95.74 37.0494 96.5942 33.7905 96.5942 29.9938C96.5942 26.7034 95.3919 23.5078 92.9874 20.4072C90.6461 17.2433 86.9443 14.6489 81.882 12.624C76.883 10.5358 70.6185 9.4917 63.0884 9.4917C54.8622 9.4917 47.9016 10.7573 42.2066 13.2884C36.5748 15.8195 32.3352 19.2682 29.4876 23.6344C26.7034 27.9373 25.3113 32.7781 25.3113 38.1567C32.8414 38.5364 40.593 39.2325 48.566 40.2449C48.3762 39.1692 48.2813 38.1251 48.2813 37.1126C48.2813 33.8855 49.3254 31.2278 51.4136 29.1396C53.565 27.0514 56.6973 26.0073 60.8104 26.0073C64.5438 26.0073 67.2964 26.6401 69.0682 27.9057C70.84 29.1712 71.7259 30.8797 71.7259 33.0312C71.7259 34.7397 70.3021 36.4799 67.4546 38.2517C64.6071 39.9602 60.5573 41.9534 55.3052 44.2314C51.2554 46.0032 48.2813 47.4586 46.3829 48.5976C39.8653 52.4576 34.7714 56.6656 31.1012 61.2217C27.4944 65.7777 25.6909 71.1563 25.6909 77.3576L25.7859 79.3509H93.6518C93.6518 76.3768 93.9365 73.0547 94.506 69.3845C95.0755 65.7144 95.8981 62.2341 96.9739 58.9436Z" fill="#09190F"/>
<path d="M155.344 61.4115C152.623 61.538 148.415 61.6646 142.72 61.7912V9.4917H122.028V9.68154C121.649 10.1245 120.889 10.9787 119.75 12.2443C118.675 13.5099 117.124 14.6805 115.099 15.7562C113.138 16.7687 109.626 17.623 104.564 18.319C105.766 24.457 106.462 31.2594 106.652 38.7262C113.676 37.2708 118.327 34.0437 120.605 29.0447V61.7912C117.124 61.7912 111.967 61.6646 105.133 61.4115V79.3509H155.344V61.4115Z" fill="#09190F"/>
<path d="M97.7183 58.3854C86.3915 59.7775 70.4454 61.0431 49.88 62.1821C52.2213 60.8533 54.7208 59.7459 57.3784 58.86C60.0361 57.9741 63.6114 56.8667 68.1041 55.5379C68.5471 55.4113 69.6228 55.1266 71.3313 54.6836C73.0398 54.1774 74.2737 53.7345 75.0331 53.3548C80.2852 50.8869 84.4615 48.6089 87.5622 46.5207C90.7261 44.3693 93.1307 41.9331 94.7759 39.2121C96.4844 36.4911 97.3387 33.2323 97.3387 29.4356C97.3387 26.1452 96.1364 22.9496 93.7318 19.849C91.3905 16.6851 87.6887 14.0907 82.6265 12.0657C77.6275 9.97756 71.3629 8.93347 63.8328 8.93347C55.6067 8.93347 48.6461 10.199 42.951 12.7302C37.3193 15.2613 33.0796 18.71 30.2321 23.0762C27.4478 27.3791 26.0557 32.2199 26.0557 37.5985C33.5858 37.9782 41.3374 38.6742 49.3105 39.6867C49.1206 38.611 49.0257 37.5669 49.0257 36.5544C49.0257 33.3272 50.0698 30.6695 52.158 28.5814C54.3095 26.4932 57.4417 25.4491 61.5548 25.4491C65.2882 25.4491 68.0408 26.0819 69.8126 27.3474C71.5844 28.613 72.4703 30.3215 72.4703 32.473C72.4703 34.1815 71.0466 35.9216 68.199 37.6934C65.3515 39.4019 61.3017 41.3952 56.0496 43.6732C51.9998 45.445 49.0257 46.9004 47.1274 48.0394C40.6097 51.8994 35.5158 56.1074 31.8457 60.6634C28.2388 65.2195 26.4354 70.5981 26.4354 76.7994L26.5303 78.7926H94.3962C94.3962 75.8186 94.681 72.4965 95.2505 68.8263C95.82 65.1562 96.6426 61.6759 97.7183 58.3854Z" fill="#09190F"/>
<path d="M156.089 60.8533C153.368 60.9798 149.16 61.1064 143.465 61.2329V8.93347H122.773V9.12331C122.393 9.56626 121.634 10.4205 120.495 11.6861C119.419 12.9516 117.869 14.1223 115.844 15.198C113.882 16.2105 110.37 17.0647 105.308 17.7608C106.51 23.8988 107.206 30.7012 107.396 38.168C114.42 36.7126 119.071 33.4854 121.349 28.4864V61.2329C117.869 61.2329 112.712 61.1064 105.878 60.8533V78.7926H156.089V60.8533Z" fill="#09190F"/>
<path d="M98.4628 57.8269C87.136 59.2191 71.1899 60.4846 50.6244 61.6236C52.9657 60.2948 55.4652 59.1874 58.1229 58.3015C60.7806 57.4156 64.3558 56.3083 68.8486 54.9794C69.2915 54.8529 70.3672 54.5681 72.0757 54.1252C73.7843 53.6189 75.0182 53.176 75.7775 52.7963C81.0296 50.3285 85.206 48.0505 88.3066 45.9623C91.4705 43.8108 93.8751 41.3746 95.5203 38.6536C97.2288 35.9327 98.0831 32.6738 98.0831 28.8771C98.0831 25.5867 96.8808 22.3911 94.4762 19.2905C92.1349 16.1266 88.4332 13.5322 83.3709 11.5073C78.3719 9.41909 72.1074 8.375 64.5773 8.375C56.3511 8.375 49.3905 9.64057 43.6955 12.1717C38.0637 14.7028 33.8241 18.1515 30.9765 22.5177C28.1923 26.8206 26.8002 31.6614 26.8002 37.04C34.3303 37.4197 42.0819 38.1158 50.0549 39.1282C49.8651 38.0525 49.7702 37.0084 49.7702 35.996C49.7702 32.7688 50.8143 30.1111 52.9024 28.0229C55.0539 25.9347 58.1862 24.8906 62.2993 24.8906C66.0327 24.8906 68.7853 25.5234 70.5571 26.789C72.3289 28.0545 73.2148 29.763 73.2148 31.9145C73.2148 33.623 71.791 35.3632 68.9435 37.135C66.096 38.8435 62.0461 40.8367 56.7941 43.1147C52.7442 44.8865 49.7702 46.3419 47.8718 47.4809C41.3542 51.3409 36.2603 55.5489 32.5901 60.105C28.9833 64.661 27.1798 70.0396 27.1798 76.2409L27.2748 78.2342H95.1407C95.1407 75.2601 95.4254 71.938 95.9949 68.2678C96.5644 64.5977 97.387 61.1174 98.4628 57.8269Z" fill="#09190F"/>
<path d="M156.833 60.2948C154.112 60.4213 149.904 60.5479 144.209 60.6745V8.375H123.517V8.56484C123.138 9.00778 122.378 9.86204 121.239 11.1276C120.163 12.3932 118.613 13.5638 116.588 14.6395C114.627 15.652 111.115 16.5063 106.052 17.2023C107.255 23.3403 107.951 30.1427 108.141 37.6095C115.165 36.1541 119.815 32.927 122.093 27.928V60.6745C118.613 60.6745 113.456 60.5479 106.622 60.2948V78.2342H156.833V60.2948Z" fill="#09190F"/>
<path d="M99.2072 57.2686C87.8804 58.6607 71.9343 59.9263 51.3689 61.0653C53.7102 59.7364 56.2097 58.6291 58.8673 57.7432C61.525 56.8573 65.1002 55.7499 69.593 54.4211C70.0359 54.2945 71.1117 54.0098 72.8202 53.5668C74.5287 53.0606 75.7626 52.6176 76.522 52.238C81.7741 49.7701 85.9504 47.4921 89.0511 45.4039C92.215 43.2525 94.6195 40.8162 96.2648 38.0953C97.9733 35.3743 98.8275 32.1155 98.8275 28.3188C98.8275 25.0283 97.6253 21.8328 95.2207 18.7321C92.8794 15.5682 89.1776 12.9738 84.1154 10.9489C79.1164 8.86074 72.8518 7.81665 65.3217 7.81665C57.0956 7.81665 50.1349 9.08222 44.4399 11.6133C38.8081 14.1445 34.5685 17.5931 31.721 21.9593C28.9367 26.2623 27.5446 31.103 27.5446 36.4817C35.0747 36.8614 42.8263 37.5574 50.7994 38.5699C50.6095 37.4941 50.5146 36.4501 50.5146 35.4376C50.5146 32.2104 51.5587 29.5527 53.6469 27.4645C55.7983 25.3764 58.9306 24.3323 63.0437 24.3323C66.7771 24.3323 69.5297 24.9651 71.3015 26.2306C73.0733 27.4962 73.9592 29.2047 73.9592 31.3562C73.9592 33.0647 72.5354 34.8048 69.6879 36.5766C66.8404 38.2851 62.7906 40.2784 57.5385 42.5564C53.4887 44.3282 50.5146 45.7836 48.6163 46.9226C42.0986 50.7826 37.0047 54.9906 33.3346 59.5466C29.7277 64.1026 27.9243 69.4813 27.9243 75.6826L28.0192 77.6758H95.8851C95.8851 74.7017 96.1699 71.3796 96.7394 67.7095C97.3089 64.0394 98.1315 60.5591 99.2072 57.2686Z" fill="#09180E"/>
<path d="M157.578 59.7364C154.857 59.863 150.649 59.9896 144.954 60.1161V7.81665H124.262V8.00649C123.882 8.44943 123.123 9.30369 121.984 10.5693C120.908 11.8348 119.358 13.0055 117.333 14.0812C115.371 15.0936 111.859 15.9479 106.797 16.644C107.999 22.782 108.695 29.5844 108.885 37.0512C115.909 35.5958 120.56 32.3686 122.838 27.3696V60.1161C119.358 60.1161 114.2 59.9896 107.366 59.7364V77.6758H157.578V59.7364Z" fill="#09180E"/>
<path d="M99.9517 56.7104C88.6249 58.1025 72.6787 59.368 52.1133 60.5071C54.4546 59.1782 56.9541 58.0708 59.6118 57.1849C62.2695 56.2991 65.8447 55.1917 70.3374 53.8628C70.7804 53.7363 71.8561 53.4515 73.5646 53.0086C75.2732 52.5024 76.5071 52.0594 77.2664 51.6797C82.5185 49.2119 86.6949 46.9339 89.7955 44.8457C92.9594 42.6942 95.364 40.258 97.0092 37.5371C98.7177 34.8161 99.572 31.5573 99.572 27.7606C99.572 24.4701 98.3697 21.2746 95.9651 18.1739C93.6238 15.01 89.9221 12.4156 84.8598 10.3907C79.8608 8.30252 73.5963 7.25842 66.0662 7.25842C57.84 7.25842 50.8794 8.52399 45.1844 11.0551C39.5526 13.5862 35.3129 17.0349 32.4654 21.4011C29.6812 25.704 28.2891 30.5448 28.2891 35.9235C35.8192 36.3031 43.5708 36.9992 51.5438 38.0116C51.354 36.9359 51.2591 35.8918 51.2591 34.8794C51.2591 31.6522 52.3032 28.9945 54.3913 26.9063C56.5428 24.8181 59.6751 23.774 63.7882 23.774C67.5216 23.774 70.2742 24.4068 72.046 25.6724C73.8178 26.938 74.7036 28.6465 74.7036 30.7979C74.7036 32.5064 73.2799 34.2466 70.4324 36.0184C67.5848 37.7269 63.535 39.7202 58.2829 41.9982C54.2331 43.77 51.2591 45.2254 49.3607 46.3644C42.8431 50.2243 37.7492 54.4324 34.079 58.9884C30.4722 63.5444 28.6687 68.9231 28.6687 75.1243L28.7636 77.1176H96.6296C96.6296 74.1435 96.9143 70.8214 97.4838 67.1513C98.0533 63.4811 98.8759 60.0008 99.9517 56.7104Z" fill="#09180E"/>
<path d="M158.322 59.1782C155.601 59.3048 151.393 59.4313 145.698 59.5579V7.25842H125.006V7.44826C124.626 7.89121 123.867 8.74546 122.728 10.011C121.652 11.2766 120.102 12.4472 118.077 13.523C116.116 14.5354 112.604 15.3897 107.541 16.0857C108.744 22.2237 109.44 29.0261 109.63 36.493C116.653 35.0376 121.304 31.8104 123.582 26.8114V59.5579C120.102 59.5579 114.945 59.4313 108.111 59.1782V77.1176H158.322V59.1782Z" fill="#09180E"/>
<path d="M100.696 56.1521C89.3693 57.5443 73.4232 58.8098 52.8578 59.9488C55.1991 58.62 57.6985 57.5126 60.3562 56.6267C63.0139 55.7408 66.5891 54.6335 71.0819 53.3046C71.5248 53.1781 72.6006 52.8933 74.3091 52.4504C76.0176 51.9441 77.2515 51.5012 78.0109 51.1215C83.263 48.6537 87.4393 46.3756 90.54 44.2875C93.7039 42.136 96.1084 39.6998 97.7537 36.9788C99.4622 34.2579 100.316 30.999 100.316 27.2023C100.316 23.9119 99.1142 20.7163 96.7096 17.6157C94.3683 14.4518 90.6665 11.8574 85.6043 9.83247C80.6053 7.74429 74.3407 6.7002 66.8106 6.7002C58.5844 6.7002 51.6238 7.96576 45.9288 10.4969C40.297 13.028 36.0574 16.4767 33.2099 20.8429C30.4256 25.1458 29.0335 29.9866 29.0335 35.3652C36.5636 35.7449 44.3152 36.441 52.2883 37.4534C52.0984 36.3777 52.0035 35.3336 52.0035 34.3211C52.0035 31.094 53.0476 28.4363 55.1358 26.3481C57.2872 24.2599 60.4195 23.2158 64.5326 23.2158C68.266 23.2158 71.0186 23.8486 72.7904 25.1142C74.5622 26.3797 75.4481 28.0882 75.4481 30.2397C75.4481 31.9482 74.0243 33.6884 71.1768 35.4602C68.3293 37.1687 64.2795 39.1619 59.0274 41.4399C54.9776 43.2117 52.0035 44.6671 50.1052 45.8061C43.5875 49.6661 38.4936 53.8741 34.8235 58.4302C31.2166 62.9862 29.4132 68.3648 29.4132 74.5661L29.5081 76.5594H97.374C97.374 73.5853 97.6588 70.2632 98.2283 66.593C98.7978 62.9229 99.6204 59.4426 100.696 56.1521Z" fill="#08180E"/>
<path d="M159.067 58.62C156.346 58.7465 152.138 58.8731 146.443 58.9997V6.7002H125.751V6.89003C125.371 7.33298 124.612 8.18724 123.473 9.4528C122.397 10.7184 120.847 11.889 118.822 12.9647C116.86 13.9772 113.348 14.8315 108.286 15.5275C109.488 21.6655 110.184 28.4679 110.374 35.9347C117.398 34.4793 122.049 31.2521 124.327 26.2532V58.9997C120.847 58.9997 115.689 58.8731 108.855 58.62V76.5594H159.067V58.62Z" fill="#08180E"/>
<path d="M101.44 55.5937C90.1137 56.9858 74.1676 58.2514 53.6021 59.3904C55.9434 58.0615 58.4429 56.9541 61.1006 56.0682C63.7583 55.1824 67.3335 54.075 71.8263 52.7461C72.2692 52.6196 73.345 52.3348 75.0535 51.8919C76.762 51.3857 77.9959 50.9427 78.7552 50.563C84.0073 48.0952 88.1837 45.8172 91.2843 43.729C94.4482 41.5775 96.8528 39.1413 98.4981 36.4204C100.207 33.6994 101.061 30.4406 101.061 26.6439C101.061 23.3534 99.8585 20.1579 97.454 17.0572C95.1127 13.8933 91.4109 11.2989 86.3486 9.274C81.3497 7.18582 75.0851 6.14172 67.555 6.14172C59.3288 6.14172 52.3682 7.40729 46.6732 9.93842C41.0414 12.4695 36.8018 15.9182 33.9543 20.2844C31.17 24.5873 29.7779 29.4281 29.7779 34.8068C37.308 35.1864 45.0596 35.8825 53.0326 36.8949C52.8428 35.8192 52.7479 34.7751 52.7479 33.7627C52.7479 30.5355 53.792 27.8778 55.8802 25.7896C58.0316 23.7014 61.1639 22.6573 65.277 22.6573C69.0104 22.6573 71.763 23.2901 73.5348 24.5557C75.3066 25.8213 76.1925 27.5298 76.1925 29.6812C76.1925 31.3897 74.7687 33.1299 71.9212 34.9017C69.0737 36.6102 65.0239 38.6035 59.7718 40.8815C55.722 42.6533 52.7479 44.1087 50.8495 45.2477C44.3319 49.1076 39.238 53.3157 35.5679 57.8717C31.961 62.4277 30.1576 67.8064 30.1576 74.0076L30.2525 76.0009H98.1184C98.1184 73.0268 98.4031 69.7047 98.9726 66.0346C99.5421 62.3644 100.365 58.8841 101.44 55.5937Z" fill="#08180E"/>
<path d="M159.811 58.0615C157.09 58.1881 152.882 58.3146 147.187 58.4412V6.14172H126.495V6.33156C126.115 6.77451 125.356 7.62876 124.217 8.89433C123.141 10.1599 121.591 11.3305 119.566 12.4063C117.604 13.4187 114.092 14.273 109.03 14.969C110.232 21.107 110.929 27.9094 111.118 35.3763C118.142 33.9209 122.793 30.6937 125.071 25.6947V58.4412C121.591 58.4412 116.434 58.3146 109.6 58.0615V76.0009H159.811V58.0615Z" fill="#08180E"/>
<path d="M102.185 55.0353C90.8581 56.4274 74.912 57.693 54.3466 58.832C56.6879 57.5032 59.1874 56.3958 61.8451 55.5099C64.5028 54.624 68.078 53.5166 72.5707 52.1878C73.0137 52.0612 74.0894 51.7765 75.7979 51.3335C77.5064 50.8273 78.7404 50.3844 79.4997 50.0047C84.7518 47.5368 88.9282 45.2588 92.0288 43.1706C95.1927 41.0192 97.5973 38.583 99.2425 35.862C100.951 33.141 101.805 29.8822 101.805 26.0855C101.805 22.7951 100.603 19.5995 98.1984 16.4989C95.8571 13.335 92.1553 10.7406 87.0931 8.71565C82.0941 6.62747 75.8296 5.58337 68.2994 5.58337C60.0733 5.58337 53.1127 6.84894 47.4176 9.38007C41.7859 11.9112 37.5462 15.3599 34.6987 19.7261C31.9145 24.029 30.5223 28.8698 30.5223 34.2484C38.0524 34.6281 45.804 35.3241 53.7771 36.3366C53.5873 35.2609 53.4923 34.2168 53.4923 33.2043C53.4923 29.9771 54.5364 27.3194 56.6246 25.2313C58.7761 23.1431 61.9083 22.099 66.0214 22.099C69.7548 22.099 72.5074 22.7318 74.2792 23.9973C76.051 25.2629 76.9369 26.9714 76.9369 29.1229C76.9369 30.8314 75.5132 32.5715 72.6656 34.3433C69.8181 36.0518 65.7683 38.0451 60.5162 40.3231C56.4664 42.0949 53.4923 43.5503 51.594 44.6893C45.0763 48.5493 39.9824 52.7573 36.3123 57.3133C32.7054 61.8694 30.902 67.248 30.902 73.4493L30.9969 75.4425H98.8628C98.8628 72.4685 99.1476 69.1464 99.7171 65.4762C100.287 61.8061 101.109 58.3258 102.185 55.0353Z" fill="#08170E"/>
<path d="M160.555 57.5032C157.834 57.6297 153.626 57.7563 147.931 57.8828V5.58337H127.239V5.77321C126.86 6.21616 126.1 7.07041 124.961 8.33598C123.886 9.60154 122.335 10.7722 120.31 11.8479C118.349 12.8604 114.837 13.7146 109.775 14.4107C110.977 20.5487 111.673 27.3511 111.863 34.8179C118.887 33.3625 123.538 30.1353 125.816 25.1363V57.8828C122.335 57.8828 117.178 57.7563 110.344 57.5032V75.4425H160.555V57.5032Z" fill="#08170E"/>
<path d="M102.929 54.4771C91.6026 55.8692 75.6565 57.1348 55.091 58.2738C57.4323 56.9449 59.9318 55.8376 62.5895 54.9517C65.2472 54.0658 68.8224 52.9584 73.3152 51.6296C73.7581 51.503 74.8338 51.2183 76.5424 50.7753C78.2509 50.2691 79.4848 49.8261 80.2441 49.4465C85.4962 46.9786 89.6726 44.7006 92.7732 42.6124C95.9371 40.461 98.3417 38.0247 99.9869 35.3038C101.695 32.5828 102.55 29.324 102.55 25.5273C102.55 22.2368 101.347 19.0413 98.9429 15.9406C96.6016 12.7767 92.8998 10.1823 87.8375 8.15742C82.8385 6.06924 76.574 5.02515 69.0439 5.02515C60.8177 5.02515 53.8571 6.29071 48.1621 8.82184C42.5303 11.353 38.2907 14.8016 35.4431 19.1678C32.6589 23.4708 31.2668 28.3115 31.2668 33.6902C38.7969 34.0699 46.5485 34.7659 54.5215 35.7784C54.3317 34.7026 54.2368 33.6585 54.2368 32.6461C54.2368 29.4189 55.2809 26.7612 57.3691 24.673C59.5205 22.5849 62.6528 21.5408 66.7659 21.5408C70.4993 21.5408 73.2519 22.1735 75.0237 23.4391C76.7955 24.7047 77.6814 26.4132 77.6814 28.5646C77.6814 30.2732 76.2576 32.0133 73.4101 33.7851C70.5626 35.4936 66.5128 37.4869 61.2607 39.7649C57.2109 41.5367 54.2368 42.9921 52.3384 44.1311C45.8208 47.9911 40.7269 52.1991 37.0567 56.7551C33.4499 61.3111 31.6465 66.6898 31.6465 72.8911L31.7414 74.8843H99.6073C99.6073 71.9102 99.892 68.5881 100.462 64.918C101.031 61.2479 101.854 57.7676 102.929 54.4771Z" fill="#08170E"/>
<path d="M161.3 56.9449C158.579 57.0715 154.371 57.1981 148.676 57.3246V5.02515H127.984V5.21498C127.604 5.65793 126.845 6.51219 125.706 7.77775C124.63 9.04332 123.08 10.214 121.055 11.2897C119.093 12.3021 115.581 13.1564 110.519 13.8525C111.721 19.9905 112.417 26.7929 112.607 34.2597C119.631 32.8043 124.282 29.5771 126.56 24.5781V57.3246C123.08 57.3246 117.923 57.1981 111.089 56.9449V74.8843H161.3V56.9449Z" fill="#08170E"/>
<path d="M103.674 53.9186C92.3472 55.3107 76.4011 56.5763 55.8357 57.7153C58.177 56.3865 60.6765 55.2791 63.3341 54.3932C65.9918 53.5073 69.567 52.3999 74.0598 51.0711C74.5027 50.9445 75.5785 50.6598 77.287 50.2168C78.9955 49.7106 80.2294 49.2677 80.9888 48.888C86.2409 46.4201 90.4172 44.1421 93.5179 42.0539C96.6818 39.9025 99.0863 37.4663 100.732 34.7453C102.44 32.0243 103.294 28.7655 103.294 24.9688C103.294 21.6784 102.092 18.4828 99.6875 15.3822C97.3462 12.2183 93.6444 9.62386 88.5822 7.59895C83.5832 5.51077 77.3186 4.46667 69.7885 4.46667C61.5623 4.46667 54.6017 5.73224 48.9067 8.26337C43.2749 10.7945 39.0353 14.2432 36.1878 18.6094C33.4035 22.9123 32.0114 27.7531 32.0114 33.1317C39.5415 33.5114 47.2931 34.2074 55.2662 35.2199C55.0763 34.1442 54.9814 33.1001 54.9814 32.0876C54.9814 28.8604 56.0255 26.2027 58.1137 24.1146C60.2651 22.0264 63.3974 20.9823 67.5105 20.9823C71.2439 20.9823 73.9965 21.6151 75.7683 22.8806C77.5401 24.1462 78.426 25.8547 78.426 28.0062C78.426 29.7147 77.0022 31.4548 74.1547 33.2266C71.3072 34.9351 67.2574 36.9284 62.0053 39.2064C57.9555 40.9782 54.9814 42.4336 53.0831 43.5726C46.5654 47.4326 41.4715 51.6406 37.8014 56.1966C34.1945 60.7527 32.3911 66.1313 32.3911 72.3326L32.486 74.3258H100.352C100.352 71.3518 100.637 68.0297 101.206 64.3595C101.776 60.6894 102.598 57.2091 103.674 53.9186Z" fill="#08170D"/>
<path d="M162.044 56.3865C159.324 56.513 155.116 56.6396 149.42 56.7661V4.46667H128.728V4.65651C128.349 5.09946 127.589 5.95371 126.45 7.21928C125.375 8.48485 123.824 9.65549 121.8 10.7312C119.838 11.7437 116.326 12.5979 111.264 13.294C112.466 19.432 113.162 26.2344 113.352 33.7012C120.376 32.2458 125.027 29.0186 127.305 24.0196V56.7661C123.824 56.7661 118.667 56.6396 111.833 56.3865V74.3258H162.044V56.3865Z" fill="#08170D"/>
<path d="M104.418 53.3603C93.0917 54.7524 77.1455 56.018 56.5801 57.157C58.9214 55.8281 61.4209 54.7207 64.0786 53.8349C66.7363 52.949 70.3115 51.8416 74.8042 50.5127C75.2472 50.3862 76.3229 50.1014 78.0314 49.6585C79.7399 49.1523 80.9739 48.7093 81.7332 48.3296C86.9853 45.8618 91.1617 43.5838 94.2623 41.4956C97.4262 39.3441 99.8308 36.9079 101.476 34.187C103.185 31.466 104.039 28.2072 104.039 24.4105C104.039 21.12 102.837 17.9245 100.432 14.8238C98.0906 11.6599 94.3889 9.06551 89.3266 7.0406C84.3276 4.95242 78.0631 3.90833 70.533 3.90833C62.3068 3.90833 55.3462 5.17389 49.6511 7.70502C44.0194 10.2362 39.7797 13.6848 36.9322 18.051C34.148 22.3539 32.7559 27.1947 32.7559 32.5734C40.286 32.953 48.0376 33.6491 56.0106 34.6615C55.8208 33.5858 55.7259 32.5417 55.7259 31.5293C55.7259 28.3021 56.7699 25.6444 58.8581 23.5562C61.0096 21.468 64.1419 20.4239 68.255 20.4239C71.9884 20.4239 74.741 21.0567 76.5128 22.3223C78.2845 23.5879 79.1704 25.2964 79.1704 27.4478C79.1704 29.1563 77.7467 30.8965 74.8992 32.6683C72.0516 34.3768 68.0018 36.3701 62.7497 38.6481C58.6999 40.4199 55.7259 41.8753 53.8275 43.0143C47.3099 46.8742 42.216 51.0823 38.5458 55.6383C34.939 60.1943 33.1355 65.573 33.1355 71.7742L33.2304 73.7675H101.096C101.096 70.7934 101.381 67.4713 101.951 63.8012C102.52 60.131 103.343 56.6507 104.418 53.3603Z" fill="#08170D"/>
<path d="M162.789 55.8281C160.068 55.9547 155.86 56.0812 150.165 56.2078V3.90833H129.473V4.09816C129.093 4.54111 128.334 5.39537 127.195 6.66093C126.119 7.9265 124.569 9.09714 122.544 10.1729C120.582 11.1853 117.07 12.0396 112.008 12.7356C113.21 18.8736 113.906 25.676 114.096 33.1429C121.12 31.6875 125.771 28.4603 128.049 23.4613V56.2078C124.569 56.2078 119.412 56.0812 112.578 55.8281V73.7675H162.789V55.8281Z" fill="#08170D"/>
<path d="M105.163 52.802C93.8361 54.1942 77.89 55.4597 57.3246 56.5987C59.6659 55.2699 62.1653 54.1625 64.823 53.2766C67.4807 52.3907 71.0559 51.2834 75.5487 49.9545C75.9916 49.828 77.0674 49.5432 78.7759 49.1003C80.4844 48.594 81.7183 48.1511 82.4777 47.7714C87.7298 45.3036 91.9061 43.0256 95.0067 40.9374C98.1707 38.7859 100.575 36.3497 102.22 33.6287C103.929 30.9078 104.783 27.6489 104.783 23.8522C104.783 20.5618 103.581 17.3662 101.176 14.2656C98.8351 11.1017 95.1333 8.50728 90.071 6.48237C85.0721 4.39419 78.8075 3.3501 71.2774 3.3501C63.0512 3.3501 56.0906 4.61566 50.3956 7.14679C44.7638 9.67792 40.5242 13.1266 37.6767 17.4928C34.8924 21.7957 33.5003 26.6365 33.5003 32.0151C41.0304 32.3948 48.782 33.0909 56.7551 34.1033C56.5652 33.0276 56.4703 31.9835 56.4703 30.971C56.4703 27.7439 57.5144 25.0862 59.6026 22.998C61.754 20.9098 64.8863 19.8657 68.9994 19.8657C72.7328 19.8657 75.4854 20.4985 77.2572 21.7641C79.029 23.0296 79.9149 24.7381 79.9149 26.8896C79.9149 28.5981 78.4911 30.3383 75.6436 32.1101C72.7961 33.8186 68.7463 35.8118 63.4942 38.0898C59.4444 39.8616 56.4703 41.317 54.572 42.456C48.0543 46.316 42.9604 50.524 39.2903 55.0801C35.6834 59.6361 33.88 65.0147 33.88 71.216L33.9749 73.2093H101.841C101.841 70.2352 102.126 66.9131 102.695 63.2429C103.265 59.5728 104.087 56.0925 105.163 52.802Z" fill="#08160D"/>
<path d="M163.533 55.2699C160.812 55.3964 156.604 55.523 150.909 55.6496V3.3501H130.217V3.53994C129.838 3.98288 129.078 4.83714 127.939 6.1027C126.864 7.36827 125.313 8.53892 123.288 9.61465C121.327 10.6271 117.815 11.4814 112.753 12.1774C113.955 18.3154 114.651 25.1178 114.841 32.5846C121.865 31.1292 126.516 27.9021 128.794 22.9031V55.6496C125.313 55.6496 120.156 55.523 113.322 55.2699V73.2093H163.533V55.2699Z" fill="#08160D"/>
<path d="M105.907 52.2436C94.5805 53.6357 78.6344 54.9013 58.069 56.0403C60.4103 54.7114 62.9098 53.604 65.5675 52.7182C68.2252 51.8323 71.8004 50.7249 76.2931 49.396C76.7361 49.2695 77.8118 48.9847 79.5203 48.5418C81.2288 48.0356 82.4628 47.5926 83.2221 47.2129C88.4742 44.7451 92.6506 42.4671 95.7512 40.3789C98.9151 38.2274 101.32 35.7912 102.965 33.0703C104.673 30.3493 105.528 27.0905 105.528 23.2938C105.528 20.0033 104.325 16.8078 101.921 13.7071C99.5795 10.5432 95.8778 7.94881 90.8155 5.9239C85.8165 3.83572 79.552 2.79163 72.0219 2.79163C63.7957 2.79163 56.8351 4.05719 51.14 6.58832C45.5083 9.11945 41.2686 12.5681 38.4211 16.9343C35.6369 21.2372 34.2448 26.078 34.2448 31.4567C41.7749 31.8363 49.5264 32.5324 57.4995 33.5448C57.3097 32.4691 57.2148 31.425 57.2148 30.4126C57.2148 27.1854 58.2588 24.5277 60.347 22.4395C62.4985 20.3513 65.6308 19.3072 69.7438 19.3072C73.4773 19.3072 76.2299 19.94 78.0017 21.2056C79.7734 22.4712 80.6593 24.1797 80.6593 26.3311C80.6593 28.0396 79.2356 29.7798 76.3881 31.5516C73.5405 33.2601 69.4907 35.2534 64.2386 37.5314C60.1888 39.3032 57.2148 40.7586 55.3164 41.8976C48.7987 45.7575 43.7048 49.9656 40.0347 54.5216C36.4279 59.0776 34.6244 64.4563 34.6244 70.6575L34.7193 72.6508H102.585C102.585 69.6767 102.87 66.3546 103.439 62.6845C104.009 59.0143 104.832 55.534 105.907 52.2436Z" fill="#08160D"/>
<path d="M164.278 54.7114C161.557 54.838 157.349 54.9645 151.654 55.0911V2.79163H130.962V2.98146C130.582 3.42441 129.823 4.27867 128.684 5.54423C127.608 6.8098 126.058 7.98044 124.033 9.05617C122.071 10.0686 118.559 10.9229 113.497 11.6189C114.699 17.7569 115.395 24.5593 115.585 32.0262C122.609 30.5708 127.26 27.3436 129.538 22.3446V55.0911C126.058 55.0911 120.901 54.9645 114.067 54.7114V72.6508H164.278V54.7114Z" fill="#08160D"/>
<path d="M106.652 51.6852C95.325 53.0773 79.3789 54.3429 58.8135 55.4819C61.1547 54.1531 63.6542 53.0457 66.3119 52.1598C68.9696 51.2739 72.5448 50.1665 77.0376 48.8377C77.4805 48.7111 78.5563 48.4264 80.2648 47.9834C81.9733 47.4772 83.2072 47.0343 83.9666 46.6546C89.2186 44.1867 93.395 41.9087 96.4956 39.8205C99.6596 37.6691 102.064 35.2329 103.709 32.5119C105.418 29.7909 106.272 26.5321 106.272 22.7354C106.272 19.445 105.07 16.2494 102.665 13.1488C100.324 9.98486 96.6222 7.39046 91.5599 5.36555C86.561 3.27737 80.2964 2.23328 72.7663 2.23328C64.5401 2.23328 57.5795 3.49884 51.8845 6.02997C46.2527 8.5611 42.0131 12.0098 39.1656 16.376C36.3813 20.6789 34.9892 25.5197 34.9892 30.8983C42.5193 31.278 50.2709 31.974 58.2439 32.9865C58.0541 31.9108 57.9592 30.8667 57.9592 29.8542C57.9592 26.627 59.0033 23.9694 61.0915 21.8812C63.2429 19.793 66.3752 18.7489 70.4883 18.7489C74.2217 18.7489 76.9743 19.3817 78.7461 20.6472C80.5179 21.9128 81.4038 23.6213 81.4038 25.7728C81.4038 27.4813 79.98 29.2214 77.1325 30.9932C74.285 32.7017 70.2352 34.695 64.9831 36.973C60.9333 38.7448 57.9592 40.2002 56.0609 41.3392C49.5432 45.1992 44.4493 49.4072 40.7792 53.9632C37.1723 58.5193 35.3689 63.8979 35.3689 70.0992L35.4638 72.0924H103.33C103.33 69.1184 103.614 65.7963 104.184 62.1261C104.753 58.456 105.576 54.9757 106.652 51.6852Z" fill="#07160D"/>
<path d="M165.022 54.1531C162.301 54.2796 158.093 54.4062 152.398 54.5327V2.23328H131.706V2.42311C131.327 2.86606 130.567 3.72032 129.428 4.98588C128.353 6.25145 126.802 7.42209 124.777 8.49783C122.816 9.51027 119.304 10.3645 114.241 11.0606C115.444 17.1986 116.14 24.001 116.33 31.4678C123.354 30.0124 128.004 26.7852 130.283 21.7863V54.5327C126.802 54.5327 121.645 54.4062 114.811 54.1531V72.0924H165.022V54.1531Z" fill="#07160D"/>
<path d="M107.396 51.127C96.0694 52.5191 80.1233 53.7847 59.5579 54.9237C61.8992 53.5948 64.3987 52.4875 67.0564 51.6016C69.7141 50.7157 73.2893 49.6083 77.782 48.2795C78.225 48.1529 79.3007 47.8682 81.0092 47.4252C82.7177 46.919 83.9517 46.476 84.711 46.0964C89.9631 43.6285 94.1395 41.3505 97.2401 39.2623C100.404 37.1109 102.809 34.6746 104.454 31.9537C106.162 29.2327 107.017 25.9739 107.017 22.1772C107.017 18.8867 105.814 15.6912 103.41 12.5905C101.068 9.42664 97.3666 6.83223 92.3044 4.80733C87.3054 2.71914 81.0409 1.67505 73.5107 1.67505C65.2846 1.67505 58.324 2.94061 52.6289 5.47174C46.9972 8.00287 42.7575 11.4515 39.91 15.8177C37.1258 20.1207 35.7336 24.9614 35.7336 30.3401C43.2638 30.7198 51.0153 31.4158 58.9884 32.4283C58.7986 31.3525 58.7036 30.3085 58.7036 29.296C58.7036 26.0688 59.7477 23.4111 61.8359 21.3229C63.9874 19.2348 67.1196 18.1907 71.2327 18.1907C74.9661 18.1907 77.7188 18.8235 79.4905 20.089C81.2623 21.3546 82.1482 23.0631 82.1482 25.2146C82.1482 26.9231 80.7245 28.6632 77.8769 30.435C75.0294 32.1435 70.9796 34.1368 65.7275 36.4148C61.6777 38.1866 58.7036 39.642 56.8053 40.781C50.2876 44.641 45.1937 48.849 41.5236 53.405C37.9167 57.961 36.1133 63.3397 36.1133 69.541L36.2082 71.5342H104.074C104.074 68.5601 104.359 65.238 104.928 61.5679C105.498 57.8978 106.321 54.4175 107.396 51.127Z" fill="#07160D"/>
<path d="M165.767 53.5948C163.046 53.7214 158.838 53.848 153.143 53.9745V1.67505H132.451V1.86489C132.071 2.30783 131.312 3.16209 130.173 4.42766C129.097 5.69322 127.547 6.86387 125.522 7.9396C123.56 8.95205 120.048 9.8063 114.986 10.5024C116.188 16.6404 116.884 23.4428 117.074 30.9096C124.098 29.4542 128.749 26.227 131.027 21.228V53.9745C127.547 53.9745 122.389 53.848 115.555 53.5948V71.5342H165.767V53.5948Z" fill="#07160D"/>
<path d="M108.141 50.5686C96.8139 51.9608 80.8678 53.2263 60.3023 54.3653C62.6436 53.0365 65.1431 51.9291 67.8008 51.0432C70.4585 50.1573 74.0337 49.05 78.5265 47.7211C78.9694 47.5946 80.0452 47.3098 81.7537 46.8669C83.4622 46.3606 84.6961 45.9177 85.4554 45.538C90.7075 43.0702 94.8839 40.7922 97.9845 38.704C101.148 36.5525 103.553 34.1163 105.198 31.3953C106.907 28.6744 107.761 25.4155 107.761 21.6188C107.761 18.3284 106.559 15.1328 104.154 12.0322C101.813 8.86829 98.1111 6.27388 93.0488 4.24898C88.0499 2.16079 81.7853 1.1167 74.2552 1.1167C66.029 1.1167 59.0684 2.38226 53.3734 4.91339C47.7416 7.44453 43.502 10.8932 40.6545 15.2594C37.8702 19.5623 36.4781 24.4031 36.4781 29.7817C44.0082 30.1614 51.7598 30.8575 59.7328 31.8699C59.543 30.7942 59.4481 29.7501 59.4481 28.7376C59.4481 25.5105 60.4922 22.8528 62.5804 20.7646C64.7318 18.6764 67.8641 17.6323 71.9772 17.6323C75.7106 17.6323 78.4632 18.2651 80.235 19.5307C82.0068 20.7962 82.8927 22.5047 82.8927 24.6562C82.8927 26.3647 81.4689 28.1049 78.6214 29.8767C75.7739 31.5852 71.7241 33.5784 66.472 35.8564C62.4222 37.6282 59.4481 39.0836 57.5497 40.2226C51.0321 44.0826 45.9382 48.2906 42.268 52.8467C38.6612 57.4027 36.8578 62.7813 36.8578 68.9826L36.9527 70.9759H104.819C104.819 68.0018 105.103 64.6797 105.673 61.0095C106.242 57.3394 107.065 53.8591 108.141 50.5686Z" fill="#07150C"/>
<path d="M166.511 53.0365C163.79 53.163 159.582 53.2896 153.887 53.4162V1.1167H133.195V1.30654C132.815 1.74948 132.056 2.60374 130.917 3.86931C129.841 5.13487 128.291 6.30552 126.266 7.38125C124.305 8.3937 120.793 9.24795 115.73 9.94402C116.933 16.082 117.629 22.8844 117.819 30.3512C124.842 28.8958 129.493 25.6687 131.771 20.6697V53.4162C128.291 53.4162 123.134 53.2896 116.3 53.0365V70.9759H166.511V53.0365Z" fill="#07150C"/>
<path d="M108.885 50.0102C97.5583 51.4023 81.6122 52.6679 61.0467 53.8069C63.388 52.478 65.8875 51.3706 68.5452 50.4848C71.2029 49.5989 74.7781 48.4915 79.2709 47.1626C79.7138 47.0361 80.7895 46.7513 82.4981 46.3084C84.2066 45.8022 85.4405 45.3592 86.1998 44.9795C91.4519 42.5117 95.6283 40.2337 98.7289 38.1455C101.893 35.994 104.297 33.5578 105.943 30.8369C107.651 28.1159 108.505 24.8571 108.505 21.0604C108.505 17.7699 107.303 14.5744 104.899 11.4737C102.557 8.30981 98.8555 5.71541 93.7932 3.6905C88.7942 1.60232 82.5297 0.558228 74.9996 0.558228C66.7734 0.558228 59.8128 1.82379 54.1178 4.35492C48.486 6.88605 44.2464 10.3347 41.3988 14.7009C38.6146 19.0038 37.2225 23.8446 37.2225 29.2233C44.7526 29.6029 52.5042 30.299 60.4772 31.3114C60.2874 30.2357 60.1925 29.1916 60.1925 28.1792C60.1925 24.952 61.2366 22.2943 63.3247 20.2061C65.4762 18.1179 68.6085 17.0738 72.7216 17.0738C76.455 17.0738 79.2076 17.7066 80.9794 18.9722C82.7512 20.2378 83.6371 21.9463 83.6371 24.0977C83.6371 25.8062 82.2133 27.5464 79.3658 29.3182C76.5183 31.0267 72.4684 33.02 67.2164 35.298C63.1666 37.0698 60.1925 38.5252 58.2941 39.6642C51.7765 43.5241 46.6826 47.7322 43.0124 52.2882C39.4056 56.8442 37.6021 62.2229 37.6021 68.4241L37.6971 70.4174H105.563C105.563 67.4433 105.848 64.1212 106.417 60.4511C106.987 56.7809 107.809 53.3006 108.885 50.0102Z" fill="#07150C"/>
<path d="M167.256 52.478C164.535 52.6046 160.327 52.7311 154.632 52.8577V0.558228H133.94V0.748065C133.56 1.19101 132.801 2.04527 131.662 3.31083C130.586 4.5764 129.035 5.74705 127.011 6.82278C125.049 7.83523 121.537 8.68948 116.475 9.38555C117.677 15.5235 118.373 22.3259 118.563 29.7928C125.587 28.3374 130.238 25.1102 132.516 20.1112V52.8577C129.035 52.8577 123.878 52.7311 117.044 52.478V70.4174H167.256V52.478Z" fill="#07150C"/>
</svg>
