<svg width="136" height="155" viewBox="0 0 136 155" fill="none" xmlns="http://www.w3.org/2000/svg">
<path d="M11.2107 45.3241C12.7805 48.8755 16.8635 50.6454 20.5704 49.2909C24.2774 47.9364 26.2575 43.9511 25.1679 40.2243L31.1727 38.0302C32.7425 41.5815 36.8255 43.3515 40.5324 41.997C44.2392 40.6424 46.2195 36.6571 45.1299 32.9304L51.1338 30.7367C52.7035 34.2879 56.7866 36.0578 60.4935 34.7034C64.2004 33.3489 66.1805 29.3636 65.0909 25.6368L71.0957 23.4428C72.6655 26.9941 76.7485 28.764 80.4555 27.4095C84.1623 26.055 86.1425 22.0696 85.0529 18.3429L91.0568 16.1492C92.6265 19.7004 96.7097 21.4702 100.417 20.1159C104.123 18.7614 106.104 14.7761 105.014 11.0494L111.019 8.85527C112.589 12.4066 116.672 14.1765 120.379 12.822C124.085 11.4675 126.066 7.48222 124.976 3.75546L135.254 0L139.342 11.1887C139.184 11.2349 139.026 11.2846 138.869 11.3418C135.006 12.7536 133.016 17.0241 134.425 20.8802C135.834 24.7363 140.108 26.7179 143.972 25.3061C144.129 25.2488 144.281 25.1849 144.432 25.1184L147.846 34.4625C147.688 34.5087 147.53 34.5583 147.373 34.6156C143.51 36.0274 141.52 40.2978 142.929 44.154C144.338 48.0101 148.612 49.9916 152.476 48.5799C152.633 48.5226 152.785 48.4587 152.936 48.3922L156.35 57.7363C156.192 57.7825 156.034 57.8321 155.877 57.8894C152.014 59.3012 150.024 63.5716 151.433 67.4278C152.842 71.2839 157.116 73.2654 160.98 71.8537C161.137 71.7964 161.289 71.7324 161.44 71.666L164.854 81.01C164.696 81.0562 164.538 81.1059 164.381 81.1632C160.518 82.5749 158.528 86.8454 159.937 90.7015C161.346 94.5577 165.62 96.5392 169.484 95.1274C169.641 95.0702 169.793 95.0062 169.944 94.9398L173.692 105.197L163.414 108.953C163.368 108.795 163.318 108.638 163.261 108.481C161.852 104.625 157.578 102.643 153.714 104.055C149.85 105.467 147.861 109.737 149.27 113.594C149.327 113.75 149.391 113.903 149.457 114.053L143.452 116.247C143.406 116.089 143.356 115.932 143.299 115.775C141.89 111.919 137.616 109.937 133.752 111.349C129.889 112.761 127.899 117.032 129.308 120.888C129.365 121.044 129.429 121.196 129.495 121.347L123.491 123.54C123.445 123.383 123.395 123.225 123.338 123.069C121.929 119.213 117.655 117.231 113.791 118.643C109.927 120.054 107.937 124.325 109.346 128.181C109.404 128.338 109.467 128.49 109.534 128.64L103.529 130.834C103.483 130.677 103.433 130.519 103.376 130.363C101.967 126.506 97.6929 124.525 93.8292 125.937C89.9656 127.348 87.9755 131.619 89.3845 135.475C89.4417 135.631 89.5055 135.784 89.5719 135.934L83.568 138.128C83.5219 137.97 83.4724 137.813 83.4152 137.656C82.0063 133.8 77.7318 131.819 73.8681 133.23C70.0044 134.642 68.0144 138.912 69.4234 142.769C69.4806 142.925 69.5444 143.078 69.6108 143.228L63.606 145.422C63.5599 145.264 63.5104 145.106 63.4532 144.95C62.0443 141.094 57.7699 139.112 53.9061 140.524C50.0424 141.936 48.0525 146.206 49.4615 150.062C49.5186 150.219 49.5825 150.371 49.6488 150.522L38.4381 154.618L34.69 144.36C34.8479 144.314 35.006 144.264 35.1627 144.207C39.0265 142.795 41.0164 138.525 39.6074 134.669C38.1984 130.813 33.9241 128.831 30.0603 130.243C29.9036 130.3 29.7508 130.364 29.6003 130.43L26.186 121.086C26.3439 121.04 26.502 120.991 26.6587 120.933C30.5225 119.521 32.5124 115.251 31.1034 111.395C29.6944 107.539 25.4201 105.557 21.5563 106.969C21.3996 107.026 21.2467 107.09 21.0962 107.157L17.682 97.8126C17.8399 97.7664 17.998 97.7168 18.1547 97.6595C22.0185 96.2477 24.0084 91.9772 22.5994 88.1211C21.1904 84.265 16.916 82.2834 13.0523 83.6952C12.8956 83.7525 12.7427 83.8164 12.5922 83.8829L9.17802 74.5388C9.33592 74.4926 9.49395 74.443 9.65072 74.3857C13.5144 72.9739 15.5044 68.7035 14.0954 64.8473C12.6864 60.9912 8.41204 59.0097 4.54832 60.4214C4.39155 60.4787 4.23873 60.5426 4.08824 60.6091L0 49.4204L11.2107 45.3241Z" fill="#FDC600"/>
<path d="M17.0151 58.1085L126.909 17.9544L155.738 96.8526L45.8437 137.007L17.0151 58.1085Z" fill="#7C1C1C"/>
<path d="M29.7787 64.9869L29.7704 64.9643L29.9057 64.9149L29.9304 64.9825C30.2063 65.7377 30.119 66.2679 29.7132 66.4161C29.3187 66.5603 28.8559 66.3078 28.5883 65.5751L28.3247 64.8538C28.4987 66.0294 28.2861 67.0909 27.4169 67.2296C26.7896 67.3311 26.0618 66.7027 26.2243 65.749C26.3188 65.2034 26.6789 64.6502 27.04 64.135C27.3059 63.744 27.785 63.2368 27.3662 62.2655C27.1306 61.7256 26.9303 61.4921 26.6474 61.5572C26.055 61.6842 26.0128 62.8623 26.1996 63.6883C25.9291 63.7871 25.3662 63.7501 25.2927 63.3042C25.1965 62.7261 25.684 61.7176 26.6093 61.4178C27.3163 61.185 27.8222 61.4856 28.2083 62.5072L29.2008 65.2235C29.4108 65.7984 29.6131 65.9672 29.7934 65.9013C29.9399 65.8478 30.0052 65.6068 29.7787 64.9869ZM26.7985 65.1176C26.5844 65.8602 27.0294 66.5536 27.6413 66.445C28.3628 66.3218 28.407 65.0792 27.8387 63.5238L27.6657 63.0504C27.6536 63.8214 27.0658 64.2406 26.7985 65.1176ZM41.3862 56.1973L41.4356 56.3326L40.9058 56.5262L42.6603 61.3277L43.19 61.1341L43.8984 63.0727L43.7631 63.1222L43.7055 62.9644C43.5531 62.5473 42.7886 61.4341 41.932 61.7471L40.6245 62.2248C39.7679 62.5378 39.9012 63.8817 40.0536 64.2987L40.1113 64.4565L39.976 64.5059L39.2676 62.5673C40.3159 62.1843 39.8149 60.4637 39.3331 59.145L39.2013 58.7843C38.9666 58.1418 38.3473 57.461 37.8739 57.634L37.8401 57.6464L37.7907 57.5111L41.3862 56.1973ZM39.9665 62.312L42.0065 61.5665L40.2521 56.765L38.8094 57.2922C39.3407 58.7462 38.9854 57.7389 39.422 58.9336C39.9409 60.3538 40.1958 61.4361 39.9665 62.312ZM46.8614 58.745L46.8532 58.7224L46.9884 58.673L47.0131 58.7407C47.2891 59.4958 47.2017 60.026 46.7959 60.1743C46.4015 60.3184 45.9387 60.0659 45.671 59.3333L45.4074 58.6119C45.5815 59.7876 45.3688 60.849 44.4997 60.9877C43.8724 61.0892 43.1445 60.4608 43.3071 59.5071C43.4016 58.9615 43.7616 58.4084 44.1227 57.8932C44.3887 57.5021 44.8677 56.9949 44.4489 56.0237C44.2133 55.4837 44.013 55.2503 43.7302 55.3153C43.1378 55.4423 43.0955 56.6204 43.2824 57.4464C43.0119 57.5453 42.4489 57.5082 42.3755 57.0624C42.2792 56.4843 42.7667 55.4757 43.692 55.1759C44.3991 54.9431 44.905 55.2438 45.291 56.2653L46.2835 58.9817C46.4936 59.5565 46.6958 59.7254 46.8761 59.6595C47.0227 59.6059 47.0879 59.3649 46.8614 58.745ZM43.8813 58.8757C43.6671 59.6183 44.1121 60.3117 44.724 60.2031C45.4456 60.08 45.4898 58.8373 44.9214 57.2819L44.7485 56.8085C44.7363 57.5795 44.1485 57.9987 43.8813 58.8757ZM47.4427 53.9843C48.5822 53.6063 49.2431 54.0164 49.4531 54.5912C49.6179 55.0421 49.4241 55.7006 48.7994 56.1588C49.6573 56.0242 50.2957 56.4425 50.5139 57.0399C50.7899 57.7951 50.3984 58.5769 49.296 59.0564L47.6053 59.6741L47.5559 59.5389L48.0631 59.3535L46.3087 54.552L45.8015 54.7373L45.7521 54.6021L47.4427 53.9843ZM48.7168 59.1147L49.0437 58.9952C49.889 58.6863 50.0559 57.8844 49.8459 57.3095C49.5906 56.6107 48.9379 56.2232 48.2842 56.462L48.2278 56.4826L47.8108 56.635L48.7168 59.1147ZM47.7614 56.4998L48.0882 56.3803C48.8209 56.1126 49.0281 55.5259 48.818 54.951C48.5627 54.2522 48.0557 53.9137 47.2893 54.1937L46.9624 54.3131L47.7614 56.4998ZM54.6433 55.9015L54.6351 55.879L54.7704 55.8296L54.7951 55.8972C55.071 56.6524 54.9837 57.1826 54.5779 57.3308C54.1834 57.475 53.7206 57.2224 53.4529 56.4898L53.1894 55.7685C53.3634 56.9441 53.1508 58.0056 52.2816 58.1443C51.6543 58.2457 50.9265 57.6174 51.089 56.6637C51.1835 56.1181 51.5435 55.5649 51.9047 55.0497C52.1706 54.6587 52.6496 54.1515 52.2309 53.1802C51.9952 52.6403 51.795 52.4068 51.5121 52.4719C50.9197 52.5989 50.8775 53.7769 51.0643 54.603C50.7938 54.7018 50.2309 54.6648 50.1574 54.2189C50.0612 53.6408 50.5486 52.6323 51.474 52.3325C52.181 52.0997 52.6869 52.4003 53.073 53.4219L54.0655 56.1382C54.2755 56.7131 54.4777 56.8819 54.6581 56.816C54.8046 56.7625 54.8699 56.5215 54.6433 55.9015ZM51.6632 56.0323C51.449 56.7749 51.894 57.4683 52.5059 57.3597C53.2275 57.2365 53.2717 55.9939 52.7034 54.4385L52.5304 53.9651C52.5183 54.7361 51.9305 55.1553 51.6632 56.0323ZM54.44 50.2522L56.4688 49.5109L56.5265 49.6687L54.4977 50.41L54.44 50.2522ZM55.3873 56.8307L55.3378 56.6954L55.8451 56.5101L54.0906 51.7086L53.5834 51.8939L53.534 51.7586L55.2247 51.1409L55.2741 51.2761L54.7444 51.4697L56.157 55.3357L56.6475 52.3074C56.7552 51.6932 56.6301 51.0362 56.4983 50.6755L57.6818 50.2431L57.7312 50.3783L57.2015 50.5719L58.9559 55.3734L59.4856 55.1798L59.5351 55.3151L57.8444 55.9329L57.795 55.7976L58.3022 55.6123L56.8896 51.7463L56.3991 54.7745C56.2913 55.3888 56.4164 56.0458 56.5482 56.4065L55.3873 56.8307ZM68.3878 46.2929C67.6101 46.577 67.7868 48.1095 68.3237 49.2292C68.8606 50.349 69.6903 51.2212 70.5244 50.9164C70.9978 50.7435 71.2696 50.1587 71.1833 49.3981L71.3073 49.3528C71.4378 50.1994 71.2098 51.2537 70.3757 51.5584C69.4289 51.9044 68.2138 51.0963 67.6249 49.4846C67.036 47.8728 67.4439 46.4717 68.447 46.1052C69.3825 45.7633 70.2047 46.37 70.1366 46.7782C70.0848 47.0909 69.795 47.3118 69.5726 47.3675C69.4202 46.9505 68.9965 46.0705 68.3878 46.2929ZM72.0102 45.0076L72.0596 45.1429L71.5299 45.3364L72.9425 49.2024L73.433 46.1742C73.5407 45.5599 73.4157 44.9029 73.2839 44.5422L74.4673 44.1098L74.5168 44.2451L73.987 44.4386L75.7414 49.2401L76.2712 49.0466L76.3206 49.1818L74.6299 49.7996L74.5805 49.6643L75.0877 49.479L73.6751 45.613L73.1846 48.6413C73.0769 49.2555 73.202 49.9125 73.3337 50.2732L72.1728 50.6974L72.1234 50.5621L72.6306 50.3768L70.8762 45.5753L70.369 45.7606L70.3196 45.6254L72.0102 45.0076ZM76.5011 43.3667L76.5505 43.502L76.0208 43.6955L76.7785 45.7694L78.5819 45.1105L77.8241 43.0366L77.3169 43.2219L77.2675 43.0867L78.9582 42.4689L79.0076 42.6041L78.4779 42.7977L80.2323 47.5992L80.762 47.4057L80.8115 47.5409L79.1208 48.1587L79.0714 48.0234L79.5786 47.8381L78.6313 45.2457L76.828 45.9047L77.7752 48.497L78.3049 48.3035L78.3543 48.4387L76.6637 49.0565L76.6143 48.9212L77.1215 48.7359L75.367 43.9344L74.8598 44.1197L74.8104 43.9845L76.5011 43.3667ZM80.9919 41.7258L81.0414 41.861L80.5116 42.0546L81.9242 45.9206L82.4147 42.8923C82.5224 42.2781 82.3974 41.6211 82.2656 41.2604L83.449 40.828L83.4985 40.9632L82.9687 41.1568L84.7231 45.9583L85.2529 45.7647L85.3023 45.9L83.6116 46.5178L83.5622 46.3825L84.0694 46.1972L82.6568 42.3312L82.1663 45.3594C82.0586 45.9737 82.1837 46.6307 82.3155 46.9914L81.1545 47.4156L81.1051 47.2803L81.6123 47.095L79.8579 42.2935L79.3507 42.4788L79.3013 42.3435L80.9919 41.7258ZM84.6981 39.1962L86.7269 38.4549L86.7846 38.6127L84.7558 39.354L84.6981 39.1962ZM85.6454 45.7747L85.596 45.6394L86.1032 45.4541L84.3487 40.6526L83.8415 40.8379L83.7921 40.7026L85.4828 40.0849L85.5322 40.2201L85.0025 40.4137L86.4151 44.2797L86.9056 41.2514C87.0133 40.6372 86.8882 39.9802 86.7564 39.6195L87.9399 39.1871L87.9893 39.3223L87.4596 39.5159L89.214 44.3174L89.7437 44.1238L89.7932 44.2591L88.1025 44.8768L88.0531 44.7416L88.5603 44.5563L87.1477 40.6903L86.6572 43.7185C86.5494 44.3328 86.6745 44.9898 86.8063 45.3505L85.6454 45.7747ZM100.991 34.4182L101.041 34.5534L100.511 34.747L102.266 39.5485L102.795 39.3549L102.845 39.4902L101.154 40.1079L101.105 39.9727L101.612 39.7874L99.8574 34.9858L98.1667 35.6036L99.9211 40.4051L100.451 40.2116L100.5 40.3468L98.8096 40.9646L98.7602 40.8293L99.2674 40.644L97.513 35.8425L97.0058 36.0278L96.9564 35.8925L100.991 34.4182ZM104.958 38.9223C104.068 39.2477 102.853 38.4396 102.264 36.8279C101.675 35.2161 102.083 33.815 102.973 33.4896C103.852 33.1684 105.09 33.9682 105.679 35.58C106.268 37.1918 105.837 38.6011 104.958 38.9223ZM102.963 36.5725C103.387 37.7335 104.127 39.06 104.905 38.7758C105.671 38.4958 105.404 36.9963 104.98 35.8353C104.556 34.6744 103.793 33.3561 103.027 33.6362C102.249 33.9203 102.538 35.4116 102.963 36.5725ZM107 32.1843C106.223 32.4684 106.399 34.0009 106.936 35.1206C107.473 36.2404 108.303 37.1126 109.137 36.8078C109.61 36.6349 109.882 36.0501 109.796 35.2895L109.92 35.2442C110.05 36.0908 109.822 37.1451 108.988 37.4499C108.041 37.7958 106.826 36.9877 106.237 35.376C105.648 33.7642 106.056 32.3631 107.059 31.9966C107.995 31.6547 108.817 32.2614 108.749 32.6696C108.697 32.9824 108.407 33.2032 108.185 33.2589C108.033 32.8419 107.609 31.9619 107 32.1843ZM110.623 30.899L110.672 31.0343L110.142 31.2278L111.555 35.0938L112.045 32.0656C112.153 31.4513 112.028 30.7943 111.896 30.4336L113.08 30.0012L113.129 30.1365L112.599 30.33L114.354 35.1315L114.884 34.938L114.933 35.0732L113.242 35.691L113.193 35.5557L113.7 35.3704L112.288 31.5044L111.797 34.5327C111.689 35.1469 111.814 35.8039 111.946 36.1646L110.785 36.5888L110.736 36.4535L111.243 36.2682L109.489 31.4667L108.981 31.652L108.932 31.5168L110.623 30.899ZM115.113 29.2581L115.163 29.3934L114.633 29.5869L115.391 31.6608L117.194 31.0019L116.437 28.928L115.929 29.1133L115.88 28.9781L117.571 28.3603L117.62 28.4956L117.09 28.6891L118.845 33.4906L119.374 33.2971L119.424 33.4323L117.733 34.0501L117.684 33.9148L118.191 33.7295L117.244 31.1371L115.44 31.7961L116.388 34.3884L116.917 34.1949L116.967 34.3301L115.276 34.9479L115.227 34.8126L115.734 34.6273L113.979 29.8258L113.472 30.0111L113.423 29.8759L115.113 29.2581ZM119.233 29.7841C119.313 30.0362 119.408 30.2954 119.517 30.5239C120.053 31.6436 120.883 32.5158 121.717 32.2111C122.191 32.0381 122.485 31.445 122.399 30.6845L122.523 30.6392C122.653 31.4858 122.425 32.5401 121.591 32.8448C120.644 33.1908 119.429 32.3827 118.84 30.771C118.251 29.1592 118.659 27.7581 119.55 27.4327C120.395 27.1239 121.355 27.6545 121.792 28.8492L119.233 29.7841ZM119.195 29.6447L120.3 29.2411C120.92 29.0146 120.939 28.6117 120.691 28.1784L120.687 28.1671C120.373 27.6939 119.998 27.4351 119.603 27.5793C119.017 27.7934 118.96 28.7213 119.195 29.6447ZM123.086 28.3764C123.165 28.6285 123.26 28.8878 123.369 29.1162C123.906 30.236 124.736 31.1082 125.57 30.8034C126.043 30.6304 126.337 30.0374 126.251 29.2768L126.375 29.2315C126.506 30.0782 126.278 31.1324 125.444 31.4372C124.497 31.7831 123.282 30.9751 122.693 29.3633C122.104 27.7515 122.512 26.3504 123.402 26.0251C124.248 25.7162 125.208 26.2468 125.644 27.4416L123.086 28.3764ZM123.048 28.2371L124.152 27.8335C124.772 27.607 124.791 27.204 124.543 26.7707L124.539 26.7594C124.226 26.2863 123.85 26.0275 123.456 26.1716C122.87 26.3858 122.813 27.3137 123.048 28.2371ZM30.2156 71.9519C29.4379 72.2361 29.6145 73.7685 30.1515 74.8883C30.6884 76.008 31.5181 76.8802 32.3522 76.5755C32.8255 76.4025 33.0974 75.8177 33.0111 75.0571L33.1351 75.0118C33.2656 75.8585 33.0375 76.9128 32.2035 77.2175C31.2567 77.5635 30.0416 76.7554 29.4526 75.1436C28.8637 73.5319 29.2716 72.1308 30.2748 71.7642C31.2103 71.4224 32.0324 72.0291 31.9644 72.4372C31.9126 72.75 31.6228 72.9709 31.4004 73.0266C31.248 72.6096 30.8242 71.7295 30.2156 71.9519ZM35.8495 69.9317L35.899 70.0669L35.3692 70.2605L37.1236 75.062L37.6534 74.8684L38.3617 76.8071L38.2265 76.8565L38.1688 76.6987C38.0164 76.2817 37.2519 75.1684 36.3953 75.4814L35.0879 75.9592C34.2313 76.2722 34.3646 77.616 34.517 78.0331L34.5746 78.1909L34.4394 78.2403L33.731 76.3016C34.7792 75.9186 34.2783 74.198 33.7965 72.8793L33.6647 72.5186C33.4299 71.8762 32.8107 71.1954 32.3373 71.3683L32.3035 71.3807L32.254 71.2454L35.8495 69.9317ZM34.4298 76.0463L36.4699 75.3009L34.7155 70.4994L33.2728 71.0265C33.804 72.4805 33.4488 71.4732 33.8853 72.668C34.4042 74.0881 34.6591 75.1704 34.4298 76.0463ZM37.5067 71.3575C37.586 71.6096 37.6807 71.8689 37.7898 72.0973C38.3267 73.2171 39.1564 74.0893 39.9905 73.7845C40.4639 73.6116 40.7582 73.0185 40.6719 72.2579L40.7959 72.2126C40.9264 73.0593 40.6984 74.1136 39.8643 74.4183C38.9176 74.7643 37.7024 73.9562 37.1135 72.3444C36.5246 70.7326 36.9325 69.3316 37.8229 69.0062C38.6683 68.6973 39.6287 69.2279 40.0652 70.4227L37.5067 71.3575ZM37.4685 71.2182L38.5731 70.8146C39.193 70.5881 39.2119 70.1851 38.9641 69.7518L38.96 69.7406C38.6466 69.2674 38.271 69.0086 37.8765 69.1527C37.2904 69.3669 37.2334 70.2948 37.4685 71.2182ZM43.5641 67.1128L43.6135 67.2481L43.0838 67.4417L44.8382 72.2432L45.368 72.0496L45.4174 72.1849L43.7267 72.8026L43.6773 72.6674L44.1845 72.482L42.4301 67.6805L40.9874 68.2077L41.914 70.7437C42.3711 71.9948 42.7689 73.2931 42.0527 73.6059C41.6101 73.7932 41.3212 73.2472 41.3975 72.8616C42.1375 72.719 42.2812 72.1682 41.6922 70.5564L41.3792 69.6998C41.1445 69.0574 40.5252 68.3765 40.0518 68.5495L40.018 68.5619L39.9686 68.4266L43.5641 67.1128ZM48.9306 69.7002L48.9224 69.6777L49.0576 69.6283L49.0823 69.6959C49.3583 70.4511 49.2709 70.9812 48.8651 71.1295C48.4707 71.2736 48.0079 71.0211 47.7402 70.2885L47.4766 69.5672C47.6507 70.7428 47.438 71.8043 46.5689 71.943C45.9416 72.0444 45.2137 71.4161 45.3763 70.4624C45.4708 69.9168 45.8308 69.3636 46.1919 68.8484C46.4579 68.4574 46.9369 67.9502 46.5181 66.9789C46.2825 66.439 46.0822 66.2055 45.7994 66.2706C45.207 66.3976 45.1647 67.5756 45.3516 68.4017C45.0811 68.5005 44.5181 68.4635 44.4447 68.0176C44.3484 67.4395 44.8359 66.431 45.7612 66.1312C46.4683 65.8984 46.9742 66.199 47.3602 67.2206L48.3527 69.9369C48.5628 70.5118 48.765 70.6806 48.9453 70.6147C49.0919 70.5612 49.1571 70.3201 48.9306 69.7002ZM45.9505 69.8309C45.7363 70.5735 46.1813 71.2669 46.7932 71.1583C47.5148 71.0352 47.559 69.7926 46.9906 68.2372L46.8177 67.7638C46.8055 68.5348 46.2177 68.954 45.9505 69.8309ZM49.1411 67.1065C49.2204 67.3585 49.3151 67.6178 49.4242 67.8462C49.9611 68.966 50.7908 69.8382 51.6249 69.5334C52.0983 69.3605 52.3926 68.7674 52.3063 68.0068L52.4303 67.9615C52.5608 68.8082 52.3328 69.8625 51.4987 70.1672C50.5519 70.5132 49.3368 69.7051 48.7479 68.0933C48.159 66.4816 48.5669 65.0805 49.4573 64.7551C50.3027 64.4462 51.2631 64.9768 51.6996 66.1716L49.1411 67.1065ZM49.1029 66.9671L50.2075 66.5635C50.8274 66.337 50.8463 65.934 50.5985 65.5007L50.5944 65.4895C50.281 65.0163 49.9053 64.7575 49.5109 64.9016C48.9248 65.1158 48.8677 66.0437 49.1029 66.9671ZM55.6924 68.5327L52.7337 65.2955L53.4531 67.7539C53.6087 68.2847 53.9081 68.9291 54.5731 68.6862L54.6069 68.6738L54.6563 68.8091L52.9656 69.4268L52.9162 69.2916L52.95 69.2792C53.5474 69.0609 53.4611 68.3003 53.3395 67.8976L52.1614 63.8693L52.3305 63.8075L55.6518 67.5127L55.3624 62.6996L55.4977 62.6502L57.8755 67.4795L58.3827 67.2942L58.4321 67.4294L56.7415 68.0472L56.692 67.9119L57.2331 67.7142L55.605 64.4124L55.8502 68.475L55.6924 68.5327ZM59.5324 68.3305L59.8021 67.0055C59.7611 67.0332 59.7201 67.061 59.6638 67.0816C59.3933 67.1804 59.0855 67.0374 58.9866 66.7669C58.8878 66.4963 59.0309 66.1886 59.3014 66.0897C59.5719 65.9909 59.8797 66.1339 59.9785 66.4044C60.0073 66.4833 60.0177 66.5817 60.0086 66.6617L59.7765 68.3691L59.5324 68.3305ZM69.8731 62.048L69.8649 62.0255L70.0001 61.9761L70.0249 62.0437C70.3008 62.7989 70.2134 63.3291 69.8077 63.4773C69.4132 63.6215 68.9504 63.3689 68.6827 62.6363L68.4191 61.915C68.5932 63.0906 68.3806 64.1521 67.5114 64.2908C66.8841 64.3922 66.1562 63.7639 66.3188 62.8102C66.4133 62.2646 66.7733 61.7114 67.1344 61.1962C67.4004 60.8052 67.8794 60.298 67.4606 59.3267C67.225 58.7868 67.0247 58.5533 66.7419 58.6184C66.1495 58.7454 66.1072 59.9234 66.2941 60.7495C66.0236 60.8483 65.4607 60.8113 65.3872 60.3654C65.2909 59.7873 65.7784 58.7788 66.7037 58.479C67.4108 58.2462 67.9167 58.5468 68.3027 59.5684L69.2953 62.2847C69.5053 62.8596 69.7075 63.0284 69.8879 62.9625C70.0344 62.909 70.0996 62.668 69.8731 62.048ZM66.893 62.1788C66.6788 62.9214 67.1238 63.6147 67.7357 63.5062C68.4573 63.383 68.5015 62.1404 67.9332 60.585L67.7602 60.1116C67.7481 60.8826 67.1602 61.3018 66.893 62.1788ZM76.077 55.2074C75.5247 55.4092 75.2724 56.6768 75.5854 57.5334L75.6266 57.6461L75.4913 57.6955L74.7047 55.5427L74.84 55.4933C74.9141 55.6962 75.0147 55.7617 75.1499 55.7122C75.3528 55.6381 75.6474 55.1855 76.2447 54.9673C77.1126 54.6501 77.7132 55.21 77.9192 55.7736C78.1127 56.3033 77.9272 56.9844 77.2953 57.458C78.1645 57.3192 78.807 57.7488 79.05 58.4138C79.2724 59.0225 79.1653 60.0581 78.0269 60.4741C76.7194 60.9518 75.7941 59.9229 75.816 59.4933C75.8349 59.0903 76.3072 58.8794 76.5092 58.9078C76.6681 59.5525 77.2069 60.6076 78.0072 60.3152C78.6271 60.0887 78.5755 59.2132 78.3778 58.6722C78.0937 57.8945 77.4451 57.5182 76.7914 57.7571L76.6449 57.8106L76.5954 57.6754C77.3281 57.4077 77.5353 56.8209 77.2841 56.1334C77.0699 55.5473 76.618 55.0097 76.077 55.2074ZM79.5568 55.9928C79.6362 56.2449 79.7309 56.5042 79.8399 56.7326C80.3768 57.8524 81.2066 58.7246 82.0406 58.4198C82.514 58.2468 82.8084 57.6538 82.7221 56.8932L82.8461 56.8479C82.9766 57.6946 82.7485 58.7488 81.9145 59.0536C80.9677 59.3995 79.7526 58.5915 79.1637 56.9797C78.5747 55.3679 78.9827 53.9668 79.8731 53.6415C80.7184 53.3326 81.6788 53.8632 82.1154 55.058L79.5568 55.9928ZM79.5187 55.8535L80.6233 55.4499C81.2432 55.2234 81.262 54.8204 81.0143 54.3871L81.0102 54.3759C80.6967 53.9027 80.3211 53.6439 79.9266 53.788C79.3405 54.0022 79.2835 54.9301 79.5187 55.8535ZM85.6143 51.7481L85.6637 51.8834L85.1339 52.077L86.8884 56.8785L87.4181 56.6849L87.4675 56.8202L85.7769 57.4379L85.7274 57.3027L86.2346 57.1173L84.4802 52.3158L83.0375 52.843L83.9641 55.379C84.4213 56.6301 84.819 57.9284 84.1029 58.2412C83.6603 58.4285 83.3713 57.8825 83.4476 57.4969C84.1876 57.3543 84.3313 56.8035 83.7424 55.1917L83.4294 54.3351C83.1947 53.6926 82.5754 53.0118 82.102 53.1848L82.0682 53.1972L82.0188 53.0619L85.6143 51.7481ZM87.2953 53.1653C87.3746 53.4174 87.4693 53.6766 87.5784 53.9051C88.1153 55.0248 88.9985 56.0436 89.8326 55.7388C90.306 55.5658 90.5243 54.8345 90.438 54.0739L90.562 54.0286C90.6925 54.8752 90.4645 55.9295 89.6304 56.2343C88.6836 56.5802 87.4685 55.7722 86.8796 54.1604C86.2906 52.5486 86.6986 51.1475 87.589 50.8222C88.4343 50.5133 89.3947 51.0439 89.8313 52.2387L87.2953 53.1653ZM85.9148 50.1563C85.8159 49.8858 85.959 49.578 86.2295 49.4792C86.5 49.3803 86.8078 49.5234 86.9066 49.7939C87.0055 50.0644 86.8624 50.3722 86.5919 50.471C86.3214 50.5699 86.0136 50.4268 85.9148 50.1563ZM87.2571 53.0259L88.3392 52.6306C88.9591 52.404 88.9779 52.0011 88.7302 51.5678L88.7261 51.5565C88.4126 51.0834 88.037 50.8246 87.6425 50.9687C87.0564 51.1829 87.0107 52.1067 87.2571 53.0259ZM87.4364 49.6003C87.3375 49.3298 87.4806 49.022 87.7511 48.9232C88.0216 48.8244 88.3294 48.9674 88.4282 49.2379C88.5271 49.5084 88.384 49.8162 88.1135 49.9151C87.843 50.0139 87.5352 49.8709 87.4364 49.6003ZM91.3309 49.6593L91.3804 49.7946L90.8506 49.9881L91.6084 52.062L93.4118 51.4031L92.654 49.3292L92.1468 49.5145L92.0974 49.3793L93.7881 48.7615L93.8375 48.8968L93.3077 49.0903L95.0622 53.8918L95.5919 53.6983L95.6413 53.8335L93.9506 54.4513L93.9012 54.316L94.4084 54.1307L93.4612 51.5383L91.6578 52.1973L92.605 54.7897L93.1348 54.5961L93.1842 54.7313L91.4935 55.3491L91.4441 55.2138L91.9513 55.0285L90.1969 50.227L89.6897 50.4123L89.6403 50.2771L91.3309 49.6593ZM95.8218 48.0184L95.8712 48.1537L95.3415 48.3472L96.1404 50.5338L96.7265 50.3197C97.8086 49.9243 98.7391 50.3381 98.893 51.074C99.0675 51.8662 98.7662 52.6151 97.6751 53.0904L95.9844 53.7082L95.935 53.5729L96.4422 53.3876L94.6877 48.5861L94.1805 48.7714L94.1311 48.6362L95.8218 48.0184ZM97.0959 53.1487L97.4228 53.0293C98.2681 52.7204 98.435 51.9184 98.225 51.3436C97.9696 50.6448 97.317 50.2572 96.6632 50.4961L96.1899 50.6691L97.0959 53.1487ZM99.5686 52.3985L99.5192 52.2633L100.026 52.078L98.272 47.2764L97.7648 47.4618L97.7154 47.3265L99.406 46.7088L99.4554 46.844L98.9257 47.0376L100.68 51.8391L101.21 51.6455L101.259 51.7808L99.5686 52.3985ZM100.651 45.0786L102.68 44.3373L102.737 44.4951L100.708 45.2364L100.651 45.0786ZM101.598 51.657L101.549 51.5218L102.056 51.3365L100.301 46.535L99.7941 46.7203L99.7447 46.585L101.435 45.9673L101.485 46.1025L100.955 46.2961L102.368 50.1621L102.858 47.1338C102.966 46.5195 102.841 45.8626 102.709 45.5019L103.892 45.0695L103.942 45.2047L103.412 45.3983L105.167 50.1998L105.696 50.0062L105.746 50.1415L104.055 50.7592L104.006 50.624L104.513 50.4387L103.1 46.5727L102.61 49.6009C102.502 50.2152 102.627 50.8722 102.759 51.2329L101.598 51.657ZM113.502 47.512C112.893 47.7344 112.144 47.4331 111.535 46.7102C110.653 45.7294 109.027 41.8392 110.363 40.3546C111.025 39.6144 112.279 39.4115 112.003 38.6563L112.139 38.6069C112.62 39.9256 111.415 40.4042 110.676 41.2112C109.869 42.0808 110.008 43.0905 110.6 44.6756C110.362 43.3954 110.761 42.3552 111.517 42.0793C112.396 41.7581 113.633 42.5579 114.222 44.1697C114.811 45.7814 114.381 47.1908 113.502 47.512ZM111.506 45.1622C111.93 46.3231 112.67 47.6496 113.448 47.3655C114.214 47.0854 113.948 45.5859 113.523 44.425C113.099 43.2641 112.336 41.9458 111.57 42.2258C110.792 42.51 111.082 44.0013 111.506 45.1622ZM117.473 46.0609C116.583 46.3862 115.367 45.5782 114.779 43.9664C114.19 42.3546 114.597 40.9535 115.488 40.6282C116.367 40.307 117.605 41.1068 118.194 42.7185C118.783 44.3303 118.352 45.7397 117.473 46.0609ZM115.477 43.7111C115.902 44.872 116.642 46.1985 117.419 45.9144C118.186 45.6343 117.919 44.1348 117.495 42.9739C117.071 41.813 116.308 40.4947 115.541 40.7747C114.764 41.0589 115.053 42.5501 115.477 43.7111ZM121.35 38.6906L121.4 38.8258L120.87 39.0194L122.624 43.8209L123.154 43.6274L123.203 43.7626L121.513 44.3804L121.463 44.2451L121.971 44.0598L120.216 39.2583L118.773 39.7854L119.7 42.3214C120.157 43.5725 120.555 44.8709 119.839 45.1837C119.396 45.3709 119.107 44.8249 119.184 44.4393C119.924 44.2967 120.067 43.7459 119.478 42.1342L119.165 41.2776C118.931 40.6351 118.311 39.9543 117.838 40.1272L117.804 40.1396L117.755 40.0044L121.35 38.6906ZM123.009 40.116C123.088 40.3681 123.183 40.6273 123.292 40.8558C123.829 41.9755 124.658 42.8477 125.492 42.543C125.966 42.37 126.26 41.7769 126.174 41.0164L126.298 40.9711C126.428 41.8177 126.2 42.872 125.366 43.1767C124.42 43.5227 123.204 42.7146 122.615 41.1029C122.027 39.4911 122.434 38.09 123.325 37.7646C124.17 37.4558 125.131 37.9864 125.567 39.1811L123.009 40.116ZM122.971 39.9766L124.075 39.573C124.695 39.3465 124.714 38.9435 124.466 38.5103L124.462 38.499C124.149 38.0258 123.773 37.767 123.378 37.9112C122.792 38.1253 122.735 39.0532 122.971 39.9766ZM126.861 38.7083C126.94 38.9604 127.035 39.2197 127.144 39.4481C127.681 40.5679 128.511 41.4401 129.345 41.1353C129.818 40.9623 130.113 40.3693 130.026 39.6087L130.15 39.5634C130.281 40.41 130.053 41.4643 129.219 41.7691C128.272 42.115 127.057 41.307 126.468 39.6952C125.879 38.0834 126.287 36.6823 127.177 36.357C128.023 36.0481 128.983 36.5787 129.42 37.7735L126.861 38.7083ZM126.823 38.569L127.928 38.1654C128.547 37.9388 128.566 37.5359 128.319 37.1026L128.314 37.0913C128.001 36.6182 127.625 36.3594 127.231 36.5035C126.645 36.7177 126.588 37.6456 126.823 38.569ZM33.9919 82.3218L34.0413 82.457L33.5115 82.6506L34.3105 84.8372L34.4007 84.8042C34.7388 84.6807 34.9651 84.4958 34.8036 83.4944C34.698 82.8558 34.5357 81.957 35.0316 81.7758C35.3134 81.6728 35.6684 81.8752 36.0051 82.7615L36.178 83.2349L36.0428 83.2844L36.0304 83.2505C35.8657 82.7997 35.5811 82.4054 35.243 82.529C34.9386 82.6402 34.9529 83.2737 34.9805 83.8386C35.0119 84.2743 34.9508 84.5266 34.7737 84.7063C35.5148 84.6016 36.102 85.0897 36.5192 85.7421C36.8851 86.3239 36.9718 86.701 37.2085 86.6145C37.4114 86.5404 37.345 86.0792 37.1742 85.6816L37.3095 85.6322C37.5698 86.2398 37.6201 86.9369 37.1242 87.1181C36.5381 87.3322 36.1516 86.6941 35.8492 86.0764C35.5993 85.5672 35.3067 84.6265 34.6868 84.853L34.3599 84.9724L35.266 87.4521L35.7957 87.2585L35.8451 87.3938L34.1544 88.0115L34.105 87.8763L34.6122 87.691L32.8578 82.8894L32.3506 83.0748L32.3012 82.9395L33.9919 82.3218ZM36.3377 81.899L37.2363 80.9318L37.382 80.9808L37.6909 81.8262C37.7487 81.4601 37.9729 80.535 38.7057 80.4077C39.499 80.2712 40.3827 80.9065 41.0128 82.631C41.6018 84.2427 41.1713 85.6521 40.2921 85.9733C39.8638 86.1298 39.5049 86.0565 39.1447 85.8049L40.0425 88.262L40.5722 88.0684L40.6216 88.2037L38.9309 88.8214L38.8815 88.6862L39.3887 88.5009L36.8518 81.5578L36.4578 81.9829L36.3377 81.899ZM38.3622 83.6634C39.0417 85.5231 39.6525 86.0409 40.2386 85.8268C41.005 85.5467 40.7382 84.0472 40.314 82.8863C40.0134 82.0635 39.3984 80.8701 38.6931 80.8978C38.0145 80.9286 37.8589 81.7265 37.7897 82.0967L38.3622 83.6634ZM45.5622 82.6423L45.554 82.6198L45.6893 82.5703L45.714 82.638C45.9899 83.3931 45.9025 83.9233 45.4968 84.0716C45.1023 84.2157 44.6395 83.9632 44.3718 83.2306L44.1083 82.5092C44.2823 83.6849 44.0697 84.7463 43.2005 84.8851C42.5732 84.9865 41.8454 84.3581 42.0079 83.4044C42.1024 82.8589 42.4624 82.3057 42.8235 81.7905C43.0895 81.3995 43.5685 80.8922 43.1498 79.921C42.9141 79.381 42.7139 79.1476 42.431 79.2126C41.8386 79.3396 41.7963 80.5177 41.9832 81.3438C41.7127 81.4426 41.1498 81.4055 41.0763 80.9597C40.9801 80.3816 41.4675 79.373 42.3928 79.0733C43.0999 78.8405 43.6058 79.1411 43.9918 80.1627L44.9844 82.879C45.1944 83.4538 45.3966 83.6227 45.577 83.5568C45.7235 83.5032 45.7887 83.2622 45.5622 82.6423ZM42.5821 82.773C42.3679 83.5156 42.8129 84.209 43.4248 84.1004C44.1464 83.9773 44.1906 82.7346 43.6223 81.1792L43.4493 80.7058C43.4372 81.4768 42.8493 81.896 42.5821 82.773ZM46.1425 77.8437C45.3648 78.1279 45.5414 79.6603 46.0783 80.7801C46.6152 81.8998 47.445 82.772 48.279 82.4673C48.7524 82.2943 49.0242 81.7095 48.938 80.9489L49.062 80.9036C49.1924 81.7502 48.9644 82.8045 48.1304 83.1093C47.1836 83.4552 45.9685 82.6472 45.3795 81.0354C44.7906 79.4236 45.1985 78.0225 46.2017 77.656C47.1372 77.3142 47.9593 77.9209 47.8913 78.329C47.8395 78.6418 47.5497 78.8627 47.3273 78.9184C47.1749 78.5013 46.7511 77.6213 46.1425 77.8437ZM49.7649 76.5585L49.8143 76.6937L49.2845 76.8873L50.0423 78.9612L51.8457 78.3022L51.0879 76.2283L50.5807 76.4137L50.5313 76.2784L52.222 75.6607L52.2714 75.7959L51.7417 75.9895L53.4961 80.791L54.0258 80.5974L54.0752 80.7327L52.3846 81.3504L52.3352 81.2152L52.8424 81.0298L51.8951 78.4375L50.0917 79.0964L51.039 81.6888L51.5687 81.4952L51.6181 81.6305L49.9275 82.2482L49.878 82.113L50.3852 81.9277L48.6308 77.1261L48.1236 77.3115L48.0742 77.1762L49.7649 76.5585ZM54.2557 74.9175L54.3051 75.0528L53.7754 75.2464L54.5744 77.433L55.1605 77.2188C56.2425 76.8234 57.173 77.2372 57.3269 77.9731C57.5014 78.7653 57.2001 79.5142 56.109 79.9896L54.4183 80.6073L54.3689 80.4721L54.8761 80.2867L53.1217 75.4852L52.6145 75.6706L52.565 75.5353L54.2557 74.9175ZM55.5298 80.0479L55.8567 79.9284C56.702 79.6196 56.8689 78.8176 56.6589 78.2427C56.4035 77.5439 55.7509 77.1564 55.0972 77.3952L54.6238 77.5682L55.5298 80.0479ZM58.0025 79.2977L57.9531 79.1624L58.4603 78.9771L56.7059 74.1756L56.1987 74.3609L56.1493 74.2257L57.84 73.6079L57.8894 73.7432L57.3596 73.9367L59.1141 78.7382L59.6438 78.5447L59.6932 78.6799L58.0025 79.2977ZM62.4174 77.7867L59.4587 74.5495L60.1781 77.008C60.3338 77.5388 60.6331 78.1832 61.2981 77.9402L61.3319 77.9278L61.3813 78.0631L59.6907 78.6809L59.6412 78.5456L59.6751 78.5332C60.2724 78.315 60.1862 77.5544 60.0646 77.1517L58.8865 73.1233L59.0555 73.0615L62.3769 76.7667L62.0875 71.9537L62.2227 71.9043L64.6006 76.7335L65.1078 76.5482L65.1572 76.6834L63.4665 77.3012L63.4171 77.1659L63.9581 76.9683L62.33 73.6665L62.5752 77.7291L62.4174 77.7867ZM66.2575 77.5846L66.5271 76.2595C66.4862 76.2873 66.4452 76.315 66.3888 76.3356C66.1183 76.4345 65.8105 76.2914 65.7117 76.0209C65.6128 75.7504 65.7559 75.4426 66.0264 75.3438C66.2969 75.2449 66.6047 75.388 66.7036 75.6585C66.7324 75.7374 66.7428 75.8358 66.7337 75.9158L66.5015 77.6231L66.2575 77.5846ZM75.6817 64.278L76.5803 63.3108L76.726 63.3598L77.9574 66.7299C78.0859 66.3124 78.3527 65.8189 78.8704 65.732C79.6637 65.5954 80.5474 66.2307 81.1775 67.9552C81.7664 69.567 81.3359 70.9763 80.4568 71.2975C80.1525 71.4087 79.8828 71.405 79.6295 71.306L80.4325 73.5039L80.9623 73.3103L81.0117 73.4456L79.321 74.0633L79.2716 73.9281L79.7788 73.7427L78.9757 71.5449C78.8459 71.7839 78.6421 71.9606 78.3378 72.0718C77.4587 72.393 76.221 71.5932 75.6321 69.9814C75.002 68.2569 75.2679 67.2016 75.9624 66.7945C76.4141 66.5272 76.9363 66.7325 77.3037 66.9688L76.1958 63.9368L75.8018 64.3619L75.6817 64.278ZM76.3309 69.7261C76.7551 70.887 77.5178 72.2053 78.2843 71.9253C78.5999 71.8099 78.7778 71.5277 78.7822 71.0151L77.4025 67.2393C77.0854 67.0357 76.6556 66.8734 76.288 67.161C75.7309 67.5945 76.0302 68.9033 76.3309 69.7261ZM79.4359 70.7762C79.7697 71.1653 80.0877 71.2663 80.4033 71.151C81.1697 70.871 80.9029 69.3715 80.4787 68.2105C80.178 67.3877 79.5631 66.1943 78.8578 66.222C78.3913 66.2392 78.1674 66.6404 78.0562 67.0004L79.4359 70.7762ZM82.3399 64.6559L82.3893 64.7911L81.8596 64.9847L83.2722 68.8507L83.7627 65.8224C83.8704 65.2081 83.7453 64.5512 83.6135 64.1905L84.797 63.7581L84.8464 63.8933L84.3167 64.0869L86.0711 68.8884L86.6009 68.6948L86.6503 68.8301L84.9596 69.4478L84.9102 69.3126L85.4174 69.1273L84.0048 65.2613L83.5143 68.2895C83.4066 68.9038 83.5316 69.5608 83.6634 69.9215L82.5025 70.3456L82.4531 70.2104L82.9603 70.0251L81.2058 65.2236L80.6986 65.4089L80.6492 65.2736L82.3399 64.6559ZM88.3298 62.4672L89.0382 64.4059L88.9029 64.4553L88.8453 64.2975C88.6929 63.8804 87.9284 62.7672 87.0718 63.0802L86.3504 63.3438L88.1048 68.1453L88.6346 67.9517L88.684 68.087L86.9933 68.7047L86.9439 68.5695L87.4511 68.3842L85.6967 63.5826L85.1895 63.768L85.1401 63.6327L88.3298 62.4672ZM88.7213 62.3242L90.412 61.7064L90.4614 61.8417L89.9655 62.0229L92.5791 65.5395L92.3151 62.5442C92.2661 62.0255 92.0168 61.2733 91.3518 61.5163L91.318 61.5287L91.2686 61.3934L92.9593 60.7757L93.0087 60.9109L92.9749 60.9233C92.4451 61.1168 92.4072 61.7823 92.4232 62.2108L92.8167 66.6792C92.896 67.5956 92.8206 69.2074 91.8094 69.6918C91.3638 69.9058 91.0124 69.4337 91.0384 69.0153C91.7232 68.9312 92.4647 68.4431 92.6103 67.8277C92.6949 67.4647 92.7514 66.9202 92.2921 66.2576L89.2216 62.2947L88.7707 62.4594L88.7213 62.3242ZM93.0951 61.1604L93.9937 60.1933L94.1394 60.2422L94.4482 61.0876C94.5061 60.7215 94.7302 59.7964 95.4631 59.6691C96.2564 59.5326 97.1401 60.1679 97.7702 61.8924C98.3591 63.5042 97.9287 64.9135 97.0495 65.2347C96.6212 65.3912 96.2623 65.318 95.902 65.0663L96.7998 67.5234L97.3296 67.3299L97.379 67.4651L95.6883 68.0829L95.6389 67.9476L96.1461 67.7623L93.6092 60.8192L93.2151 61.2443L93.0951 61.1604ZM95.1195 62.9248C95.7991 64.7845 96.4099 65.3023 96.996 65.0882C97.7624 64.8081 97.4956 63.3086 97.0714 62.1477C96.7708 61.3249 96.1558 60.1315 95.4505 60.1592C94.7719 60.19 94.6162 60.9879 94.5471 61.3581L95.1195 62.9248ZM96.7894 59.3762L98.4801 58.7584L98.5295 58.8937L98.0336 59.0749L100.647 62.5915L100.383 59.5961C100.334 59.0774 100.085 58.3253 99.4199 58.5683L99.3861 58.5807L99.3367 58.4454L101.027 57.8276L101.077 57.9629L101.043 57.9753C100.513 58.1688 100.475 58.8343 100.491 59.2628L100.885 63.7311C100.964 64.6476 100.889 66.2594 99.8775 66.7438C99.4319 66.9577 99.0805 66.4857 99.1066 66.0673C99.7913 65.9832 100.533 65.4951 100.678 64.8797C100.763 64.5167 100.82 63.9722 100.36 63.3096L97.2897 59.3467L96.8388 59.5114L96.7894 59.3762ZM110.223 54.4676L111.914 53.8498L111.963 53.985L111.467 54.1663L114.081 57.6829L113.817 54.6875C113.768 54.1688 113.519 53.4167 112.854 53.6597L112.82 53.6721L112.771 53.5368L114.461 52.919L114.511 53.0543L114.477 53.0667C113.947 53.2602 113.909 53.9256 113.925 54.3542L114.319 58.8225C114.398 59.739 114.323 61.3508 113.311 61.8352C112.866 62.0491 112.514 61.5771 112.54 61.1587C113.225 61.0746 113.967 60.5865 114.112 59.9711C114.197 59.6081 114.253 59.0636 113.794 58.401L110.724 54.4381L110.273 54.6028L110.223 54.4676ZM117.948 57.5986C117.34 57.821 116.591 57.5197 115.982 56.7968C115.099 55.816 113.473 51.9257 114.809 50.4412C115.471 49.7009 116.726 49.4981 116.45 48.7429L116.585 48.6935C117.067 50.0122 115.862 50.4908 115.122 51.2978C114.316 52.1674 114.455 53.177 115.046 54.7621C114.809 53.482 115.208 52.4418 115.963 52.1659C116.842 51.8446 118.08 52.6444 118.669 54.2562C119.258 55.868 118.827 57.2773 117.948 57.5986ZM115.953 55.2487C116.377 56.4097 117.117 57.7362 117.895 57.452C118.661 57.172 118.394 55.6725 117.97 54.5116C117.546 53.3506 116.783 52.0323 116.017 52.3124C115.239 52.5966 115.528 54.0878 115.953 55.2487ZM119.618 53.0661C119.698 53.3182 119.792 53.5774 119.901 53.8059C120.438 54.9256 121.268 55.7978 122.102 55.4931C122.575 55.3201 122.87 54.7271 122.784 53.9665L122.908 53.9212C123.038 54.7678 122.81 55.8221 121.976 56.1269C121.029 56.4728 119.814 55.6648 119.225 54.053C118.636 52.4412 119.044 51.0401 119.935 50.7148C120.78 50.4059 121.74 50.9365 122.177 52.1312L119.618 53.0661ZM119.58 52.9267L120.685 52.5231C121.305 52.2966 121.323 51.8937 121.076 51.4604L121.072 51.4491C120.758 50.9759 120.383 50.7171 119.988 50.8613C119.402 51.0754 119.345 52.0034 119.58 52.9267ZM121.95 50.6172L122.848 49.6501L122.994 49.699L123.303 50.5444C123.361 50.1783 123.585 49.2532 124.318 49.1259C125.111 48.9894 125.995 49.6247 126.625 51.3492C127.214 52.9609 126.783 54.3703 125.904 54.6915C125.476 54.848 125.117 54.7747 124.757 54.5231L125.655 56.9802L126.184 56.7866L126.234 56.9219L124.543 57.5397L124.494 57.4044L125.001 57.2191L122.464 50.276L122.07 50.7011L121.95 50.6172ZM123.974 52.3816C124.654 54.2413 125.265 54.7591 125.851 54.545C126.617 54.2649 126.35 52.7654 125.926 51.6045C125.625 50.7817 125.01 49.5883 124.305 49.616C123.627 49.6468 123.471 50.4447 123.402 50.8149L123.974 52.3816ZM127.782 48.0517L127.832 48.187L127.302 48.3806L128.714 52.2466L129.205 49.2183C129.313 48.604 129.188 47.947 129.056 47.5864L130.239 47.1539L130.289 47.2892L129.759 47.4828L131.513 52.2843L132.043 52.0907L132.092 52.226L130.402 52.8437L130.352 52.7085L130.86 52.5231L129.447 48.6571L128.956 51.6854C128.849 52.2997 128.974 52.9567 129.106 53.3173L127.945 53.7415L127.895 53.6063L128.402 53.4209L126.648 48.6194L126.141 48.8048L126.091 48.6695L127.782 48.0517ZM133.191 53.1278L133.46 51.8028C133.419 51.8306 133.378 51.8583 133.322 51.8789C133.052 51.9777 132.744 51.8347 132.645 51.5642C132.546 51.2937 132.689 50.9859 132.96 50.887C133.23 50.7882 133.538 50.9313 133.637 51.2018C133.666 51.2807 133.676 51.3791 133.667 51.4591L133.435 53.1664L133.191 53.1278ZM39.9987 91.8382L40.0481 91.9735L39.5184 92.167L41.2728 96.9686L41.8026 96.775L42.5109 98.7136L42.3757 98.763L42.318 98.6053C42.1656 98.1882 41.4011 97.075 40.5445 97.388L39.2371 97.8657C38.3805 98.1787 38.5138 99.5226 38.6662 99.9396L38.7238 100.097L38.5886 100.147L37.8802 98.2082C38.9284 97.8252 38.4275 96.1046 37.9456 94.7859L37.8139 94.4252C37.5791 93.7827 36.9598 93.1019 36.4864 93.2749L36.4526 93.2872L36.4032 93.152L39.9987 91.8382ZM38.579 97.9528L40.6191 97.2074L38.8647 92.4059L37.422 92.9331C37.9532 94.387 37.598 93.3798 38.0345 94.5745C38.5534 95.9947 38.8083 97.0769 38.579 97.9528ZM43.9572 96.3454C43.0667 96.6708 41.8516 95.8627 41.2627 94.251C40.6738 92.6392 41.0817 91.2381 41.9721 90.9127C42.8513 90.5915 44.0889 91.3913 44.6778 93.0031C45.2668 94.6149 44.8363 96.0242 43.9572 96.3454ZM41.9615 93.9956C42.3857 95.1566 43.1259 96.4831 43.9036 96.1989C44.6701 95.9189 44.4032 94.4194 43.979 93.2584C43.5548 92.0975 42.7921 90.7792 42.0256 91.0593C41.2479 91.3434 41.5373 92.8347 41.9615 93.9956ZM48.0209 94.8606C47.4122 95.083 46.6633 94.7817 46.0542 94.0588C45.1721 93.078 43.5462 89.1878 44.8818 87.7032C45.544 86.963 46.7985 86.7601 46.5226 86.0049L46.6579 85.9555C47.1397 87.2742 45.9348 87.7528 45.1948 88.5598C44.3883 89.4294 44.5272 90.4391 45.1192 92.0242C44.8814 90.744 45.2806 89.7038 46.0358 89.4279C46.9149 89.1067 48.1526 89.9065 48.7415 91.5183C49.3305 93.13 48.9 94.5394 48.0209 94.8606ZM46.0252 92.5108C46.4494 93.6717 47.1896 94.9983 47.9673 94.7141C48.7338 94.434 48.4669 92.9345 48.0427 91.7736C47.6185 90.6127 46.8558 89.2944 46.0893 89.5744C45.3116 89.8586 45.601 91.3499 46.0252 92.5108ZM53.2889 91.5304L53.2807 91.5078L53.4159 91.4584L53.4406 91.526C53.7166 92.2812 53.6292 92.8114 53.2235 92.9596C52.829 93.1038 52.3662 92.8513 52.0985 92.1186L51.8349 91.3973C52.009 92.5729 51.7964 93.6344 50.9272 93.7731C50.2999 93.8746 49.572 93.2462 49.7346 92.2925C49.8291 91.7469 50.1891 91.1938 50.5502 90.6785C50.8162 90.2875 51.2952 89.7803 50.8764 88.809C50.6408 88.2691 50.4405 88.0357 50.1577 88.1007C49.5653 88.2277 49.523 89.4058 49.7099 90.2318C49.4394 90.3306 48.8765 90.2936 48.803 89.8477C48.7067 89.2696 49.1942 88.2611 50.1195 87.9613C50.8266 87.7285 51.3325 88.0291 51.7185 89.0507L52.7111 91.7671C52.9211 92.3419 53.1233 92.5107 53.3037 92.4448C53.4502 92.3913 53.5154 92.1503 53.2889 91.5304ZM50.3088 91.6611C50.0946 92.4037 50.5396 93.0971 51.1515 92.9885C51.8731 92.8653 51.9173 91.6227 51.349 90.0673L51.176 89.5939C51.1639 90.3649 50.576 90.7841 50.3088 91.6611ZM53.8703 86.7697C55.0097 86.3917 55.6706 86.8018 55.8806 87.3766C56.0454 87.8274 55.8516 88.4859 55.2269 88.9442C56.0848 88.8096 56.7232 89.2279 56.9414 89.8253C57.2174 90.5804 56.8259 91.3623 55.7235 91.8417L54.0328 92.4595L53.9834 92.3242L54.4906 92.1389L52.7362 87.3374L52.229 87.5227L52.1796 87.3875L53.8703 86.7697ZM55.1444 91.9L55.4712 91.7806C56.3166 91.4717 56.4835 90.6697 56.2734 90.0949C56.0181 89.3961 55.3654 89.0085 54.7117 89.2474L54.6553 89.268L54.2383 89.4204L55.1444 91.9ZM54.1889 89.2851L54.5158 89.1657C55.2484 88.898 55.4556 88.3112 55.2456 87.7364C54.9902 87.0376 54.4832 86.699 53.7168 86.9791L53.3899 87.0985L54.1889 89.2851ZM57.6787 85.3781L57.7281 85.5134L57.1983 85.707L58.6109 89.573L59.1014 86.5447C59.2092 85.9304 59.0841 85.2734 58.9523 84.9128L60.1358 84.4803L60.1852 84.6156L59.6555 84.8092L61.4099 89.6107L61.9396 89.4171L61.9891 89.5524L60.2984 90.1701L60.249 90.0349L60.7562 89.8495L59.3436 85.9835L58.8531 89.0118C58.7453 89.6261 58.8704 90.283 59.0022 90.6437L57.8413 91.0679L57.7918 90.9327L58.299 90.7473L56.5446 85.9458L56.0374 86.1311L55.988 85.9959L57.6787 85.3781ZM64.7177 88.6576L61.759 85.4204L62.4784 87.8788C62.634 88.4096 62.9333 89.054 63.5983 88.811L63.6322 88.7987L63.6816 88.9339L61.9909 89.5517L61.9415 89.4164L61.9753 89.4041C62.5727 89.1858 62.4864 88.4252 62.3648 88.0225L61.1867 83.9941L61.3558 83.9323L64.6771 87.6375L64.3877 82.8245L64.523 82.7751L66.9008 87.6043L67.408 87.419L67.4574 87.5543L65.7667 88.172L65.7173 88.0368L66.2583 87.8391L64.6303 84.5373L64.8754 88.5999L64.7177 88.6576ZM79.1163 77.5195C78.564 77.7213 78.3118 78.9889 78.6247 79.8455L78.6659 79.9582L78.5307 80.0076L77.7441 77.8548L77.8793 77.8054C77.9535 78.0083 78.054 78.0737 78.1893 78.0243C78.3922 77.9502 78.6867 77.4976 79.2841 77.2793C80.152 76.9622 80.7526 77.5221 80.9585 78.0856C81.1521 78.6154 80.9665 79.2964 80.3347 79.77C81.2039 79.6313 81.8464 80.0609 82.0893 80.7259C82.3117 81.3345 82.2047 82.3702 81.0663 82.7861C79.7588 83.2639 78.8335 82.235 78.8554 81.8053C78.8742 81.4024 79.3465 81.1915 79.5486 81.2199C79.7074 81.8645 80.2463 82.9197 81.0465 82.6273C81.6665 82.4008 81.6149 81.5253 81.4172 80.9843C81.133 80.2066 80.4845 79.8303 79.8308 80.0691L79.6842 80.1227L79.6348 79.9874C80.3674 79.7197 80.5747 79.133 80.3234 78.4454C80.1093 77.8593 79.6573 77.3218 79.1163 77.5195ZM82.802 76.1983C83.9414 75.8203 84.6023 76.2304 84.8124 76.8052C84.9771 77.2561 84.7833 77.9146 84.1586 78.3728C85.0165 78.2382 85.6549 78.6565 85.8732 79.2539C86.1491 80.0091 85.7576 80.7909 84.6552 81.2704L82.9646 81.8881L82.9151 81.7529L83.4223 81.5675L81.6679 76.766L81.1607 76.9513L81.1113 76.8161L82.802 76.1983ZM84.0761 81.3287L84.4029 81.2092C85.2483 80.9004 85.4152 80.0984 85.2051 79.5235C84.9498 78.8247 84.2971 78.4372 83.6434 78.676L83.5871 78.6966L83.17 78.849L84.0761 81.3287ZM83.1206 78.7138L83.4475 78.5943C84.1801 78.3266 84.3873 77.7399 84.1773 77.1651C83.9219 76.4662 83.4149 76.1277 82.6485 76.4077L82.3216 76.5272L83.1206 78.7138ZM86.4272 76.9051C86.5065 77.1572 86.6012 77.4164 86.7103 77.6449C87.2472 78.7646 88.1304 79.7834 88.9645 79.4786C89.4379 79.3056 89.6562 78.5743 89.5699 77.8137L89.6939 77.7684C89.8244 78.6151 89.5963 79.6693 88.7623 79.9741C87.8155 80.32 86.6004 79.512 86.0114 77.9002C85.4225 76.2884 85.8304 74.8873 86.7209 74.562C87.5662 74.2531 88.5266 74.7837 88.9632 75.9785L86.4272 76.9051ZM85.0467 73.8961C84.9478 73.6256 85.0909 73.3178 85.3614 73.219C85.6319 73.1202 85.9397 73.2632 86.0385 73.5337C86.1374 73.8042 85.9943 74.112 85.7238 74.2109C85.4533 74.3097 85.1455 74.1666 85.0467 73.8961ZM86.389 76.7657L87.4711 76.3704C88.091 76.1439 88.1098 75.7409 87.8621 75.3076L87.858 75.2964C87.5445 74.8232 87.1689 74.5644 86.7744 74.7085C86.1883 74.9227 86.1426 75.8465 86.389 76.7657ZM86.5683 73.3402C86.4694 73.0696 86.6125 72.7619 86.883 72.663C87.1535 72.5642 87.4613 72.7072 87.5601 72.9777C87.659 73.2482 87.5159 73.556 87.2454 73.6549C86.9749 73.7537 86.6671 73.6107 86.5683 73.3402ZM90.5746 73.3327C90.0223 73.5345 89.77 74.8021 90.083 75.6587L90.1242 75.7714L89.989 75.8209L89.2023 73.6681L89.3376 73.6186C89.4117 73.8215 89.5123 73.887 89.6476 73.8376C89.8504 73.7634 90.145 73.3108 90.7424 73.0926C91.6103 72.7755 92.2109 73.3353 92.4168 73.8989C92.6104 74.4286 92.4248 75.1097 91.793 75.5833C92.6622 75.4446 93.3046 75.8742 93.5476 76.5392C93.77 77.1478 93.6629 78.1834 92.5245 78.5994C91.2171 79.0771 90.2918 78.0482 90.3137 77.6186C90.3325 77.2157 90.8048 77.0048 91.0068 77.0332C91.1657 77.6778 91.7046 78.7329 92.5048 78.4405C93.1247 78.214 93.0731 77.3385 92.8755 76.7975C92.5913 76.0198 91.9428 75.6435 91.289 75.8824L91.1425 75.9359L91.0931 75.8007C91.8257 75.533 92.0329 74.9462 91.7817 74.2587C91.5676 73.6726 91.1156 73.1351 90.5746 73.3327ZM96.2057 71.3007L96.2552 71.436L95.7254 71.6295L97.4798 76.4311L98.0096 76.2375L98.718 78.1761L98.5827 78.2256L98.525 78.0678C98.3727 77.6507 97.6082 76.5375 96.7516 76.8505L95.4441 77.3282C94.5875 77.6412 94.7208 78.9851 94.8732 79.4021L94.9308 79.5599L94.7956 79.6093L94.0872 77.6707C95.1354 77.2877 94.6345 75.5671 94.1527 74.2484L94.0209 73.8877C93.7861 73.2452 93.1669 72.5644 92.6935 72.7374L92.6597 72.7497L92.6102 72.6145L96.2057 71.3007ZM94.786 77.4154L96.8261 76.6699L95.0717 71.8684L93.629 72.3956C94.1603 73.8495 93.805 72.8423 94.2415 74.037C94.7605 75.4572 95.0154 76.5394 94.786 77.4154ZM99.2615 77.2365L99.5312 75.9115C99.4902 75.9392 99.4493 75.967 99.3929 75.9876C99.1224 76.0864 98.8146 75.9434 98.7158 75.6728C98.6169 75.4023 98.76 75.0946 99.0305 74.9957C99.301 74.8969 99.6088 75.0399 99.7076 75.3104C99.7364 75.3893 99.7469 75.4877 99.7377 75.5677L99.5056 77.2751L99.2615 77.2365ZM112.24 65.442C113.379 65.064 114.04 65.474 114.25 66.0489C114.415 66.4997 114.221 67.1582 113.597 67.6164C114.455 67.4818 115.093 67.9002 115.311 68.4975C115.587 69.2527 115.196 70.0345 114.093 70.514L112.403 71.1318L112.353 70.9965L112.86 70.8112L111.106 66.0097L110.599 66.195L110.549 66.0597L112.24 65.442ZM113.514 70.5723L113.841 70.4529C114.686 70.144 114.853 69.342 114.643 68.7672C114.388 68.0684 113.735 67.6808 113.081 67.9197L113.025 67.9403L112.608 68.0927L113.514 70.5723ZM112.559 67.9574L112.885 67.838C113.618 67.5703 113.825 66.9835 113.615 66.4087C113.36 65.7099 112.853 65.3713 112.087 65.6514L111.76 65.7708L112.559 67.9574ZM118.144 69.2383C117.254 69.5637 116.038 68.7556 115.449 67.1439C114.861 65.5321 115.268 64.131 116.159 63.8056C117.038 63.4844 118.276 64.2842 118.865 65.896C119.454 67.5078 119.023 68.9171 118.144 69.2383ZM116.148 66.8885C116.572 68.0494 117.313 69.376 118.09 69.0918C118.857 68.8118 118.59 67.3123 118.166 66.1513C117.742 64.9904 116.979 63.6721 116.212 63.9522C115.435 64.2363 115.724 65.7276 116.148 66.8885ZM122.117 67.7864C121.227 68.1118 120.012 67.3037 119.423 65.692C118.834 64.0802 119.242 62.6791 120.132 62.3537C121.012 62.0325 122.249 62.8323 122.838 64.4441C123.427 66.0559 122.997 67.4652 122.117 67.7864ZM120.122 65.4366C120.546 66.5976 121.286 67.9241 122.064 67.6399C122.83 67.3599 122.564 65.8604 122.139 64.6994C121.715 63.5385 120.952 62.2202 120.186 62.5003C119.408 62.7844 119.698 64.2757 120.122 65.4366ZM126.181 66.3016C125.573 66.524 124.824 66.2227 124.215 65.4999C123.332 64.519 121.706 60.6288 123.042 59.1442C123.704 58.404 124.959 58.2011 124.683 57.4459L124.818 57.3965C125.3 58.7152 124.095 59.1938 123.355 60.0008C122.549 60.8704 122.688 61.8801 123.279 63.4652C123.042 62.185 123.441 61.1448 124.196 60.8689C125.075 60.5477 126.313 61.3475 126.902 62.9593C127.491 64.571 127.06 65.9804 126.181 66.3016ZM124.186 63.9518C124.61 65.1127 125.35 66.4393 126.128 66.1551C126.894 65.875 126.627 64.3755 126.203 63.2146C125.779 62.0537 125.016 60.7354 124.25 61.0154C123.472 61.2996 123.761 62.7909 124.186 63.9518ZM128.22 65.3524L128.17 65.2171L128.677 65.0318L126.923 60.2303L126.416 60.4156L126.366 60.2803L128.057 59.6626L128.106 59.7978L127.577 59.9914L129.331 64.7929L130.909 64.2163L129.155 59.4148L128.647 59.6002L128.598 59.4649L130.289 58.8471L130.338 58.9824L129.808 59.176L131.563 63.9775L133.141 63.4009L131.386 58.5994L130.879 58.7847L130.83 58.6495L132.52 58.0317L132.57 58.167L132.04 58.3605L133.795 63.162L134.324 62.9685L134.345 63.0248L134.435 62.9919L134.414 62.9355L134.55 62.8861L135.258 64.8248L135.123 64.8742L135.065 64.7164C134.913 64.2993 134.148 63.1861 133.292 63.4991L128.22 65.3524ZM134.411 59.3721C134.491 59.6242 134.586 59.8834 134.695 60.1119C135.231 61.2316 136.061 62.1039 136.895 61.7991C137.369 61.6261 137.663 61.0331 137.577 60.2725L137.701 60.2272C137.831 61.0738 137.603 62.1281 136.769 62.4329C135.822 62.7788 134.607 61.9708 134.018 60.359C133.429 58.7472 133.837 57.3461 134.728 57.0208C135.573 56.7119 136.533 57.2425 136.97 58.4373L134.411 59.3721ZM134.373 59.2328L135.478 58.8292C136.098 58.6026 136.117 58.1997 135.869 57.7664L135.865 57.7551C135.551 57.282 135.176 57.0232 134.781 57.1673C134.195 57.3815 134.138 58.3094 134.373 59.2328ZM39.9915 103.987L40.8902 103.019L41.0359 103.068L41.3447 103.914C41.4026 103.548 41.6267 102.622 42.3596 102.495C43.1529 102.359 44.0366 102.994 44.6667 104.718C45.2556 106.33 44.8252 107.74 43.946 108.061C43.5177 108.217 43.1588 108.144 42.7985 107.892L43.6963 110.35L44.2261 110.156L44.2755 110.291L42.5848 110.909L42.5354 110.774L43.0426 110.588L40.5057 103.645L40.1116 104.07L39.9915 103.987ZM42.016 105.751C42.6956 107.611 43.3064 108.128 43.8925 107.914C44.6589 107.634 44.3921 106.135 43.9679 104.974C43.6673 104.151 43.0523 102.958 42.347 102.985C41.6683 103.016 41.5127 103.814 41.4436 104.184L42.016 105.751ZM45.8239 101.421L45.8733 101.556L45.3436 101.75L46.7562 105.616L47.2467 102.588C47.3544 101.973 47.2293 101.316 47.0976 100.956L48.281 100.523L48.3304 100.659L47.8007 100.852L49.5551 105.654L50.0849 105.46L50.1343 105.595L48.4436 106.213L48.3942 106.078L48.9014 105.892L47.4888 102.026L46.9983 105.055C46.8906 105.669 47.0156 106.326 47.1474 106.687L45.9865 107.111L45.9371 106.976L46.4443 106.79L44.6899 101.989L44.1827 102.174L44.1332 102.039L45.8239 101.421ZM49.6003 97.2305L50.499 96.2633L50.6446 96.3123L51.876 99.6824C52.0046 99.2649 52.2714 98.7714 52.789 98.6844C53.5823 98.5479 54.466 99.1832 55.0961 100.908C55.6851 102.519 55.2546 103.929 54.3754 104.25C54.0711 104.361 53.8015 104.358 53.5481 104.258L54.3512 106.456L54.8809 106.263L54.9303 106.398L53.2397 107.016L53.1903 106.881L53.6975 106.695L52.8944 104.497C52.7645 104.736 52.5608 104.913 52.2565 105.024C51.3773 105.345 50.1397 104.546 49.5507 102.934C48.9206 101.209 49.1866 100.154 49.881 99.747C50.3328 99.4797 50.8549 99.685 51.2223 99.9212L50.1145 96.8893L49.7204 97.3144L49.6003 97.2305ZM50.2495 102.679C50.6737 103.839 51.4365 105.158 52.2029 104.878C52.5185 104.762 52.6965 104.48 52.7008 103.968L51.3212 100.192C51.004 99.9882 50.5742 99.8259 50.2066 100.114C49.6496 100.547 49.9489 101.856 50.2495 102.679ZM53.3545 103.729C53.6883 104.118 54.0063 104.219 54.3219 104.103C55.0883 103.823 54.8215 102.324 54.3973 101.163C54.0967 100.34 53.4817 99.1468 52.7764 99.1745C52.31 99.1916 52.0861 99.5929 51.9749 99.9529L53.3545 103.729ZM58.1395 96.9211L58.8479 98.8597L58.7126 98.9091L58.655 98.7513C58.5026 98.3343 57.7381 97.221 56.8815 97.534L56.7575 97.5793L58.5119 102.381L59.0417 102.187L59.0911 102.323L57.4004 102.94L57.351 102.805L57.8582 102.62L56.1038 97.8182L55.9798 97.8635C55.1232 98.1765 55.2565 99.5204 55.4089 99.9374L55.4665 100.095L55.3313 100.145L54.6229 98.206L58.1395 96.9211ZM62.4004 95.3642L62.4498 95.4994L61.92 95.693L62.6778 97.7669L64.4812 97.108L63.7234 95.0341L63.2162 95.2194L63.1668 95.0841L64.8575 94.4664L64.9069 94.6016L64.3771 94.7952L66.1316 99.5967L66.6613 99.4032L66.7107 99.5384L65.0201 100.156L64.9706 100.021L65.4778 99.8356L64.5306 97.2432L62.7272 97.9022L63.6745 100.495L64.2042 100.301L64.2536 100.436L62.563 101.054L62.5135 100.919L63.0207 100.733L61.2663 95.9319L60.7591 96.1172L60.7097 95.9819L62.4004 95.3642ZM66.5204 95.8902C66.5997 96.1422 66.6944 96.4015 66.8034 96.6299C67.3403 97.7497 68.1701 98.6219 69.0041 98.3171C69.4775 98.1442 69.7719 97.5511 69.6856 96.7905L69.8096 96.7452C69.9401 97.5919 69.7121 98.6462 68.878 98.9509C67.9312 99.2969 66.7161 98.4888 66.1272 96.877C65.5382 95.2653 65.9462 93.8642 66.8366 93.5388C67.6819 93.2299 68.6424 93.7605 69.0789 94.9553L66.5204 95.8902ZM66.4822 95.7508L67.5868 95.3472C68.2067 95.1207 68.2256 94.7177 67.9778 94.2844L67.9737 94.2732C67.6603 93.8 67.2846 93.5412 66.8901 93.6853C66.304 93.8995 66.247 94.8274 66.4822 95.7508ZM74.5838 90.9125L75.2921 92.8511L75.1569 92.9005L75.0992 92.7427C74.9469 92.3257 74.1824 91.2125 73.3257 91.5255L73.2018 91.5708L74.9562 96.3723L75.4859 96.1787L75.5354 96.314L73.8447 96.9317L73.7953 96.7965L74.3025 96.6112L72.548 91.8096L72.4241 91.8549C71.5674 92.1679 71.7008 93.5118 71.8531 93.9288L71.9108 94.0866L71.7755 94.1361L71.0672 92.1974L74.5838 90.9125ZM78.7609 95.3398C77.8705 95.6652 76.6553 94.8571 76.0664 93.2453C75.4775 91.6336 75.8854 90.2325 76.7758 89.9071C77.655 89.5859 78.8926 90.3857 79.4816 91.9975C80.0705 93.6093 79.64 95.0186 78.7609 95.3398ZM76.7652 92.99C77.1894 94.1509 77.9296 95.4775 78.7073 95.1933C79.4738 94.9132 79.2069 93.4137 78.7828 92.2528C78.3586 91.0919 77.5958 89.7736 76.8294 90.0536C76.0516 90.3378 76.341 91.8291 76.7652 92.99ZM82.5198 88.0127L83.2282 89.9514L83.0929 90.0008L83.0353 89.843C82.8829 89.426 82.1184 88.3127 81.2618 88.6257L81.1378 88.671L82.8922 93.4725L83.422 93.279L83.4714 93.4142L81.7807 94.032L81.7313 93.8967L82.2385 93.7114L80.4841 88.9099L80.3601 88.9552C79.5035 89.2682 79.6368 90.6121 79.7892 91.0291L79.8468 91.1869L79.7116 91.2363L79.0032 89.2977L82.5198 88.0127ZM84.9027 94.1944L85.1723 92.8694C85.1314 92.8971 85.0904 92.9249 85.0341 92.9455C84.7635 93.0443 84.4558 92.9012 84.3569 92.6307C84.2581 92.3602 84.4011 92.0524 84.6716 91.9536C84.9421 91.8548 85.2499 91.9978 85.3488 92.2683C85.3776 92.3472 85.388 92.4456 85.3789 92.5256L85.1468 94.233L84.9027 94.1944ZM88.5858 85.7963L88.6352 85.9315L88.1055 86.1251L88.9045 88.3117L88.9946 88.2788C89.3328 88.1552 89.5591 87.9703 89.3976 86.9689C89.292 86.3304 89.1297 85.4315 89.6256 85.2503C89.9074 85.1473 90.2624 85.3498 90.599 86.2361L90.772 86.7095L90.6368 86.7589L90.6244 86.7251C90.4597 86.2742 90.1751 85.8799 89.8369 86.0035C89.5326 86.1147 89.5469 86.7483 89.5744 87.3131C89.6059 87.7488 89.5448 88.0011 89.3677 88.1808C90.1087 88.0761 90.6959 88.5642 91.1132 89.2166C91.4791 89.7984 91.5658 90.1756 91.8025 90.0891C92.0053 90.0149 91.939 89.5537 91.7682 89.1562L91.9035 89.1067C92.1638 89.7143 92.2141 90.4114 91.7182 90.5926C91.1321 90.8067 90.7456 90.1686 90.4432 89.5509C90.1933 89.0417 89.9007 88.101 89.2807 88.3275L88.9539 88.447L89.8599 90.9266L90.3897 90.733L90.4391 90.8683L88.7484 91.4861L88.699 91.3508L89.2062 91.1655L87.4518 86.364L86.9446 86.5493L86.8952 86.414L88.5858 85.7963ZM96.0396 87.621L96.0314 87.5984L96.1666 87.549L96.1913 87.6167C96.4673 88.3718 96.3799 88.902 95.9741 89.0503C95.5796 89.1944 95.1169 88.9419 94.8492 88.2093L94.5856 87.4879C94.7597 88.6636 94.547 89.725 93.6779 89.8638C93.0506 89.9652 92.3227 89.3368 92.4853 88.3831C92.5798 87.8375 92.9398 87.2844 93.3009 86.7692C93.5669 86.3781 94.0459 85.8709 93.6271 84.8997C93.3915 84.3597 93.1912 84.1263 92.9084 84.1913C92.316 84.3183 92.2737 85.4964 92.4606 86.3224C92.19 86.4213 91.6271 86.3842 91.5537 85.9384C91.4574 85.3603 91.9449 84.3517 92.8702 84.0519C93.5773 83.8191 94.0832 84.1198 94.4692 85.1413L95.4617 87.8577C95.6718 88.4325 95.874 88.6014 96.0543 88.5355C96.2009 88.4819 96.2661 88.2409 96.0396 87.621ZM93.0595 87.7517C92.8453 88.4943 93.2903 89.1877 93.9022 89.0791C94.6238 88.956 94.668 87.7133 94.0996 86.1579L93.9267 85.6845C93.9145 86.4555 93.3267 86.8747 93.0595 87.7517ZM94.8501 83.9417L95.7488 82.9746L95.8945 83.0236L96.2033 83.8689C96.2612 83.5028 96.4853 82.5777 97.2182 82.4505C98.0115 82.3139 98.8952 82.9492 99.5253 84.6737C100.114 86.2855 99.6838 87.6948 98.8046 88.016C98.3763 88.1725 98.0174 88.0993 97.6571 87.8476L98.5549 90.3047L99.0847 90.1112L99.1341 90.2464L97.4434 90.8642L97.394 90.7289L97.9012 90.5436L95.3643 83.6006L94.9702 84.0256L94.8501 83.9417ZM96.8746 85.7061C97.5542 87.5658 98.165 88.0837 98.7511 87.8695C99.5175 87.5895 99.2507 86.09 98.8265 84.929C98.5258 84.1062 97.9109 82.9128 97.2056 82.9405C96.5269 82.9713 96.3713 83.7692 96.3022 84.1394L96.8746 85.7061ZM102.563 80.689L103.272 82.6276L103.137 82.677L103.079 82.5192C102.927 82.1022 102.162 80.989 101.305 81.302L101.181 81.3473L102.936 86.1488L103.466 85.9552L103.515 86.0905L101.824 86.7082L101.775 86.573L102.282 86.3877L100.528 81.5861L100.404 81.6314C99.5471 81.9444 99.6804 83.2883 99.8328 83.7053L99.8905 83.8631L99.7552 83.9126L99.0469 81.9739L102.563 80.689ZM104.7 79.9083L104.749 80.0436L104.22 80.2371L105.632 84.1031L106.123 81.0749C106.231 80.4606 106.105 79.8036 105.974 79.4429L107.157 79.0105L107.207 79.1457L106.677 79.3393L108.431 84.1408L108.961 83.9473L109.01 84.0825L107.32 84.7003L107.27 84.565L107.778 84.3797L106.365 80.5137L105.874 83.5419C105.767 84.1562 105.892 84.8132 106.024 85.1739L104.863 85.5981L104.813 85.4628L105.32 85.2775L103.566 80.476L103.059 80.6613L103.009 80.5261L104.7 79.9083ZM109.191 78.2674L109.24 78.4026L108.711 78.5962L109.51 80.7828L109.6 80.7499C109.938 80.6263 110.164 80.4414 110.003 79.44C109.897 78.8015 109.735 77.9026 110.231 77.7214C110.512 77.6184 110.868 77.8209 111.204 78.7072L111.377 79.1806L111.242 79.23L111.229 79.1962C111.065 78.7453 110.78 78.351 110.442 78.4746C110.138 78.5858 110.152 79.2194 110.18 79.7842C110.211 80.2199 110.15 80.4722 109.973 80.6519C110.714 80.5472 111.301 81.0353 111.718 81.6877C112.084 82.2695 112.171 82.6467 112.408 82.5602C112.61 82.486 112.544 82.0248 112.373 81.6273L112.509 81.5778C112.769 82.1854 112.819 82.8825 112.323 83.0637C111.737 83.2778 111.351 82.6397 111.048 82.022C110.798 81.5128 110.506 80.5721 109.886 80.7986L109.559 80.9181L110.465 83.3977L110.995 83.2042L111.044 83.3394L109.354 83.9572L109.304 83.8219L109.811 83.6366L108.057 78.8351L107.55 79.0204L107.5 78.8851L109.191 78.2674ZM111.004 77.6047L112.695 76.987L112.745 77.1222L112.249 77.3035L114.862 80.82L114.598 77.8247C114.549 77.306 114.3 76.5539 113.635 76.7969L113.601 76.8092L113.552 76.674L115.242 76.0562L115.292 76.1915L115.258 76.2038C114.728 76.3974 114.69 77.0628 114.706 77.4914L115.1 81.9597C115.179 82.8762 115.104 84.4879 114.093 84.9724C113.647 85.1863 113.296 84.7142 113.322 84.2959C114.006 84.2118 114.748 83.7237 114.893 83.1083C114.978 82.7453 115.035 82.2008 114.575 81.5382L111.505 77.5753L111.054 77.74L111.004 77.6047ZM119.504 74.4989L119.554 74.6342L119.024 74.8278L119.782 76.9017L121.585 76.2427L120.827 74.1688L120.32 74.3542L120.271 74.2189L121.961 73.6011L122.011 73.7364L121.481 73.93L123.236 78.7315L123.765 78.5379L123.815 78.6732L122.124 79.2909L122.075 79.1557L122.582 78.9703L121.635 76.378L119.831 77.0369L120.778 79.6293L121.308 79.4357L121.358 79.571L119.667 80.1887L119.618 80.0535L120.125 79.8681L118.37 75.0666L117.863 75.252L117.814 75.1167L119.504 74.4989ZM122.132 73.5387L123.823 72.9209L123.873 73.0562L123.377 73.2374L125.99 76.754L125.726 73.7587C125.677 73.24 125.428 72.4879 124.763 72.7308L124.729 72.7432L124.68 72.6079L126.37 71.9902L126.42 72.1254L126.386 72.1378C125.856 72.3314 125.818 72.9968 125.834 73.4253L126.228 77.8937C126.307 78.8101 126.232 80.4219 125.221 80.9063C124.775 81.1203 124.424 80.6482 124.45 80.2299C125.134 80.1458 125.876 79.6576 126.021 79.0423C126.106 78.6792 126.163 78.1347 125.703 77.4721L122.633 73.5092L122.182 73.6739L122.132 73.5387ZM129.939 70.6862L129.989 70.8215L129.459 71.015L130.258 73.2016L130.37 73.1604C130.709 73.0369 130.935 72.852 130.773 71.8506C130.668 71.212 130.505 70.3132 131.001 70.132C131.283 70.029 131.638 70.2314 131.975 71.1178L132.185 71.6926L132.05 71.742L132 71.6067C131.835 71.1559 131.551 70.7616 131.213 70.8852C130.908 70.9964 130.923 71.6299 130.95 72.1948C130.97 72.6346 130.909 72.8869 130.732 73.0666C131.455 72.9814 132.053 73.4654 132.466 74.1066C132.832 74.6883 132.885 75.0778 133.122 74.9913C133.325 74.9172 133.247 74.4601 133.121 74.0461L133.257 73.9967C133.472 74.6207 133.567 75.3013 133.071 75.4825C132.485 75.6967 132.099 75.0585 131.796 74.4408C131.547 73.9316 131.254 72.9909 130.634 73.2174L130.307 73.3369L131.213 75.8165L131.743 75.623L131.792 75.7582L130.079 76.3842L130.03 76.249L130.559 76.0554L129.653 73.5757L129.327 73.6952C128.707 73.9217 129.089 74.8295 129.227 75.3798C129.394 76.047 129.51 76.7839 128.924 76.9981C128.428 77.1793 128.062 76.5975 127.824 75.9817L127.959 75.9323C128.13 76.3298 128.365 76.7293 128.568 76.6552C128.805 76.5687 128.594 76.2368 128.499 75.5562C128.401 74.7998 128.547 74.0439 129.154 73.6432C128.903 73.62 128.694 73.4665 128.426 73.1173C128.082 72.6678 127.685 72.1742 127.381 72.2854C127.042 72.409 127.079 72.8939 127.244 73.3447L127.293 73.48L127.158 73.5294L126.948 72.9545C126.634 72.06 126.775 71.6764 127.056 71.5734C127.552 71.3922 128.008 72.184 128.339 72.7402C128.861 73.6098 129.153 73.6052 129.491 73.4817L129.604 73.4405L128.805 71.2539L128.275 71.4475L128.226 71.3122L129.939 70.6862ZM133.946 69.2223L133.995 69.3575L133.465 69.5511L134.223 71.625L136.026 70.9661L135.269 68.8922L134.761 69.0775L134.712 68.9422L136.403 68.3245L136.452 68.4597L135.922 68.6533L137.677 73.4548L138.207 73.2613L138.256 73.3965L136.565 74.0143L136.516 73.879L137.023 73.6937L136.076 71.1013L134.272 71.7603L135.22 74.3526L135.749 74.1591L135.799 74.2943L134.108 74.9121L134.059 74.7768L134.566 74.5915L132.812 69.79L132.304 69.9753L132.255 69.84L133.946 69.2223ZM140.367 72.8296C139.476 73.155 138.261 72.3469 137.672 70.7351C137.083 69.1234 137.491 67.7223 138.382 67.3969C139.261 67.0757 140.499 67.8755 141.088 69.4873C141.676 71.0991 141.246 72.5084 140.367 72.8296ZM138.371 70.4798C138.795 71.6407 139.536 72.9673 140.313 72.6831C141.08 72.403 140.813 70.9035 140.389 69.7426C139.965 68.5817 139.202 67.2634 138.435 67.5434C137.658 67.8276 137.947 69.3189 138.371 70.4798ZM45.3163 113.28C44.5386 113.564 44.7152 115.096 45.2521 116.216C45.789 117.336 46.6188 118.208 47.4528 117.903C47.9262 117.73 48.198 117.145 48.1118 116.385L48.2357 116.339C48.3662 117.186 48.1382 118.24 47.3042 118.545C46.3574 118.891 45.1423 118.083 44.5533 116.471C43.9644 114.859 44.3723 113.458 45.3755 113.092C46.311 112.75 47.1331 113.357 47.0651 113.765C47.0132 114.078 46.7235 114.298 46.5011 114.354C46.3487 113.937 45.9249 113.057 45.3163 113.28ZM50.9502 111.259L50.9996 111.395L50.4699 111.588L52.2243 116.39L52.7541 116.196L53.4624 118.135L53.3272 118.184L53.2695 118.026C53.1171 117.609 52.3526 116.496 51.496 116.809L50.1886 117.287C49.332 117.6 49.4653 118.944 49.6177 119.361L49.6753 119.518L49.5401 119.568L48.8317 117.629C49.8799 117.246 49.379 115.526 48.8971 114.207L48.7654 113.846C48.5306 113.204 47.9113 112.523 47.438 112.696L47.4041 112.708L47.3547 112.573L50.9502 111.259ZM49.5305 117.374L51.5706 116.628L49.8162 111.827L48.3735 112.354C48.9047 113.808 48.5495 112.801 48.986 113.996C49.5049 115.416 49.7598 116.498 49.5305 117.374ZM52.6074 112.685C52.6867 112.937 52.7814 113.196 52.8905 113.425C53.4274 114.545 54.2571 115.417 55.0912 115.112C55.5646 114.939 55.8589 114.346 55.7726 113.586L55.8966 113.54C56.0271 114.387 55.7991 115.441 54.965 115.746C54.0182 116.092 52.8031 115.284 52.2142 113.672C51.6253 112.06 52.0332 110.659 52.9236 110.334C53.7689 110.025 54.7294 110.556 55.1659 111.75L52.6074 112.685ZM52.5692 112.546L53.6738 112.142C54.2937 111.916 54.3126 111.513 54.0648 111.079L54.0607 111.068C53.7473 110.595 53.3716 110.336 52.9771 110.48C52.391 110.694 52.334 111.622 52.5692 112.546ZM58.6648 108.44L58.7142 108.576L58.1845 108.769L59.9389 113.571L60.4686 113.377L60.5181 113.512L58.8274 114.13L58.778 113.995L59.2852 113.81L57.5307 109.008L56.088 109.535L57.0147 112.071C57.4718 113.322 57.8696 114.621 57.1534 114.934C56.7108 115.121 56.4219 114.575 56.4982 114.189C57.2382 114.047 57.3819 113.496 56.7929 111.884L56.4799 111.027C56.2452 110.385 55.6259 109.704 55.1525 109.877L55.1187 109.889L55.0693 109.754L58.6648 108.44ZM64.0313 111.028L64.023 111.005L64.1583 110.956L64.183 111.023C64.4589 111.779 64.3716 112.309 63.9658 112.457C63.5713 112.601 63.1086 112.349 62.8409 111.616L62.5773 110.895C62.7514 112.07 62.5387 113.132 61.6696 113.271C61.0423 113.372 60.3144 112.744 60.477 111.79C60.5715 111.244 60.9315 110.691 61.2926 110.176C61.5586 109.785 62.0376 109.278 61.6188 108.306C61.3832 107.767 61.1829 107.533 60.9 107.598C60.3077 107.725 60.2654 108.903 60.4522 109.729C60.1817 109.828 59.6188 109.791 59.5453 109.345C59.4491 108.767 59.9366 107.759 60.8619 107.459C61.5689 107.226 62.0749 107.527 62.4609 108.548L63.4534 111.265C63.6635 111.839 63.8657 112.008 64.046 111.942C64.1926 111.889 64.2578 111.648 64.0313 111.028ZM61.0511 111.159C60.837 111.901 61.282 112.595 61.8939 112.486C62.6155 112.363 62.6597 111.12 62.0913 109.565L61.9184 109.091C61.9062 109.862 61.3184 110.282 61.0511 111.159ZM66.2184 105.68L66.9268 107.619L66.7915 107.668L66.7339 107.511C66.5815 107.094 65.817 105.98 64.9604 106.293L64.8364 106.339L66.5908 111.14L67.1206 110.947L67.17 111.082L65.4793 111.7L65.4299 111.564L65.9371 111.379L64.1827 106.578L64.0587 106.623C63.2021 106.936 63.3354 108.28 63.4878 108.697L63.5454 108.855L63.4102 108.904L62.7018 106.965L66.2184 105.68ZM68.355 104.9L68.4044 105.035L67.8747 105.229L68.6736 107.415L69.2597 107.201C70.3418 106.806 71.1709 107.256 71.4262 107.955C71.7021 108.71 71.3107 109.492 70.2083 109.972L68.5176 110.59L68.4682 110.454L68.9754 110.269L67.2209 105.467L66.7137 105.653L66.6643 105.517L68.355 104.9ZM69.6291 110.03L69.956 109.911C70.8013 109.602 70.9682 108.8 70.7582 108.225C70.5028 107.526 69.8502 107.139 69.1964 107.377L68.7231 107.55L69.6291 110.03ZM80.9788 100.249C80.2011 100.533 80.3777 102.065 80.9146 103.185C81.4515 104.305 82.2813 105.177 83.1153 104.872C83.5887 104.699 83.8605 104.115 83.7743 103.354L83.8982 103.309C84.0287 104.155 83.8007 105.21 82.9666 105.514C82.0199 105.86 80.8047 105.052 80.2158 103.44C79.6269 101.829 80.0348 100.428 81.0379 100.061C81.9734 99.7193 82.7956 100.326 82.7275 100.734C82.6757 101.047 82.3859 101.268 82.1635 101.323C82.0112 100.906 81.5874 100.026 80.9788 100.249ZM84.6012 98.9635C85.7406 98.5855 86.4015 98.9956 86.6115 99.5704C86.7763 100.021 86.5825 100.68 85.9578 101.138C86.8157 101.003 87.4541 101.422 87.6723 102.019C87.9483 102.774 87.5568 103.556 86.4544 104.036L84.7637 104.653L84.7143 104.518L85.2215 104.333L83.4671 99.5312L82.9599 99.7166L82.9105 99.5813L84.6012 98.9635ZM85.8753 104.094L86.2021 103.974C87.0475 103.666 87.2143 102.864 87.0043 102.289C86.749 101.59 86.0963 101.202 85.4426 101.441L85.3862 101.462L84.9692 101.614L85.8753 104.094ZM84.9198 101.479L85.2467 101.36C85.9793 101.092 86.1865 100.505 85.9765 99.9303C85.7211 99.2314 85.2141 98.8929 84.4477 99.1729L84.1208 99.2924L84.9198 101.479ZM88.2038 99.6785C88.2832 99.9306 88.3779 100.19 88.4869 100.418C89.0238 101.538 89.8535 102.41 90.6876 102.106C91.161 101.933 91.4553 101.34 91.3691 100.579L91.4931 100.534C91.6235 101.38 91.3955 102.435 90.5615 102.739C89.6147 103.085 88.3996 102.277 87.8106 100.665C87.2217 99.0536 87.6296 97.6526 88.5201 97.3272C89.3654 97.0183 90.3258 97.5489 90.7624 98.7437L88.2038 99.6785ZM88.1657 99.5392L89.2702 99.1356C89.8902 98.9091 89.909 98.5061 89.6613 98.0728L89.6571 98.0616C89.3437 97.5884 88.9681 97.3296 88.5736 97.4737C87.9875 97.6879 87.9305 98.6158 88.1657 99.5392ZM94.143 95.4771L94.8513 97.4157L94.7161 97.4651L94.6584 97.3073C94.506 96.8903 93.7416 95.777 92.8849 96.09L92.761 96.1353L94.5154 100.937L95.0451 100.743L95.0946 100.879L93.4039 101.496L93.3545 101.361L93.8617 101.176L92.1072 96.3742L91.9833 96.4195C91.1266 96.7325 91.26 98.0764 91.4123 98.4934L91.47 98.6512L91.3347 98.7006L90.6264 96.762L94.143 95.4771ZM98.2238 93.986L98.2732 94.1212L97.7434 94.3148L99.4979 99.1163L100.028 98.9227L100.077 99.058L98.3863 99.6758L98.3369 99.5405L98.8441 99.3552L97.0897 94.5537L95.647 95.0808L96.5736 97.6168C97.0308 98.8679 97.4285 100.166 96.7124 100.479C96.2698 100.666 95.9808 100.12 96.0571 99.7347C96.7971 99.5921 96.9408 99.0413 96.3519 97.4296L96.0389 96.5729C95.8041 95.9305 95.1849 95.2497 94.7115 95.4226L94.6777 95.435L94.6283 95.2997L98.2238 93.986ZM99.8822 95.4114C99.9616 95.6635 100.056 95.9227 100.165 96.1511C100.702 97.2709 101.532 98.1431 102.366 97.8383C102.839 97.6654 103.134 97.0723 103.047 96.3117L103.171 96.2664C103.302 97.1131 103.074 98.1674 102.24 98.4721C101.293 98.8181 100.078 98.01 99.4891 96.3982C98.9001 94.7865 99.308 93.3854 100.198 93.06C101.044 92.7511 102.004 93.2818 102.441 94.4765L99.8822 95.4114ZM99.8441 95.272L100.949 94.8684C101.569 94.6419 101.587 94.2389 101.34 93.8057L101.336 93.7944C101.022 93.3212 100.647 93.0624 100.252 93.2065C99.6659 93.4207 99.6089 94.3486 99.8441 95.272ZM103.735 94.0037C103.814 94.2558 103.909 94.515 104.018 94.7435C104.555 95.8632 105.384 96.7355 106.218 96.4307C106.692 96.2577 106.986 95.6647 106.9 94.9041L107.024 94.8588C107.154 95.7054 106.926 96.7597 106.092 97.0645C105.146 97.4104 103.93 96.6024 103.341 94.9906C102.753 93.3788 103.16 91.9777 104.051 91.6524C104.896 91.3435 105.857 91.8741 106.293 93.0689L103.735 94.0037ZM103.697 93.8643L104.801 93.4607C105.421 93.2342 105.44 92.8313 105.192 92.398L105.188 92.3867C104.875 91.9136 104.499 91.6548 104.104 91.7989C103.518 92.0131 103.461 92.941 103.697 93.8643ZM108.656 97.2266L108.925 95.9016C108.884 95.9294 108.843 95.9571 108.787 95.9777C108.516 96.0765 108.209 95.9335 108.11 95.663C108.011 95.3925 108.154 95.0847 108.424 94.9858C108.695 94.887 109.003 95.0301 109.102 95.3006C109.13 95.3795 109.141 95.4779 109.132 95.5579L108.9 97.2652L108.656 97.2266ZM118.261 83.8537L119.16 82.8866L119.306 82.9355L120.537 86.3056C120.666 85.8882 120.932 85.3946 121.45 85.3077C122.243 85.1711 123.127 85.8064 123.757 87.5309C124.346 89.1427 123.916 90.552 123.036 90.8733C122.732 90.9845 122.463 90.9808 122.209 90.8817L123.012 93.0796L123.542 92.886L123.591 93.0213L121.901 93.639L121.851 93.5038L122.359 93.3185L121.555 91.1206C121.426 91.3597 121.222 91.5363 120.918 91.6475C120.038 91.9687 118.801 91.1689 118.212 89.5572C117.582 87.8327 117.848 86.7773 118.542 86.3702C118.994 86.103 119.516 86.3082 119.883 86.5445L118.776 83.5125L118.381 83.9376L118.261 83.8537ZM118.911 89.3018C119.335 90.4627 120.098 91.781 120.864 91.501C121.18 91.3857 121.358 91.1035 121.362 90.5908L119.982 86.815C119.665 86.6115 119.235 86.4491 118.868 86.7368C118.311 87.1703 118.61 88.479 118.911 89.3018ZM122.016 90.352C122.349 90.741 122.667 90.842 122.983 90.7267C123.749 90.4467 123.483 88.9472 123.058 87.7863C122.758 86.9635 122.143 85.77 121.437 85.7978C120.971 85.8149 120.747 86.2161 120.636 86.5761L122.016 90.352ZM127.015 89.4195C126.125 89.7449 124.91 88.9368 124.321 87.325C123.732 85.7133 124.14 84.3122 125.03 83.9868C125.909 83.6656 127.147 84.4654 127.736 86.0772C128.325 87.6889 127.894 89.0983 127.015 89.4195ZM125.019 87.0697C125.444 88.2306 126.184 89.5571 126.962 89.273C127.728 88.9929 127.461 87.4934 127.037 86.3325C126.613 85.1716 125.85 83.8533 125.084 84.1333C124.306 84.4175 124.595 85.9088 125.019 87.0697ZM127.166 83.845L128.065 82.8779L128.211 82.9269L128.52 83.7722C128.577 83.4061 128.802 82.481 129.534 82.3538C130.328 82.2172 131.211 82.8525 131.842 84.577C132.43 86.1888 132 87.5981 131.121 87.9193C130.693 88.0758 130.334 88.0026 129.973 87.7509L130.871 90.208L131.401 90.0145L131.45 90.1497L129.76 90.7675L129.71 90.6322L130.217 90.4469L127.68 83.5039L127.286 83.9289L127.166 83.845ZM129.191 85.6094C129.87 87.4691 130.481 87.987 131.067 87.7728C131.834 87.4927 131.567 85.9932 131.143 84.8323C130.842 84.0095 130.227 82.8161 129.522 82.8438C128.843 82.8746 128.688 83.6725 128.618 84.0427L129.191 85.6094ZM135.492 86.22L132.533 82.9828L133.253 85.4412C133.408 85.972 133.708 86.6164 134.373 86.3735L134.406 86.3611L134.456 86.4964L132.765 87.1141L132.716 86.9789L132.749 86.9665C133.347 86.7482 133.261 85.9876 133.139 85.5849L131.961 81.5566L132.13 81.4948L135.451 85.2L135.162 80.3869L135.297 80.3375L137.675 85.1668L138.182 84.9815L138.232 85.1167L136.541 85.7345L136.491 85.5992L137.032 85.4015L135.404 82.0997L135.65 86.1623L135.492 86.22ZM141.751 82.6297L141.743 82.6071L141.878 82.5577L141.903 82.6254C142.179 83.3805 142.092 83.9107 141.686 84.059C141.291 84.2031 140.829 83.9506 140.561 83.218L140.297 82.4966C140.471 83.6723 140.259 84.7337 139.39 84.8724C138.762 84.9739 138.034 84.3455 138.197 83.3918C138.291 82.8462 138.652 82.2931 139.013 81.7779C139.279 81.3868 139.758 80.8796 139.339 79.9084C139.103 79.3684 138.903 79.135 138.62 79.2C138.028 79.327 137.985 80.5051 138.172 81.3311C137.902 81.43 137.339 81.3929 137.265 80.9471C137.169 80.369 137.657 79.3604 138.582 79.0606C139.289 78.8278 139.795 79.1285 140.181 80.15L141.173 82.8664C141.383 83.4412 141.586 83.6101 141.766 83.5442C141.913 83.4906 141.978 83.2496 141.751 82.6297ZM138.771 82.7604C138.557 83.503 139.002 84.1964 139.614 84.0878C140.335 83.9647 140.38 82.722 139.811 81.1666L139.638 80.6932C139.626 81.4642 139.038 81.8834 138.771 82.7604ZM143.938 77.2823L144.647 79.2209L144.512 79.2704L144.454 79.1126C144.302 78.6955 143.537 77.5823 142.68 77.8953L142.556 77.9406L144.311 82.7421L144.841 82.5485L144.89 82.6838L143.199 83.3015L143.15 83.1663L143.657 82.981L141.903 78.1794L141.779 78.2247C140.922 78.5377 141.055 79.8816 141.208 80.2986L141.265 80.4564L141.13 80.5059L140.422 78.5672L143.938 77.2823ZM49.0925 123.649L49.142 123.785L48.6122 123.978L49.37 126.052L51.1734 125.393L50.4156 123.319L49.9084 123.505L49.859 123.369L51.5497 122.752L51.5991 122.887L51.0693 123.08L52.8238 127.882L53.3535 127.688L53.4029 127.824L51.7122 128.441L51.6628 128.306L52.17 128.121L51.2228 125.528L49.4194 126.187L50.3666 128.78L50.8964 128.586L50.9458 128.721L49.2551 129.339L49.2057 129.204L49.7129 129.019L47.9585 124.217L47.4513 124.402L47.4019 124.267L49.0925 123.649ZM51.7206 122.689L53.4112 122.071L53.4607 122.207L52.9647 122.388L55.5784 125.904L55.3143 122.909C55.2654 122.39 55.0161 121.638 54.3511 121.881L54.3173 121.894L54.2678 121.758L55.9585 121.141L56.0079 121.276L55.9741 121.288C55.4444 121.482 55.4065 122.147 55.4225 122.576L55.8159 127.044C55.8953 127.961 55.8198 129.572 54.8087 130.057C54.363 130.271 54.0117 129.799 54.0377 129.38C54.7224 129.296 55.4639 128.808 55.6096 128.193C55.6941 127.83 55.7507 127.285 55.2914 126.622L52.2208 122.66L51.77 122.824L51.7206 122.689ZM59.5273 119.837L59.5767 119.972L59.0469 120.165L59.8459 122.352L59.9586 122.311C60.2967 122.187 60.523 122.002 60.3615 121.001C60.256 120.362 60.0936 119.464 60.5896 119.282C60.8713 119.179 61.2264 119.382 61.563 120.268L61.773 120.843L61.6378 120.892L61.5884 120.757C61.4236 120.306 61.139 119.912 60.8009 120.036C60.4966 120.147 60.5109 120.78 60.5384 121.345C60.5586 121.785 60.4975 122.037 60.3204 122.217C61.043 122.132 61.6415 122.616 62.0546 123.257C62.4205 123.839 62.4734 124.228 62.7101 124.142C62.913 124.068 62.8354 123.61 62.7096 123.196L62.8449 123.147C63.0601 123.771 63.1555 124.452 62.6596 124.633C62.0735 124.847 61.687 124.209 61.3846 123.591C61.1347 123.082 60.8421 122.141 60.2222 122.368L59.8953 122.487L60.8014 124.967L61.3311 124.773L61.3805 124.909L59.6673 125.535L59.6179 125.399L60.1476 125.206L59.2416 122.726L58.9147 122.846C58.2948 123.072 58.6776 123.98 58.8148 124.53C58.9819 125.197 59.0979 125.934 58.5118 126.148C58.0159 126.33 57.65 125.748 57.4122 125.132L57.5475 125.083C57.7183 125.48 57.9537 125.88 58.1565 125.806C58.3932 125.719 58.1825 125.387 58.0872 124.707C57.9896 123.95 58.1351 123.194 58.7424 122.794C58.4912 122.77 58.2818 122.617 58.0137 122.268C57.6706 121.818 57.273 121.325 56.9687 121.436C56.6306 121.559 56.6672 122.044 56.8319 122.495L56.8814 122.63L56.7461 122.68L56.5361 122.105C56.222 121.21 56.3629 120.827 56.6447 120.724C57.1406 120.543 57.596 121.334 57.927 121.891C58.4491 122.76 58.7413 122.756 59.0795 122.632L59.1922 122.591L58.3932 120.404L57.8635 120.598L57.814 120.463L59.5273 119.837ZM63.1629 120.54C63.2422 120.792 63.3369 121.051 63.4459 121.279C63.9828 122.399 64.8126 123.271 65.6466 122.967C66.12 122.794 66.4144 122.201 66.3281 121.44L66.4521 121.395C66.5826 122.241 66.3546 123.296 65.5205 123.6C64.5737 123.946 63.3586 123.138 62.7697 121.526C62.1807 119.915 62.5887 118.514 63.4791 118.188C64.3244 117.879 65.2849 118.41 65.7214 119.605L63.1629 120.54ZM63.1247 120.4L64.2293 119.997C64.8492 119.77 64.8681 119.367 64.6203 118.934L64.6162 118.923C64.3028 118.449 63.9271 118.191 63.5326 118.335C62.9465 118.549 62.8895 119.477 63.1247 120.4ZM67.2211 117.025L67.2705 117.161L66.7407 117.354L67.4985 119.428L69.3019 118.769L68.5441 116.695L68.0369 116.881L67.9875 116.745L69.6782 116.128L69.7276 116.263L69.1978 116.456L70.9523 121.258L71.482 121.064L71.5314 121.2L69.8408 121.817L69.7913 121.682L70.2985 121.497L69.3513 118.904L67.5479 119.563L68.4952 122.156L69.0249 121.962L69.0743 122.097L67.3836 122.715L67.3342 122.58L67.8414 122.395L66.087 117.593L65.5798 117.778L65.5304 117.643L67.2211 117.025ZM75.1197 119.888L75.0703 119.753L75.7691 119.498L75.0154 117.435L73.0543 118.152L72.929 118.019L73.3802 111.491L73.5831 111.417L75.6093 116.963L76.3337 116.672L76.4243 116.92L75.6917 117.188L76.4454 119.251L77.178 118.983L77.2274 119.118L75.1197 119.888ZM73.098 117.957L74.9147 117.229L74.9372 117.221L73.431 113.134L73.098 117.957ZM76.5502 112.058L77.8551 111.223L78.1187 111.945L76.5986 112.155L77.9509 112.849L77.4628 113.436L76.5361 112.229L76.599 113.765L75.8473 113.631L76.4295 112.217C76.4295 112.217 76.4254 112.206 76.4141 112.21L75.1318 113.036L74.8682 112.315L76.3812 112.12L76.377 112.108L75.0206 111.403L75.5087 110.816L76.4507 112.03L76.3879 110.495L77.1396 110.629L76.5502 112.058ZM78.3189 109.776L81.7228 108.533L81.7928 108.724L80.5844 112.935C80.6949 112.818 80.8363 112.715 81.0279 112.645C82.0761 112.262 83.1651 113.039 83.6057 114.245C84.0423 115.44 83.8938 116.887 82.6089 117.356C81.2451 117.855 79.7746 116.348 79.7952 115.74C79.7998 115.368 80.2135 115.102 80.4884 115.154C80.7153 116.055 81.6311 117.548 82.5779 117.202C83.3894 116.905 83.2882 115.754 82.8475 114.548C82.3657 113.229 81.6194 112.62 81.0108 112.843C80.6726 112.966 80.5059 113.244 80.4253 113.478L80.3906 113.593L80.245 113.544L81.4063 109.415L79.9411 109.95C78.7012 110.403 79.1543 111.643 79.6196 112.917L79.632 112.95L79.4967 113L78.3189 109.776ZM85.4858 117.404L85.7554 116.079C85.7145 116.107 85.6735 116.134 85.6171 116.155C85.3466 116.254 85.0388 116.111 84.94 115.84C84.8412 115.57 84.9842 115.262 85.2547 115.163C85.5252 115.064 85.833 115.207 85.9319 115.478C85.9607 115.557 85.9711 115.655 85.962 115.735L85.7299 117.443L85.4858 117.404ZM92.1869 112.451L92.1787 112.429L92.314 112.379L92.3387 112.447C92.6146 113.202 92.5273 113.732 92.1215 113.881C91.727 114.025 91.2642 113.772 90.9965 113.04L90.733 112.318C90.907 113.494 90.6944 114.555 89.8252 114.694C89.1979 114.796 88.4701 114.167 88.6326 113.213C88.7271 112.668 89.0872 112.115 89.4483 111.599C89.7142 111.208 90.1932 110.701 89.7745 109.73C89.5389 109.19 89.3386 108.957 89.0557 109.022C88.4633 109.149 88.4211 110.327 88.6079 111.153C88.3374 111.252 87.7745 111.215 87.701 110.769C87.6048 110.191 88.0922 109.182 89.0176 108.882C89.7246 108.649 90.2305 108.95 90.6166 109.972L91.6091 112.688C91.8191 113.263 92.0213 113.432 92.2017 113.366C92.3482 113.312 92.4135 113.071 92.1869 112.451ZM89.2068 112.582C88.9927 113.325 89.4377 114.018 90.0495 113.909C90.7711 113.786 90.8153 112.544 90.247 110.988L90.074 110.515C90.0619 111.286 89.4741 111.705 89.2068 112.582ZM94.8046 106.947L94.854 107.082L94.3243 107.275L95.082 109.349L96.8854 108.69L96.1276 106.617L95.6204 106.802L95.571 106.667L97.2617 106.049L97.3111 106.184L96.7814 106.378L98.5358 111.179L99.0655 110.986L99.115 111.121L97.4243 111.739L97.3749 111.603L97.8821 111.418L96.9348 108.826L95.1315 109.485L96.0787 112.077L96.6084 111.883L96.6578 112.019L94.9672 112.636L94.9177 112.501L95.4249 112.316L93.6705 107.514L93.1633 107.7L93.1139 107.564L94.8046 106.947ZM98.9246 107.473C99.0039 107.725 99.0986 107.984 99.2077 108.212C99.7446 109.332 100.574 110.204 101.408 109.9C101.882 109.727 102.176 109.134 102.09 108.373L102.214 108.328C102.344 109.174 102.116 110.229 101.282 110.533C100.335 110.879 99.1203 110.071 98.5314 108.459C97.9425 106.848 98.3504 105.447 99.2408 105.121C100.086 104.812 101.047 105.343 101.483 106.538L98.9246 107.473ZM98.8864 107.333L99.991 106.93C100.611 106.703 100.63 106.3 100.382 105.867L100.378 105.856C100.064 105.382 99.6888 105.124 99.2943 105.268C98.7082 105.482 98.6512 106.41 98.8864 107.333ZM105.118 108.927L105.069 108.792L105.768 108.537L103.232 101.632L102.601 101.862L102.551 101.727C102.916 101.326 103.211 100.911 103.446 100.506L103.582 100.456L106.444 108.29L107.177 108.022L107.226 108.157L105.118 108.927ZM106.434 101.139L107.739 100.304L108.003 101.025L106.483 101.236L107.835 101.93L107.347 102.517L106.42 101.31L106.483 102.846L105.731 102.711L106.313 101.298C106.313 101.298 106.309 101.286 106.298 101.291L105.016 102.117L104.752 101.395L106.265 101.2L106.261 101.189L104.905 100.484L105.393 99.8966L106.335 101.111L106.272 99.5754L107.024 99.7095L106.434 101.139ZM110.996 106.78L110.947 106.644L111.645 106.389L109.11 99.4839L108.478 99.7146L108.429 99.5793C108.793 99.1779 109.089 98.7632 109.324 98.3579L109.459 98.3085L112.322 106.142L113.054 105.874L113.104 106.009L110.996 106.78ZM114.313 106.871L114.583 105.546C114.542 105.573 114.501 105.601 114.444 105.622C114.174 105.721 113.866 105.578 113.767 105.307C113.668 105.037 113.812 104.729 114.082 104.63C114.353 104.531 114.66 104.674 114.759 104.945C114.788 105.024 114.798 105.122 114.789 105.202L114.557 106.909L114.313 106.871ZM120.022 97.7326L120.071 97.8679L119.541 98.0614L121.296 102.863L121.825 102.669L121.875 102.805L120.184 103.422L120.135 103.287L120.642 103.102L118.887 98.3003L117.197 98.918L118.951 103.72L119.481 103.526L119.53 103.661L117.84 104.279L117.79 104.144L118.297 103.958L116.543 99.1569L116.036 99.3422L115.986 99.207L120.022 97.7326ZM124.112 96.2379L124.162 96.3732L123.632 96.5667L125.386 101.368L125.916 101.175L125.965 101.31L124.275 101.928L124.225 101.792L124.733 101.607L122.978 96.8056L121.535 97.3328L122.462 99.8688C122.919 101.12 123.317 102.418 122.601 102.731C122.158 102.918 121.869 102.372 121.946 101.987C122.685 101.844 122.829 101.293 122.24 99.6815L121.927 98.8249C121.693 98.1824 121.073 97.5016 120.6 97.6746L120.566 97.6869L120.517 97.5517L124.112 96.2379ZM128.072 100.745C127.181 101.07 125.966 100.262 125.377 98.6502C124.789 97.0384 125.196 95.6373 126.087 95.312C126.966 94.9907 128.204 95.7906 128.793 97.4023C129.382 99.0141 128.951 100.423 128.072 100.745ZM126.076 98.3949C126.5 99.5558 127.241 100.882 128.018 100.598C128.785 100.318 128.518 98.8186 128.094 97.6577C127.67 96.4967 126.907 95.1784 126.14 95.4585C125.363 95.7427 125.652 97.2339 126.076 98.3949ZM127.919 94.8468L129.61 94.2291L129.659 94.3643L129.186 94.5373L130.812 96.0511L130.92 95.1559C130.95 94.6084 130.854 93.9278 130.246 94.1502L130.212 94.1625L130.162 94.0273L131.853 93.4095L131.902 93.5448L131.869 93.5571C131.35 93.7466 131.168 94.4009 131.079 94.8932L130.945 96.1688L133.386 98.4451L133.86 98.2721L133.909 98.4074L132.218 99.0252L132.169 98.8899L132.642 98.7169L130.786 96.9933L130.673 98.2227C130.639 98.759 130.726 99.4171 131.324 99.1988L131.357 99.1864L131.407 99.3217L129.716 99.9394L129.667 99.8042L129.701 99.7918C130.287 99.5777 130.479 98.7408 130.534 98.2609L130.669 96.8828L128.442 94.8091L127.969 94.9821L127.919 94.8468ZM135.678 97.9656C134.787 98.2909 133.572 97.4829 132.983 95.8711C132.394 94.2593 132.802 92.8582 133.693 92.5329C134.572 92.2116 135.81 93.0115 136.398 94.6232C136.987 96.235 136.557 97.6443 135.678 97.9656ZM133.682 95.6158C134.106 96.7767 134.846 98.1032 135.624 97.8191C136.391 97.539 136.124 96.0395 135.7 94.8786C135.275 93.7176 134.513 92.3994 133.746 92.6794C132.969 92.9636 133.258 94.4548 133.682 95.6158Z" fill="#FDC600"/>
</svg>
