<svg width="125" height="157" viewBox="0 0 125 157" fill="none" xmlns="http://www.w3.org/2000/svg">
<rect width="125" height="139.366" transform="matrix(-1 0 0 1 125 16.9744)" fill="#7C1C1C"/>
<rect width="125" height="25" transform="matrix(-1 0 0 1 125 16.7576)" fill="#A93434"/>
<path d="M16.68 130.049H16.31V132.299H15.59V127.299H16.31V129.559L16.65 129.419L17.87 127.299H18.64L17.45 129.309L17.1 129.639L17.53 130.039L18.81 132.299H17.95L16.68 130.049ZM19.1591 129.799C19.1591 128.899 19.3124 128.239 19.6191 127.819C19.9324 127.392 20.3757 127.179 20.9491 127.179C21.5624 127.179 22.0124 127.396 22.2991 127.829C22.5924 128.262 22.7391 128.919 22.7391 129.799C22.7391 130.706 22.5824 131.369 22.2691 131.789C21.9557 132.209 21.5157 132.419 20.9491 132.419C20.3357 132.419 19.8824 132.202 19.5891 131.769C19.3024 131.336 19.1591 130.679 19.1591 129.799ZM19.9091 129.799C19.9091 130.092 19.9257 130.359 19.9591 130.599C19.9991 130.839 20.0591 131.046 20.1391 131.219C20.2257 131.392 20.3357 131.529 20.4691 131.629C20.6024 131.722 20.7624 131.769 20.9491 131.769C21.2957 131.769 21.5557 131.616 21.7291 131.309C21.9024 130.996 21.9891 130.492 21.9891 129.799C21.9891 129.512 21.9691 129.249 21.9291 129.009C21.8957 128.762 21.8357 128.552 21.7491 128.379C21.6691 128.206 21.5624 128.072 21.4291 127.979C21.2957 127.879 21.1357 127.829 20.9491 127.829C20.6091 127.829 20.3491 127.986 20.1691 128.299C19.9957 128.612 19.9091 129.112 19.9091 129.799ZM27.0155 129.329L27.0855 128.379H27.0455L26.7455 129.229L25.8155 131.149H25.5555L24.5855 129.229L24.3155 128.379H24.2655L24.3455 129.319V132.299H23.6955V127.299H24.4155L25.5055 129.469L25.7255 130.119H25.7455L25.9855 129.449L26.9955 127.299H27.7355V132.299H27.0155V129.329ZM28.8701 127.599C29.0634 127.479 29.2967 127.386 29.5701 127.319C29.8501 127.252 30.1434 127.219 30.4501 127.219C30.7301 127.219 30.9534 127.262 31.1201 127.349C31.2934 127.429 31.4267 127.542 31.5201 127.689C31.6201 127.829 31.6834 127.992 31.7101 128.179C31.7434 128.359 31.7601 128.549 31.7601 128.749C31.7601 129.149 31.7501 129.539 31.7301 129.919C31.7167 130.299 31.7101 130.659 31.7101 130.999C31.7101 131.252 31.7167 131.489 31.7301 131.709C31.7501 131.922 31.7834 132.126 31.8301 132.319H31.2801L31.1101 131.729H31.0701C30.9701 131.902 30.8234 132.052 30.6301 132.179C30.4367 132.306 30.1767 132.369 29.8501 132.369C29.4901 132.369 29.1934 132.246 28.9601 131.999C28.7334 131.746 28.6201 131.399 28.6201 130.959C28.6201 130.672 28.6667 130.432 28.7601 130.239C28.8601 130.046 28.9967 129.889 29.1701 129.769C29.3501 129.649 29.5601 129.566 29.8001 129.519C30.0467 129.466 30.3201 129.439 30.6201 129.439C30.6867 129.439 30.7534 129.439 30.8201 129.439C30.8867 129.439 30.9567 129.442 31.0301 129.449C31.0501 129.242 31.0601 129.059 31.0601 128.899C31.0601 128.519 31.0034 128.252 30.8901 128.099C30.7767 127.946 30.5701 127.869 30.2701 127.869C30.0834 127.869 29.8801 127.899 29.6601 127.959C29.4401 128.012 29.2567 128.082 29.1101 128.169L28.8701 127.599ZM31.0401 130.019C30.9734 130.012 30.9067 130.009 30.8401 130.009C30.7734 130.002 30.7067 129.999 30.6401 129.999C30.4801 129.999 30.3234 130.012 30.1701 130.039C30.0167 130.066 29.8801 130.112 29.7601 130.179C29.6401 130.246 29.5434 130.336 29.4701 130.449C29.4034 130.562 29.3701 130.706 29.3701 130.879C29.3701 131.146 29.4334 131.352 29.5601 131.499C29.6934 131.646 29.8634 131.719 30.0701 131.719C30.3501 131.719 30.5667 131.652 30.7201 131.519C30.8734 131.386 30.9801 131.239 31.0401 131.079V130.019ZM35.374 130.069H33.644V132.299H32.924V127.299H33.644V129.419H35.374V127.299H36.094V132.299H35.374V130.069ZM40.8999 133.569H40.3999L40.2799 132.299H37.3199L37.1899 133.569H36.6999V131.649H37.1699C37.2099 131.576 37.2633 131.442 37.3299 131.249C37.4033 131.049 37.4733 130.776 37.5399 130.429C37.6066 130.076 37.6633 129.642 37.7099 129.129C37.7633 128.616 37.7933 128.006 37.7999 127.299H40.3099V131.649H40.8999V133.569ZM39.5899 131.649V127.949H38.4599C38.4466 128.236 38.4266 128.549 38.3999 128.889C38.3799 129.229 38.3466 129.569 38.2999 129.909C38.2533 130.242 38.1966 130.562 38.1299 130.869C38.0633 131.176 37.9866 131.436 37.8999 131.649H39.5899ZM41.6045 127.599C41.7978 127.479 42.0311 127.386 42.3045 127.319C42.5845 127.252 42.8778 127.219 43.1845 127.219C43.4645 127.219 43.6878 127.262 43.8545 127.349C44.0278 127.429 44.1611 127.542 44.2545 127.689C44.3545 127.829 44.4178 127.992 44.4445 128.179C44.4778 128.359 44.4945 128.549 44.4945 128.749C44.4945 129.149 44.4845 129.539 44.4645 129.919C44.4511 130.299 44.4445 130.659 44.4445 130.999C44.4445 131.252 44.4511 131.489 44.4645 131.709C44.4845 131.922 44.5178 132.126 44.5645 132.319H44.0145L43.8445 131.729H43.8045C43.7045 131.902 43.5578 132.052 43.3645 132.179C43.1711 132.306 42.9111 132.369 42.5845 132.369C42.2245 132.369 41.9278 132.246 41.6945 131.999C41.4678 131.746 41.3545 131.399 41.3545 130.959C41.3545 130.672 41.4011 130.432 41.4945 130.239C41.5945 130.046 41.7311 129.889 41.9045 129.769C42.0845 129.649 42.2945 129.566 42.5345 129.519C42.7811 129.466 43.0545 129.439 43.3545 129.439C43.4211 129.439 43.4878 129.439 43.5545 129.439C43.6211 129.439 43.6911 129.442 43.7645 129.449C43.7845 129.242 43.7945 129.059 43.7945 128.899C43.7945 128.519 43.7378 128.252 43.6245 128.099C43.5111 127.946 43.3045 127.869 43.0045 127.869C42.8178 127.869 42.6145 127.899 42.3945 127.959C42.1745 128.012 41.9911 128.082 41.8445 128.169L41.6045 127.599ZM43.7745 130.019C43.7078 130.012 43.6411 130.009 43.5745 130.009C43.5078 130.002 43.4411 129.999 43.3745 129.999C43.2145 129.999 43.0578 130.012 42.9045 130.039C42.7511 130.066 42.6145 130.112 42.4945 130.179C42.3745 130.246 42.2778 130.336 42.2045 130.449C42.1378 130.562 42.1045 130.706 42.1045 130.879C42.1045 131.146 42.1678 131.352 42.2945 131.499C42.4278 131.646 42.5978 131.719 42.8045 131.719C43.0845 131.719 43.3011 131.652 43.4545 131.519C43.6078 131.386 43.7145 131.239 43.7745 131.079V130.019ZM47.7775 127.299H48.2875L48.3975 127.839H48.4375C48.6842 127.399 49.0708 127.179 49.5975 127.179C50.1242 127.179 50.5175 127.376 50.7775 127.769C51.0442 128.162 51.1775 128.806 51.1775 129.699C51.1775 130.119 51.1342 130.499 51.0475 130.839C50.9608 131.172 50.8375 131.459 50.6775 131.699C50.5175 131.932 50.3208 132.112 50.0875 132.239C49.8608 132.359 49.6075 132.419 49.3275 132.419C49.1342 132.419 48.9808 132.406 48.8675 132.379C48.7542 132.359 48.6308 132.312 48.4975 132.239V134.299H47.7775V127.299ZM48.4975 131.509C48.5908 131.589 48.6942 131.652 48.8075 131.699C48.9275 131.746 49.0842 131.769 49.2775 131.769C49.6308 131.769 49.9108 131.589 50.1175 131.229C50.3242 130.869 50.4275 130.356 50.4275 129.689C50.4275 129.409 50.4075 129.156 50.3675 128.929C50.3342 128.702 50.2775 128.509 50.1975 128.349C50.1175 128.182 50.0142 128.056 49.8875 127.969C49.7675 127.876 49.6175 127.829 49.4375 127.829C48.9508 127.829 48.6375 128.126 48.4975 128.719V131.509ZM52.0732 127.599C52.2665 127.479 52.4999 127.386 52.7732 127.319C53.0532 127.252 53.3465 127.219 53.6532 127.219C53.9332 127.219 54.1565 127.262 54.3232 127.349C54.4965 127.429 54.6299 127.542 54.7232 127.689C54.8232 127.829 54.8865 127.992 54.9132 128.179C54.9465 128.359 54.9632 128.549 54.9632 128.749C54.9632 129.149 54.9532 129.539 54.9332 129.919C54.9199 130.299 54.9132 130.659 54.9132 130.999C54.9132 131.252 54.9199 131.489 54.9332 131.709C54.9532 131.922 54.9865 132.126 55.0332 132.319H54.4832L54.3132 131.729H54.2732C54.1732 131.902 54.0265 132.052 53.8332 132.179C53.6399 132.306 53.3799 132.369 53.0532 132.369C52.6932 132.369 52.3965 132.246 52.1632 131.999C51.9365 131.746 51.8232 131.399 51.8232 130.959C51.8232 130.672 51.8699 130.432 51.9632 130.239C52.0632 130.046 52.1999 129.889 52.3732 129.769C52.5532 129.649 52.7632 129.566 53.0032 129.519C53.2499 129.466 53.5232 129.439 53.8232 129.439C53.8899 129.439 53.9565 129.439 54.0232 129.439C54.0899 129.439 54.1599 129.442 54.2332 129.449C54.2532 129.242 54.2632 129.059 54.2632 128.899C54.2632 128.519 54.2065 128.252 54.0932 128.099C53.9799 127.946 53.7732 127.869 53.4732 127.869C53.2865 127.869 53.0832 127.899 52.8632 127.959C52.6432 128.012 52.4599 128.082 52.3132 128.169L52.0732 127.599ZM54.2432 130.019C54.1765 130.012 54.1099 130.009 54.0432 130.009C53.9765 130.002 53.9099 129.999 53.8432 129.999C53.6832 129.999 53.5265 130.012 53.3732 130.039C53.2199 130.066 53.0832 130.112 52.9632 130.179C52.8432 130.246 52.7465 130.336 52.6732 130.449C52.6065 130.562 52.5732 130.706 52.5732 130.879C52.5732 131.146 52.6365 131.352 52.7632 131.499C52.8965 131.646 53.0665 131.719 53.2732 131.719C53.5532 131.719 53.7699 131.652 53.9232 131.519C54.0765 131.386 54.1832 131.239 54.2432 131.079V130.019ZM56.5571 128.149C56.7304 127.836 56.9238 127.619 57.1371 127.499C57.3504 127.379 57.6171 127.319 57.9371 127.319C58.4304 127.319 58.8104 127.512 59.0771 127.899C59.3504 128.286 59.4871 128.882 59.4871 129.689C59.4871 130.616 59.3304 131.302 59.0171 131.749C58.7038 132.196 58.2671 132.419 57.7071 132.419C57.4071 132.419 57.1438 132.362 56.9171 132.249C56.6971 132.129 56.5104 131.946 56.3571 131.699C56.2104 131.446 56.0971 131.119 56.0171 130.719C55.9438 130.319 55.9071 129.836 55.9071 129.269C55.9071 128.696 55.9304 128.206 55.9771 127.799C56.0304 127.392 56.1004 127.049 56.1871 126.769C56.2804 126.489 56.3904 126.266 56.5171 126.099C56.6438 125.932 56.7871 125.802 56.9471 125.709C57.1071 125.609 57.2804 125.539 57.4671 125.499C57.6604 125.459 57.8638 125.426 58.0771 125.399C58.3571 125.366 58.5804 125.326 58.7471 125.279C58.9138 125.232 59.0471 125.152 59.1471 125.039L59.1971 125.749C59.1438 125.802 59.0838 125.849 59.0171 125.889C58.9504 125.922 58.8704 125.952 58.7771 125.979C58.6838 126.006 58.5738 126.029 58.4471 126.049C58.3271 126.062 58.1838 126.076 58.0171 126.089C57.7904 126.109 57.5904 126.152 57.4171 126.219C57.2504 126.286 57.1038 126.396 56.9771 126.549C56.8571 126.696 56.7604 126.899 56.6871 127.159C56.6138 127.419 56.5638 127.749 56.5371 128.149H56.5571ZM56.6571 129.809C56.6571 130.082 56.6771 130.339 56.7171 130.579C56.7571 130.812 56.8204 131.019 56.9071 131.199C56.9938 131.372 57.1004 131.512 57.2271 131.619C57.3604 131.719 57.5171 131.769 57.6971 131.769C58.0438 131.769 58.3038 131.606 58.4771 131.279C58.6504 130.952 58.7371 130.446 58.7371 129.759C58.7371 129.212 58.6638 128.779 58.5171 128.459C58.3704 128.132 58.1304 127.969 57.7971 127.969C57.4038 127.969 57.1138 128.129 56.9271 128.449C56.7471 128.769 56.6571 129.222 56.6571 129.809ZM60.2235 129.799C60.2235 128.899 60.3768 128.239 60.6835 127.819C60.9968 127.392 61.4402 127.179 62.0135 127.179C62.6268 127.179 63.0768 127.396 63.3635 127.829C63.6568 128.262 63.8035 128.919 63.8035 129.799C63.8035 130.706 63.6468 131.369 63.3335 131.789C63.0202 132.209 62.5802 132.419 62.0135 132.419C61.4002 132.419 60.9468 132.202 60.6535 131.769C60.3668 131.336 60.2235 130.679 60.2235 129.799ZM60.9735 129.799C60.9735 130.092 60.9902 130.359 61.0235 130.599C61.0635 130.839 61.1235 131.046 61.2035 131.219C61.2902 131.392 61.4002 131.529 61.5335 131.629C61.6668 131.722 61.8268 131.769 62.0135 131.769C62.3602 131.769 62.6202 131.616 62.7935 131.309C62.9668 130.996 63.0535 130.492 63.0535 129.799C63.0535 129.512 63.0335 129.249 62.9935 129.009C62.9602 128.762 62.9002 128.552 62.8135 128.379C62.7335 128.206 62.6268 128.072 62.4935 127.979C62.3602 127.879 62.2002 127.829 62.0135 127.829C61.6735 127.829 61.4135 127.986 61.2335 128.299C61.0602 128.612 60.9735 129.112 60.9735 129.799ZM67.2427 127.949H66.0127V132.299H65.2927V127.949H64.0627V127.299H67.2427V127.949ZM67.7959 127.599C67.9892 127.479 68.2225 127.386 68.4959 127.319C68.7759 127.252 69.0692 127.219 69.3759 127.219C69.6559 127.219 69.8792 127.262 70.0459 127.349C70.2192 127.429 70.3525 127.542 70.4459 127.689C70.5459 127.829 70.6092 127.992 70.6359 128.179C70.6692 128.359 70.6859 128.549 70.6859 128.749C70.6859 129.149 70.6759 129.539 70.6559 129.919C70.6425 130.299 70.6359 130.659 70.6359 130.999C70.6359 131.252 70.6425 131.489 70.6559 131.709C70.6759 131.922 70.7092 132.126 70.7559 132.319H70.2059L70.0359 131.729H69.9959C69.8959 131.902 69.7492 132.052 69.5559 132.179C69.3625 132.306 69.1025 132.369 68.7759 132.369C68.4159 132.369 68.1192 132.246 67.8859 131.999C67.6592 131.746 67.5459 131.399 67.5459 130.959C67.5459 130.672 67.5925 130.432 67.6859 130.239C67.7859 130.046 67.9225 129.889 68.0959 129.769C68.2759 129.649 68.4859 129.566 68.7259 129.519C68.9725 129.466 69.2459 129.439 69.5459 129.439C69.6125 129.439 69.6792 129.439 69.7459 129.439C69.8125 129.439 69.8825 129.442 69.9559 129.449C69.9759 129.242 69.9859 129.059 69.9859 128.899C69.9859 128.519 69.9292 128.252 69.8159 128.099C69.7025 127.946 69.4959 127.869 69.1959 127.869C69.0092 127.869 68.8059 127.899 68.5859 127.959C68.3659 128.012 68.1825 128.082 68.0359 128.169L67.7959 127.599ZM69.9659 130.019C69.8992 130.012 69.8325 130.009 69.7659 130.009C69.6992 130.002 69.6325 129.999 69.5659 129.999C69.4059 129.999 69.2492 130.012 69.0959 130.039C68.9425 130.066 68.8059 130.112 68.6859 130.179C68.5659 130.246 68.4692 130.336 68.3959 130.449C68.3292 130.562 68.2959 130.706 68.2959 130.879C68.2959 131.146 68.3592 131.352 68.4859 131.499C68.6192 131.646 68.7892 131.719 68.9959 131.719C69.2759 131.719 69.4925 131.652 69.6459 131.519C69.7992 131.386 69.9059 131.239 69.9659 131.079V130.019ZM74.0198 127.949H72.9298C72.9098 128.516 72.8831 129.066 72.8498 129.599C72.8164 130.126 72.7564 130.592 72.6698 130.999C72.5898 131.406 72.4731 131.732 72.3198 131.979C72.1664 132.219 71.9631 132.339 71.7098 132.339C71.5964 132.339 71.4998 132.332 71.4198 132.319C71.3398 132.306 71.2664 132.282 71.1998 132.249L71.3098 131.619C71.4498 131.659 71.5731 131.652 71.6798 131.599C71.7931 131.539 71.8898 131.366 71.9698 131.079C72.0498 130.786 72.1131 130.342 72.1598 129.749C72.2131 129.149 72.2498 128.332 72.2698 127.299H74.7398V132.299H74.0198V127.949ZM75.872 127.599C76.0654 127.479 76.2987 127.386 76.572 127.319C76.852 127.252 77.1454 127.219 77.452 127.219C77.732 127.219 77.9554 127.262 78.122 127.349C78.2954 127.429 78.4287 127.542 78.522 127.689C78.622 127.829 78.6854 127.992 78.712 128.179C78.7454 128.359 78.762 128.549 78.762 128.749C78.762 129.149 78.752 129.539 78.732 129.919C78.7187 130.299 78.712 130.659 78.712 130.999C78.712 131.252 78.7187 131.489 78.732 131.709C78.752 131.922 78.7854 132.126 78.832 132.319H78.282L78.112 131.729H78.072C77.972 131.902 77.8254 132.052 77.632 132.179C77.4387 132.306 77.1787 132.369 76.852 132.369C76.492 132.369 76.1954 132.246 75.962 131.999C75.7354 131.746 75.622 131.399 75.622 130.959C75.622 130.672 75.6687 130.432 75.762 130.239C75.862 130.046 75.9987 129.889 76.172 129.769C76.352 129.649 76.562 129.566 76.802 129.519C77.0487 129.466 77.322 129.439 77.622 129.439C77.6887 129.439 77.7554 129.439 77.822 129.439C77.8887 129.439 77.9587 129.442 78.032 129.449C78.052 129.242 78.062 129.059 78.062 128.899C78.062 128.519 78.0054 128.252 77.892 128.099C77.7787 127.946 77.572 127.869 77.272 127.869C77.0854 127.869 76.882 127.899 76.662 127.959C76.442 128.012 76.2587 128.082 76.112 128.169L75.872 127.599ZM78.042 130.019C77.9754 130.012 77.9087 130.009 77.842 130.009C77.7754 130.002 77.7087 129.999 77.642 129.999C77.482 129.999 77.3254 130.012 77.172 130.039C77.0187 130.066 76.882 130.112 76.762 130.179C76.642 130.246 76.5454 130.336 76.472 130.449C76.4054 130.562 76.372 130.706 76.372 130.879C76.372 131.146 76.4354 131.352 76.562 131.499C76.6954 131.646 76.8654 131.719 77.072 131.719C77.352 131.719 77.5687 131.652 77.722 131.519C77.8754 131.386 77.982 131.239 78.042 131.079V130.019ZM16.02 137.149C16.1933 136.836 16.3867 136.619 16.6 136.499C16.8133 136.379 17.08 136.319 17.4 136.319C17.8933 136.319 18.2733 136.512 18.54 136.899C18.8133 137.286 18.95 137.882 18.95 138.689C18.95 139.616 18.7933 140.302 18.48 140.749C18.1667 141.196 17.73 141.419 17.17 141.419C16.87 141.419 16.6067 141.362 16.38 141.249C16.16 141.129 15.9733 140.946 15.82 140.699C15.6733 140.446 15.56 140.119 15.48 139.719C15.4067 139.319 15.37 138.836 15.37 138.269C15.37 137.696 15.3933 137.206 15.44 136.799C15.4933 136.392 15.5633 136.049 15.65 135.769C15.7433 135.489 15.8533 135.266 15.98 135.099C16.1067 134.932 16.25 134.802 16.41 134.709C16.57 134.609 16.7433 134.539 16.93 134.499C17.1233 134.459 17.3267 134.426 17.54 134.399C17.82 134.366 18.0433 134.326 18.21 134.279C18.3767 134.232 18.51 134.152 18.61 134.039L18.66 134.749C18.6067 134.802 18.5467 134.849 18.48 134.889C18.4133 134.922 18.3333 134.952 18.24 134.979C18.1467 135.006 18.0367 135.029 17.91 135.049C17.79 135.062 17.6467 135.076 17.48 135.089C17.2533 135.109 17.0533 135.152 16.88 135.219C16.7133 135.286 16.5667 135.396 16.44 135.549C16.32 135.696 16.2233 135.899 16.15 136.159C16.0767 136.419 16.0267 136.749 16 137.149H16.02ZM16.12 138.809C16.12 139.082 16.14 139.339 16.18 139.579C16.22 139.812 16.2833 140.019 16.37 140.199C16.4567 140.372 16.5633 140.512 16.69 140.619C16.8233 140.719 16.98 140.769 17.16 140.769C17.5067 140.769 17.7667 140.606 17.94 140.279C18.1133 139.952 18.2 139.446 18.2 138.759C18.2 138.212 18.1267 137.779 17.98 137.459C17.8333 137.132 17.5933 136.969 17.26 136.969C16.8667 136.969 16.5767 137.129 16.39 137.449C16.21 137.769 16.12 138.222 16.12 138.809ZM22.8964 140.959C22.7364 141.106 22.5331 141.219 22.2864 141.299C22.0397 141.379 21.7797 141.419 21.5064 141.419C21.1931 141.419 20.9197 141.359 20.6864 141.239C20.4597 141.112 20.2697 140.936 20.1164 140.709C19.9697 140.476 19.8597 140.199 19.7864 139.879C19.7197 139.559 19.6864 139.199 19.6864 138.799C19.6864 137.946 19.8431 137.296 20.1564 136.849C20.4697 136.402 20.9131 136.179 21.4864 136.179C21.6731 136.179 21.8564 136.202 22.0364 136.249C22.2231 136.296 22.3897 136.389 22.5364 136.529C22.6831 136.669 22.7997 136.866 22.8864 137.119C22.9797 137.372 23.0264 137.702 23.0264 138.109C23.0264 138.222 23.0197 138.346 23.0064 138.479C22.9997 138.606 22.9897 138.739 22.9764 138.879H20.4364C20.4364 139.166 20.4597 139.426 20.5064 139.659C20.5531 139.892 20.6264 140.092 20.7264 140.259C20.8264 140.419 20.9531 140.546 21.1064 140.639C21.2664 140.726 21.4631 140.769 21.6964 140.769C21.8764 140.769 22.0531 140.736 22.2264 140.669C22.4064 140.602 22.5431 140.522 22.6364 140.429L22.8964 140.959ZM22.3364 138.279C22.3497 137.779 22.2797 137.412 22.1264 137.179C21.9731 136.946 21.7631 136.829 21.4964 136.829C21.1897 136.829 20.9464 136.946 20.7664 137.179C20.5864 137.412 20.4797 137.779 20.4464 138.279H22.3364ZM24.4173 139.059V138.439H24.9673C25.0606 138.439 25.1506 138.419 25.2373 138.379C25.3306 138.332 25.4106 138.272 25.4773 138.199C25.5506 138.126 25.6073 138.042 25.6473 137.949C25.6939 137.849 25.7173 137.746 25.7173 137.639C25.7173 137.379 25.6473 137.189 25.5073 137.069C25.3739 136.949 25.1673 136.889 24.8873 136.889C24.6806 136.889 24.4906 136.919 24.3173 136.979C24.1506 137.039 24.0206 137.102 23.9273 137.169L23.7173 136.599C23.8839 136.492 24.0773 136.406 24.2973 136.339C24.5239 136.272 24.7806 136.239 25.0673 136.239C25.5073 136.239 25.8439 136.342 26.0773 136.549C26.3173 136.749 26.4373 137.052 26.4373 137.459C26.4373 137.712 26.3739 137.946 26.2473 138.159C26.1206 138.372 25.9473 138.526 25.7273 138.619V138.659C26.0339 138.732 26.2539 138.872 26.3873 139.079C26.5206 139.286 26.5873 139.559 26.5873 139.899C26.5873 140.319 26.4473 140.672 26.1673 140.959C25.8873 141.239 25.4573 141.379 24.8773 141.379C24.6106 141.379 24.3839 141.352 24.1973 141.299C24.0173 141.252 23.8539 141.189 23.7073 141.109L23.8973 140.489C24.0239 140.569 24.1739 140.629 24.3473 140.669C24.5206 140.709 24.7006 140.729 24.8873 140.729C25.2139 140.729 25.4573 140.652 25.6173 140.499C25.7839 140.346 25.8673 140.126 25.8673 139.839C25.8673 139.599 25.7906 139.409 25.6373 139.269C25.4839 139.129 25.2273 139.059 24.8673 139.059H24.4173ZM29.4423 138.799C29.4423 137.899 29.5956 137.239 29.9023 136.819C30.2156 136.392 30.6589 136.179 31.2323 136.179C31.8456 136.179 32.2956 136.396 32.5823 136.829C32.8756 137.262 33.0223 137.919 33.0223 138.799C33.0223 139.706 32.8656 140.369 32.5523 140.789C32.2389 141.209 31.7989 141.419 31.2323 141.419C30.6189 141.419 30.1656 141.202 29.8723 140.769C29.5856 140.336 29.4423 139.679 29.4423 138.799ZM30.1923 138.799C30.1923 139.092 30.2089 139.359 30.2423 139.599C30.2823 139.839 30.3423 140.046 30.4223 140.219C30.5089 140.392 30.6189 140.529 30.7523 140.629C30.8856 140.722 31.0456 140.769 31.2323 140.769C31.5789 140.769 31.8389 140.616 32.0123 140.309C32.1856 139.996 32.2723 139.492 32.2723 138.799C32.2723 138.512 32.2523 138.249 32.2123 138.009C32.1789 137.762 32.1189 137.552 32.0323 137.379C31.9523 137.206 31.8456 137.072 31.7123 136.979C31.5789 136.879 31.4189 136.829 31.2323 136.829C30.8923 136.829 30.6323 136.986 30.4523 137.299C30.2789 137.612 30.1923 138.112 30.1923 138.799ZM36.7387 141.049C36.572 141.176 36.382 141.269 36.1687 141.329C35.9553 141.389 35.732 141.419 35.4987 141.419C35.1787 141.419 34.9087 141.359 34.6887 141.239C34.4687 141.112 34.2887 140.936 34.1487 140.709C34.0153 140.476 33.9153 140.199 33.8487 139.879C33.7887 139.552 33.7587 139.192 33.7587 138.799C33.7587 137.946 33.9087 137.296 34.2087 136.849C34.5153 136.402 34.952 136.179 35.5187 136.179C35.7787 136.179 36.002 136.202 36.1887 136.249C36.3753 136.296 36.5353 136.356 36.6687 136.429L36.4687 137.059C36.202 136.906 35.912 136.829 35.5987 136.829C35.2387 136.829 34.9653 136.989 34.7787 137.309C34.5987 137.622 34.5087 138.119 34.5087 138.799C34.5087 139.072 34.5287 139.329 34.5687 139.569C34.6087 139.809 34.6753 140.019 34.7687 140.199C34.862 140.372 34.982 140.512 35.1287 140.619C35.2753 140.719 35.4587 140.769 35.6787 140.769C35.852 140.769 36.012 140.739 36.1587 140.679C36.312 140.619 36.4353 140.549 36.5287 140.469L36.7387 141.049ZM40.0455 136.949H38.8155V141.299H38.0955V136.949H36.8655V136.299H40.0455V136.949ZM40.5986 136.599C40.7919 136.479 41.0253 136.386 41.2986 136.319C41.5786 136.252 41.8719 136.219 42.1786 136.219C42.4586 136.219 42.6819 136.262 42.8486 136.349C43.0219 136.429 43.1553 136.542 43.2486 136.689C43.3486 136.829 43.4119 136.992 43.4386 137.179C43.4719 137.359 43.4886 137.549 43.4886 137.749C43.4886 138.149 43.4786 138.539 43.4586 138.919C43.4453 139.299 43.4386 139.659 43.4386 139.999C43.4386 140.252 43.4453 140.489 43.4586 140.709C43.4786 140.922 43.5119 141.126 43.5586 141.319H43.0086L42.8386 140.729H42.7986C42.6986 140.902 42.5519 141.052 42.3586 141.179C42.1653 141.306 41.9053 141.369 41.5786 141.369C41.2186 141.369 40.9219 141.246 40.6886 140.999C40.4619 140.746 40.3486 140.399 40.3486 139.959C40.3486 139.672 40.3953 139.432 40.4886 139.239C40.5886 139.046 40.7253 138.889 40.8986 138.769C41.0786 138.649 41.2886 138.566 41.5286 138.519C41.7753 138.466 42.0486 138.439 42.3486 138.439C42.4153 138.439 42.4819 138.439 42.5486 138.439C42.6153 138.439 42.6853 138.442 42.7586 138.449C42.7786 138.242 42.7886 138.059 42.7886 137.899C42.7886 137.519 42.7319 137.252 42.6186 137.099C42.5053 136.946 42.2986 136.869 41.9986 136.869C41.8119 136.869 41.6086 136.899 41.3886 136.959C41.1686 137.012 40.9853 137.082 40.8386 137.169L40.5986 136.599ZM42.7686 139.019C42.7019 139.012 42.6353 139.009 42.5686 139.009C42.5019 139.002 42.4353 138.999 42.3686 138.999C42.2086 138.999 42.0519 139.012 41.8986 139.039C41.7453 139.066 41.6086 139.112 41.4886 139.179C41.3686 139.246 41.2719 139.336 41.1986 139.449C41.1319 139.562 41.0986 139.706 41.0986 139.879C41.0986 140.146 41.1619 140.352 41.2886 140.499C41.4219 140.646 41.5919 140.719 41.7986 140.719C42.0786 140.719 42.2953 140.652 42.4486 140.519C42.6019 140.386 42.7086 140.239 42.7686 140.079V139.019ZM47.1025 139.069H45.3725V141.299H44.6525V136.299H45.3725V138.419H47.1025V136.299H47.8225V141.299H47.1025V139.069ZM48.7684 138.799C48.7684 137.899 48.9218 137.239 49.2284 136.819C49.5418 136.392 49.9851 136.179 50.5584 136.179C51.1718 136.179 51.6218 136.396 51.9084 136.829C52.2018 137.262 52.3484 137.919 52.3484 138.799C52.3484 139.706 52.1918 140.369 51.8784 140.789C51.5651 141.209 51.1251 141.419 50.5584 141.419C49.9451 141.419 49.4918 141.202 49.1984 140.769C48.9118 140.336 48.7684 139.679 48.7684 138.799ZM49.5184 138.799C49.5184 139.092 49.5351 139.359 49.5684 139.599C49.6084 139.839 49.6684 140.046 49.7484 140.219C49.8351 140.392 49.9451 140.529 50.0784 140.629C50.2118 140.722 50.3718 140.769 50.5584 140.769C50.9051 140.769 51.1651 140.616 51.3384 140.309C51.5118 139.996 51.5984 139.492 51.5984 138.799C51.5984 138.512 51.5784 138.249 51.5384 138.009C51.5051 137.762 51.4451 137.552 51.3584 137.379C51.2784 137.206 51.1718 137.072 51.0384 136.979C50.9051 136.879 50.7451 136.829 50.5584 136.829C50.2184 136.829 49.9584 136.986 49.7784 137.299C49.6051 137.612 49.5184 138.112 49.5184 138.799ZM53.3048 136.309C53.4915 136.296 53.6948 136.279 53.9148 136.259C54.1348 136.239 54.3982 136.229 54.7048 136.229C55.2448 136.229 55.6315 136.332 55.8648 136.539C56.0982 136.739 56.2148 137.046 56.2148 137.459C56.2148 137.692 56.1582 137.919 56.0448 138.139C55.9382 138.359 55.7548 138.526 55.4948 138.639V138.679C55.8148 138.752 56.0415 138.889 56.1748 139.089C56.3082 139.282 56.3748 139.549 56.3748 139.889C56.3748 140.409 56.2215 140.786 55.9148 141.019C55.6082 141.252 55.1515 141.369 54.5448 141.369C54.3182 141.369 54.1015 141.359 53.8948 141.339C53.6882 141.326 53.4915 141.309 53.3048 141.289V136.309ZM54.0248 140.679C54.1248 140.692 54.2182 140.702 54.3048 140.709C54.3982 140.716 54.5115 140.719 54.6448 140.719C54.9848 140.719 55.2315 140.649 55.3848 140.509C55.5448 140.369 55.6248 140.142 55.6248 139.829C55.6248 139.589 55.5582 139.392 55.4248 139.239C55.2915 139.079 55.0482 138.999 54.6948 138.999H54.0248V140.679ZM54.7648 138.429C54.8582 138.429 54.9482 138.409 55.0348 138.369C55.1215 138.322 55.1982 138.262 55.2648 138.189C55.3382 138.116 55.3948 138.032 55.4348 137.939C55.4748 137.839 55.4948 137.736 55.4948 137.629C55.4948 137.369 55.4315 137.179 55.3048 137.059C55.1848 136.939 54.9748 136.879 54.6748 136.879C54.5148 136.879 54.3882 136.882 54.2948 136.889C54.2015 136.896 54.1115 136.902 54.0248 136.909V138.429H54.7648ZM58.428 139.049H58.058V141.299H57.338V136.299H58.058V138.559L58.398 138.419L59.618 136.299H60.388L59.198 138.309L58.848 138.639L59.278 139.039L60.558 141.299H59.698L58.428 139.049ZM63.6952 138.419L63.7552 137.659H63.7152L63.3652 138.499L61.6752 141.299H61.2052V136.299H61.9252V139.269L61.8652 139.999H61.9052L62.2352 139.179L63.9452 136.299H64.4152V141.299H63.6952V138.419ZM66.0198 134.299H66.7698V137.769L66.6198 139.529H66.1698L66.0198 137.769V134.299ZM65.8898 140.849C65.8898 140.662 65.9331 140.522 66.0198 140.429C66.1131 140.336 66.2364 140.289 66.3898 140.289C66.5431 140.289 66.6631 140.336 66.7498 140.429C66.8431 140.522 66.8898 140.662 66.8898 140.849C66.8898 141.042 66.8431 141.186 66.7498 141.279C66.6631 141.372 66.5431 141.419 66.3898 141.419C66.2364 141.419 66.1131 141.372 66.0198 141.279C65.9331 141.186 65.8898 141.042 65.8898 140.849Z" fill="#F6DFB8"/>
<path d="M101.83 143.499C101.577 143.179 101.363 142.826 101.19 142.439C101.023 142.059 100.887 141.669 100.78 141.269C100.673 140.862 100.597 140.456 100.55 140.049C100.503 139.636 100.48 139.242 100.48 138.869C100.48 138.502 100.503 138.116 100.55 137.709C100.597 137.302 100.673 136.896 100.78 136.489C100.887 136.076 101.027 135.672 101.2 135.279C101.38 134.886 101.597 134.519 101.85 134.179L102.3 134.449C102.087 134.789 101.91 135.146 101.77 135.519C101.63 135.892 101.517 136.272 101.43 136.659C101.35 137.039 101.29 137.419 101.25 137.799C101.217 138.172 101.2 138.529 101.2 138.869C101.2 139.189 101.22 139.542 101.26 139.929C101.3 140.309 101.363 140.692 101.45 141.079C101.543 141.466 101.66 141.842 101.8 142.209C101.94 142.576 102.107 142.906 102.3 143.199L101.83 143.499ZM106.014 135.829C106.014 136.196 105.957 136.579 105.844 136.979C105.737 137.379 105.597 137.776 105.424 138.169C105.257 138.556 105.067 138.929 104.854 139.289C104.647 139.649 104.444 139.969 104.244 140.249L103.844 140.689V140.719L104.374 140.629H106.124V141.299H102.884V140.979C103.011 140.826 103.157 140.632 103.324 140.399C103.491 140.166 103.661 139.912 103.834 139.639C104.014 139.359 104.187 139.066 104.354 138.759C104.527 138.446 104.681 138.129 104.814 137.809C104.947 137.489 105.054 137.172 105.134 136.859C105.221 136.546 105.264 136.246 105.264 135.959C105.264 135.619 105.184 135.349 105.024 135.149C104.871 134.949 104.644 134.849 104.344 134.849C104.151 134.849 103.961 134.886 103.774 134.959C103.594 135.026 103.437 135.112 103.304 135.219L103.024 134.689C103.204 134.529 103.424 134.406 103.684 134.319C103.944 134.226 104.217 134.179 104.504 134.179C104.997 134.179 105.371 134.332 105.624 134.639C105.884 134.939 106.014 135.336 106.014 135.829ZM107.316 143.199C107.509 142.906 107.676 142.576 107.816 142.209C107.956 141.842 108.069 141.466 108.156 141.079C108.249 140.692 108.316 140.309 108.356 139.929C108.396 139.542 108.416 139.189 108.416 138.869C108.416 138.529 108.396 138.172 108.356 137.799C108.323 137.419 108.263 137.039 108.176 136.659C108.096 136.272 107.983 135.892 107.836 135.519C107.696 135.146 107.523 134.789 107.316 134.449L107.766 134.179C108.019 134.519 108.233 134.886 108.406 135.279C108.586 135.672 108.729 136.076 108.836 136.489C108.943 136.896 109.019 137.302 109.066 137.709C109.113 138.116 109.136 138.502 109.136 138.869C109.136 139.242 109.113 139.636 109.066 140.049C109.019 140.456 108.943 140.862 108.836 141.269C108.729 141.669 108.589 142.059 108.416 142.439C108.243 142.826 108.033 143.179 107.786 143.499L107.316 143.199Z" fill="#F6DFB8"/>
<path d="M21.23 60.7671C21.23 61.0097 21.202 61.2524 21.146 61.4951C21.0993 61.7284 21.02 61.9524 20.908 62.1671C20.796 62.3724 20.6467 62.5544 20.46 62.7131C20.2827 62.8717 20.068 62.9931 19.816 63.0771V63.1611C20.04 63.2171 20.25 63.3011 20.446 63.4131C20.6513 63.5251 20.8287 63.6791 20.978 63.8751C21.1273 64.0617 21.244 64.2951 21.328 64.5751C21.4213 64.8457 21.468 65.1677 21.468 65.5411C21.468 66.0451 21.3793 66.4837 21.202 66.8571C21.034 67.2211 20.8007 67.5197 20.502 67.7531C20.2127 67.9864 19.872 68.1591 19.48 68.2711C19.088 68.3831 18.6727 68.4391 18.234 68.4391C18.1033 68.4391 17.9353 68.4391 17.73 68.4391C17.5247 68.4391 17.3007 68.4297 17.058 68.4111C16.8247 68.4017 16.582 68.3831 16.33 68.3551C16.078 68.3271 15.8447 68.2851 15.63 68.2291V58.5691C15.938 58.5131 16.316 58.4664 16.764 58.4291C17.2213 58.3824 17.674 58.3591 18.122 58.3591C18.5327 58.3591 18.9247 58.3917 19.298 58.4571C19.6807 58.5224 20.012 58.6437 20.292 58.8211C20.5813 58.9984 20.81 59.2457 20.978 59.5631C21.146 59.8711 21.23 60.2724 21.23 60.7671ZM18.276 66.9131C18.668 66.9131 18.99 66.7871 19.242 66.5351C19.494 66.2831 19.62 65.9144 19.62 65.4291C19.62 65.1211 19.578 64.8784 19.494 64.7011C19.41 64.5144 19.298 64.3744 19.158 64.2811C19.018 64.1784 18.8547 64.1131 18.668 64.0851C18.4907 64.0571 18.304 64.0431 18.108 64.0431H17.394V66.8291C17.4687 66.8571 17.5947 66.8804 17.772 66.8991C17.9587 66.9084 18.1267 66.9131 18.276 66.9131ZM17.8 62.6571C17.9027 62.6571 18.0193 62.6524 18.15 62.6431C18.29 62.6244 18.402 62.6057 18.486 62.5871C18.7567 62.4844 18.9853 62.3164 19.172 62.0831C19.368 61.8497 19.466 61.5464 19.466 61.1731C19.466 60.9304 19.4333 60.7251 19.368 60.5571C19.3027 60.3891 19.214 60.2584 19.102 60.1651C18.99 60.0624 18.8547 59.9924 18.696 59.9551C18.5467 59.9084 18.3833 59.8851 18.206 59.8851C17.8233 59.8851 17.5527 59.9037 17.394 59.9411V62.6571H17.8ZM24.1313 66.8291C24.3273 66.8851 24.5279 66.9131 24.7333 66.9131C25.0319 66.9131 25.2419 66.8384 25.3633 66.6891C25.4939 66.5304 25.5593 66.2737 25.5593 65.9191C25.5593 65.5924 25.4986 65.3497 25.3773 65.1911C25.2559 65.0324 25.0459 64.9531 24.7473 64.9531C24.5326 64.9531 24.3273 64.9811 24.1313 65.0371V66.8291ZM24.1313 63.7911C24.3179 63.7537 24.5093 63.7304 24.7053 63.7211C24.9013 63.7024 25.0786 63.6931 25.2373 63.6931C25.6199 63.6931 25.9419 63.7491 26.2033 63.8611C26.4646 63.9637 26.6746 64.1131 26.8333 64.3091C26.9919 64.5051 27.1039 64.7384 27.1693 65.0091C27.2439 65.2704 27.2813 65.5551 27.2813 65.8631C27.2813 66.2831 27.2346 66.6517 27.1413 66.9691C27.0479 67.2864 26.8939 67.5524 26.6793 67.7671C26.4646 67.9724 26.1846 68.1311 25.8393 68.2431C25.4939 68.3457 25.0646 68.3971 24.5513 68.3971C24.1033 68.3971 23.7066 68.3877 23.3613 68.3691C23.0253 68.3504 22.7266 68.3271 22.4653 68.2991V61.2991H24.1313V63.7911ZM27.8833 61.2991H29.5493V68.2991H27.8833V61.2991ZM34.0268 62.8251H32.4028V68.2991H30.7368V61.2991H35.6928V68.2991H34.0268V62.8251ZM36.6508 64.7991C36.6508 63.5577 36.8934 62.6337 37.3788 62.0271C37.8641 61.4204 38.5408 61.1171 39.4088 61.1171C40.3421 61.1171 41.0374 61.4251 41.4948 62.0411C41.9521 62.6571 42.1808 63.5764 42.1808 64.7991C42.1808 66.0497 41.9381 66.9784 41.4528 67.5851C40.9674 68.1824 40.2861 68.4811 39.4088 68.4811C37.5701 68.4811 36.6508 67.2537 36.6508 64.7991ZM38.3728 64.7991C38.3728 65.4991 38.4521 66.0404 38.6108 66.4231C38.7694 66.8057 39.0354 66.9971 39.4088 66.9971C39.7634 66.9971 40.0248 66.8337 40.1928 66.5071C40.3701 66.1711 40.4588 65.6017 40.4588 64.7991C40.4588 64.0804 40.3794 63.5344 40.2208 63.1611C40.0621 62.7877 39.7914 62.6011 39.4088 62.6011C39.0821 62.6011 38.8254 62.7691 38.6388 63.1051C38.4614 63.4317 38.3728 63.9964 38.3728 64.7991ZM46.3292 62.8251H45.3212C45.2838 63.6371 45.2325 64.3837 45.1672 65.0651C45.1018 65.7464 44.9992 66.3344 44.8592 66.8291C44.7192 67.3144 44.5278 67.6971 44.2852 67.9771C44.0518 68.2477 43.7438 68.3831 43.3612 68.3831C43.1278 68.3831 42.9272 68.3644 42.7592 68.3271C42.5912 68.2991 42.4465 68.2477 42.3252 68.1731L42.5212 66.7171C42.7452 66.7917 42.9318 66.7871 43.0812 66.7031C43.2398 66.6191 43.3705 66.3904 43.4732 66.0171C43.5758 65.6344 43.6552 65.0697 43.7112 64.3231C43.7765 63.5764 43.8232 62.5684 43.8512 61.2991H47.9952V68.2991H46.3292V62.8251ZM52.5398 65.5131H50.8598V68.2991H49.1938V61.2991H50.8598V63.9871H52.5398V61.2991H54.2058V68.2991H52.5398V65.5131ZM58.8445 65.2471L58.9705 64.1131H58.9285L58.4105 65.3031L56.5345 68.2991H55.4145V61.2991H57.0805V64.4771L56.9545 65.5691H56.9965L57.5005 64.4071L59.3905 61.2991H60.5105V68.2991H58.8445V65.2471ZM64.9092 62.8251H63.9012C63.8639 63.6371 63.8126 64.3837 63.7472 65.0651C63.6819 65.7464 63.5792 66.3344 63.4392 66.8291C63.2992 67.3144 63.1079 67.6971 62.8652 67.9771C62.6319 68.2477 62.3239 68.3831 61.9412 68.3831C61.7079 68.3831 61.5072 68.3644 61.3392 68.3271C61.1712 68.2991 61.0266 68.2477 60.9052 68.1731L61.1012 66.7171C61.3252 66.7917 61.5119 66.7871 61.6612 66.7031C61.8199 66.6191 61.9506 66.3904 62.0532 66.0171C62.1559 65.6344 62.2352 65.0697 62.2912 64.3231C62.3566 63.5764 62.4032 62.5684 62.4312 61.2991H66.5752V68.2991H64.9092V62.8251ZM71.2039 65.2471L71.3299 64.1131H71.2879L70.7699 65.3031L68.8939 68.2991H67.7739V61.2991H69.4399V64.4771L69.3139 65.5691H69.3559L69.8599 64.4071L71.7499 61.2991H72.8699V68.2991H71.2039V65.2471ZM82.4777 65.2611C82.4777 65.7557 82.4077 66.2037 82.2677 66.6051C82.137 67.0064 81.9504 67.3471 81.7077 67.6271C81.4744 67.9071 81.1897 68.1217 80.8537 68.2711C80.527 68.4204 80.1677 68.4951 79.7757 68.4951C79.365 68.4951 78.987 68.4251 78.6417 68.2851C78.2964 68.1357 77.9977 67.9117 77.7457 67.6131C77.4937 67.3144 77.2977 66.9317 77.1577 66.4651C77.0177 65.9891 76.9477 65.4291 76.9477 64.7851C76.9477 63.8331 77.0597 62.9837 77.2837 62.2371C77.517 61.4811 77.825 60.8324 78.2077 60.2911C78.5997 59.7497 79.043 59.3157 79.5377 58.9891C80.0417 58.6531 80.569 58.4244 81.1197 58.3031L81.5397 59.6611C81.1757 59.7544 80.835 59.9037 80.5177 60.1091C80.2004 60.3144 79.9157 60.5617 79.6637 60.8511C79.4117 61.1404 79.197 61.4717 79.0197 61.8451C78.8517 62.2091 78.7257 62.5964 78.6417 63.0071C78.8004 62.7831 79.001 62.6011 79.2437 62.4611C79.4864 62.3211 79.785 62.2511 80.1397 62.2511C80.4757 62.2511 80.7837 62.3117 81.0637 62.4331C81.353 62.5544 81.6004 62.7411 81.8057 62.9931C82.0204 63.2451 82.1837 63.5624 82.2957 63.9451C82.417 64.3184 82.4777 64.7571 82.4777 65.2611ZM80.8677 65.3591C80.8677 64.7897 80.7697 64.3791 80.5737 64.1271C80.387 63.8657 80.0977 63.7351 79.7057 63.7351C79.4257 63.7351 79.1877 63.8144 78.9917 63.9731C78.7957 64.1317 78.6557 64.3184 78.5717 64.5331C78.5624 64.6357 78.5577 64.7431 78.5577 64.8551C78.5577 64.9577 78.5577 65.0604 78.5577 65.1631C78.5577 65.4057 78.581 65.6391 78.6277 65.8631C78.6744 66.0777 78.7444 66.2737 78.8377 66.4511C78.9404 66.6191 79.0617 66.7544 79.2017 66.8571C79.351 66.9597 79.5284 67.0111 79.7337 67.0111C80.0697 67.0111 80.3404 66.8711 80.5457 66.5911C80.7604 66.3017 80.8677 65.8911 80.8677 65.3591ZM83.5213 63.3851C83.5213 62.4704 83.5819 61.6911 83.7033 61.0471C83.8339 60.4031 84.0206 59.8804 84.2633 59.4791C84.5059 59.0684 84.8046 58.7697 85.1593 58.5831C85.5139 58.3964 85.9199 58.3031 86.3773 58.3031C86.8626 58.3031 87.2826 58.3964 87.6373 58.5831C88.0013 58.7697 88.2999 59.0684 88.5333 59.4791C88.7759 59.8804 88.9533 60.4031 89.0653 61.0471C89.1866 61.6911 89.2473 62.4704 89.2473 63.3851C89.2473 64.3091 89.1819 65.0977 89.0513 65.7511C88.9206 66.3951 88.7339 66.9224 88.4913 67.3331C88.2486 67.7344 87.9499 68.0284 87.5953 68.2151C87.2406 68.4017 86.8346 68.4951 86.3773 68.4951C85.8919 68.4951 85.4673 68.4017 85.1033 68.2151C84.7486 68.0191 84.4546 67.7157 84.2213 67.3051C83.9879 66.8851 83.8106 66.3531 83.6893 65.7091C83.5773 65.0651 83.5213 64.2904 83.5213 63.3851ZM85.1873 63.3851C85.1873 64.6357 85.2806 65.5551 85.4673 66.1431C85.6539 66.7217 85.9619 67.0111 86.3913 67.0111C86.5966 67.0111 86.7739 66.9457 86.9233 66.8151C87.0819 66.6844 87.2079 66.4744 87.3013 66.1851C87.3946 65.8957 87.4646 65.5224 87.5113 65.0651C87.5579 64.6077 87.5813 64.0477 87.5813 63.3851C87.5813 62.1437 87.4879 61.2337 87.3013 60.6551C87.1239 60.0764 86.8159 59.7871 86.3773 59.7871C86.1626 59.7871 85.9806 59.8524 85.8313 59.9831C85.6819 60.1137 85.5606 60.3237 85.4673 60.6131C85.3739 60.9024 85.3039 61.2757 85.2573 61.7331C85.2106 62.1904 85.1873 62.7411 85.1873 63.3851ZM90.2488 62.7971H92.0548V60.7531H93.5948V62.7971H95.4008V64.2811H93.5948V66.3391H92.0548V64.2811H90.2488V62.7971ZM16.19 78.3871V77.1411H16.862C17.114 77.1411 17.3193 77.0664 17.478 76.9171C17.6367 76.7677 17.716 76.5857 17.716 76.3711C17.716 75.9044 17.4267 75.6711 16.848 75.6711C16.568 75.6711 16.3207 75.7084 16.106 75.7831C15.8913 75.8577 15.7187 75.9371 15.588 76.0211L15.21 74.6911C15.4527 74.5511 15.77 74.4344 16.162 74.3411C16.554 74.2384 16.96 74.1871 17.38 74.1871C18.7147 74.1871 19.382 74.7657 19.382 75.9231C19.382 76.2684 19.3073 76.5951 19.158 76.9031C19.0087 77.2017 18.7847 77.4164 18.486 77.5471V77.6031C18.878 77.7151 19.1627 77.9111 19.34 78.1911C19.5173 78.4711 19.606 78.8491 19.606 79.3251C19.606 79.6237 19.5547 79.9037 19.452 80.1651C19.3587 80.4171 19.2093 80.6364 19.004 80.8231C18.7987 81.0097 18.5373 81.1591 18.22 81.2711C17.912 81.3831 17.5433 81.4391 17.114 81.4391C16.694 81.4391 16.3207 81.3924 15.994 81.2991C15.6767 81.2151 15.4107 81.1077 15.196 80.9771L15.532 79.6191C15.7093 79.7217 15.9147 79.8057 16.148 79.8711C16.3907 79.9271 16.6473 79.9551 16.918 79.9551C17.5993 79.9551 17.94 79.6797 17.94 79.1291C17.94 78.8957 17.8513 78.7137 17.674 78.5831C17.506 78.4524 17.1887 78.3871 16.722 78.3871H16.19ZM20.5652 74.7191C20.8452 74.5511 21.1952 74.4157 21.6152 74.3131C22.0352 74.2104 22.5112 74.1591 23.0432 74.1591C23.8366 74.1591 24.3872 74.3644 24.6952 74.7751C25.0126 75.1857 25.1712 75.7691 25.1712 76.5251C25.1712 76.9637 25.1572 77.3977 25.1292 77.8271C25.1106 78.2471 25.0966 78.6624 25.0872 79.0731C25.0779 79.4744 25.0826 79.8664 25.1012 80.2491C25.1292 80.6224 25.1946 80.9771 25.2972 81.3131H23.9392L23.6732 80.4591H23.6172C23.4679 80.7297 23.2579 80.9537 22.9872 81.1311C22.7166 81.3084 22.3759 81.3971 21.9652 81.3971C21.4146 81.3971 20.9806 81.2151 20.6632 80.8511C20.3459 80.4777 20.1872 79.9831 20.1872 79.3671C20.1872 78.5271 20.4859 77.9297 21.0832 77.5751C21.6806 77.2204 22.4879 77.0711 23.5052 77.1271C23.5519 76.5857 23.5146 76.1937 23.3932 75.9511C23.2812 75.7084 23.0339 75.5871 22.6512 75.5871C22.3712 75.5871 22.0819 75.6197 21.7832 75.6851C21.4846 75.7504 21.2186 75.8437 20.9852 75.9651L20.5652 74.7191ZM22.5672 79.9691C22.8192 79.9691 23.0246 79.9084 23.1832 79.7871C23.3419 79.6564 23.4586 79.5164 23.5332 79.3671V78.2051C23.3186 78.1771 23.1132 78.1724 22.9172 78.1911C22.7212 78.2097 22.5486 78.2517 22.3992 78.3171C22.2499 78.3824 22.1286 78.4804 22.0352 78.6111C21.9512 78.7324 21.9092 78.8911 21.9092 79.0871C21.9092 79.3764 21.9652 79.5957 22.0772 79.7451C22.1986 79.8944 22.3619 79.9691 22.5672 79.9691ZM29.6244 75.8251H28.0004V81.2991H26.3344V74.2991H31.2904V81.2991H29.6244V75.8251ZM32.5004 74.2991H33.7464L33.9144 75.0971H33.9564C34.1711 74.7611 34.4091 74.5184 34.6704 74.3691C34.9411 74.2104 35.2724 74.1311 35.6644 74.1311C36.3738 74.1311 36.9058 74.4017 37.2604 74.9431C37.6244 75.4751 37.8064 76.3664 37.8064 77.6171C37.8064 78.8677 37.5824 79.8291 37.1344 80.5011C36.6864 81.1637 36.0378 81.4951 35.1884 81.4951C34.9644 81.4951 34.7731 81.4764 34.6144 81.4391C34.4558 81.4017 34.3064 81.3411 34.1664 81.2571V84.0991H32.5004V74.2991ZM34.1664 79.7311C34.2598 79.8244 34.3624 79.8944 34.4744 79.9411C34.5958 79.9877 34.7498 80.0111 34.9364 80.0111C35.3098 80.0111 35.5944 79.8291 35.7904 79.4651C35.9864 79.0917 36.0844 78.4617 36.0844 77.5751C36.0844 76.9124 36.0098 76.4224 35.8604 76.1051C35.7111 75.7784 35.4638 75.6151 35.1184 75.6151C34.6518 75.6151 34.3344 75.8904 34.1664 76.4411V79.7311ZM38.5102 77.7991C38.5102 76.5577 38.7528 75.6337 39.2382 75.0271C39.7235 74.4204 40.4002 74.1171 41.2682 74.1171C42.2015 74.1171 42.8968 74.4251 43.3542 75.0411C43.8115 75.6571 44.0402 76.5764 44.0402 77.7991C44.0402 79.0497 43.7975 79.9784 43.3122 80.5851C42.8268 81.1824 42.1455 81.4811 41.2682 81.4811C39.4295 81.4811 38.5102 80.2537 38.5102 77.7991ZM40.2322 77.7991C40.2322 78.4991 40.3115 79.0404 40.4702 79.4231C40.6288 79.8057 40.8948 79.9971 41.2682 79.9971C41.6228 79.9971 41.8842 79.8337 42.0522 79.5071C42.2295 79.1711 42.3182 78.6017 42.3182 77.7991C42.3182 77.0804 42.2388 76.5344 42.0802 76.1611C41.9215 75.7877 41.6508 75.6011 41.2682 75.6011C40.9415 75.6011 40.6848 75.7691 40.4982 76.1051C40.3208 76.4317 40.2322 76.9964 40.2322 77.7991ZM49.1265 80.9211C48.8932 81.1077 48.6132 81.2477 48.2865 81.3411C47.9599 81.4344 47.6332 81.4811 47.3065 81.4811C46.8305 81.4811 46.4292 81.3971 46.1025 81.2291C45.7852 81.0517 45.5239 80.8044 45.3185 80.4871C45.1132 80.1604 44.9639 79.7731 44.8705 79.3251C44.7865 78.8677 44.7445 78.3591 44.7445 77.7991C44.7445 76.5764 44.9639 75.6571 45.4025 75.0411C45.8412 74.4251 46.4852 74.1171 47.3345 74.1171C47.7545 74.1171 48.0952 74.1544 48.3565 74.2291C48.6272 74.3037 48.8652 74.3971 49.0705 74.5091L48.6785 75.8951C48.5105 75.8111 48.3472 75.7504 48.1885 75.7131C48.0392 75.6664 47.8572 75.6431 47.6425 75.6431C47.2505 75.6431 46.9565 75.8157 46.7605 76.1611C46.5645 76.4971 46.4665 77.0431 46.4665 77.7991C46.4665 78.4337 46.5645 78.9517 46.7605 79.3531C46.9659 79.7544 47.2879 79.9551 47.7265 79.9551C47.9599 79.9551 48.1559 79.9271 48.3145 79.8711C48.4825 79.8057 48.6365 79.7264 48.7765 79.6331L49.1265 80.9211ZM49.4613 77.7991C49.4613 76.5577 49.704 75.6337 50.1893 75.0271C50.6747 74.4204 51.3513 74.1171 52.2193 74.1171C53.1527 74.1171 53.848 74.4251 54.3053 75.0411C54.7627 75.6571 54.9913 76.5764 54.9913 77.7991C54.9913 79.0497 54.7487 79.9784 54.2633 80.5851C53.778 81.1824 53.0967 81.4811 52.2193 81.4811C50.3807 81.4811 49.4613 80.2537 49.4613 77.7991ZM51.1833 77.7991C51.1833 78.4991 51.2627 79.0404 51.4213 79.4231C51.58 79.8057 51.846 79.9971 52.2193 79.9971C52.574 79.9971 52.8353 79.8337 53.0033 79.5071C53.1807 79.1711 53.2693 78.6017 53.2693 77.7991C53.2693 77.0804 53.19 76.5344 53.0313 76.1611C52.8727 75.7877 52.602 75.6011 52.2193 75.6011C51.8927 75.6011 51.636 75.7691 51.4493 76.1051C51.272 76.4317 51.1833 76.9964 51.1833 77.7991ZM55.9477 74.3131C56.209 74.2851 56.5404 74.2617 56.9417 74.2431C57.3524 74.2151 57.777 74.2011 58.2157 74.2011C59.093 74.2011 59.7137 74.3457 60.0777 74.6351C60.4417 74.9244 60.6237 75.3631 60.6237 75.9511C60.6237 76.2871 60.5444 76.6091 60.3857 76.9171C60.227 77.2157 59.9844 77.4351 59.6577 77.5751V77.6311C60.451 77.8457 60.8477 78.4057 60.8477 79.3111C60.8477 80.0111 60.6237 80.5337 60.1757 80.8791C59.7277 81.2244 58.9997 81.3971 57.9917 81.3971C57.665 81.3971 57.3057 81.3877 56.9137 81.3691C56.531 81.3504 56.209 81.3224 55.9477 81.2851V74.3131ZM57.5717 79.9551C57.665 79.9737 57.7537 79.9877 57.8377 79.9971C57.9217 79.9971 58.0244 79.9971 58.1457 79.9971C58.5097 79.9971 58.771 79.9271 58.9297 79.7871C59.0977 79.6377 59.1817 79.4091 59.1817 79.1011C59.1817 78.8491 59.1117 78.6484 58.9717 78.4991C58.8317 78.3404 58.5937 78.2611 58.2577 78.2611H57.5717V79.9551ZM58.2577 77.1551C58.4817 77.1551 58.6637 77.0851 58.8037 76.9451C58.953 76.8051 59.0277 76.6184 59.0277 76.3851C59.0277 76.1144 58.967 75.9184 58.8457 75.7971C58.7337 75.6664 58.519 75.6011 58.2017 75.6011C58.043 75.6011 57.917 75.6057 57.8237 75.6151C57.7304 75.6151 57.6464 75.6197 57.5717 75.6291V77.1551H58.2577ZM68.0164 78.5131H66.3364V81.2991H64.6704V74.2991H66.3364V76.9871H68.0164V74.2991H69.6824V81.2991H68.0164V78.5131ZM70.9051 74.7191C71.1851 74.5511 71.5351 74.4157 71.9551 74.3131C72.3751 74.2104 72.8511 74.1591 73.3831 74.1591C74.1764 74.1591 74.7271 74.3644 75.0351 74.7751C75.3524 75.1857 75.5111 75.7691 75.5111 76.5251C75.5111 76.9637 75.4971 77.3977 75.4691 77.8271C75.4504 78.2471 75.4364 78.6624 75.4271 79.0731C75.4177 79.4744 75.4224 79.8664 75.4411 80.2491C75.4691 80.6224 75.5344 80.9771 75.6371 81.3131H74.2791L74.0131 80.4591H73.9571C73.8077 80.7297 73.5977 80.9537 73.3271 81.1311C73.0564 81.3084 72.7157 81.3971 72.3051 81.3971C71.7544 81.3971 71.3204 81.2151 71.0031 80.8511C70.6857 80.4777 70.5271 79.9831 70.5271 79.3671C70.5271 78.5271 70.8257 77.9297 71.4231 77.5751C72.0204 77.2204 72.8277 77.0711 73.8451 77.1271C73.8917 76.5857 73.8544 76.1937 73.7331 75.9511C73.6211 75.7084 73.3737 75.5871 72.9911 75.5871C72.7111 75.5871 72.4217 75.6197 72.1231 75.6851C71.8244 75.7504 71.5584 75.8437 71.3251 75.9651L70.9051 74.7191ZM72.9071 79.9691C73.1591 79.9691 73.3644 79.9084 73.5231 79.7871C73.6817 79.6564 73.7984 79.5164 73.8731 79.3671V78.2051C73.6584 78.1771 73.4531 78.1724 73.2571 78.1911C73.0611 78.2097 72.8884 78.2517 72.7391 78.3171C72.5897 78.3824 72.4684 78.4804 72.3751 78.6111C72.2911 78.7324 72.2491 78.8911 72.2491 79.0871C72.2491 79.3764 72.3051 79.5957 72.4171 79.7451C72.5384 79.8944 72.7017 79.9691 72.9071 79.9691ZM17.646 91.4011H17.268V94.2991H15.602V87.2991H17.268V90.2811L17.604 90.0851L18.78 87.2991H20.572L19.298 89.9871L18.682 90.5331L19.354 91.0791L20.768 94.2991H18.892L17.646 91.4011ZM21.3445 87.7191C21.6245 87.5511 21.9745 87.4157 22.3945 87.3131C22.8145 87.2104 23.2905 87.1591 23.8225 87.1591C24.6158 87.1591 25.1665 87.3644 25.4745 87.7751C25.7918 88.1857 25.9505 88.7691 25.9505 89.5251C25.9505 89.9637 25.9365 90.3977 25.9085 90.8271C25.8898 91.2471 25.8758 91.6624 25.8665 92.0731C25.8572 92.4744 25.8618 92.8664 25.8805 93.2491C25.9085 93.6224 25.9738 93.9771 26.0765 94.3131H24.7185L24.4525 93.4591H24.3965C24.2472 93.7297 24.0372 93.9537 23.7665 94.1311C23.4958 94.3084 23.1552 94.3971 22.7445 94.3971C22.1938 94.3971 21.7598 94.2151 21.4425 93.8511C21.1252 93.4777 20.9665 92.9831 20.9665 92.3671C20.9665 91.5271 21.2652 90.9297 21.8625 90.5751C22.4598 90.2204 23.2672 90.0711 24.2845 90.1271C24.3312 89.5857 24.2938 89.1937 24.1725 88.9511C24.0605 88.7084 23.8132 88.5871 23.4305 88.5871C23.1505 88.5871 22.8612 88.6197 22.5625 88.6851C22.2638 88.7504 21.9978 88.8437 21.7645 88.9651L21.3445 87.7191ZM23.3465 92.9691C23.5985 92.9691 23.8038 92.9084 23.9625 92.7871C24.1212 92.6564 24.2378 92.5164 24.3125 92.3671V91.2051C24.0978 91.1771 23.8925 91.1724 23.6965 91.1911C23.5005 91.2097 23.3278 91.2517 23.1785 91.3171C23.0292 91.3824 22.9078 91.4804 22.8145 91.6111C22.7305 91.7324 22.6885 91.8911 22.6885 92.0871C22.6885 92.3764 22.7445 92.5957 22.8565 92.7451C22.9778 92.8944 23.1412 92.9691 23.3465 92.9691ZM27.1137 87.2991H28.3597L28.5277 88.0971H28.5697C28.7844 87.7611 29.0224 87.5184 29.2837 87.3691C29.5544 87.2104 29.8857 87.1311 30.2777 87.1311C30.9871 87.1311 31.5191 87.4017 31.8737 87.9431C32.2377 88.4751 32.4197 89.3664 32.4197 90.6171C32.4197 91.8677 32.1957 92.8291 31.7477 93.5011C31.2997 94.1637 30.6511 94.4951 29.8017 94.4951C29.5777 94.4951 29.3864 94.4764 29.2277 94.4391C29.0691 94.4017 28.9197 94.3411 28.7797 94.2571V97.0991H27.1137V87.2991ZM28.7797 92.7311C28.8731 92.8244 28.9757 92.8944 29.0877 92.9411C29.2091 92.9877 29.3631 93.0111 29.5497 93.0111C29.9231 93.0111 30.2077 92.8291 30.4037 92.4651C30.5997 92.0917 30.6977 91.4617 30.6977 90.5751C30.6977 89.9124 30.6231 89.4224 30.4737 89.1051C30.3244 88.7784 30.0771 88.6151 29.7317 88.6151C29.2651 88.6151 28.9477 88.8904 28.7797 89.4411V92.7311ZM37.5211 88.8251H35.9811V94.2991H34.3151V88.8251H32.7191V87.2991H37.5211V88.8251ZM41.5633 91.2471L41.6893 90.1131H41.6472L41.1292 91.3031L39.2533 94.2991H38.1333V87.2991H39.7993V90.4771L39.6733 91.5691H39.7153L40.2193 90.4071L42.1093 87.2991H43.2293V94.2991H41.5633V91.2471ZM47.782 91.5131H46.102V94.2991H44.436V87.2991H46.102V89.9871H47.782V87.2991H49.448V94.2991H47.782V91.5131ZM52.7007 91.4011H52.3227V94.2991H50.6567V87.2991H52.3227V90.2811L52.6587 90.0851L53.8347 87.2991H55.6267L54.3527 89.9871L53.7367 90.5331L54.4087 91.0791L55.8227 94.2991H53.9467L52.7007 91.4011ZM59.8152 91.2471L59.9412 90.1131H59.8992L59.3812 91.3031L57.5052 94.2991H56.3852V87.2991H58.0512V90.4771L57.9252 91.5691H57.9672L58.4712 90.4071L60.3612 87.2991H61.4812V94.2991H59.8152V91.2471Z" fill="#F6DFB8"/>
<path d="M46.4726 52.8456L62.4999 15.2992M62.4999 15.2992C47.3715 18.2535 18.6659 19.9326 22.1586 9.79816C27.5 -5.7009 47.0667 9.32581 62.4999 15.2992ZM62.4999 15.2992C72.3135 9.27619 98.9579 -1.60007 105.022 6.96841C111.085 15.5369 77.3666 16.4166 62.4999 15.2992ZM62.4999 15.2992L93.3913 53.681" stroke="#FDC600" stroke-width="6"/>
</svg>
