<svg width="125" height="156" viewBox="0 0 125 156" fill="none" xmlns="http://www.w3.org/2000/svg">
<rect width="125" height="138.572" transform="matrix(-1 0 0 1 125 16.8945)" fill="#7C1C1C"/>
<rect width="125" height="24.8575" transform="matrix(-1 0 0 1 125 16.679)" fill="#A93434"/>
<path d="M18.4033 127.116H16.7433V131.466H16.0233V126.466H18.4033V127.116ZM20.9668 127.116H19.8768C19.8568 127.683 19.8301 128.233 19.7968 128.766C19.7635 129.293 19.7035 129.76 19.6168 130.166C19.5368 130.573 19.4201 130.9 19.2668 131.146C19.1135 131.386 18.9101 131.506 18.6568 131.506C18.5435 131.506 18.4468 131.5 18.3668 131.486C18.2868 131.473 18.2135 131.45 18.1468 131.416L18.2568 130.786C18.3968 130.826 18.5201 130.82 18.6268 130.766C18.7401 130.706 18.8368 130.533 18.9168 130.246C18.9968 129.953 19.0601 129.51 19.1068 128.916C19.1601 128.316 19.1968 127.5 19.2168 126.466H21.6868V131.466H20.9668V127.116ZM22.8191 126.766C23.0124 126.646 23.2457 126.553 23.5191 126.486C23.7991 126.42 24.0924 126.386 24.3991 126.386C24.6791 126.386 24.9024 126.43 25.0691 126.516C25.2424 126.596 25.3757 126.71 25.4691 126.856C25.5691 126.996 25.6324 127.16 25.6591 127.346C25.6924 127.526 25.7091 127.716 25.7091 127.916C25.7091 128.316 25.6991 128.706 25.6791 129.086C25.6657 129.466 25.6591 129.826 25.6591 130.166C25.6591 130.42 25.6657 130.656 25.6791 130.876C25.6991 131.09 25.7324 131.293 25.7791 131.486H25.2291L25.0591 130.896H25.0191C24.9191 131.07 24.7724 131.22 24.5791 131.346C24.3857 131.473 24.1257 131.536 23.7991 131.536C23.4391 131.536 23.1424 131.413 22.9091 131.166C22.6824 130.913 22.5691 130.566 22.5691 130.126C22.5691 129.84 22.6157 129.6 22.7091 129.406C22.8091 129.213 22.9457 129.056 23.1191 128.936C23.2991 128.816 23.5091 128.733 23.7491 128.686C23.9957 128.633 24.2691 128.606 24.5691 128.606C24.6357 128.606 24.7024 128.606 24.7691 128.606C24.8357 128.606 24.9057 128.61 24.9791 128.616C24.9991 128.41 25.0091 128.226 25.0091 128.066C25.0091 127.686 24.9524 127.42 24.8391 127.266C24.7257 127.113 24.5191 127.036 24.2191 127.036C24.0324 127.036 23.8291 127.066 23.6091 127.126C23.3891 127.18 23.2057 127.25 23.0591 127.336L22.8191 126.766ZM24.9891 129.186C24.9224 129.18 24.8557 129.176 24.7891 129.176C24.7224 129.17 24.6557 129.166 24.5891 129.166C24.4291 129.166 24.2724 129.18 24.1191 129.206C23.9657 129.233 23.8291 129.28 23.7091 129.346C23.5891 129.413 23.4924 129.503 23.4191 129.616C23.3524 129.73 23.3191 129.873 23.3191 130.046C23.3191 130.313 23.3824 130.52 23.5091 130.666C23.6424 130.813 23.8124 130.886 24.0191 130.886C24.2991 130.886 24.5157 130.82 24.6691 130.686C24.8224 130.553 24.9291 130.406 24.9891 130.246V129.186ZM26.873 126.476C27.0596 126.463 27.263 126.446 27.483 126.426C27.703 126.406 27.9663 126.396 28.273 126.396C28.813 126.396 29.1996 126.5 29.433 126.706C29.6663 126.906 29.783 127.213 29.783 127.626C29.783 127.86 29.7263 128.086 29.613 128.306C29.5063 128.526 29.323 128.693 29.063 128.806V128.846C29.383 128.92 29.6096 129.056 29.743 129.256C29.8763 129.45 29.943 129.716 29.943 130.056C29.943 130.576 29.7896 130.953 29.483 131.186C29.1763 131.42 28.7196 131.536 28.113 131.536C27.8863 131.536 27.6696 131.526 27.463 131.506C27.2563 131.493 27.0596 131.476 26.873 131.456V126.476ZM27.593 130.846C27.693 130.86 27.7863 130.87 27.873 130.876C27.9663 130.883 28.0796 130.886 28.213 130.886C28.553 130.886 28.7996 130.816 28.953 130.676C29.113 130.536 29.193 130.31 29.193 129.996C29.193 129.756 29.1263 129.56 28.993 129.406C28.8596 129.246 28.6163 129.166 28.263 129.166H27.593V130.846ZM28.333 128.596C28.4263 128.596 28.5163 128.576 28.603 128.536C28.6896 128.49 28.7663 128.43 28.833 128.356C28.9063 128.283 28.963 128.2 29.003 128.106C29.043 128.006 29.063 127.903 29.063 127.796C29.063 127.536 28.9996 127.346 28.873 127.226C28.753 127.106 28.543 127.046 28.243 127.046C28.083 127.046 27.9563 127.05 27.863 127.056C27.7696 127.063 27.6796 127.07 27.593 127.076V128.596H28.333ZM33.3562 129.236H31.6262V131.466H30.9062V126.466H31.6262V128.586H33.3562V126.466H34.0762V131.466H33.3562V129.236ZM35.0221 128.966C35.0221 128.066 35.1754 127.406 35.4821 126.986C35.7954 126.56 36.2388 126.346 36.8121 126.346C37.4254 126.346 37.8754 126.563 38.1621 126.996C38.4554 127.43 38.6021 128.086 38.6021 128.966C38.6021 129.873 38.4454 130.536 38.1321 130.956C37.8188 131.376 37.3788 131.586 36.8121 131.586C36.1988 131.586 35.7454 131.37 35.4521 130.936C35.1654 130.503 35.0221 129.846 35.0221 128.966ZM35.7721 128.966C35.7721 129.26 35.7888 129.526 35.8221 129.766C35.8621 130.006 35.9221 130.213 36.0021 130.386C36.0888 130.56 36.1988 130.696 36.3321 130.796C36.4654 130.89 36.6254 130.936 36.8121 130.936C37.1588 130.936 37.4188 130.783 37.5921 130.476C37.7654 130.163 37.8521 129.66 37.8521 128.966C37.8521 128.68 37.8321 128.416 37.7921 128.176C37.7588 127.93 37.6988 127.72 37.6121 127.546C37.5321 127.373 37.4254 127.24 37.2921 127.146C37.1588 127.046 36.9988 126.996 36.8121 126.996C36.4721 126.996 36.2121 127.153 36.0321 127.466C35.8588 127.78 35.7721 128.28 35.7721 128.966ZM42.5485 131.126C42.3885 131.273 42.1852 131.386 41.9385 131.466C41.6918 131.546 41.4318 131.586 41.1585 131.586C40.8452 131.586 40.5718 131.526 40.3385 131.406C40.1118 131.28 39.9218 131.103 39.7685 130.876C39.6218 130.643 39.5118 130.366 39.4385 130.046C39.3718 129.726 39.3385 129.366 39.3385 128.966C39.3385 128.113 39.4952 127.463 39.8085 127.016C40.1218 126.57 40.5652 126.346 41.1385 126.346C41.3252 126.346 41.5085 126.37 41.6885 126.416C41.8752 126.463 42.0418 126.556 42.1885 126.696C42.3352 126.836 42.4518 127.033 42.5385 127.286C42.6318 127.54 42.6785 127.87 42.6785 128.276C42.6785 128.39 42.6718 128.513 42.6585 128.646C42.6518 128.773 42.6418 128.906 42.6285 129.046H40.0885C40.0885 129.333 40.1118 129.593 40.1585 129.826C40.2052 130.06 40.2785 130.26 40.3785 130.426C40.4785 130.586 40.6052 130.713 40.7585 130.806C40.9185 130.893 41.1152 130.936 41.3485 130.936C41.5285 130.936 41.7052 130.903 41.8785 130.836C42.0585 130.77 42.1952 130.69 42.2885 130.596L42.5485 131.126ZM41.9885 128.446C42.0018 127.946 41.9318 127.58 41.7785 127.346C41.6252 127.113 41.4152 126.996 41.1485 126.996C40.8418 126.996 40.5985 127.113 40.4185 127.346C40.2385 127.58 40.1318 127.946 40.0985 128.446H41.9885ZM46.0513 128.246H50.7713V128.936H46.0513V128.246ZM54.277 126.466V127.926C54.277 128.093 54.2837 128.243 54.297 128.376C54.317 128.51 54.3504 128.626 54.397 128.726C54.4437 128.82 54.5104 128.893 54.597 128.946C54.6837 128.993 54.797 129.016 54.937 129.016C55.1704 129.016 55.3604 128.986 55.507 128.926C55.6537 128.866 55.767 128.8 55.847 128.726V126.466H56.567V131.466H55.847V129.366C55.767 129.426 55.6404 129.493 55.467 129.566C55.3004 129.633 55.0737 129.666 54.787 129.666C54.5937 129.666 54.4204 129.643 54.267 129.596C54.1137 129.543 53.9837 129.46 53.877 129.346C53.777 129.233 53.697 129.08 53.637 128.886C53.5837 128.693 53.557 128.45 53.557 128.156V126.466H54.277ZM60.3519 127.116H59.1219V131.466H58.4019V127.116H57.1719V126.466H60.3519V127.116ZM60.6178 128.966C60.6178 128.066 60.7711 127.406 61.0778 126.986C61.3911 126.56 61.8345 126.346 62.4078 126.346C63.0211 126.346 63.4711 126.563 63.7578 126.996C64.0511 127.43 64.1978 128.086 64.1978 128.966C64.1978 129.873 64.0411 130.536 63.7278 130.956C63.4145 131.376 62.9745 131.586 62.4078 131.586C61.7945 131.586 61.3411 131.37 61.0478 130.936C60.7611 130.503 60.6178 129.846 60.6178 128.966ZM61.3678 128.966C61.3678 129.26 61.3845 129.526 61.4178 129.766C61.4578 130.006 61.5178 130.213 61.5978 130.386C61.6845 130.56 61.7945 130.696 61.9278 130.796C62.0611 130.89 62.2211 130.936 62.4078 130.936C62.7545 130.936 63.0145 130.783 63.1878 130.476C63.3611 130.163 63.4478 129.66 63.4478 128.966C63.4478 128.68 63.4278 128.416 63.3878 128.176C63.3545 127.93 63.2945 127.72 63.2078 127.546C63.1278 127.373 63.0211 127.24 62.8878 127.146C62.7545 127.046 62.5945 126.996 62.4078 126.996C62.0678 126.996 61.8078 127.153 61.6278 127.466C61.4545 127.78 61.3678 128.28 61.3678 128.966ZM65.5842 127.316C65.7575 127.003 65.9509 126.786 66.1642 126.666C66.3775 126.546 66.6442 126.486 66.9642 126.486C67.4575 126.486 67.8375 126.68 68.1042 127.066C68.3775 127.453 68.5142 128.05 68.5142 128.856C68.5142 129.783 68.3575 130.47 68.0442 130.916C67.7309 131.363 67.2942 131.586 66.7342 131.586C66.4342 131.586 66.1709 131.53 65.9442 131.416C65.7242 131.296 65.5375 131.113 65.3842 130.866C65.2375 130.613 65.1242 130.286 65.0442 129.886C64.9709 129.486 64.9342 129.003 64.9342 128.436C64.9342 127.863 64.9575 127.373 65.0042 126.966C65.0575 126.56 65.1275 126.216 65.2142 125.936C65.3075 125.656 65.4175 125.433 65.5442 125.266C65.6709 125.1 65.8142 124.97 65.9742 124.876C66.1342 124.776 66.3075 124.706 66.4942 124.666C66.6875 124.626 66.8909 124.593 67.1042 124.566C67.3842 124.533 67.6075 124.493 67.7742 124.446C67.9409 124.4 68.0742 124.32 68.1742 124.206L68.2242 124.916C68.1709 124.97 68.1109 125.016 68.0442 125.056C67.9775 125.09 67.8975 125.12 67.8042 125.146C67.7109 125.173 67.6009 125.196 67.4742 125.216C67.3542 125.23 67.2109 125.243 67.0442 125.256C66.8175 125.276 66.6175 125.32 66.4442 125.386C66.2775 125.453 66.1309 125.563 66.0042 125.716C65.8842 125.863 65.7875 126.066 65.7142 126.326C65.6409 126.586 65.5909 126.916 65.5642 127.316H65.5842ZM65.6842 128.976C65.6842 129.25 65.7042 129.506 65.7442 129.746C65.7842 129.98 65.8475 130.186 65.9342 130.366C66.0209 130.54 66.1275 130.68 66.2542 130.786C66.3875 130.886 66.5442 130.936 66.7242 130.936C67.0709 130.936 67.3309 130.773 67.5042 130.446C67.6775 130.12 67.7642 129.613 67.7642 128.926C67.7642 128.38 67.6909 127.946 67.5442 127.626C67.3975 127.3 67.1575 127.136 66.8242 127.136C66.4309 127.136 66.1409 127.296 65.9542 127.616C65.7742 127.936 65.6842 128.39 65.6842 128.976ZM70.1906 130.816C70.3906 130.856 70.5739 130.876 70.7406 130.876C71.0606 130.876 71.2839 130.793 71.4106 130.626C71.5373 130.453 71.6006 130.206 71.6006 129.886C71.6006 129.586 71.5373 129.353 71.4106 129.186C71.2906 129.013 71.0739 128.926 70.7606 128.926C70.6739 128.926 70.5806 128.933 70.4806 128.946C70.3806 128.953 70.2839 128.97 70.1906 128.996V130.816ZM70.1906 128.376C70.3239 128.35 70.4506 128.333 70.5706 128.326C70.6906 128.313 70.8039 128.306 70.9106 128.306C71.1839 128.306 71.4139 128.346 71.6006 128.426C71.7873 128.5 71.9339 128.603 72.0406 128.736C72.1539 128.87 72.2339 129.03 72.2806 129.216C72.3273 129.396 72.3506 129.59 72.3506 129.796C72.3506 130.403 72.2139 130.843 71.9406 131.116C71.6739 131.39 71.2273 131.526 70.6006 131.526C70.2139 131.526 69.8373 131.506 69.4706 131.466V126.466H70.1906V128.376ZM72.9506 126.466H73.6706V131.466H72.9506V126.466ZM78.0606 129.216H77.6906V131.466H76.9706V126.466H77.6906V128.726L78.0306 128.586L79.2506 126.466H80.0206L78.8306 128.476L78.4806 128.806L78.9106 129.206L80.1906 131.466H79.3306L78.0606 129.216ZM80.5397 128.966C80.5397 128.066 80.693 127.406 80.9997 126.986C81.313 126.56 81.7563 126.346 82.3297 126.346C82.943 126.346 83.393 126.563 83.6797 126.996C83.973 127.43 84.1197 128.086 84.1197 128.966C84.1197 129.873 83.963 130.536 83.6497 130.956C83.3363 131.376 82.8963 131.586 82.3297 131.586C81.7163 131.586 81.263 131.37 80.9697 130.936C80.683 130.503 80.5397 129.846 80.5397 128.966ZM81.2897 128.966C81.2897 129.26 81.3063 129.526 81.3397 129.766C81.3797 130.006 81.4397 130.213 81.5197 130.386C81.6063 130.56 81.7163 130.696 81.8497 130.796C81.983 130.89 82.143 130.936 82.3297 130.936C82.6763 130.936 82.9363 130.783 83.1097 130.476C83.283 130.163 83.3697 129.66 83.3697 128.966C83.3697 128.68 83.3497 128.416 83.3097 128.176C83.2763 127.93 83.2163 127.72 83.1297 127.546C83.0497 127.373 82.943 127.24 82.8097 127.146C82.6763 127.046 82.5163 126.996 82.3297 126.996C81.9897 126.996 81.7297 127.153 81.5497 127.466C81.3763 127.78 81.2897 128.28 81.2897 128.966ZM86.8861 131.506C86.7928 131.546 86.6961 131.57 86.5961 131.576C86.5028 131.583 86.4161 131.586 86.3361 131.586C85.8428 131.586 85.4661 131.38 85.2061 130.966C84.9461 130.546 84.8161 129.88 84.8161 128.966C84.8161 128.08 84.9594 127.43 85.2461 127.016C85.5394 126.596 85.9561 126.386 86.4961 126.386C86.6494 126.386 86.7794 126.4 86.8861 126.426V124.466H87.5861V126.436C87.6794 126.416 87.7628 126.403 87.8361 126.396C87.9161 126.39 87.9894 126.386 88.0561 126.386C88.3228 126.386 88.5561 126.43 88.7561 126.516C88.9561 126.603 89.1228 126.743 89.2561 126.936C89.3894 127.13 89.4894 127.386 89.5561 127.706C89.6228 128.02 89.6561 128.406 89.6561 128.866C89.6561 129.766 89.5128 130.446 89.2261 130.906C88.9461 131.36 88.5461 131.586 88.0261 131.586C87.9728 131.586 87.8994 131.58 87.8061 131.566C87.7128 131.56 87.6394 131.543 87.5861 131.516V133.466H86.8861V131.506ZM87.9161 127.006C87.8494 127.006 87.7928 127.01 87.7461 127.016C87.6994 127.016 87.6394 127.03 87.5661 127.056V130.936C87.6194 130.95 87.6761 130.96 87.7361 130.966C87.8028 130.966 87.8761 130.966 87.9561 130.966C88.6094 130.966 88.9361 130.266 88.9361 128.866C88.9361 128.253 88.8594 127.79 88.7061 127.476C88.5594 127.163 88.2961 127.006 87.9161 127.006ZM86.5161 130.966C86.5828 130.966 86.6461 130.963 86.7061 130.956C86.7661 130.95 86.8328 130.936 86.9061 130.916V127.046C86.7928 127.02 86.6694 127.006 86.5361 127.006C86.2228 127.006 85.9761 127.16 85.7961 127.466C85.6228 127.766 85.5361 128.266 85.5361 128.966C85.5361 129.58 85.6128 130.066 85.7661 130.426C85.9261 130.786 86.1761 130.966 86.5161 130.966ZM93.5641 131.126C93.4041 131.273 93.2008 131.386 92.9541 131.466C92.7075 131.546 92.4475 131.586 92.1741 131.586C91.8608 131.586 91.5875 131.526 91.3541 131.406C91.1275 131.28 90.9375 131.103 90.7841 130.876C90.6375 130.643 90.5275 130.366 90.4541 130.046C90.3875 129.726 90.3541 129.366 90.3541 128.966C90.3541 128.113 90.5108 127.463 90.8241 127.016C91.1375 126.57 91.5808 126.346 92.1541 126.346C92.3408 126.346 92.5241 126.37 92.7041 126.416C92.8908 126.463 93.0575 126.556 93.2041 126.696C93.3508 126.836 93.4675 127.033 93.5541 127.286C93.6475 127.54 93.6941 127.87 93.6941 128.276C93.6941 128.39 93.6875 128.513 93.6741 128.646C93.6675 128.773 93.6575 128.906 93.6441 129.046H91.1041C91.1041 129.333 91.1275 129.593 91.1741 129.826C91.2208 130.06 91.2941 130.26 91.3941 130.426C91.4941 130.586 91.6208 130.713 91.7741 130.806C91.9341 130.893 92.1308 130.936 92.3641 130.936C92.5441 130.936 92.7208 130.903 92.8941 130.836C93.0741 130.77 93.2108 130.69 93.3041 130.596L93.5641 131.126ZM93.0041 128.446C93.0175 127.946 92.9475 127.58 92.7941 127.346C92.6408 127.113 92.4308 126.996 92.1641 126.996C91.8575 126.996 91.6141 127.113 91.4341 127.346C91.2541 127.58 91.1475 127.946 91.1141 128.446H93.0041ZM18.4733 138.236H16.7433V140.466H16.0233V135.466H16.7433V137.586H18.4733V135.466H19.1933V140.466H18.4733V138.236ZM23.3493 140.126C23.1893 140.273 22.986 140.386 22.7393 140.466C22.4926 140.546 22.2326 140.586 21.9593 140.586C21.646 140.586 21.3726 140.526 21.1393 140.406C20.9126 140.28 20.7226 140.103 20.5693 139.876C20.4226 139.643 20.3126 139.366 20.2393 139.046C20.1726 138.726 20.1393 138.366 20.1393 137.966C20.1393 137.113 20.296 136.463 20.6093 136.016C20.9226 135.57 21.366 135.346 21.9393 135.346C22.126 135.346 22.3093 135.37 22.4893 135.416C22.676 135.463 22.8426 135.556 22.9893 135.696C23.136 135.836 23.2526 136.033 23.3393 136.286C23.4326 136.54 23.4793 136.87 23.4793 137.276C23.4793 137.39 23.4726 137.513 23.4593 137.646C23.4526 137.773 23.4426 137.906 23.4293 138.046H20.8893C20.8893 138.333 20.9126 138.593 20.9593 138.826C21.006 139.06 21.0793 139.26 21.1793 139.426C21.2793 139.586 21.406 139.713 21.5593 139.806C21.7193 139.893 21.916 139.936 22.1493 139.936C22.3293 139.936 22.506 139.903 22.6793 139.836C22.8593 139.77 22.996 139.69 23.0893 139.596L23.3493 140.126ZM22.7893 137.446C22.8026 136.946 22.7326 136.58 22.5793 136.346C22.426 136.113 22.216 135.996 21.9493 135.996C21.6426 135.996 21.3993 136.113 21.2193 136.346C21.0393 136.58 20.9326 136.946 20.8993 137.446H22.7893ZM26.9893 138.226V137.606H27.5393C27.6326 137.606 27.7226 137.586 27.8093 137.546C27.9026 137.5 27.9826 137.44 28.0493 137.366C28.1226 137.293 28.1793 137.21 28.2193 137.116C28.266 137.016 28.2893 136.913 28.2893 136.806C28.2893 136.546 28.2193 136.356 28.0793 136.236C27.946 136.116 27.7393 136.056 27.4593 136.056C27.2526 136.056 27.0626 136.086 26.8893 136.146C26.7226 136.206 26.5926 136.27 26.4993 136.336L26.2893 135.766C26.456 135.66 26.6493 135.573 26.8693 135.506C27.096 135.44 27.3526 135.406 27.6393 135.406C28.0793 135.406 28.416 135.51 28.6493 135.716C28.8893 135.916 29.0093 136.22 29.0093 136.626C29.0093 136.88 28.946 137.113 28.8193 137.326C28.6926 137.54 28.5193 137.693 28.2993 137.786V137.826C28.606 137.9 28.826 138.04 28.9593 138.246C29.0926 138.453 29.1593 138.726 29.1593 139.066C29.1593 139.486 29.0193 139.84 28.7393 140.126C28.4593 140.406 28.0293 140.546 27.4493 140.546C27.1826 140.546 26.956 140.52 26.7693 140.466C26.5893 140.42 26.426 140.356 26.2793 140.276L26.4693 139.656C26.596 139.736 26.746 139.796 26.9193 139.836C27.0926 139.876 27.2726 139.896 27.4593 139.896C27.786 139.896 28.0293 139.82 28.1893 139.666C28.356 139.513 28.4393 139.293 28.4393 139.006C28.4393 138.766 28.3626 138.576 28.2093 138.436C28.056 138.296 27.7993 138.226 27.4393 138.226H26.9893ZM30.0651 135.766C30.2585 135.646 30.4918 135.553 30.7651 135.486C31.0451 135.42 31.3385 135.386 31.6451 135.386C31.9251 135.386 32.1485 135.43 32.3151 135.516C32.4885 135.596 32.6218 135.71 32.7151 135.856C32.8151 135.996 32.8785 136.16 32.9051 136.346C32.9385 136.526 32.9551 136.716 32.9551 136.916C32.9551 137.316 32.9451 137.706 32.9251 138.086C32.9118 138.466 32.9051 138.826 32.9051 139.166C32.9051 139.42 32.9118 139.656 32.9251 139.876C32.9451 140.09 32.9785 140.293 33.0251 140.486H32.4751L32.3051 139.896H32.2651C32.1651 140.07 32.0185 140.22 31.8251 140.346C31.6318 140.473 31.3718 140.536 31.0451 140.536C30.6851 140.536 30.3885 140.413 30.1551 140.166C29.9285 139.913 29.8151 139.566 29.8151 139.126C29.8151 138.84 29.8618 138.6 29.9551 138.406C30.0551 138.213 30.1918 138.056 30.3651 137.936C30.5451 137.816 30.7551 137.733 30.9951 137.686C31.2418 137.633 31.5151 137.606 31.8151 137.606C31.8818 137.606 31.9485 137.606 32.0151 137.606C32.0818 137.606 32.1518 137.61 32.2251 137.616C32.2451 137.41 32.2551 137.226 32.2551 137.066C32.2551 136.686 32.1985 136.42 32.0851 136.266C31.9718 136.113 31.7651 136.036 31.4651 136.036C31.2785 136.036 31.0751 136.066 30.8551 136.126C30.6351 136.18 30.4518 136.25 30.3051 136.336L30.0651 135.766ZM32.2351 138.186C32.1685 138.18 32.1018 138.176 32.0351 138.176C31.9685 138.17 31.9018 138.166 31.8351 138.166C31.6751 138.166 31.5185 138.18 31.3651 138.206C31.2118 138.233 31.0751 138.28 30.9551 138.346C30.8351 138.413 30.7385 138.503 30.6651 138.616C30.5985 138.73 30.5651 138.873 30.5651 139.046C30.5651 139.313 30.6285 139.52 30.7551 139.666C30.8885 139.813 31.0585 139.886 31.2651 139.886C31.5451 139.886 31.7618 139.82 31.9151 139.686C32.0685 139.553 32.1751 139.406 32.2351 139.246V138.186ZM35.2091 138.216H34.8391V140.466H34.1191V135.466H34.8391V137.726L35.1791 137.586L36.3991 135.466H37.1691L35.9791 137.476L35.6291 137.806L36.0591 138.206L37.3391 140.466H36.4791L35.2091 138.216ZM37.9362 135.766C38.1296 135.646 38.3629 135.553 38.6362 135.486C38.9162 135.42 39.2096 135.386 39.5162 135.386C39.7962 135.386 40.0196 135.43 40.1862 135.516C40.3596 135.596 40.4929 135.71 40.5862 135.856C40.6862 135.996 40.7496 136.16 40.7762 136.346C40.8096 136.526 40.8262 136.716 40.8262 136.916C40.8262 137.316 40.8162 137.706 40.7962 138.086C40.7829 138.466 40.7762 138.826 40.7762 139.166C40.7762 139.42 40.7829 139.656 40.7962 139.876C40.8162 140.09 40.8496 140.293 40.8962 140.486H40.3462L40.1762 139.896H40.1362C40.0362 140.07 39.8896 140.22 39.6962 140.346C39.5029 140.473 39.2429 140.536 38.9162 140.536C38.5562 140.536 38.2596 140.413 38.0262 140.166C37.7996 139.913 37.6862 139.566 37.6862 139.126C37.6862 138.84 37.7329 138.6 37.8262 138.406C37.9262 138.213 38.0629 138.056 38.2362 137.936C38.4162 137.816 38.6262 137.733 38.8662 137.686C39.1129 137.633 39.3862 137.606 39.6862 137.606C39.7529 137.606 39.8196 137.606 39.8862 137.606C39.9529 137.606 40.0229 137.61 40.0962 137.616C40.1162 137.41 40.1262 137.226 40.1262 137.066C40.1262 136.686 40.0696 136.42 39.9562 136.266C39.8429 136.113 39.6362 136.036 39.3362 136.036C39.1496 136.036 38.9462 136.066 38.7262 136.126C38.5062 136.18 38.3229 136.25 38.1762 136.336L37.9362 135.766ZM40.1062 138.186C40.0396 138.18 39.9729 138.176 39.9062 138.176C39.8396 138.17 39.7729 138.166 39.7062 138.166C39.5462 138.166 39.3896 138.18 39.2362 138.206C39.0829 138.233 38.9462 138.28 38.8262 138.346C38.7062 138.413 38.6096 138.503 38.5362 138.616C38.4696 138.73 38.4362 138.873 38.4362 139.046C38.4362 139.313 38.4996 139.52 38.6262 139.666C38.7596 139.813 38.9296 139.886 39.1362 139.886C39.4162 139.886 39.6329 139.82 39.7862 139.686C39.9396 139.553 40.0462 139.406 40.1062 139.246V138.186ZM44.4401 138.236H42.7101V140.466H41.9901V135.466H42.7101V137.586H44.4401V135.466H45.1601V140.466H44.4401V138.236ZM46.8161 135.466V136.926C46.8161 137.093 46.8228 137.243 46.8361 137.376C46.8561 137.51 46.8894 137.626 46.9361 137.726C46.9828 137.82 47.0494 137.893 47.1361 137.946C47.2228 137.993 47.3361 138.016 47.4761 138.016C47.7094 138.016 47.8994 137.986 48.0461 137.926C48.1928 137.866 48.3061 137.8 48.3861 137.726V135.466H49.1061V140.466H48.3861V138.366C48.3061 138.426 48.1794 138.493 48.0061 138.566C47.8394 138.633 47.6128 138.666 47.3261 138.666C47.1328 138.666 46.9594 138.643 46.8061 138.596C46.6528 138.543 46.5228 138.46 46.4161 138.346C46.3161 138.233 46.2361 138.08 46.1761 137.886C46.1228 137.693 46.0961 137.45 46.0961 137.156V135.466H46.8161ZM52.7809 137.586L52.8409 136.826H52.8009L52.4509 137.666L50.7609 140.466H50.2909V135.466H51.0109V138.436L50.9509 139.166H50.9909L51.3209 138.346L53.0309 135.466H53.5009V140.466H52.7809V137.586ZM54.6855 135.476C54.8721 135.463 55.0755 135.446 55.2955 135.426C55.5155 135.406 55.7788 135.396 56.0855 135.396C56.6255 135.396 57.0121 135.5 57.2455 135.706C57.4788 135.906 57.5955 136.213 57.5955 136.626C57.5955 136.86 57.5388 137.086 57.4255 137.306C57.3188 137.526 57.1355 137.693 56.8755 137.806V137.846C57.1955 137.92 57.4221 138.056 57.5555 138.256C57.6888 138.45 57.7555 138.716 57.7555 139.056C57.7555 139.576 57.6021 139.953 57.2955 140.186C56.9888 140.42 56.5321 140.536 55.9255 140.536C55.6988 140.536 55.4821 140.526 55.2755 140.506C55.0688 140.493 54.8721 140.476 54.6855 140.456V135.476ZM55.4055 139.846C55.5055 139.86 55.5988 139.87 55.6855 139.876C55.7788 139.883 55.8921 139.886 56.0255 139.886C56.3655 139.886 56.6121 139.816 56.7655 139.676C56.9255 139.536 57.0055 139.31 57.0055 138.996C57.0055 138.756 56.9388 138.56 56.8055 138.406C56.6721 138.246 56.4288 138.166 56.0755 138.166H55.4055V139.846ZM56.1455 137.596C56.2388 137.596 56.3288 137.576 56.4155 137.536C56.5021 137.49 56.5788 137.43 56.6455 137.356C56.7188 137.283 56.7755 137.2 56.8155 137.106C56.8555 137.006 56.8755 136.903 56.8755 136.796C56.8755 136.536 56.8121 136.346 56.6855 136.226C56.5655 136.106 56.3555 136.046 56.0555 136.046C55.8955 136.046 55.7688 136.05 55.6755 136.056C55.5821 136.063 55.4921 136.07 55.4055 136.076V137.596H56.1455ZM58.6687 135.766C58.862 135.646 59.0953 135.553 59.3687 135.486C59.6487 135.42 59.942 135.386 60.2487 135.386C60.5287 135.386 60.752 135.43 60.9187 135.516C61.092 135.596 61.2253 135.71 61.3187 135.856C61.4187 135.996 61.482 136.16 61.5087 136.346C61.542 136.526 61.5587 136.716 61.5587 136.916C61.5587 137.316 61.5487 137.706 61.5287 138.086C61.5153 138.466 61.5087 138.826 61.5087 139.166C61.5087 139.42 61.5153 139.656 61.5287 139.876C61.5487 140.09 61.582 140.293 61.6287 140.486H61.0787L60.9087 139.896H60.8687C60.7687 140.07 60.622 140.22 60.4287 140.346C60.2353 140.473 59.9753 140.536 59.6487 140.536C59.2887 140.536 58.992 140.413 58.7587 140.166C58.532 139.913 58.4187 139.566 58.4187 139.126C58.4187 138.84 58.4653 138.6 58.5587 138.406C58.6587 138.213 58.7953 138.056 58.9687 137.936C59.1487 137.816 59.3587 137.733 59.5987 137.686C59.8453 137.633 60.1187 137.606 60.4187 137.606C60.4853 137.606 60.552 137.606 60.6187 137.606C60.6853 137.606 60.7553 137.61 60.8287 137.616C60.8487 137.41 60.8587 137.226 60.8587 137.066C60.8587 136.686 60.802 136.42 60.6887 136.266C60.5753 136.113 60.3687 136.036 60.0687 136.036C59.882 136.036 59.6787 136.066 59.4587 136.126C59.2387 136.18 59.0553 136.25 58.9087 136.336L58.6687 135.766ZM60.8387 138.186C60.772 138.18 60.7053 138.176 60.6387 138.176C60.572 138.17 60.5053 138.166 60.4387 138.166C60.2787 138.166 60.122 138.18 59.9687 138.206C59.8153 138.233 59.6787 138.28 59.5587 138.346C59.4387 138.413 59.342 138.503 59.2687 138.616C59.202 138.73 59.1687 138.873 59.1687 139.046C59.1687 139.313 59.232 139.52 59.3587 139.666C59.492 139.813 59.662 139.886 59.8687 139.886C60.1487 139.886 60.3653 139.82 60.5187 139.686C60.672 139.553 60.7787 139.406 60.8387 139.246V138.186ZM64.8926 136.116H63.8026C63.7826 136.683 63.7559 137.233 63.7226 137.766C63.6892 138.293 63.6292 138.76 63.5426 139.166C63.4626 139.573 63.3459 139.9 63.1926 140.146C63.0392 140.386 62.8359 140.506 62.5826 140.506C62.4692 140.506 62.3726 140.5 62.2926 140.486C62.2126 140.473 62.1392 140.45 62.0726 140.416L62.1826 139.786C62.3226 139.826 62.4459 139.82 62.5526 139.766C62.6659 139.706 62.7626 139.533 62.8426 139.246C62.9226 138.953 62.9859 138.51 63.0326 137.916C63.0859 137.316 63.1226 136.5 63.1426 135.466H65.6126V140.466H64.8926V136.116ZM69.5548 140.216C69.3882 140.343 69.1982 140.436 68.9848 140.496C68.7715 140.556 68.5482 140.586 68.3148 140.586C67.9948 140.586 67.7248 140.526 67.5048 140.406C67.2848 140.28 67.1048 140.103 66.9648 139.876C66.8315 139.643 66.7315 139.366 66.6648 139.046C66.6048 138.72 66.5748 138.36 66.5748 137.966C66.5748 137.113 66.7248 136.463 67.0248 136.016C67.3315 135.57 67.7682 135.346 68.3348 135.346C68.5948 135.346 68.8182 135.37 69.0048 135.416C69.1915 135.463 69.3515 135.523 69.4848 135.596L69.2848 136.226C69.0182 136.073 68.7282 135.996 68.4148 135.996C68.0548 135.996 67.7815 136.156 67.5948 136.476C67.4148 136.79 67.3248 137.286 67.3248 137.966C67.3248 138.24 67.3448 138.496 67.3848 138.736C67.4248 138.976 67.4915 139.186 67.5848 139.366C67.6782 139.54 67.7982 139.68 67.9448 139.786C68.0915 139.886 68.2748 139.936 68.4948 139.936C68.6682 139.936 68.8282 139.906 68.9748 139.846C69.1282 139.786 69.2515 139.716 69.3448 139.636L69.5548 140.216ZM72.3893 138.396L71.7793 138.516L70.7693 140.466H69.9193L70.8493 138.746L71.1693 138.386C70.896 138.333 70.6626 138.193 70.4693 137.966C70.2826 137.74 70.1893 137.433 70.1893 137.046C70.1893 136.446 70.3493 136.013 70.6693 135.746C70.996 135.48 71.4393 135.346 71.9993 135.346C72.206 135.346 72.3993 135.363 72.5793 135.396C72.766 135.423 72.9426 135.456 73.1093 135.496V140.466H72.3893V138.396ZM72.3893 137.936V136.086C72.3226 136.053 72.246 136.03 72.1593 136.016C72.0726 136.003 71.996 135.996 71.9293 135.996C71.6093 135.996 71.3626 136.08 71.1893 136.246C71.0226 136.413 70.9393 136.666 70.9393 137.006C70.9393 137.313 71.036 137.553 71.2293 137.726C71.4226 137.893 71.6793 137.97 71.9993 137.956L72.3893 137.936ZM74.6465 133.466H75.3965V136.936L75.2465 138.696H74.7965L74.6465 136.936V133.466ZM74.5165 140.016C74.5165 139.83 74.5598 139.69 74.6465 139.596C74.7398 139.503 74.8631 139.456 75.0165 139.456C75.1698 139.456 75.2898 139.503 75.3765 139.596C75.4698 139.69 75.5165 139.83 75.5165 140.016C75.5165 140.21 75.4698 140.353 75.3765 140.446C75.2898 140.54 75.1698 140.586 75.0165 140.586C74.8631 140.586 74.7398 140.54 74.6465 140.446C74.5598 140.353 74.5165 140.21 74.5165 140.016Z" fill="#F6DFB8"/>
<path d="M101.83 142.75C101.577 142.43 101.363 142.077 101.19 141.69C101.023 141.31 100.887 140.92 100.78 140.52C100.673 140.114 100.597 139.707 100.55 139.3C100.503 138.887 100.48 138.494 100.48 138.12C100.48 137.754 100.503 137.367 100.55 136.96C100.597 136.554 100.673 136.147 100.78 135.74C100.887 135.327 101.027 134.924 101.2 134.53C101.38 134.137 101.597 133.77 101.85 133.43L102.3 133.7C102.087 134.04 101.91 134.397 101.77 134.77C101.63 135.144 101.517 135.524 101.43 135.91C101.35 136.29 101.29 136.67 101.25 137.05C101.217 137.424 101.2 137.78 101.2 138.12C101.2 138.44 101.22 138.794 101.26 139.18C101.3 139.56 101.363 139.944 101.45 140.33C101.543 140.717 101.66 141.094 101.8 141.46C101.94 141.827 102.107 142.157 102.3 142.45L101.83 142.75ZM103.264 139.79C103.391 139.864 103.534 139.92 103.694 139.96C103.861 140 104.051 140.02 104.264 140.02C104.444 140.02 104.607 139.984 104.754 139.91C104.907 139.837 105.037 139.734 105.144 139.6C105.257 139.467 105.344 139.31 105.404 139.13C105.464 138.944 105.494 138.74 105.494 138.52C105.494 138.027 105.384 137.667 105.164 137.44C104.951 137.214 104.651 137.1 104.264 137.1H103.664V136.81L104.824 134.57L105.214 134.15L104.664 134.22H103.094V133.55H105.994V133.84L104.714 136.23L104.414 136.52V136.54L104.704 136.48C104.911 136.48 105.107 136.524 105.294 136.61C105.481 136.69 105.641 136.814 105.774 136.98C105.907 137.14 106.014 137.34 106.094 137.58C106.174 137.82 106.214 138.1 106.214 138.42C106.214 138.78 106.161 139.1 106.054 139.38C105.954 139.66 105.814 139.897 105.634 140.09C105.461 140.277 105.254 140.42 105.014 140.52C104.781 140.62 104.531 140.67 104.264 140.67C104.031 140.67 103.811 140.65 103.604 140.61C103.397 140.57 103.217 140.514 103.064 140.44L103.264 139.79ZM107.316 142.45C107.509 142.157 107.676 141.827 107.816 141.46C107.956 141.094 108.069 140.717 108.156 140.33C108.249 139.944 108.316 139.56 108.356 139.18C108.396 138.794 108.416 138.44 108.416 138.12C108.416 137.78 108.396 137.424 108.356 137.05C108.323 136.67 108.263 136.29 108.176 135.91C108.096 135.524 107.983 135.144 107.836 134.77C107.696 134.397 107.523 134.04 107.316 133.7L107.766 133.43C108.019 133.77 108.233 134.137 108.406 134.53C108.586 134.924 108.729 135.327 108.836 135.74C108.943 136.147 109.019 136.554 109.066 136.96C109.113 137.367 109.136 137.754 109.136 138.12C109.136 138.494 109.113 138.887 109.066 139.3C109.019 139.707 108.943 140.114 108.836 140.52C108.729 140.92 108.589 141.31 108.416 141.69C108.243 142.077 108.033 142.43 107.786 142.75L107.316 142.45Z" fill="#F6DFB8"/>
<path d="M19.942 60.2903H17.394V68.4663H15.63V58.6663H21.706V68.4663H19.942V60.2903ZM22.9438 61.4663H24.1898L24.3578 62.2643H24.3998C24.6145 61.9283 24.8525 61.6856 25.1138 61.5363C25.3845 61.3776 25.7158 61.2983 26.1078 61.2983C26.8171 61.2983 27.3491 61.569 27.7038 62.1103C28.0678 62.6423 28.2498 63.5336 28.2498 64.7843C28.2498 66.035 28.0258 66.9963 27.5778 67.6683C27.1298 68.331 26.4811 68.6623 25.6318 68.6623C25.4078 68.6623 25.2165 68.6436 25.0578 68.6063C24.8991 68.569 24.7498 68.5083 24.6098 68.4243V71.2663H22.9438V61.4663ZM24.6098 66.8983C24.7031 66.9916 24.8058 67.0616 24.9178 67.1083C25.0391 67.155 25.1931 67.1783 25.3798 67.1783C25.7531 67.1783 26.0378 66.9963 26.2338 66.6323C26.4298 66.259 26.5278 65.629 26.5278 64.7423C26.5278 64.0796 26.4531 63.5896 26.3038 63.2723C26.1545 62.9456 25.9071 62.7823 25.5618 62.7823C25.0951 62.7823 24.7778 63.0576 24.6098 63.6083V66.8983ZM28.9535 64.9663C28.9535 63.725 29.1962 62.801 29.6815 62.1943C30.1668 61.5876 30.8435 61.2843 31.7115 61.2843C32.6448 61.2843 33.3402 61.5923 33.7975 62.2083C34.2548 62.8243 34.4835 63.7436 34.4835 64.9663C34.4835 66.217 34.2408 67.1456 33.7555 67.7523C33.2702 68.3496 32.5888 68.6483 31.7115 68.6483C29.8728 68.6483 28.9535 67.421 28.9535 64.9663ZM30.6755 64.9663C30.6755 65.6663 30.7548 66.2076 30.9135 66.5903C31.0722 66.973 31.3382 67.1643 31.7115 67.1643C32.0662 67.1643 32.3275 67.001 32.4955 66.6743C32.6728 66.3383 32.7615 65.769 32.7615 64.9663C32.7615 64.2476 32.6822 63.7016 32.5235 63.3283C32.3648 62.955 32.0942 62.7683 31.7115 62.7683C31.3848 62.7683 31.1282 62.9363 30.9415 63.2723C30.7642 63.599 30.6755 64.1636 30.6755 64.9663ZM35.4399 61.4803C35.7012 61.4523 36.0326 61.429 36.4339 61.4103C36.8446 61.3823 37.2692 61.3683 37.7079 61.3683C38.5852 61.3683 39.2059 61.513 39.5699 61.8023C39.9339 62.0916 40.1159 62.5303 40.1159 63.1183C40.1159 63.4543 40.0366 63.7763 39.8779 64.0843C39.7192 64.383 39.4766 64.6023 39.1499 64.7423V64.7983C39.9432 65.013 40.3399 65.573 40.3399 66.4783C40.3399 67.1783 40.1159 67.701 39.6679 68.0463C39.2199 68.3916 38.4919 68.5643 37.4839 68.5643C37.1572 68.5643 36.7979 68.555 36.4059 68.5363C36.0232 68.5176 35.7012 68.4896 35.4399 68.4523V61.4803ZM37.0639 67.1223C37.1572 67.141 37.2459 67.155 37.3299 67.1643C37.4139 67.1643 37.5166 67.1643 37.6379 67.1643C38.0019 67.1643 38.2632 67.0943 38.4219 66.9543C38.5899 66.805 38.6739 66.5763 38.6739 66.2683C38.6739 66.0163 38.6039 65.8156 38.4639 65.6663C38.3239 65.5076 38.0859 65.4283 37.7499 65.4283H37.0639V67.1223ZM37.7499 64.3223C37.9739 64.3223 38.1559 64.2523 38.2959 64.1123C38.4452 63.9723 38.5199 63.7856 38.5199 63.5523C38.5199 63.2816 38.4592 63.0856 38.3379 62.9643C38.2259 62.8336 38.0112 62.7683 37.6939 62.7683C37.5352 62.7683 37.4092 62.773 37.3159 62.7823C37.2226 62.7823 37.1386 62.787 37.0639 62.7963V64.3223H37.7499ZM41.0395 64.9663C41.0395 63.725 41.2821 62.801 41.7675 62.1943C42.2528 61.5876 42.9295 61.2843 43.7975 61.2843C44.7308 61.2843 45.4261 61.5923 45.8835 62.2083C46.3408 62.8243 46.5695 63.7436 46.5695 64.9663C46.5695 66.217 46.3268 67.1456 45.8415 67.7523C45.3561 68.3496 44.6748 68.6483 43.7975 68.6483C41.9588 68.6483 41.0395 67.421 41.0395 64.9663ZM42.7615 64.9663C42.7615 65.6663 42.8408 66.2076 42.9995 66.5903C43.1581 66.973 43.4241 67.1643 43.7975 67.1643C44.1521 67.1643 44.4135 67.001 44.5815 66.6743C44.7588 66.3383 44.8475 65.769 44.8475 64.9663C44.8475 64.2476 44.7681 63.7016 44.6095 63.3283C44.4508 62.955 44.1801 62.7683 43.7975 62.7683C43.4708 62.7683 43.2141 62.9363 43.0275 63.2723C42.8501 63.599 42.7615 64.1636 42.7615 64.9663ZM53.4478 70.0623H52.2158L52.0338 68.4663H48.2958L48.1138 70.0623H46.8958V66.9403H47.5678C47.6238 66.8376 47.6985 66.6603 47.7918 66.4083C47.8852 66.147 47.9738 65.797 48.0578 65.3583C48.1512 64.9196 48.2305 64.3783 48.2958 63.7343C48.3612 63.0903 48.3938 62.3343 48.3938 61.4663H52.6078V66.9403H53.4478V70.0623ZM50.9418 67.0243V62.9503H49.8778C49.8592 63.2863 49.8312 63.6503 49.7938 64.0423C49.7658 64.4343 49.7238 64.817 49.6678 65.1903C49.6118 65.5543 49.5465 65.8996 49.4718 66.2263C49.4065 66.553 49.3272 66.819 49.2338 67.0243H50.9418ZM57.614 65.4143L57.74 64.2803H57.698L57.18 65.4703L55.304 68.4663H54.184V61.4663H55.85V64.6443L55.724 65.7363H55.766L56.27 64.5743L58.16 61.4663H59.28V68.4663H57.614V65.4143ZM63.6788 62.9923H62.6708C62.6334 63.8043 62.5821 64.551 62.5168 65.2323C62.4514 65.9136 62.3488 66.5016 62.2088 66.9963C62.0688 67.4816 61.8774 67.8643 61.6348 68.1443C61.4014 68.415 61.0934 68.5503 60.7108 68.5503C60.4774 68.5503 60.2768 68.5316 60.1088 68.4943C59.9408 68.4663 59.7961 68.415 59.6748 68.3403L59.8708 66.8843C60.0948 66.959 60.2814 66.9543 60.4308 66.8703C60.5894 66.7863 60.7201 66.5576 60.8228 66.1843C60.9254 65.8016 61.0048 65.237 61.0608 64.4903C61.1261 63.7436 61.1728 62.7356 61.2008 61.4663H65.3448V68.4663H63.6788V62.9923ZM69.9734 65.4143L70.0994 64.2803H70.0574L69.5394 65.4703L67.6634 68.4663H66.5434V61.4663H68.2094V64.6443L68.0834 65.7363H68.1254L68.6294 64.5743L70.5194 61.4663H71.6394V68.4663H69.9734V65.4143ZM19.732 81.0883C19.4987 81.275 19.2187 81.415 18.892 81.5083C18.5653 81.6016 18.2387 81.6483 17.912 81.6483C17.436 81.6483 17.0347 81.5643 16.708 81.3963C16.3907 81.219 16.1293 80.9716 15.924 80.6543C15.7187 80.3276 15.5693 79.9403 15.476 79.4923C15.392 79.035 15.35 78.5263 15.35 77.9663C15.35 76.7436 15.5693 75.8243 16.008 75.2083C16.4467 74.5923 17.0907 74.2843 17.94 74.2843C18.36 74.2843 18.7007 74.3216 18.962 74.3963C19.2327 74.471 19.4707 74.5643 19.676 74.6763L19.284 76.0623C19.116 75.9783 18.9527 75.9176 18.794 75.8803C18.6447 75.8336 18.4627 75.8103 18.248 75.8103C17.856 75.8103 17.562 75.983 17.366 76.3283C17.17 76.6643 17.072 77.2103 17.072 77.9663C17.072 78.601 17.17 79.119 17.366 79.5203C17.5713 79.9216 17.8933 80.1223 18.332 80.1223C18.5653 80.1223 18.7613 80.0943 18.92 80.0383C19.088 79.973 19.242 79.8936 19.382 79.8003L19.732 81.0883ZM20.0668 77.9663C20.0668 76.725 20.3095 75.801 20.7948 75.1943C21.2801 74.5876 21.9568 74.2843 22.8248 74.2843C23.7581 74.2843 24.4535 74.5923 24.9108 75.2083C25.3681 75.8243 25.5968 76.7436 25.5968 77.9663C25.5968 79.217 25.3541 80.1456 24.8688 80.7523C24.3835 81.3496 23.7021 81.6483 22.8248 81.6483C20.9861 81.6483 20.0668 80.421 20.0668 77.9663ZM21.7888 77.9663C21.7888 78.6663 21.8681 79.2076 22.0268 79.5903C22.1855 79.973 22.4515 80.1643 22.8248 80.1643C23.1795 80.1643 23.4408 80.001 23.6088 79.6743C23.7861 79.3383 23.8748 78.769 23.8748 77.9663C23.8748 77.2476 23.7955 76.7016 23.6368 76.3283C23.4781 75.955 23.2075 75.7683 22.8248 75.7683C22.4981 75.7683 22.2415 75.9363 22.0548 76.2723C21.8775 76.599 21.7888 77.1636 21.7888 77.9663ZM27.1412 78.5543V77.3083H27.8132C28.0652 77.3083 28.2705 77.2336 28.4292 77.0843C28.5878 76.935 28.6672 76.753 28.6672 76.5383C28.6672 76.0716 28.3778 75.8383 27.7992 75.8383C27.5192 75.8383 27.2718 75.8756 27.0572 75.9503C26.8425 76.025 26.6698 76.1043 26.5392 76.1883L26.1612 74.8583C26.4038 74.7183 26.7212 74.6016 27.1132 74.5083C27.5052 74.4056 27.9112 74.3543 28.3312 74.3543C29.6658 74.3543 30.3332 74.933 30.3332 76.0903C30.3332 76.4356 30.2585 76.7623 30.1092 77.0703C29.9598 77.369 29.7358 77.5836 29.4372 77.7143V77.7703C29.8292 77.8823 30.1138 78.0783 30.2912 78.3583C30.4685 78.6383 30.5572 79.0163 30.5572 79.4923C30.5572 79.791 30.5058 80.071 30.4032 80.3323C30.3098 80.5843 30.1605 80.8036 29.9552 80.9903C29.7498 81.177 29.4885 81.3263 29.1712 81.4383C28.8632 81.5503 28.4945 81.6063 28.0652 81.6063C27.6452 81.6063 27.2718 81.5596 26.9452 81.4663C26.6278 81.3823 26.3618 81.275 26.1472 81.1443L26.4832 79.7863C26.6605 79.889 26.8658 79.973 27.0992 80.0383C27.3418 80.0943 27.5985 80.1223 27.8692 80.1223C28.5505 80.1223 28.8912 79.847 28.8912 79.2963C28.8912 79.063 28.8025 78.881 28.6252 78.7503C28.4572 78.6196 28.1398 78.5543 27.6732 78.5543H27.1412ZM31.5024 74.4803C31.7637 74.4523 32.0951 74.429 32.4964 74.4103C32.9071 74.3823 33.3317 74.3683 33.7704 74.3683C34.6477 74.3683 35.2684 74.513 35.6324 74.8023C35.9964 75.0916 36.1784 75.5303 36.1784 76.1183C36.1784 76.4543 36.0991 76.7763 35.9404 77.0843C35.7817 77.383 35.5391 77.6023 35.2124 77.7423V77.7983C36.0057 78.013 36.4024 78.573 36.4024 79.4783C36.4024 80.1783 36.1784 80.701 35.7304 81.0463C35.2824 81.3916 34.5544 81.5643 33.5464 81.5643C33.2197 81.5643 32.8604 81.555 32.4684 81.5363C32.0857 81.5176 31.7637 81.4896 31.5024 81.4523V74.4803ZM33.1264 80.1223C33.2197 80.141 33.3084 80.155 33.3924 80.1643C33.4764 80.1643 33.5791 80.1643 33.7004 80.1643C34.0644 80.1643 34.3257 80.0943 34.4844 79.9543C34.6524 79.805 34.7364 79.5763 34.7364 79.2683C34.7364 79.0163 34.6664 78.8156 34.5264 78.6663C34.3864 78.5076 34.1484 78.4283 33.8124 78.4283H33.1264V80.1223ZM33.8124 77.3223C34.0364 77.3223 34.2184 77.2523 34.3584 77.1123C34.5077 76.9723 34.5824 76.7856 34.5824 76.5523C34.5824 76.2816 34.5217 76.0856 34.4004 75.9643C34.2884 75.8336 34.0737 75.7683 33.7564 75.7683C33.5977 75.7683 33.4717 75.773 33.3784 75.7823C33.2851 75.7823 33.2011 75.787 33.1264 75.7963V77.3223H33.8124ZM37.102 77.9663C37.102 76.725 37.3446 75.801 37.83 75.1943C38.3153 74.5876 38.992 74.2843 39.86 74.2843C40.7933 74.2843 41.4886 74.5923 41.946 75.2083C42.4033 75.8243 42.632 76.7436 42.632 77.9663C42.632 79.217 42.3893 80.1456 41.904 80.7523C41.4186 81.3496 40.7373 81.6483 39.86 81.6483C38.0213 81.6483 37.102 80.421 37.102 77.9663ZM38.824 77.9663C38.824 78.6663 38.9033 79.2076 39.062 79.5903C39.2206 79.973 39.4866 80.1643 39.86 80.1643C40.2146 80.1643 40.476 80.001 40.644 79.6743C40.8213 79.3383 40.91 78.769 40.91 77.9663C40.91 77.2476 40.8306 76.7016 40.672 76.3283C40.5133 75.955 40.2426 75.7683 39.86 75.7683C39.5333 75.7683 39.2766 75.9363 39.09 76.2723C38.9126 76.599 38.824 77.1636 38.824 77.9663ZM46.9343 78.6803H45.2543V81.4663H43.5883V74.4663H45.2543V77.1543H46.9343V74.4663H48.6003V81.4663H46.9343V78.6803ZM51.475 79.9963C51.671 80.0523 51.8717 80.0803 52.077 80.0803C52.3757 80.0803 52.5857 80.0056 52.707 79.8563C52.8377 79.6976 52.903 79.441 52.903 79.0863C52.903 78.7596 52.8424 78.517 52.721 78.3583C52.5997 78.1996 52.3897 78.1203 52.091 78.1203C51.8764 78.1203 51.671 78.1483 51.475 78.2043V79.9963ZM51.475 76.9583C51.6617 76.921 51.853 76.8976 52.049 76.8883C52.245 76.8696 52.4224 76.8603 52.581 76.8603C52.9637 76.8603 53.2857 76.9163 53.547 77.0283C53.8084 77.131 54.0184 77.2803 54.177 77.4763C54.3357 77.6723 54.4477 77.9056 54.513 78.1763C54.5877 78.4376 54.625 78.7223 54.625 79.0303C54.625 79.4503 54.5784 79.819 54.485 80.1363C54.3917 80.4536 54.2377 80.7196 54.023 80.9343C53.8084 81.1396 53.5284 81.2983 53.183 81.4103C52.8377 81.513 52.4084 81.5643 51.895 81.5643C51.447 81.5643 51.0504 81.555 50.705 81.5363C50.369 81.5176 50.0704 81.4943 49.809 81.4663V74.4663H51.475V76.9583ZM55.227 74.4663H56.893V81.4663H55.227V74.4663ZM64.2416 75.9923H62.6176V81.4663H60.9516V74.4663H65.9076V81.4663H64.2416V75.9923ZM66.8656 77.9663C66.8656 76.725 67.1083 75.801 67.5936 75.1943C68.079 74.5876 68.7556 74.2843 69.6236 74.2843C70.557 74.2843 71.2523 74.5923 71.7096 75.2083C72.167 75.8243 72.3956 76.7436 72.3956 77.9663C72.3956 79.217 72.153 80.1456 71.6676 80.7523C71.1823 81.3496 70.501 81.6483 69.6236 81.6483C67.785 81.6483 66.8656 80.421 66.8656 77.9663ZM68.5876 77.9663C68.5876 78.6663 68.667 79.2076 68.8256 79.5903C68.9843 79.973 69.2503 80.1643 69.6236 80.1643C69.9783 80.1643 70.2396 80.001 70.4076 79.6743C70.585 79.3383 70.6736 78.769 70.6736 77.9663C70.6736 77.2476 70.5943 76.7016 70.4356 76.3283C70.277 75.955 70.0063 75.7683 69.6236 75.7683C69.297 75.7683 69.0403 75.9363 68.8536 76.2723C68.6763 76.599 68.5876 77.1636 68.5876 77.9663ZM82.1311 78.7363H80.8991V81.4663H79.3171V78.7363H75.8591V77.7003L79.4431 71.5963H80.8991V77.3083H82.1311V78.7363ZM79.3171 75.1383L79.4711 73.8783H79.4151L78.9951 75.0123L77.8891 76.8883L77.3291 77.4203L78.0431 77.3083H79.3171V75.1383ZM86.9747 74.4663V76.3423C86.9747 76.837 87.0167 77.1963 87.1007 77.4203C87.194 77.635 87.39 77.7423 87.6887 77.7423C87.894 77.7423 88.0667 77.7143 88.2067 77.6583C88.356 77.593 88.4773 77.523 88.5707 77.4483V74.4663H90.2367V81.4663H88.5707V78.7503C88.4587 78.8436 88.286 78.9463 88.0527 79.0583C87.8193 79.1703 87.5067 79.2263 87.1147 79.2263C86.8347 79.2263 86.5827 79.1936 86.3587 79.1283C86.1347 79.0536 85.9433 78.9276 85.7847 78.7503C85.6353 78.573 85.5187 78.3396 85.4347 78.0503C85.3507 77.761 85.3087 77.397 85.3087 76.9583V74.4663H86.9747ZM91.4539 74.8863C91.7339 74.7183 92.0839 74.583 92.5039 74.4803C92.9239 74.3776 93.3999 74.3263 93.9319 74.3263C94.7252 74.3263 95.2759 74.5316 95.5839 74.9423C95.9012 75.353 96.0599 75.9363 96.0599 76.6923C96.0599 77.131 96.0459 77.565 96.0179 77.9943C95.9992 78.4143 95.9852 78.8296 95.9759 79.2403C95.9666 79.6416 95.9712 80.0336 95.9899 80.4163C96.0179 80.7896 96.0832 81.1443 96.1859 81.4803H94.8279L94.5619 80.6263H94.5059C94.3566 80.897 94.1466 81.121 93.8759 81.2983C93.6052 81.4756 93.2646 81.5643 92.8539 81.5643C92.3032 81.5643 91.8692 81.3823 91.5519 81.0183C91.2346 80.645 91.0759 80.1503 91.0759 79.5343C91.0759 78.6943 91.3746 78.097 91.9719 77.7423C92.5692 77.3876 93.3766 77.2383 94.3939 77.2943C94.4406 76.753 94.4032 76.361 94.2819 76.1183C94.1699 75.8756 93.9226 75.7543 93.5399 75.7543C93.2599 75.7543 92.9706 75.787 92.6719 75.8523C92.3732 75.9176 92.1072 76.011 91.8739 76.1323L91.4539 74.8863ZM93.4559 80.1363C93.7079 80.1363 93.9132 80.0756 94.0719 79.9543C94.2306 79.8236 94.3472 79.6836 94.4219 79.5343V78.3723C94.2072 78.3443 94.0019 78.3396 93.8059 78.3583C93.6099 78.377 93.4372 78.419 93.2879 78.4843C93.1386 78.5496 93.0172 78.6476 92.9239 78.7783C92.8399 78.8996 92.7979 79.0583 92.7979 79.2543C92.7979 79.5436 92.8539 79.763 92.9659 79.9123C93.0872 80.0616 93.2506 80.1363 93.4559 80.1363ZM101.353 81.0883C101.12 81.275 100.84 81.415 100.513 81.5083C100.186 81.6016 99.8598 81.6483 99.5331 81.6483C99.0571 81.6483 98.6558 81.5643 98.3291 81.3963C98.0118 81.219 97.7504 80.9716 97.5451 80.6543C97.3398 80.3276 97.1904 79.9403 97.0971 79.4923C97.0131 79.035 96.9711 78.5263 96.9711 77.9663C96.9711 76.7436 97.1904 75.8243 97.6291 75.2083C98.0678 74.5923 98.7118 74.2843 99.5611 74.2843C99.9811 74.2843 100.322 74.3216 100.583 74.3963C100.854 74.471 101.092 74.5643 101.297 74.6763L100.905 76.0623C100.737 75.9783 100.574 75.9176 100.415 75.8803C100.266 75.8336 100.084 75.8103 99.8691 75.8103C99.4771 75.8103 99.1831 75.983 98.9871 76.3283C98.7911 76.6643 98.6931 77.2103 98.6931 77.9663C98.6931 78.601 98.7911 79.119 98.9871 79.5203C99.1924 79.9216 99.5144 80.1223 99.9531 80.1223C100.186 80.1223 100.382 80.0943 100.541 80.0383C100.709 79.973 100.863 79.8936 101.003 79.8003L101.353 81.0883ZM102.132 74.8863C102.412 74.7183 102.762 74.583 103.182 74.4803C103.602 74.3776 104.078 74.3263 104.61 74.3263C105.403 74.3263 105.954 74.5316 106.262 74.9423C106.579 75.353 106.738 75.9363 106.738 76.6923C106.738 77.131 106.724 77.565 106.696 77.9943C106.677 78.4143 106.663 78.8296 106.654 79.2403C106.644 79.6416 106.649 80.0336 106.668 80.4163C106.696 80.7896 106.761 81.1443 106.864 81.4803H105.506L105.24 80.6263H105.184C105.034 80.897 104.824 81.121 104.554 81.2983C104.283 81.4756 103.942 81.5643 103.532 81.5643C102.981 81.5643 102.547 81.3823 102.23 81.0183C101.912 80.645 101.754 80.1503 101.754 79.5343C101.754 78.6943 102.052 78.097 102.65 77.7423C103.247 77.3876 104.054 77.2383 105.072 77.2943C105.118 76.753 105.081 76.361 104.96 76.1183C104.848 75.8756 104.6 75.7543 104.218 75.7543C103.938 75.7543 103.648 75.787 103.35 75.8523C103.051 75.9176 102.785 76.011 102.552 76.1323L102.132 74.8863ZM104.134 80.1363C104.386 80.1363 104.591 80.0756 104.75 79.9543C104.908 79.8236 105.025 79.6836 105.1 79.5343V78.3723C104.885 78.3443 104.68 78.3396 104.484 78.3583C104.288 78.377 104.115 78.419 103.966 78.4843C103.816 78.5496 103.695 78.6476 103.602 78.7783C103.518 78.8996 103.476 79.0583 103.476 79.2543C103.476 79.5436 103.532 79.763 103.644 79.9123C103.765 80.0616 103.928 80.1363 104.134 80.1363Z" fill="#F6DFB8"/>
<path d="M46.4726 52.5613L62.5 15.2289M62.5 15.2289C47.3715 18.1663 18.6659 19.8359 22.1586 9.75924C27.5 -5.65144 47.0667 9.28959 62.5 15.2289ZM62.5 15.2289C72.3135 9.24025 98.9579 -1.57399 105.022 6.94564C111.085 15.4653 77.3666 16.3399 62.5 15.2289ZM62.5 15.2289L93.3913 53.3919" stroke="#FDC600" stroke-width="6"/>
</svg>
