<svg width="125" height="157" viewBox="0 0 125 157" fill="none" xmlns="http://www.w3.org/2000/svg">
<rect width="125" height="140.233" transform="matrix(-1 0 0 1 125 16.4321)" fill="#FDC600"/>
<rect width="125" height="25.1555" transform="matrix(-1 0 0 1 125 16.2139)" fill="#FFE278"/>
<path d="M19.23 142.936H18.73L18.61 141.666H15.65L15.52 142.936H15.03V141.016H15.5C15.54 140.942 15.5933 140.809 15.66 140.616C15.7333 140.416 15.8033 140.142 15.87 139.796C15.9367 139.442 15.9933 139.009 16.04 138.496C16.0933 137.982 16.1233 137.372 16.13 136.666H18.64V141.016H19.23V142.936ZM17.92 141.016V137.316H16.79C16.7767 137.602 16.7567 137.916 16.73 138.256C16.71 138.596 16.6767 138.936 16.63 139.276C16.5833 139.609 16.5267 139.929 16.46 140.236C16.3933 140.542 16.3167 140.802 16.23 141.016H17.92ZM19.9345 136.966C20.1279 136.846 20.3612 136.752 20.6345 136.686C20.9145 136.619 21.2079 136.586 21.5145 136.586C21.7945 136.586 22.0179 136.629 22.1845 136.716C22.3579 136.796 22.4912 136.909 22.5845 137.056C22.6845 137.196 22.7479 137.359 22.7745 137.546C22.8079 137.726 22.8245 137.916 22.8245 138.116C22.8245 138.516 22.8145 138.906 22.7945 139.286C22.7812 139.666 22.7745 140.026 22.7745 140.366C22.7745 140.619 22.7812 140.856 22.7945 141.076C22.8145 141.289 22.8479 141.492 22.8945 141.686H22.3445L22.1745 141.096H22.1345C22.0345 141.269 21.8879 141.419 21.6945 141.546C21.5012 141.672 21.2412 141.736 20.9145 141.736C20.5545 141.736 20.2579 141.612 20.0245 141.366C19.7979 141.112 19.6845 140.766 19.6845 140.326C19.6845 140.039 19.7312 139.799 19.8245 139.606C19.9245 139.412 20.0612 139.256 20.2345 139.136C20.4145 139.016 20.6245 138.932 20.8645 138.886C21.1112 138.832 21.3845 138.806 21.6845 138.806C21.7512 138.806 21.8179 138.806 21.8845 138.806C21.9512 138.806 22.0212 138.809 22.0945 138.816C22.1145 138.609 22.1245 138.426 22.1245 138.266C22.1245 137.886 22.0679 137.619 21.9545 137.466C21.8412 137.312 21.6345 137.236 21.3345 137.236C21.1479 137.236 20.9445 137.266 20.7245 137.326C20.5045 137.379 20.3212 137.449 20.1745 137.536L19.9345 136.966ZM22.1045 139.386C22.0379 139.379 21.9712 139.376 21.9045 139.376C21.8379 139.369 21.7712 139.366 21.7045 139.366C21.5445 139.366 21.3879 139.379 21.2345 139.406C21.0812 139.432 20.9445 139.479 20.8245 139.546C20.7045 139.612 20.6079 139.702 20.5345 139.816C20.4679 139.929 20.4345 140.072 20.4345 140.246C20.4345 140.512 20.4979 140.719 20.6245 140.866C20.7579 141.012 20.9279 141.086 21.1345 141.086C21.4145 141.086 21.6312 141.019 21.7845 140.886C21.9379 140.752 22.0445 140.606 22.1045 140.446V139.386ZM26.1584 137.316H25.0684C25.0484 137.882 25.0218 138.432 24.9884 138.966C24.9551 139.492 24.8951 139.959 24.8084 140.366C24.7284 140.772 24.6118 141.099 24.4584 141.346C24.3051 141.586 24.1018 141.706 23.8484 141.706C23.7351 141.706 23.6384 141.699 23.5584 141.686C23.4784 141.672 23.4051 141.649 23.3384 141.616L23.4484 140.986C23.5884 141.026 23.7118 141.019 23.8184 140.966C23.9318 140.906 24.0284 140.732 24.1084 140.446C24.1884 140.152 24.2518 139.709 24.2984 139.116C24.3518 138.516 24.3884 137.699 24.4084 136.666H26.8784V141.666H26.1584V137.316ZM28.7807 141.016C28.9807 141.056 29.164 141.076 29.3307 141.076C29.9574 141.076 30.2707 140.746 30.2707 140.086C30.2707 139.786 30.1974 139.552 30.0507 139.386C29.904 139.212 29.6707 139.126 29.3507 139.126C29.264 139.126 29.1707 139.132 29.0707 139.146C28.9707 139.152 28.874 139.169 28.7807 139.196V141.016ZM28.7807 138.576C28.914 138.549 29.0407 138.532 29.1607 138.526C29.2807 138.512 29.394 138.506 29.5007 138.506C29.7807 138.506 30.0174 138.546 30.2107 138.626C30.404 138.699 30.5607 138.802 30.6807 138.936C30.8007 139.069 30.8874 139.229 30.9407 139.416C30.994 139.596 31.0207 139.789 31.0207 139.996C31.0207 140.602 30.874 141.042 30.5807 141.316C30.2874 141.589 29.8274 141.726 29.2007 141.726C28.8074 141.726 28.4274 141.706 28.0607 141.666V136.666H28.7807V138.576ZM31.8302 141.666V136.666H32.5502V141.016H33.8502V136.666H34.5702V141.016H35.8702V136.666H36.5902V141.666H31.8302ZM40.7577 141.326C40.5977 141.472 40.3944 141.586 40.1477 141.666C39.9011 141.746 39.6411 141.786 39.3677 141.786C39.0544 141.786 38.7811 141.726 38.5477 141.606C38.3211 141.479 38.1311 141.302 37.9777 141.076C37.8311 140.842 37.7211 140.566 37.6477 140.246C37.5811 139.926 37.5477 139.566 37.5477 139.166C37.5477 138.312 37.7044 137.662 38.0177 137.216C38.3311 136.769 38.7744 136.546 39.3477 136.546C39.5344 136.546 39.7177 136.569 39.8977 136.616C40.0844 136.662 40.2511 136.756 40.3977 136.896C40.5444 137.036 40.6611 137.232 40.7477 137.486C40.8411 137.739 40.8877 138.069 40.8877 138.476C40.8877 138.589 40.8811 138.712 40.8677 138.846C40.8611 138.972 40.8511 139.106 40.8377 139.246H38.2977C38.2977 139.532 38.3211 139.792 38.3677 140.026C38.4144 140.259 38.4877 140.459 38.5877 140.626C38.6877 140.786 38.8144 140.912 38.9677 141.006C39.1277 141.092 39.3244 141.136 39.5577 141.136C39.7377 141.136 39.9144 141.102 40.0877 141.036C40.2677 140.969 40.4044 140.889 40.4977 140.796L40.7577 141.326ZM40.1977 138.646C40.2111 138.146 40.1411 137.779 39.9877 137.546C39.8344 137.312 39.6244 137.196 39.3577 137.196C39.0511 137.196 38.8077 137.312 38.6277 137.546C38.4477 137.779 38.3411 138.146 38.3077 138.646H40.1977ZM44.2605 138.446H48.9805V139.136H44.2605V138.446ZM52.4263 137.516C52.5996 137.202 52.7929 136.986 53.0063 136.866C53.2196 136.746 53.4863 136.686 53.8063 136.686C54.2996 136.686 54.6796 136.879 54.9463 137.266C55.2196 137.652 55.3563 138.249 55.3563 139.056C55.3563 139.982 55.1996 140.669 54.8863 141.116C54.5729 141.562 54.1363 141.786 53.5763 141.786C53.2763 141.786 53.0129 141.729 52.7863 141.616C52.5663 141.496 52.3796 141.312 52.2263 141.066C52.0796 140.812 51.9663 140.486 51.8863 140.086C51.8129 139.686 51.7763 139.202 51.7763 138.636C51.7763 138.062 51.7996 137.572 51.8463 137.166C51.8996 136.759 51.9696 136.416 52.0563 136.136C52.1496 135.856 52.2596 135.632 52.3863 135.466C52.5129 135.299 52.6563 135.169 52.8163 135.076C52.9763 134.976 53.1496 134.906 53.3363 134.866C53.5296 134.826 53.7329 134.792 53.9463 134.766C54.2263 134.732 54.4496 134.692 54.6163 134.646C54.7829 134.599 54.9163 134.519 55.0163 134.406L55.0663 135.116C55.0129 135.169 54.9529 135.216 54.8863 135.256C54.8196 135.289 54.7396 135.319 54.6463 135.346C54.5529 135.372 54.4429 135.396 54.3163 135.416C54.1963 135.429 54.0529 135.442 53.8863 135.456C53.6596 135.476 53.4596 135.519 53.2863 135.586C53.1196 135.652 52.9729 135.762 52.8463 135.916C52.7263 136.062 52.6296 136.266 52.5563 136.526C52.4829 136.786 52.4329 137.116 52.4063 137.516H52.4263ZM52.5263 139.176C52.5263 139.449 52.5463 139.706 52.5863 139.946C52.6263 140.179 52.6896 140.386 52.7763 140.566C52.8629 140.739 52.9696 140.879 53.0963 140.986C53.2296 141.086 53.3863 141.136 53.5663 141.136C53.9129 141.136 54.1729 140.972 54.3462 140.646C54.5196 140.319 54.6063 139.812 54.6063 139.126C54.6063 138.579 54.5329 138.146 54.3863 137.826C54.2396 137.499 53.9996 137.336 53.6663 137.336C53.2729 137.336 52.9829 137.496 52.7963 137.816C52.6163 138.136 52.5263 138.589 52.5263 139.176ZM56.0927 139.166C56.0927 138.266 56.246 137.606 56.5527 137.186C56.866 136.759 57.3093 136.546 57.8827 136.546C58.496 136.546 58.946 136.762 59.2327 137.196C59.526 137.629 59.6727 138.286 59.6727 139.166C59.6727 140.072 59.516 140.736 59.2027 141.156C58.8893 141.576 58.4493 141.786 57.8827 141.786C57.2693 141.786 56.816 141.569 56.5227 141.136C56.236 140.702 56.0927 140.046 56.0927 139.166ZM56.8427 139.166C56.8427 139.459 56.8593 139.726 56.8927 139.966C56.9327 140.206 56.9927 140.412 57.0727 140.586C57.1593 140.759 57.2693 140.896 57.4027 140.996C57.536 141.089 57.696 141.136 57.8827 141.136C58.2293 141.136 58.4893 140.982 58.6627 140.676C58.836 140.362 58.9227 139.859 58.9227 139.166C58.9227 138.879 58.9027 138.616 58.8627 138.376C58.8293 138.129 58.7693 137.919 58.6827 137.746C58.6027 137.572 58.496 137.439 58.3627 137.346C58.2293 137.246 58.0693 137.196 57.8827 137.196C57.5427 137.196 57.2827 137.352 57.1027 137.666C56.9293 137.979 56.8427 138.479 56.8427 139.166ZM62.7991 137.316H61.7091C61.6891 137.882 61.6624 138.432 61.6291 138.966C61.5957 139.492 61.5357 139.959 61.4491 140.366C61.3691 140.772 61.2524 141.099 61.0991 141.346C60.9457 141.586 60.7424 141.706 60.4891 141.706C60.3757 141.706 60.2791 141.699 60.1991 141.686C60.1191 141.672 60.0457 141.649 59.9791 141.616L60.0891 140.986C60.2291 141.026 60.3524 141.019 60.4591 140.966C60.5724 140.906 60.6691 140.732 60.7491 140.446C60.8291 140.152 60.8924 139.709 60.9391 139.116C60.9924 138.516 61.0291 137.699 61.0491 136.666H63.5191V141.666H62.7991V137.316ZM65.4213 141.016C65.6213 141.056 65.8047 141.076 65.9713 141.076C66.598 141.076 66.9113 140.746 66.9113 140.086C66.9113 139.786 66.838 139.552 66.6913 139.386C66.5447 139.212 66.3113 139.126 65.9913 139.126C65.9047 139.126 65.8113 139.132 65.7113 139.146C65.6113 139.152 65.5147 139.169 65.4213 139.196V141.016ZM65.4213 138.576C65.5547 138.549 65.6813 138.532 65.8013 138.526C65.9213 138.512 66.0347 138.506 66.1413 138.506C66.4213 138.506 66.658 138.546 66.8513 138.626C67.0447 138.699 67.2013 138.802 67.3213 138.936C67.4413 139.069 67.528 139.229 67.5813 139.416C67.6347 139.596 67.6613 139.789 67.6613 139.996C67.6613 140.602 67.5147 141.042 67.2213 141.316C66.928 141.589 66.468 141.726 65.8413 141.726C65.448 141.726 65.068 141.706 64.7013 141.666V136.666H65.4213V138.576ZM68.4709 141.666V136.666H69.1909V141.016H70.4909V136.666H71.2109V141.016H72.5109V136.666H73.2309V141.666H68.4709ZM77.3984 141.326C77.2384 141.472 77.035 141.586 76.7884 141.666C76.5417 141.746 76.2817 141.786 76.0084 141.786C75.695 141.786 75.4217 141.726 75.1884 141.606C74.9617 141.479 74.7717 141.302 74.6184 141.076C74.4717 140.842 74.3617 140.566 74.2884 140.246C74.2217 139.926 74.1884 139.566 74.1884 139.166C74.1884 138.312 74.345 137.662 74.6584 137.216C74.9717 136.769 75.415 136.546 75.9884 136.546C76.175 136.546 76.3584 136.569 76.5384 136.616C76.725 136.662 76.8917 136.756 77.0384 136.896C77.185 137.036 77.3017 137.232 77.3884 137.486C77.4817 137.739 77.5284 138.069 77.5284 138.476C77.5284 138.589 77.5217 138.712 77.5084 138.846C77.5017 138.972 77.4917 139.106 77.4784 139.246H74.9384C74.9384 139.532 74.9617 139.792 75.0084 140.026C75.055 140.259 75.1284 140.459 75.2284 140.626C75.3284 140.786 75.455 140.912 75.6084 141.006C75.7684 141.092 75.965 141.136 76.1984 141.136C76.3784 141.136 76.555 141.102 76.7284 141.036C76.9084 140.969 77.045 140.889 77.1384 140.796L77.3984 141.326ZM76.8384 138.646C76.8517 138.146 76.7817 137.779 76.6284 137.546C76.475 137.312 76.265 137.196 75.9984 137.196C75.6917 137.196 75.4484 137.312 75.2684 137.546C75.0884 137.779 74.9817 138.146 74.9484 138.646H76.8384ZM78.9592 134.666H79.7092V138.136L79.5592 139.896H79.1092L78.9592 138.136V134.666ZM78.8292 141.216C78.8292 141.029 78.8726 140.889 78.9592 140.796C79.0526 140.702 79.1759 140.656 79.3292 140.656C79.4826 140.656 79.6026 140.702 79.6892 140.796C79.7826 140.889 79.8292 141.029 79.8292 141.216C79.8292 141.409 79.7826 141.552 79.6892 141.646C79.6026 141.739 79.4826 141.786 79.3292 141.786C79.1759 141.786 79.0526 141.739 78.9592 141.646C78.8726 141.552 78.8292 141.409 78.8292 141.216Z" fill="#0D2115"/>
<path d="M101.83 143.687C101.577 143.367 101.363 143.014 101.19 142.627C101.023 142.247 100.887 141.857 100.78 141.457C100.673 141.05 100.597 140.644 100.55 140.237C100.503 139.824 100.48 139.43 100.48 139.057C100.48 138.69 100.503 138.304 100.55 137.897C100.597 137.49 100.673 137.084 100.78 136.677C100.887 136.264 101.027 135.86 101.2 135.467C101.38 135.074 101.597 134.707 101.85 134.367L102.3 134.637C102.087 134.977 101.91 135.334 101.77 135.707C101.63 136.08 101.517 136.46 101.43 136.847C101.35 137.227 101.29 137.607 101.25 137.987C101.217 138.36 101.2 138.717 101.2 139.057C101.2 139.377 101.22 139.73 101.26 140.117C101.3 140.497 101.363 140.88 101.45 141.267C101.543 141.654 101.66 142.03 101.8 142.397C101.94 142.764 102.107 143.094 102.3 143.387L101.83 143.687ZM106.644 139.337H105.714V141.487H104.994V139.337H102.534V138.997L105.184 134.377H105.714V138.687H106.644V139.337ZM104.994 136.447L105.114 135.587H105.084L104.784 136.357L103.684 138.267L103.304 138.757L103.854 138.687H104.994V136.447ZM107.316 143.387C107.509 143.094 107.676 142.764 107.816 142.397C107.956 142.03 108.069 141.654 108.156 141.267C108.249 140.88 108.316 140.497 108.356 140.117C108.396 139.73 108.416 139.377 108.416 139.057C108.416 138.717 108.396 138.36 108.356 137.987C108.323 137.607 108.263 137.227 108.176 136.847C108.096 136.46 107.983 136.08 107.836 135.707C107.696 135.334 107.523 134.977 107.316 134.637L107.766 134.367C108.019 134.707 108.233 135.074 108.406 135.467C108.586 135.86 108.729 136.264 108.836 136.677C108.943 137.084 109.019 137.49 109.066 137.897C109.113 138.304 109.136 138.69 109.136 139.057C109.136 139.43 109.113 139.824 109.066 140.237C109.019 140.644 108.943 141.05 108.836 141.457C108.729 141.857 108.589 142.247 108.416 142.627C108.243 143.014 108.033 143.367 107.786 143.687L107.316 143.387Z" fill="#0D2115"/>
<path d="M19.942 59.4898H17.394V67.6658H15.63V57.8658H21.706V67.6658H19.942V59.4898ZM22.9438 60.6658H24.1898L24.3578 61.4638H24.3998C24.6145 61.1278 24.8525 60.8851 25.1138 60.7358C25.3845 60.5771 25.7158 60.4978 26.1078 60.4978C26.8171 60.4978 27.3491 60.7684 27.7038 61.3098C28.0678 61.8418 28.2498 62.7331 28.2498 63.9838C28.2498 65.2344 28.0258 66.1958 27.5778 66.8678C27.1298 67.5304 26.4811 67.8618 25.6318 67.8618C25.4078 67.8618 25.2165 67.8431 25.0578 67.8058C24.8991 67.7684 24.7498 67.7078 24.6098 67.6238V70.4658H22.9438V60.6658ZM24.6098 66.0978C24.7031 66.1911 24.8058 66.2611 24.9178 66.3078C25.0391 66.3544 25.1931 66.3778 25.3798 66.3778C25.7531 66.3778 26.0378 66.1958 26.2338 65.8318C26.4298 65.4584 26.5278 64.8284 26.5278 63.9418C26.5278 63.2791 26.4531 62.7891 26.3038 62.4718C26.1545 62.1451 25.9071 61.9818 25.5618 61.9818C25.0951 61.9818 24.7778 62.2571 24.6098 62.8078V66.0978ZM28.9535 64.1658C28.9535 62.9244 29.1962 62.0004 29.6815 61.3938C30.1668 60.7871 30.8435 60.4838 31.7115 60.4838C32.6448 60.4838 33.3402 60.7918 33.7975 61.4078C34.2548 62.0238 34.4835 62.9431 34.4835 64.1658C34.4835 65.4164 34.2408 66.3451 33.7555 66.9518C33.2702 67.5491 32.5888 67.8478 31.7115 67.8478C29.8728 67.8478 28.9535 66.6204 28.9535 64.1658ZM30.6755 64.1658C30.6755 64.8658 30.7548 65.4071 30.9135 65.7898C31.0722 66.1724 31.3382 66.3638 31.7115 66.3638C32.0662 66.3638 32.3275 66.2004 32.4955 65.8738C32.6728 65.5378 32.7615 64.9684 32.7615 64.1658C32.7615 63.4471 32.6822 62.9011 32.5235 62.5278C32.3648 62.1544 32.0942 61.9678 31.7115 61.9678C31.3848 61.9678 31.1282 62.1358 30.9415 62.4718C30.7642 62.7984 30.6755 63.3631 30.6755 64.1658ZM35.4399 60.6798C35.7012 60.6518 36.0326 60.6284 36.4339 60.6098C36.8446 60.5818 37.2692 60.5678 37.7079 60.5678C38.5852 60.5678 39.2059 60.7124 39.5699 61.0018C39.9339 61.2911 40.1159 61.7298 40.1159 62.3178C40.1159 62.6538 40.0366 62.9758 39.8779 63.2838C39.7192 63.5824 39.4766 63.8018 39.1499 63.9418V63.9978C39.9432 64.2124 40.3399 64.7724 40.3399 65.6778C40.3399 66.3778 40.1159 66.9004 39.6679 67.2458C39.2199 67.5911 38.4919 67.7638 37.4839 67.7638C37.1572 67.7638 36.7979 67.7544 36.4059 67.7358C36.0232 67.7171 35.7012 67.6891 35.4399 67.6518V60.6798ZM37.0639 66.3218C37.1572 66.3404 37.2459 66.3544 37.3299 66.3638C37.4139 66.3638 37.5166 66.3638 37.6379 66.3638C38.0019 66.3638 38.2632 66.2938 38.4219 66.1538C38.5899 66.0044 38.6739 65.7758 38.6739 65.4678C38.6739 65.2158 38.6039 65.0151 38.4639 64.8658C38.3239 64.7071 38.0859 64.6278 37.7499 64.6278H37.0639V66.3218ZM37.7499 63.5218C37.9739 63.5218 38.1559 63.4518 38.2959 63.3118C38.4452 63.1718 38.5199 62.9851 38.5199 62.7518C38.5199 62.4811 38.4592 62.2851 38.3379 62.1638C38.2259 62.0331 38.0112 61.9678 37.6939 61.9678C37.5352 61.9678 37.4092 61.9724 37.3159 61.9818C37.2226 61.9818 37.1386 61.9864 37.0639 61.9958V63.5218H37.7499ZM46.0235 67.1478C45.7901 67.3531 45.4728 67.5211 45.0715 67.6518C44.6701 67.7824 44.2501 67.8478 43.8115 67.8478C43.3261 67.8478 42.9061 67.7638 42.5515 67.5958C42.2061 67.4278 41.9215 67.1851 41.6975 66.8678C41.4735 66.5504 41.3055 66.1678 41.1935 65.7198C41.0908 65.2624 41.0395 64.7444 41.0395 64.1658C41.0395 62.9058 41.2868 61.9771 41.7815 61.3798C42.2855 60.7731 42.9808 60.4698 43.8675 60.4698C44.1661 60.4698 44.4555 60.5164 44.7355 60.6098C45.0155 60.6938 45.2628 60.8431 45.4775 61.0578C45.7015 61.2631 45.8788 61.5431 46.0095 61.8978C46.1495 62.2431 46.2195 62.6818 46.2195 63.2138C46.2195 63.4191 46.2055 63.6384 46.1775 63.8718C46.1588 64.1051 46.1261 64.3571 46.0795 64.6278H42.6775C42.6961 65.2064 42.8175 65.6498 43.0415 65.9578C43.2655 66.2658 43.6248 66.4198 44.1195 66.4198C44.4181 66.4198 44.6888 66.3731 44.9315 66.2798C45.1835 66.1864 45.3748 66.0884 45.5055 65.9858L46.0235 67.1478ZM43.8395 61.8978C43.4848 61.8978 43.2188 62.0424 43.0415 62.3318C42.8641 62.6118 42.7615 63.0084 42.7335 63.5218H44.6655C44.6935 62.9898 44.6375 62.5884 44.4975 62.3178C44.3575 62.0378 44.1381 61.8978 43.8395 61.8978ZM50.3897 62.1918H49.3817C49.3444 63.0038 49.293 63.7504 49.2277 64.4318C49.1624 65.1131 49.0597 65.7011 48.9197 66.1958C48.7797 66.6811 48.5884 67.0638 48.3457 67.3438C48.1124 67.6144 47.8044 67.7498 47.4217 67.7498C47.1884 67.7498 46.9877 67.7311 46.8197 67.6938C46.6517 67.6658 46.507 67.6144 46.3857 67.5398L46.5817 66.0838C46.8057 66.1584 46.9924 66.1538 47.1417 66.0698C47.3004 65.9858 47.431 65.7571 47.5337 65.3838C47.6364 65.0011 47.7157 64.4364 47.7717 63.6898C47.837 62.9431 47.8837 61.9351 47.9117 60.6658H52.0557V67.6658H50.3897V62.1918ZM56.6843 64.6138L56.8103 63.4798H56.7683L56.2503 64.6698L54.3743 67.6658H53.2543V60.6658H54.9203V63.8438L54.7943 64.9358H54.8363L55.3403 63.7738L57.2303 60.6658H58.3503V67.6658H56.6843V64.6138ZM67.4542 60.2178C67.4542 60.7031 67.3842 61.2024 67.2442 61.7158C67.1042 62.2198 66.9222 62.7144 66.6982 63.1998C66.4835 63.6851 66.2455 64.1471 65.9842 64.5858C65.7228 65.0244 65.4662 65.4118 65.2142 65.7478L64.5982 66.3218V66.3918L65.4382 66.1818H67.6082V67.6658H62.6942V66.6998C62.8902 66.4571 63.1002 66.1818 63.3242 65.8738C63.5575 65.5564 63.7862 65.2251 64.0102 64.8798C64.2435 64.5251 64.4675 64.1611 64.6822 63.7878C64.8968 63.4051 65.0835 63.0271 65.2422 62.6538C65.4102 62.2711 65.5408 61.8978 65.6342 61.5338C65.7368 61.1698 65.7788 60.8291 65.7602 60.5118C65.7788 60.1198 65.6948 59.8024 65.5082 59.5598C65.3215 59.3171 65.0275 59.1958 64.6262 59.1958C64.3928 59.1958 64.1548 59.2518 63.9122 59.3638C63.6695 59.4664 63.4642 59.5924 63.2962 59.7418L62.6522 58.5238C62.9602 58.2624 63.3102 58.0571 63.7022 57.9078C64.0942 57.7491 64.5562 57.6698 65.0882 57.6698C65.4242 57.6698 65.7368 57.7258 66.0262 57.8378C66.3155 57.9404 66.5628 58.0991 66.7682 58.3138C66.9828 58.5284 67.1508 58.7944 67.2722 59.1118C67.3935 59.4291 67.4542 59.7978 67.4542 60.2178ZM20.586 77.4458L20.684 76.0038H20.614L20.194 77.3058L19.172 79.4058H18.542L17.422 77.3058L16.988 76.0038H16.904L17.086 77.4458V80.6658H15.602V73.6658H17.352L18.626 76.2418L18.906 77.1798H18.962L19.256 76.2138L20.432 73.6658H22.168V80.6658H20.586V77.4458ZM23.3816 74.0858C23.6616 73.9178 24.0116 73.7824 24.4316 73.6798C24.8516 73.5771 25.3276 73.5258 25.8596 73.5258C26.653 73.5258 27.2036 73.7311 27.5116 74.1418C27.829 74.5524 27.9876 75.1358 27.9876 75.8918C27.9876 76.3304 27.9736 76.7644 27.9456 77.1938C27.927 77.6138 27.913 78.0291 27.9036 78.4398C27.8943 78.8411 27.899 79.2331 27.9176 79.6158C27.9456 79.9891 28.011 80.3438 28.1136 80.6798H26.7556L26.4896 79.8258H26.4336C26.2843 80.0964 26.0743 80.3204 25.8036 80.4978C25.533 80.6751 25.1923 80.7638 24.7816 80.7638C24.231 80.7638 23.797 80.5818 23.4796 80.2178C23.1623 79.8444 23.0036 79.3498 23.0036 78.7338C23.0036 77.8938 23.3023 77.2964 23.8996 76.9418C24.497 76.5871 25.3043 76.4378 26.3216 76.4938C26.3683 75.9524 26.331 75.5604 26.2096 75.3178C26.0976 75.0751 25.8503 74.9538 25.4676 74.9538C25.1876 74.9538 24.8983 74.9864 24.5996 75.0518C24.301 75.1171 24.035 75.2104 23.8016 75.3318L23.3816 74.0858ZM25.3836 79.3358C25.6356 79.3358 25.841 79.2751 25.9996 79.1538C26.1583 79.0231 26.275 78.8831 26.3496 78.7338V77.5718C26.135 77.5438 25.9296 77.5391 25.7336 77.5578C25.5376 77.5764 25.365 77.6184 25.2156 77.6838C25.0663 77.7491 24.945 77.8471 24.8516 77.9778C24.7676 78.0991 24.7256 78.2578 24.7256 78.4538C24.7256 78.7431 24.7816 78.9624 24.8936 79.1118C25.015 79.2611 25.1783 79.3358 25.3836 79.3358ZM33.2808 80.2878C33.0475 80.4744 32.7675 80.6144 32.4408 80.7078C32.1142 80.8011 31.7875 80.8478 31.4608 80.8478C30.9848 80.8478 30.5835 80.7638 30.2568 80.5958C29.9395 80.4184 29.6782 80.1711 29.4728 79.8538C29.2675 79.5271 29.1182 79.1398 29.0248 78.6918C28.9408 78.2344 28.8988 77.7258 28.8988 77.1658C28.8988 75.9431 29.1182 75.0238 29.5568 74.4078C29.9955 73.7918 30.6395 73.4838 31.4888 73.4838C31.9088 73.4838 32.2495 73.5211 32.5108 73.5958C32.7815 73.6704 33.0195 73.7638 33.2248 73.8758L32.8328 75.2618C32.6648 75.1778 32.5015 75.1171 32.3428 75.0798C32.1935 75.0331 32.0115 75.0098 31.7968 75.0098C31.4048 75.0098 31.1108 75.1824 30.9148 75.5278C30.7188 75.8638 30.6208 76.4098 30.6208 77.1658C30.6208 77.8004 30.7188 78.3184 30.9148 78.7198C31.1202 79.1211 31.4422 79.3218 31.8808 79.3218C32.1142 79.3218 32.3102 79.2938 32.4688 79.2378C32.6368 79.1724 32.7908 79.0931 32.9308 78.9998L33.2808 80.2878ZM38.2594 75.1918H36.7194V80.6658H35.0534V75.1918H33.4574V73.6658H38.2594V75.1918ZM43.5352 80.1478C43.3018 80.3531 42.9845 80.5211 42.5832 80.6518C42.1818 80.7824 41.7618 80.8478 41.3232 80.8478C40.8378 80.8478 40.4178 80.7638 40.0632 80.5958C39.7178 80.4278 39.4332 80.1851 39.2092 79.8678C38.9852 79.5504 38.8172 79.1678 38.7052 78.7198C38.6025 78.2624 38.5512 77.7444 38.5512 77.1658C38.5512 75.9058 38.7985 74.9771 39.2932 74.3798C39.7972 73.7731 40.4925 73.4698 41.3792 73.4698C41.6778 73.4698 41.9672 73.5164 42.2472 73.6098C42.5272 73.6938 42.7745 73.8431 42.9892 74.0578C43.2132 74.2631 43.3905 74.5431 43.5212 74.8978C43.6612 75.2431 43.7312 75.6818 43.7312 76.2138C43.7312 76.4191 43.7172 76.6384 43.6892 76.8718C43.6705 77.1051 43.6378 77.3571 43.5912 77.6278H40.1892C40.2078 78.2064 40.3292 78.6498 40.5532 78.9578C40.7772 79.2658 41.1365 79.4198 41.6312 79.4198C41.9298 79.4198 42.2005 79.3731 42.4432 79.2798C42.6952 79.1864 42.8865 79.0884 43.0172 78.9858L43.5352 80.1478ZM41.3512 74.8978C40.9965 74.8978 40.7305 75.0424 40.5532 75.3318C40.3758 75.6118 40.2732 76.0084 40.2452 76.5218H42.1772C42.2052 75.9898 42.1492 75.5884 42.0092 75.3178C41.8692 75.0378 41.6498 74.8978 41.3512 74.8978ZM44.7915 73.6658H46.0375L46.2055 74.4638H46.2475C46.4621 74.1278 46.7001 73.8851 46.9615 73.7358C47.2321 73.5771 47.5635 73.4978 47.9555 73.4978C48.6648 73.4978 49.1968 73.7684 49.5515 74.3098C49.9155 74.8418 50.0975 75.7331 50.0975 76.9838C50.0975 78.2344 49.8735 79.1958 49.4255 79.8678C48.9775 80.5304 48.3288 80.8618 47.4795 80.8618C47.2555 80.8618 47.0641 80.8431 46.9055 80.8058C46.7468 80.7684 46.5975 80.7078 46.4575 80.6238V83.4658H44.7915V73.6658ZM46.4575 79.0978C46.5508 79.1911 46.6535 79.2611 46.7655 79.3078C46.8868 79.3544 47.0408 79.3778 47.2275 79.3778C47.6008 79.3778 47.8855 79.1958 48.0815 78.8318C48.2775 78.4584 48.3755 77.8284 48.3755 76.9418C48.3755 76.2791 48.3008 75.7891 48.1515 75.4718C48.0021 75.1451 47.7548 74.9818 47.4095 74.9818C46.9428 74.9818 46.6255 75.2571 46.4575 75.8078V79.0978ZM51.0812 75.8498H53.9932V77.4458H51.0812V75.8498ZM57.2671 77.7678H56.8891V80.6658H55.2231V73.6658H56.8891V76.6478L57.2251 76.4518L58.4011 73.6658H60.1931L58.9191 76.3538L58.3031 76.8998L58.9751 77.4458L60.3891 80.6658H58.5131L57.2671 77.7678ZM64.6495 75.1918H63.6415C63.6041 76.0038 63.5528 76.7504 63.4875 77.4318C63.4221 78.1131 63.3195 78.7011 63.1795 79.1958C63.0395 79.6811 62.8481 80.0638 62.6055 80.3438C62.3721 80.6144 62.0641 80.7498 61.6815 80.7498C61.4481 80.7498 61.2475 80.7311 61.0795 80.6938C60.9115 80.6658 60.7668 80.6144 60.6455 80.5398L60.8415 79.0838C61.0655 79.1584 61.2521 79.1538 61.4015 79.0698C61.5601 78.9858 61.6908 78.7571 61.7935 78.3838C61.8961 78.0011 61.9755 77.4364 62.0315 76.6898C62.0968 75.9431 62.1435 74.9351 62.1715 73.6658H66.3155V80.6658H64.6495V75.1918ZM67.5281 74.0858C67.8081 73.9178 68.1581 73.7824 68.5781 73.6798C68.9981 73.5771 69.4741 73.5258 70.0061 73.5258C70.7994 73.5258 71.3501 73.7311 71.6581 74.1418C71.9754 74.5524 72.1341 75.1358 72.1341 75.8918C72.1341 76.3304 72.1201 76.7644 72.0921 77.1938C72.0734 77.6138 72.0594 78.0291 72.0501 78.4398C72.0408 78.8411 72.0454 79.2331 72.0641 79.6158C72.0921 79.9891 72.1574 80.3438 72.2601 80.6798H70.9021L70.6361 79.8258H70.5801C70.4308 80.0964 70.2208 80.3204 69.9501 80.4978C69.6794 80.6751 69.3388 80.7638 68.9281 80.7638C68.3774 80.7638 67.9434 80.5818 67.6261 80.2178C67.3088 79.8444 67.1501 79.3498 67.1501 78.7338C67.1501 77.8938 67.4488 77.2964 68.0461 76.9418C68.6434 76.5871 69.4508 76.4378 70.4681 76.4938C70.5148 75.9524 70.4774 75.5604 70.3561 75.3178C70.2441 75.0751 69.9968 74.9538 69.6141 74.9538C69.3341 74.9538 69.0448 74.9864 68.7461 75.0518C68.4474 75.1171 68.1814 75.2104 67.9481 75.3318L67.5281 74.0858ZM69.5301 79.3358C69.7821 79.3358 69.9874 79.2751 70.1461 79.1538C70.3048 79.0231 70.4214 78.8831 70.4961 78.7338V77.5718C70.2814 77.5438 70.0761 77.5391 69.8801 77.5578C69.6841 77.5764 69.5114 77.6184 69.3621 77.6838C69.2128 77.7491 69.0914 77.8471 68.9981 77.9778C68.9141 78.0991 68.8721 78.2578 68.8721 78.4538C68.8721 78.7431 68.9281 78.9624 69.0401 79.1118C69.1614 79.2611 69.3248 79.3358 69.5301 79.3358ZM77.4273 80.2878C77.194 80.4744 76.914 80.6144 76.5873 80.7078C76.2606 80.8011 75.934 80.8478 75.6073 80.8478C75.1313 80.8478 74.73 80.7638 74.4033 80.5958C74.086 80.4184 73.8246 80.1711 73.6193 79.8538C73.414 79.5271 73.2646 79.1398 73.1713 78.6918C73.0873 78.2344 73.0453 77.7258 73.0453 77.1658C73.0453 75.9431 73.2646 75.0238 73.7033 74.4078C74.142 73.7918 74.786 73.4838 75.6353 73.4838C76.0553 73.4838 76.396 73.5211 76.6573 73.5958C76.928 73.6704 77.166 73.7638 77.3713 73.8758L76.9793 75.2618C76.8113 75.1778 76.648 75.1171 76.4893 75.0798C76.34 75.0331 76.158 75.0098 75.9433 75.0098C75.5513 75.0098 75.2573 75.1824 75.0613 75.5278C74.8653 75.8638 74.7673 76.4098 74.7673 77.1658C74.7673 77.8004 74.8653 78.3184 75.0613 78.7198C75.2666 79.1211 75.5886 79.3218 76.0273 79.3218C76.2606 79.3218 76.4566 79.2938 76.6153 79.2378C76.7833 79.1724 76.9373 79.0931 77.0773 78.9998L77.4273 80.2878ZM82.1441 80.2878C81.9108 80.4744 81.6308 80.6144 81.3041 80.7078C80.9774 80.8011 80.6508 80.8478 80.3241 80.8478C79.8481 80.8478 79.4468 80.7638 79.1201 80.5958C78.8028 80.4184 78.5414 80.1711 78.3361 79.8538C78.1308 79.5271 77.9814 79.1398 77.8881 78.6918C77.8041 78.2344 77.7621 77.7258 77.7621 77.1658C77.7621 75.9431 77.9814 75.0238 78.4201 74.4078C78.8588 73.7918 79.5028 73.4838 80.3521 73.4838C80.7721 73.4838 81.1128 73.5211 81.3741 73.5958C81.6448 73.6704 81.8828 73.7638 82.0881 73.8758L81.6961 75.2618C81.5281 75.1778 81.3648 75.1171 81.2061 75.0798C81.0568 75.0331 80.8748 75.0098 80.6601 75.0098C80.2681 75.0098 79.9741 75.1824 79.7781 75.5278C79.5821 75.8638 79.4841 76.4098 79.4841 77.1658C79.4841 77.8004 79.5821 78.3184 79.7781 78.7198C79.9834 79.1211 80.3054 79.3218 80.7441 79.3218C80.9774 79.3218 81.1734 79.2938 81.3321 79.2378C81.5001 79.1724 81.6541 79.0931 81.7941 78.9998L82.1441 80.2878ZM82.9226 74.0858C83.2026 73.9178 83.5526 73.7824 83.9726 73.6798C84.3926 73.5771 84.8686 73.5258 85.4006 73.5258C86.194 73.5258 86.7446 73.7311 87.0526 74.1418C87.37 74.5524 87.5286 75.1358 87.5286 75.8918C87.5286 76.3304 87.5146 76.7644 87.4866 77.1938C87.468 77.6138 87.454 78.0291 87.4446 78.4398C87.4353 78.8411 87.44 79.2331 87.4586 79.6158C87.4866 79.9891 87.552 80.3438 87.6546 80.6798H86.2966L86.0306 79.8258H85.9746C85.8253 80.0964 85.6153 80.3204 85.3446 80.4978C85.074 80.6751 84.7333 80.7638 84.3226 80.7638C83.772 80.7638 83.338 80.5818 83.0206 80.2178C82.7033 79.8444 82.5446 79.3498 82.5446 78.7338C82.5446 77.8938 82.8433 77.2964 83.4406 76.9418C84.038 76.5871 84.8453 76.4378 85.8626 76.4938C85.9093 75.9524 85.872 75.5604 85.7506 75.3178C85.6386 75.0751 85.3913 74.9538 85.0086 74.9538C84.7286 74.9538 84.4393 74.9864 84.1406 75.0518C83.842 75.1171 83.576 75.2104 83.3426 75.3318L82.9226 74.0858ZM84.9246 79.3358C85.1766 79.3358 85.382 79.2751 85.5406 79.1538C85.6993 79.0231 85.816 78.8831 85.8906 78.7338V77.5718C85.676 77.5438 85.4706 77.5391 85.2746 77.5578C85.0786 77.5764 84.906 77.6184 84.7566 77.6838C84.6073 77.7491 84.486 77.8471 84.3926 77.9778C84.3086 78.0991 84.2666 78.2578 84.2666 78.4538C84.2666 78.7431 84.3226 78.9624 84.4346 79.1118C84.556 79.2611 84.7193 79.3358 84.9246 79.3358ZM18.892 88.1918H17.268V93.6658H15.602V86.6658H20.558V93.6658H18.892V88.1918ZM21.516 90.1658C21.516 88.9244 21.7587 88.0004 22.244 87.3938C22.7293 86.7871 23.406 86.4838 24.274 86.4838C25.2073 86.4838 25.9027 86.7918 26.36 87.4078C26.8173 88.0238 27.046 88.9431 27.046 90.1658C27.046 91.4164 26.8033 92.3451 26.318 92.9518C25.8327 93.5491 25.1513 93.8478 24.274 93.8478C22.4353 93.8478 21.516 92.6204 21.516 90.1658ZM23.238 90.1658C23.238 90.8658 23.3173 91.4071 23.476 91.7898C23.6347 92.1724 23.9007 92.3638 24.274 92.3638C24.6287 92.3638 24.89 92.2004 25.058 91.8738C25.2353 91.5378 25.324 90.9684 25.324 90.1658C25.324 89.4471 25.2447 88.9011 25.086 88.5278C24.9273 88.1544 24.6567 87.9678 24.274 87.9678C23.9473 87.9678 23.6907 88.1358 23.504 88.4718C23.3267 88.7984 23.238 89.3631 23.238 90.1658ZM36.7955 95.2618H35.5635L35.3815 93.6658H31.6435L31.4615 95.2618H30.2435V92.1398H30.9155C30.9715 92.0371 31.0462 91.8598 31.1395 91.6078C31.2328 91.3464 31.3215 90.9964 31.4055 90.5578C31.4988 90.1191 31.5782 89.5778 31.6435 88.9338C31.7088 88.2898 31.7415 87.5338 31.7415 86.6658H35.9555V92.1398H36.7955V95.2618ZM34.2895 92.2238V88.1498H33.2255C33.2068 88.4858 33.1788 88.8498 33.1415 89.2418C33.1135 89.6338 33.0715 90.0164 33.0155 90.3898C32.9595 90.7538 32.8942 91.0991 32.8195 91.4258C32.7542 91.7524 32.6748 92.0184 32.5815 92.2238H34.2895ZM40.9617 90.6138L41.0877 89.4798H41.0457L40.5277 90.6698L38.6517 93.6658H37.5317V86.6658H39.1977V89.8438L39.0717 90.9358H39.1137L39.6177 89.7738L41.5077 86.6658H42.6277V93.6658H40.9617V90.6138ZM44.4224 90.7538V89.5078H45.0944C45.3464 89.5078 45.5518 89.4331 45.7104 89.2838C45.8691 89.1344 45.9484 88.9524 45.9484 88.7378C45.9484 88.2711 45.6591 88.0378 45.0804 88.0378C44.8004 88.0378 44.5531 88.0751 44.3384 88.1498C44.1238 88.2244 43.9511 88.3038 43.8204 88.3878L43.4424 87.0578C43.6851 86.9178 44.0024 86.8011 44.3944 86.7078C44.7864 86.6051 45.1924 86.5538 45.6124 86.5538C46.9471 86.5538 47.6144 87.1324 47.6144 88.2898C47.6144 88.6351 47.5398 88.9618 47.3904 89.2698C47.2411 89.5684 47.0171 89.7831 46.7184 89.9138V89.9698C47.1104 90.0818 47.3951 90.2778 47.5724 90.5578C47.7498 90.8378 47.8384 91.2158 47.8384 91.6918C47.8384 91.9904 47.7871 92.2704 47.6844 92.5318C47.5911 92.7838 47.4418 93.0031 47.2364 93.1898C47.0311 93.3764 46.7698 93.5258 46.4524 93.6378C46.1444 93.7498 45.7758 93.8058 45.3464 93.8058C44.9264 93.8058 44.5531 93.7591 44.2264 93.6658C43.9091 93.5818 43.6431 93.4744 43.4284 93.3438L43.7644 91.9858C43.9418 92.0884 44.1471 92.1724 44.3804 92.2378C44.6231 92.2938 44.8798 92.3218 45.1504 92.3218C45.8318 92.3218 46.1724 92.0464 46.1724 91.4958C46.1724 91.2624 46.0838 91.0804 45.9064 90.9498C45.7384 90.8191 45.4211 90.7538 44.9544 90.7538H44.4224ZM48.7976 87.0858C49.0776 86.9178 49.4276 86.7824 49.8476 86.6798C50.2676 86.5771 50.7436 86.5258 51.2756 86.5258C52.069 86.5258 52.6196 86.7311 52.9276 87.1418C53.245 87.5524 53.4036 88.1358 53.4036 88.8918C53.4036 89.3304 53.3896 89.7644 53.3616 90.1938C53.343 90.6138 53.329 91.0291 53.3196 91.4398C53.3103 91.8411 53.315 92.2331 53.3336 92.6158C53.3616 92.9891 53.427 93.3438 53.5296 93.6798H52.1716L51.9056 92.8258H51.8496C51.7003 93.0964 51.4903 93.3204 51.2196 93.4978C50.949 93.6751 50.6083 93.7638 50.1976 93.7638C49.647 93.7638 49.213 93.5818 48.8956 93.2178C48.5783 92.8444 48.4196 92.3498 48.4196 91.7338C48.4196 90.8938 48.7183 90.2964 49.3156 89.9418C49.913 89.5871 50.7203 89.4378 51.7376 89.4938C51.7843 88.9524 51.747 88.5604 51.6256 88.3178C51.5136 88.0751 51.2663 87.9538 50.8836 87.9538C50.6036 87.9538 50.3143 87.9864 50.0156 88.0518C49.717 88.1171 49.451 88.2104 49.2176 88.3318L48.7976 87.0858ZM50.7996 92.3358C51.0516 92.3358 51.257 92.2751 51.4156 92.1538C51.5743 92.0231 51.691 91.8831 51.7656 91.7338V90.5718C51.551 90.5438 51.3456 90.5391 51.1496 90.5578C50.9536 90.5764 50.781 90.6184 50.6316 90.6838C50.4823 90.7491 50.361 90.8471 50.2676 90.9778C50.1836 91.0991 50.1416 91.2578 50.1416 91.4538C50.1416 91.7431 50.1976 91.9624 50.3096 92.1118C50.431 92.2611 50.5943 92.3358 50.7996 92.3358ZM57.9968 90.6138L58.1228 89.4798H58.0808L57.5628 90.6698L55.6868 93.6658H54.5668V86.6658H56.2328V89.8438L56.1068 90.9358H56.1488L56.6528 89.7738L58.5428 86.6658H59.6628V93.6658H57.9968V90.6138ZM56.5688 83.8098C56.5968 84.1644 56.6715 84.4211 56.7928 84.5798C56.9142 84.7384 57.0682 84.8178 57.2548 84.8178C57.4508 84.8178 57.6048 84.7431 57.7168 84.5938C57.8382 84.4351 57.9222 84.1784 57.9688 83.8238L59.2288 84.1318C59.1262 84.7664 58.8882 85.2331 58.5148 85.5318C58.1508 85.8211 57.7168 85.9658 57.2128 85.9658C56.9702 85.9658 56.7322 85.9331 56.4988 85.8678C56.2655 85.8024 56.0555 85.6998 55.8688 85.5598C55.6822 85.4104 55.5235 85.2191 55.3928 84.9858C55.2715 84.7524 55.1922 84.4631 55.1548 84.1178L56.5688 83.8098ZM64.2156 90.8798H62.5356V93.6658H60.8696V86.6658H62.5356V89.3538H64.2156V86.6658H65.8816V93.6658H64.2156V90.8798ZM69.3303 90.5998L69.5123 91.6918H69.5823L69.7083 90.5858L70.5203 86.6658H72.2283L70.4783 92.9798C70.3196 93.5304 70.1703 94.0251 70.0303 94.4638C69.8903 94.9024 69.7409 95.2758 69.5823 95.5838C69.4236 95.8918 69.2416 96.1251 69.0363 96.2838C68.8403 96.4518 68.6023 96.5358 68.3223 96.5358C68.1263 96.5358 67.9349 96.5171 67.7483 96.4798C67.5709 96.4518 67.4169 96.4004 67.2863 96.3258L67.5663 94.8978C67.6876 94.9444 67.8089 94.9631 67.9303 94.9538C68.0609 94.9538 68.1776 94.9071 68.2803 94.8138C68.3923 94.7298 68.4903 94.5944 68.5743 94.4078C68.6583 94.2211 68.7283 93.9738 68.7843 93.6658L66.3483 86.6658H68.3503L69.3303 90.5998Z" fill="#0D2115"/>
<path d="M82.8949 52.5269L61.3663 13.7684M61.3663 13.7684C76.4947 16.7411 106.843 19.9914 107.209 9.21159C107.575 -1.56825 76.7996 7.75786 61.3663 13.7684ZM61.3663 13.7684C51.5527 7.70793 30.4096 -2.25755 24.3459 6.36424C18.2822 14.986 46.4996 14.8928 61.3663 13.7684ZM61.3663 13.7684L35.9761 53.3675" stroke="#C855A6" stroke-width="6"/>
</svg>
