<svg width="148" height="161" viewBox="0 0 148 161" fill="none" xmlns="http://www.w3.org/2000/svg">
<path d="M10.9313 53.027C12.721 56.4727 16.9071 57.9826 20.5217 56.3979C24.1362 54.8133 25.8621 50.7114 24.5405 47.0605L30.3956 44.4935C32.1853 47.9392 36.3715 49.4491 39.986 47.8644C43.6003 46.2796 45.3264 42.1778 44.0048 38.527L49.8591 35.9604C51.6488 39.406 55.835 40.9159 59.4495 39.3313C63.064 37.7466 64.7899 33.6448 63.4683 29.9938L69.3234 27.4269C71.1131 30.8726 75.2993 32.3825 78.9138 30.7978C82.5283 29.2131 84.2542 25.1112 82.9326 21.4603L88.7869 18.8937C90.5765 22.3393 94.7628 23.8491 98.3773 22.2647C101.992 20.68 103.718 16.5782 102.396 12.9272L108.251 10.3602C110.041 13.8059 114.227 15.3159 117.842 13.7312C121.456 12.1465 123.182 8.04466 121.86 4.39371L131.882 5.24521e-06L136.665 10.9098C136.511 10.9658 136.356 11.0253 136.203 11.0923C132.436 12.744 130.718 17.131 132.366 20.891C134.015 24.651 138.405 26.3602 142.173 24.7085C142.325 24.6414 142.474 24.568 142.62 24.4922L146.614 33.6034C146.46 33.6594 146.305 33.7189 146.152 33.7859C142.385 35.4376 140.667 39.8246 142.316 43.5846C143.964 47.3446 148.354 49.0537 152.122 47.4021C152.275 47.335 152.423 47.2616 152.569 47.1858L156.564 56.297C156.409 56.353 156.254 56.4125 156.102 56.4795C152.334 58.1312 150.616 62.5182 152.265 66.2782C153.913 70.0382 158.304 71.7473 162.071 70.0956C162.224 70.0286 162.373 69.9552 162.519 69.8794L166.513 78.9905C166.358 79.0466 166.204 79.1061 166.051 79.1731C162.283 80.8248 160.566 85.2118 162.214 88.9718C163.863 92.7318 168.253 94.4409 172.02 92.7892C172.173 92.7222 172.322 92.6488 172.468 92.573L176.853 102.575L166.831 106.969C166.775 106.814 166.716 106.66 166.649 106.507C165.001 102.747 160.61 101.038 156.843 102.69C153.075 104.342 151.358 108.729 153.006 112.489C153.073 112.641 153.146 112.79 153.222 112.935L147.367 115.502C147.311 115.348 147.252 115.194 147.185 115.041C145.536 111.281 141.146 109.572 137.378 111.224C133.611 112.875 131.893 117.262 133.542 121.022C133.609 121.175 133.682 121.323 133.758 121.469L127.903 124.035C127.847 123.881 127.788 123.727 127.721 123.574C126.073 119.814 121.682 118.105 117.915 119.757C114.148 121.408 112.43 125.795 114.078 129.555C114.145 129.708 114.218 129.856 114.294 130.002L108.439 132.569C108.383 132.414 108.324 132.26 108.257 132.108C106.608 128.348 102.218 126.638 98.4506 128.29C94.6833 129.942 92.9655 134.329 94.6139 138.089C94.6808 138.241 94.7541 138.39 94.8298 138.535L88.9755 141.102C88.9196 140.948 88.8603 140.793 88.7934 140.641C87.145 136.881 82.7545 135.172 78.9871 136.823C75.2197 138.475 73.502 142.862 75.1504 146.622C75.2173 146.775 75.2906 146.923 75.3663 147.069L69.5112 149.636C69.4553 149.481 69.396 149.327 69.3291 149.174C67.6806 145.414 63.2902 143.705 59.5228 145.357C55.7554 147.009 54.0376 151.396 55.6861 155.156C55.753 155.308 55.8263 155.456 55.9019 155.602L44.9707 160.394L40.5856 150.392C40.7403 150.336 40.8949 150.277 41.0478 150.21C44.8152 148.558 46.5329 144.171 44.8845 140.411C43.236 136.651 38.8456 134.942 35.0782 136.594C34.9254 136.661 34.7769 136.734 34.6308 136.81L30.6364 127.699C30.791 127.643 30.9456 127.583 31.0985 127.516C34.8659 125.865 36.5837 121.478 34.9352 117.718C33.2868 113.958 28.8964 112.248 25.1289 113.9C24.9761 113.967 24.8276 114.041 24.6816 114.116L20.6871 105.005C20.8418 104.949 20.9964 104.89 21.1492 104.823C24.9166 103.171 26.6344 98.784 24.986 95.024C23.3375 91.264 18.9471 89.5549 15.1797 91.2066C15.0268 91.2736 14.8783 91.347 14.7323 91.4228L10.7378 82.3117C10.8925 82.2557 11.0471 82.1962 11.2 82.1292C14.9674 80.4775 16.6851 76.0904 15.0367 72.3304C13.3882 68.5704 8.99782 66.8613 5.23041 68.513C5.07756 68.58 4.92905 68.6534 4.78303 68.7292L0 57.8195L10.9313 53.027Z" fill="#C855A6"/>
<path d="M17.5273 65.4215L124.682 18.4432L158.41 95.3745L51.2554 142.353L17.5273 65.4215Z" fill="#F6DFB8"/>
<path d="M38.2407 67.4829L38.3371 67.7027L37.4762 68.0801L40.8971 75.8832L41.758 75.5057L41.8544 75.7255L39.1069 76.9301L39.0105 76.7103L39.8348 76.3489L38.0038 72.1727C37.709 73.0444 37.154 73.5716 36.4763 73.8687C35.5055 74.2944 34.1794 74.308 33.2799 72.2565L32.4207 70.2966L31.5964 70.6579L31.5001 70.4381L34.2476 69.2336L34.344 69.4534L33.4831 69.8308L34.1897 71.4427C35.1052 73.5308 36.2309 73.4086 36.762 73.1757C37.4215 72.8866 37.7782 72.2061 37.8593 71.843L36.4138 68.5459L35.5895 68.9073L35.4932 68.6875L38.2407 67.4829ZM41.1558 69.6771C41.3141 70.0881 41.4988 70.5094 41.7041 70.878C42.7144 72.6843 44.1859 74.0483 45.5413 73.454C46.3107 73.1167 46.7382 72.0995 46.515 70.8434L46.7165 70.755C47.0222 72.1496 46.7533 73.9272 45.3979 74.5214C43.8592 75.196 41.7534 73.9791 40.6051 71.3598C39.4567 68.7405 39.9886 66.3672 41.4356 65.7328C42.8094 65.1305 44.4625 65.9126 45.3137 67.8542L41.1558 69.6771ZM41.0777 69.4493L42.8728 68.6623C43.8802 68.2206 43.8694 67.5484 43.4119 66.8536L43.4039 66.8353C42.833 66.081 42.1811 65.6899 41.54 65.9709C40.5875 66.3885 40.5898 67.938 41.0777 69.4493ZM47.5381 63.4068L47.6345 63.6266L46.7736 64.004L48.3315 67.5575L48.478 67.4932C49.0276 67.2523 49.3846 66.9211 49.0111 65.2723C48.7687 64.2212 48.4045 62.743 49.2105 62.3897C49.6684 62.1889 50.2802 62.4885 50.9329 63.9275L51.2702 64.6968L51.0504 64.7932L51.0263 64.7382C50.7051 64.0055 50.1904 63.3795 49.6409 63.6204C49.1463 63.8373 49.2365 64.8896 49.3414 65.8263C49.4393 66.5477 49.364 66.9738 49.0883 67.2912C50.31 67.0395 51.3378 67.7899 52.1002 68.8315C52.7697 69.7609 52.9534 70.3791 53.3381 70.2105C53.6678 70.0659 53.5092 69.3056 53.1834 68.6623L53.4032 68.5659C53.8999 69.5493 54.0565 70.7035 53.2505 71.0569C52.2981 71.4744 51.5884 70.4535 51.0208 69.4576C50.5517 68.6368 49.9665 67.1027 48.9591 67.5444L48.4279 67.7773L50.1946 71.807L51.0555 71.4296L51.1518 71.6494L48.4043 72.854L48.3079 72.6342L49.1322 72.2728L45.7112 64.4698L44.887 64.8311L44.7906 64.6113L47.5381 63.4068ZM60.9759 57.5154L61.0723 57.7352L60.2114 58.1126L63.6324 65.9157L64.4933 65.5382L64.5896 65.758L61.8421 66.9626L61.7457 66.7428L62.57 66.3814L60.739 62.2052C60.4442 63.0769 59.8892 63.6041 59.2115 63.9012C58.2407 64.3268 56.9146 64.3405 56.0152 62.289L55.1559 60.329L54.3316 60.6904L54.2353 60.4706L56.9828 59.266L57.0792 59.4858L56.2183 59.8633L56.925 61.4752C57.8404 63.5633 58.9661 63.441 59.4973 63.2082C60.1567 62.9191 60.5135 62.2385 60.5945 61.8755L59.149 58.5784L58.3247 58.9398L58.2284 58.72L60.9759 57.5154ZM63.891 59.7096C64.0493 60.1206 64.234 60.5419 64.4393 60.9105C65.4496 62.7168 66.9211 64.0807 68.2766 63.4865C69.0459 63.1492 69.4734 62.1319 69.2503 60.8758L69.4518 60.7875C69.7574 62.1821 69.4885 63.9597 68.1331 64.5539C66.5945 65.2285 64.4887 64.0116 63.3403 61.3923C62.1919 58.773 62.7238 56.3997 64.1708 55.7653C65.5446 55.163 67.1977 55.945 68.0489 57.8866L63.891 59.7096ZM63.8129 59.4817L65.608 58.6947C66.6154 58.2531 66.6046 57.5808 66.1471 56.8861L66.1391 56.8677C65.5682 56.1135 64.9163 55.7223 64.2752 56.0034C63.3227 56.421 63.3251 57.9704 63.8129 59.4817ZM70.2734 53.4392L70.3697 53.659L69.5088 54.0365L71.0667 57.59L71.2133 57.5257C71.7628 57.2848 72.1198 56.9536 71.7464 55.3048C71.5039 54.2537 71.1398 52.7755 71.9457 52.4222C72.4036 52.2214 73.0154 52.521 73.6681 53.96L74.0054 54.7293L73.7856 54.8257L73.7615 54.7707C73.4403 54.038 72.9256 53.412 72.3761 53.6529C71.8815 53.8697 71.9717 54.9221 72.0766 55.8588C72.1745 56.5802 72.0993 57.0063 71.8235 57.3237C73.0452 57.072 74.0731 57.8224 74.8354 58.864C75.5049 59.7933 75.6886 60.4116 76.0733 60.243C76.403 60.0984 76.2444 59.3381 75.9186 58.6948L76.1384 58.5984C76.6351 59.5818 76.7917 60.736 75.9858 61.0893C75.0333 61.5069 74.3236 60.4859 73.756 59.4901C73.287 58.6693 72.7017 57.1352 71.6943 57.5769L71.1631 57.8098L72.9298 61.8395L73.7907 61.4621L73.8871 61.6819L71.1395 62.8864L71.0432 62.6666L71.8674 62.3053L68.4464 54.5022L67.6222 54.8636L67.5258 54.6438L70.2734 53.4392ZM76.7787 50.5217C75.5148 51.0758 75.9691 53.6063 76.9794 55.4127C77.9897 57.219 79.4612 58.5829 80.8167 57.9887C81.586 57.6514 81.9769 56.6502 81.7537 55.3941L81.9552 55.3058C82.2609 56.7004 81.992 58.4779 80.6366 59.0722C79.0979 59.7467 76.9921 58.5299 75.8438 55.9105C74.6954 53.2912 75.2273 50.918 76.8575 50.2032C78.3778 49.5367 79.8088 50.4598 79.7384 51.1458C79.6849 51.6715 79.226 52.0692 78.8619 52.1852C78.5648 51.5075 77.7678 50.088 76.7787 50.5217ZM89.9718 44.8031L90.0682 45.0229L89.2073 45.4003L92.6283 53.2033L93.4892 52.8259L93.5855 53.0457L90.838 54.2503L90.7416 54.0305L91.5659 53.6691L89.7349 49.4928C89.4402 50.3646 88.8851 50.8918 88.2074 51.1889C87.2366 51.6145 85.9105 51.6281 85.0111 49.5766L84.1518 47.6167L83.3275 47.9781L83.2312 47.7583L85.9787 46.5537L86.0751 46.7735L85.2142 47.151L85.9209 48.7629C86.8364 50.851 87.962 50.7287 88.4932 50.4958C89.1526 50.2068 89.5094 49.5262 89.5904 49.1631L88.1449 45.8661L87.3206 46.2275L87.2243 46.0077L89.9718 44.8031ZM92.8869 46.9973C93.0452 47.4083 93.23 47.8295 93.4352 48.1981C94.4455 50.0045 95.917 51.3684 97.2725 50.7742C98.0418 50.4369 98.4693 49.4196 98.2462 48.1635L98.4477 48.0752C98.7534 49.4698 98.4845 51.2474 97.129 51.8416C95.5904 52.5162 93.4846 51.2993 92.3362 48.68C91.1878 46.0606 91.7197 43.6874 93.1667 43.053C94.5405 42.4507 96.1936 43.2327 97.0448 45.1743L92.8869 46.9973ZM92.8088 46.7694L94.6039 45.9824C95.6113 45.5408 95.6005 44.8685 95.1431 44.1738L95.135 44.1554C94.5641 43.4012 93.9122 43.01 93.2711 43.2911C92.3186 43.7087 92.321 45.2581 92.8088 46.7694ZM99.2693 40.7269L99.3656 40.9467L98.5047 41.3242L100.063 44.8777L100.209 44.8134C100.759 44.5725 101.116 44.2413 100.742 42.5925C100.5 41.5414 100.136 40.0632 100.942 39.7098C101.4 39.5091 102.011 39.8087 102.664 41.2477L103.001 42.017L102.782 42.1133L102.757 42.0584C102.436 41.3257 101.922 40.6997 101.372 40.9406C100.877 41.1574 100.968 42.2098 101.073 43.1465C101.17 43.8679 101.095 44.294 100.819 44.6114C102.041 44.3596 103.069 45.1101 103.831 46.1516C104.501 47.081 104.685 47.6993 105.069 47.5307C105.399 47.3861 105.24 46.6258 104.915 45.9825L105.134 45.8861C105.631 46.8694 105.788 48.0237 104.982 48.377C104.029 48.7946 103.32 47.7736 102.752 46.7778C102.283 45.957 101.698 44.4229 100.69 44.8646L100.159 45.0975L101.926 49.1272L102.787 48.7498L102.883 48.9696L100.135 50.1741L100.039 49.9543L100.863 49.593L97.4423 41.7899L96.6181 42.1513L96.5217 41.9315L99.2693 40.7269ZM105.78 37.8723L105.877 38.0921L105.016 38.4696L107.77 44.7523L108.269 39.6638C108.384 38.6307 108.107 37.551 107.85 36.9649L109.773 36.1217L109.87 36.3415L109.009 36.7189L112.43 44.522L113.291 44.1445L113.387 44.3643L110.64 45.5689L110.543 45.3491L111.368 44.9877L108.613 38.705L108.114 43.7935C107.999 44.8266 108.276 45.9063 108.533 46.4924L106.647 47.3195L106.55 47.0997L107.374 46.7384L103.953 38.9353L103.129 39.2967L103.033 39.0769L105.78 37.8723ZM113.073 34.6097C111.809 35.1638 112.263 37.6944 113.274 39.5007C114.284 41.307 115.755 42.671 117.111 42.0767C117.88 41.7394 118.271 40.7382 118.048 39.4821L118.249 39.3938C118.555 40.7884 118.286 42.566 116.931 43.1602C115.392 43.8348 113.286 42.6179 112.138 39.9986C110.989 37.3793 111.521 35.006 113.152 34.2913C114.672 33.6248 116.103 34.5478 116.032 35.2339C115.979 35.7595 115.52 36.1573 115.156 36.2732C114.859 35.5955 114.062 34.1761 113.073 34.6097ZM41.4693 85.6558C40.2054 86.21 40.6597 88.7405 41.67 90.5468C42.6803 92.3532 44.1518 93.7171 45.5072 93.1229C46.2766 92.7856 46.6674 91.7844 46.4443 90.5283L46.6458 90.4399C46.9515 91.8345 46.6826 93.6121 45.3271 94.2064C43.7885 94.8809 41.6827 93.664 40.5343 91.0447C39.386 88.4254 39.9178 86.0521 41.548 85.3374C43.0683 84.6709 44.4994 85.594 44.4289 86.28C44.3755 86.8057 43.9166 87.2034 43.5525 87.3194C43.2554 86.6416 42.4584 85.2222 41.4693 85.6558ZM50.0476 85.0614C49.4694 83.7426 49.1678 83.1542 48.5688 83.1329C47.7465 83.1003 47.2229 84.2471 46.9236 85.2081L49.7504 91.6557L50.6113 91.2783L50.7076 91.4981L47.9601 92.7026L47.8637 92.4828L48.688 92.1215L43.3075 79.8491L42.6966 80.5974L42.4881 80.4704L43.8816 78.7676L44.129 78.8338L46.771 84.8601C47.0703 83.899 47.5686 82.545 48.6403 82.2499C49.4761 82.0145 50.1463 82.3976 50.7727 83.8263L53.487 90.0175L54.3296 89.6481L54.426 89.8679L51.6784 91.0724L51.5821 90.8526L52.4246 90.4832L50.0476 85.0614ZM53.7316 83.8175C53.89 84.2285 54.0747 84.6498 54.2799 85.0184C55.2902 86.8248 56.7617 88.1887 58.1172 87.5944C58.8865 87.2572 59.314 86.2399 59.0909 84.9838L59.2924 84.8955C59.5981 86.2901 59.3292 88.0676 57.9737 88.6619C56.4351 89.3364 54.3293 88.1196 53.1809 85.5002C52.0326 82.8809 52.5644 80.5077 54.0114 79.8732C55.3852 79.271 57.0383 80.053 57.8896 81.9946L53.7316 83.8175ZM53.6536 83.5897L55.4486 82.8027C56.4561 82.361 56.4452 81.6888 55.9878 80.994L55.9797 80.9757C55.4088 80.2215 54.7569 79.8303 54.1158 80.1114C53.1634 80.529 53.1657 82.0784 53.6536 83.5897ZM60.1976 77.445C58.9338 77.9991 59.3881 80.5296 60.3984 82.336C61.4087 84.1423 62.8802 85.5063 64.2356 84.912C65.0049 84.5747 65.3958 83.5735 65.1727 82.3174L65.3742 82.2291C65.6799 83.6237 65.411 85.4012 64.0555 85.9955C62.5169 86.6701 60.4111 85.4532 59.2627 82.8339C58.1144 80.2145 58.6462 77.8413 60.2764 77.1266C61.7967 76.46 63.2278 77.3831 63.1573 78.0691C63.1039 78.5948 62.645 78.9926 62.2809 79.1085C61.9838 78.4308 61.1868 77.0114 60.1976 77.445ZM61.2165 72.2596L62.61 70.5567L62.8574 70.623L66.9289 79.9097L67.4215 77.2478L67.401 77.3005C67.5766 76.3064 67.5489 74.5497 66.4682 75.0235L66.4132 75.0475L66.3168 74.8277L69.2476 73.5429L69.3439 73.7627L69.289 73.7868C68.3182 74.2124 67.8739 75.7393 67.76 76.5753L67.7623 76.5307L67.5764 77.5512L72.2704 81.7825L73.0213 81.4533L73.1177 81.6731L70.3702 82.8776L70.2738 82.6578L71.0614 82.3125L67.33 78.8821L67.0734 80.2394L68.4787 83.4448L69.3396 83.0674L69.436 83.2872L66.6885 84.4918L66.5921 84.272L67.4164 83.9106L62.0359 71.6382L61.425 72.3865L61.2165 72.2596ZM75.9267 70.6146L76.023 70.8344L75.1621 71.2119L77.9166 77.4946L78.4154 72.4061C78.5303 71.373 78.2535 70.2933 77.9965 69.7072L79.9198 68.864L80.0161 69.0838L79.1552 69.4612L82.5762 77.2642L83.4371 76.8868L83.5335 77.1066L80.7859 78.3112L80.6896 78.0914L81.5138 77.73L78.7594 71.4473L78.2606 76.5358C78.1457 77.5688 78.4225 78.6486 78.6795 79.2347L76.7928 80.0618L76.6965 79.842L77.5207 79.4807L74.0998 71.6776L73.2755 72.039L73.1791 71.8192L75.9267 70.6146ZM85.9473 69.6936C86.1057 70.1046 86.2904 70.5259 86.4956 70.8945C87.5059 72.7008 88.9774 74.0648 90.3329 73.4705C91.1022 73.1332 91.5297 72.116 91.3066 70.8599L91.5081 70.7715C91.8138 72.1661 91.5449 73.9437 90.1894 74.538C88.6508 75.2125 86.545 73.9956 85.3966 71.3763C84.2482 68.757 84.7801 66.3837 86.2271 65.7493C87.6009 65.147 89.254 65.9291 90.1052 67.8707L85.9473 69.6936ZM85.8692 69.4658L87.6643 68.6788C88.6717 68.2371 88.6609 67.5649 88.2035 66.8701L88.1954 66.8518C87.6245 66.0975 86.9726 65.7064 86.3315 65.9874C85.379 66.405 85.3814 67.9545 85.8692 69.4658ZM93.1958 72.8705L93.0995 72.6507L93.9237 72.2893L90.5027 64.4863L89.6785 64.8476L89.5821 64.6278L92.3297 63.4233L92.426 63.6431L91.5651 64.0205L94.9861 71.8235L97.5505 70.6993L94.1295 62.8962L93.3052 63.2576L93.2089 63.0378L95.9564 61.8332L96.0528 62.053L95.1919 62.4305L98.6129 70.2335L101.177 69.1092L97.7563 61.3062L96.932 61.6676L96.8356 61.4478L99.5832 60.2432L99.6795 60.463L98.8187 60.8404L102.24 68.6435L103.101 68.266L103.141 68.3576L103.287 68.2934L103.247 68.2018L103.467 68.1054L104.848 71.2559L104.628 71.3523L104.516 71.0959C104.219 70.4181 102.831 68.6464 101.438 69.2568L93.1958 72.8705ZM102.906 62.2588C103.064 62.6698 103.249 63.0911 103.454 63.4596C104.464 65.266 106.04 66.8681 107.396 66.2738C108.165 65.9365 108.451 64.6972 108.228 63.4411L108.43 63.3527C108.735 64.7474 108.467 66.5249 107.111 67.1192C105.573 67.7937 103.467 66.5769 102.318 63.9575C101.17 61.3382 101.702 58.965 103.149 58.3305C104.523 57.7283 106.176 58.5103 107.027 60.4519L102.906 62.2588ZM100.294 57.3983C100.102 56.9587 100.307 56.4317 100.747 56.239C101.187 56.0462 101.713 56.252 101.906 56.6916C102.099 57.1312 101.893 57.6581 101.454 57.8509C101.014 58.0436 100.487 57.8379 100.294 57.3983ZM102.828 62.0309L104.586 61.26C105.593 60.8183 105.583 60.1461 105.125 59.4513L105.117 59.433C104.546 58.6788 103.894 58.2876 103.253 58.5687C102.301 58.9862 102.321 60.5277 102.828 62.0309ZM102.767 56.3141C102.574 55.8745 102.78 55.3476 103.22 55.1549C103.659 54.9621 104.186 55.1679 104.379 55.6075C104.572 56.0471 104.366 56.574 103.926 56.7668C103.487 56.9595 102.96 56.7538 102.767 56.3141ZM113.075 54.6121C114.852 53.8332 116.923 55.3707 117.775 57.3123C118.626 59.2539 118.599 62.0826 116.511 62.998C114.24 63.9938 111.779 61.8187 111.71 60.7136C111.654 60.0391 112.307 59.5348 112.778 59.6123C113.314 61.2335 114.795 63.4666 116.443 62.7438C117.762 62.1657 117.404 59.8549 116.473 57.7302C115.509 55.5321 114.093 54.4934 113.03 54.9591C112.188 55.3285 111.72 56.6035 111.89 57.1405L111.636 57.2082L109.369 50.4934L112.795 48.9917C113.143 48.8391 113.288 48.6226 113.176 48.1691L113.396 48.0728L113.998 49.9928L110.078 51.7113L111.65 56.394C111.792 55.7205 112.287 54.9574 113.075 54.6121ZM123.342 60.0034C121.583 60.7743 119.018 57.6625 117.645 54.5303C116.263 51.3798 115.705 47.3663 117.463 46.5954C119.222 45.8245 121.795 48.9546 123.176 52.1051C124.55 55.2373 125.1 59.2325 123.342 60.0034ZM118.927 53.9682C120.541 57.6499 121.845 60.3756 123.237 59.7653C124.629 59.155 123.508 56.349 121.894 52.6673C120.272 48.9672 118.96 46.2232 117.568 46.8335C116.176 47.4438 117.305 50.2682 118.927 53.9682ZM52.463 110.732C51.0159 111.366 48.9101 110.149 47.7618 107.53C46.6134 104.911 47.1452 102.537 48.5923 101.903C50.021 101.277 52.1635 102.477 53.3118 105.097C54.4602 107.716 53.8917 110.105 52.463 110.732ZM48.8974 107.032C49.7246 108.919 51.0947 111.048 52.3586 110.494C53.6041 109.948 53.0033 107.481 52.1762 105.595C51.349 103.708 49.9422 101.595 48.6967 102.141C47.4328 102.695 48.0703 105.145 48.8974 107.032ZM57.9484 98.1505L59.3296 101.301L59.1098 101.397L58.9974 101.141C58.7003 100.463 57.3121 98.6916 55.92 99.3019L55.7185 99.3902L59.1395 107.193L60.0004 106.816L60.0967 107.036L57.3492 108.24L57.2528 108.02L58.0771 107.659L54.6561 99.856L54.4546 99.9443C53.0625 100.555 53.425 102.776 53.7221 103.454L53.8345 103.71L53.6147 103.807L52.2335 100.656L57.9484 98.1505ZM64.5668 95.2489L65.9481 98.3994L65.7283 98.4958L65.6158 98.2393C65.3187 97.5616 63.9305 95.7899 62.5384 96.4002L62.3369 96.4886L65.7579 104.292L66.6188 103.914L66.7152 104.134L63.9676 105.339L63.8713 105.119L64.6955 104.757L61.2745 96.9543L61.0731 97.0427C59.681 97.653 60.0434 99.8744 60.3405 100.552L60.453 100.809L60.2332 100.905L58.8519 97.7544L64.5668 95.2489ZM67.8279 97.2914C67.9863 97.7024 68.171 98.1237 68.3762 98.4923C69.3865 100.299 70.858 101.663 72.2135 101.068C72.9828 100.731 73.4103 99.7137 73.1872 98.4576L73.3887 98.3693C73.6944 99.7639 73.4255 101.541 72.07 102.136C70.5314 102.81 68.4256 101.593 67.2772 98.9741C66.1289 96.3548 66.6607 93.9815 68.1077 93.3471C69.4815 92.7448 71.1346 93.5268 71.9859 95.4684L67.8279 97.2914ZM67.7499 97.0635L69.5449 96.2765C70.5524 95.8349 70.5415 95.1626 70.0841 94.4679L70.076 94.4495C69.5051 93.6953 68.8532 93.3041 68.2121 93.5852C67.2596 94.0028 67.262 95.5522 67.7499 97.0635ZM74.2103 91.021L74.3066 91.2408L73.4457 91.6183L74.9233 94.9886L77.8541 93.7037L76.3765 90.3334L75.5522 90.6948L75.4558 90.475L78.2034 89.2704L78.2997 89.4902L77.4388 89.8676L80.8598 97.6707L81.7207 97.2932L81.8171 97.513L79.0695 98.7176L78.9732 98.4978L79.7974 98.1364L77.9504 93.9235L75.0197 95.2084L76.8667 99.4213L77.7276 99.0439L77.824 99.2637L75.0764 100.468L74.9801 100.248L75.8043 99.8871L72.3834 92.084L71.5591 92.4454L71.4627 92.2256L74.2103 91.021ZM81.5084 87.8214L81.6048 88.0412L80.7439 88.4186L82.3018 91.9721L82.4484 91.9079C82.9979 91.667 83.3549 91.3357 82.9815 89.6869C82.739 88.6358 82.3748 87.1577 83.1808 86.8043C83.6387 86.6035 84.2505 86.9031 84.9032 88.3421L85.2405 89.1114L85.0207 89.2078L84.9966 89.1529C84.6754 88.4202 84.1607 87.7942 83.6112 88.0351C83.1166 88.2519 83.2068 89.3043 83.3117 90.2409C83.4096 90.9623 83.3343 91.3884 83.0586 91.7058C84.2803 91.4541 85.3081 92.2046 86.0705 93.2461C86.74 94.1755 86.9237 94.7938 87.3084 94.6251C87.6381 94.4806 87.4795 93.7203 87.1537 93.0769L87.3735 92.9806C87.8702 93.9639 88.0268 95.1181 87.2208 95.4715C86.2684 95.8891 85.5587 94.8681 84.9911 93.8722C84.522 93.0515 83.9368 91.5174 82.9294 91.959L82.3982 92.1919L84.1649 96.2217L85.0258 95.8442L85.1222 96.064L82.3746 97.2686L82.2782 97.0488L83.1025 96.6874L79.6815 88.8844L78.8573 89.2458L78.7609 89.026L81.5084 87.8214ZM91.7801 93.4945C90.333 94.1289 88.2272 92.912 87.0789 90.2927C85.9305 87.6734 86.4623 85.3001 87.9094 84.6657C89.3381 84.0393 91.4805 85.2401 92.6289 87.8595C93.7773 90.4788 93.2088 92.8681 91.7801 93.4945ZM88.2145 89.7948C89.0417 91.6815 90.4118 93.8105 91.6757 93.2564C92.9212 92.7103 92.3204 90.244 91.4933 88.3573C90.6661 86.4707 89.2593 84.3577 88.0138 84.9038C86.7499 85.4579 87.3874 87.9082 88.2145 89.7948ZM94.2087 82.2534C96.0645 81.5053 97.2067 82.1182 97.6163 83.0524C97.9375 83.7851 97.6841 84.9007 96.693 85.7283C98.1059 85.4146 99.2115 86.0436 99.6371 87.0144C100.175 88.2416 99.6059 89.5831 97.8224 90.496L95.0749 91.7006L94.9785 91.4808L95.8028 91.1194L92.3818 83.3164L91.5575 83.6778L91.4611 83.458L94.2087 82.2534ZM96.8651 90.6536L97.3963 90.4208C98.7701 89.8185 98.9637 88.467 98.5542 87.5328C98.0563 86.3972 96.9301 85.8209 95.8677 86.2866L95.7762 86.3268L95.0984 86.6239L96.8651 90.6536ZM95.0021 86.4041L95.5333 86.1712C96.7239 85.6492 97.0071 84.6516 96.5975 83.7174C96.0997 82.5817 95.2209 82.0717 93.9753 82.6177L93.4442 82.8506L95.0021 86.4041ZM101.212 78.8553C101.357 79.185 101.531 79.2834 101.751 79.187C102.08 79.0425 102.393 78.3597 103.073 78.0179L103.127 77.9938C104.556 77.3674 106.699 78.5682 107.847 81.1876C108.995 83.8069 108.427 86.1962 106.998 86.8226C105.002 87.6979 103.355 86.0833 103.346 85.3664C103.335 84.6942 104.099 84.2939 104.438 84.32C104.689 85.1925 105.593 87.1546 106.894 86.5845C108.121 86.0464 107.56 83.6717 106.76 81.7954L103.902 83.0481L103.758 82.7184L105.32 82.0988L106.655 81.5572C105.818 79.6969 104.441 77.7019 103.232 78.2319C102.151 78.7057 102.232 81.1816 102.666 82.1707L102.746 82.3539L102.526 82.4502L100.992 78.9517L101.212 78.8553ZM112.488 74.2395L113.869 77.39L113.649 77.4863L113.537 77.2299C113.24 76.5522 111.852 74.7805 110.459 75.3908L110.258 75.4791L113.679 83.2822L114.54 82.9047L114.636 83.1245L111.889 84.3291L111.792 84.1093L112.617 83.7479L109.196 75.9449L108.994 76.0332C107.602 76.6436 107.964 78.865 108.262 79.5427L108.374 79.7991L108.154 79.8955L106.773 76.745L112.488 74.2395ZM119.899 81.1664C118.452 81.8008 116.347 80.584 115.198 77.9647C114.05 75.3453 114.582 72.9721 116.029 72.3377C117.458 71.7113 119.6 72.9121 120.748 75.5314C121.897 78.1507 121.328 80.5401 119.899 81.1664ZM116.334 77.4668C117.161 79.3534 118.531 81.4824 119.795 80.9283C121.041 80.3822 120.44 77.916 119.613 76.0293C118.786 74.1427 117.379 72.0297 116.133 72.5758C114.869 73.1299 115.507 75.5801 116.334 77.4668ZM124.764 68.8573L126.145 72.0078L125.926 72.1042L125.813 71.8477C125.516 71.17 124.128 69.3983 122.736 70.0086L121.564 70.5226L124.985 78.3256L125.845 77.9482L125.942 78.168L123.194 79.3725L123.098 79.1527L123.922 78.7914L120.501 70.9883L119.677 71.3497L119.581 71.1299L124.764 68.8573ZM132.009 75.8572C130.562 76.4916 128.457 75.2748 127.308 72.6554C126.16 70.0361 126.692 67.6629 128.139 67.0284C129.567 66.4021 131.71 67.6029 132.858 70.2222C134.007 72.8415 133.438 75.2308 132.009 75.8572ZM128.444 72.1575C129.271 74.0442 130.641 76.1732 131.905 75.6191C133.151 75.073 132.55 72.6067 131.723 70.7201C130.895 68.8334 129.489 66.7205 128.243 67.2666C126.979 67.8207 127.617 70.2709 128.444 72.1575ZM55.9241 118.626C54.6602 119.18 55.1145 121.711 56.1249 123.517C57.1352 125.324 58.6066 126.688 59.9621 126.093C60.7314 125.756 61.1223 124.755 60.8992 123.499L61.1007 123.41C61.4064 124.805 61.1375 126.583 59.782 127.177C58.2434 127.851 56.1376 126.635 54.9892 124.015C53.8408 121.396 54.3727 119.023 56.0029 118.308C57.5232 117.641 58.9543 118.565 58.8838 119.251C58.8304 119.776 58.3714 120.174 58.0074 120.29C57.7102 119.612 56.9132 118.193 55.9241 118.626ZM64.9924 114.716L65.0887 114.936L64.2278 115.313L67.6488 123.116L68.5097 122.739L68.6061 122.959L65.8585 124.163L65.7622 123.944L66.5864 123.582L63.1654 115.779L60.8209 116.807L62.6277 120.928C63.5191 122.962 64.3167 125.08 63.1582 125.675C62.4416 126.033 61.9038 125.155 61.9903 124.505C63.2063 124.191 63.3876 123.259 62.2393 120.64L61.629 119.248C61.1712 118.204 60.0699 117.136 59.3006 117.474L59.2456 117.498L59.1492 117.278L64.9924 114.716ZM72.0508 121.798C70.6037 122.432 68.4979 121.216 67.3496 118.596C66.2012 115.977 66.7331 113.604 68.1801 112.969C69.6088 112.343 71.7513 113.544 72.8996 116.163C74.048 118.782 73.4795 121.172 72.0508 121.798ZM68.4852 118.098C69.3124 119.985 70.6825 122.114 71.9464 121.56C73.1919 121.014 72.5911 118.548 71.764 116.661C70.9368 114.774 69.53 112.661 68.2845 113.207C67.0206 113.761 67.6581 116.212 68.4852 118.098ZM74.4794 110.557C76.3352 109.809 77.4774 110.422 77.887 111.356C78.2082 112.089 77.9548 113.204 76.9637 114.032C78.3766 113.718 79.4822 114.347 79.9079 115.318C80.4459 116.545 79.8766 117.887 78.0931 118.8L75.3456 120.004L75.2492 119.784L76.0735 119.423L72.6525 111.62L71.8282 111.981L71.7319 111.762L74.4794 110.557ZM77.1359 118.957L77.667 118.724C79.0408 118.122 79.2345 116.771 78.8249 115.836C78.327 114.701 77.2008 114.124 76.1385 114.59L76.0469 114.63L75.3691 114.927L77.1359 118.957ZM75.2728 114.708L75.804 114.475C76.9946 113.953 77.2778 112.955 76.8683 112.021C76.3704 110.885 75.4916 110.375 74.2461 110.921L73.7149 111.154L75.2728 114.708ZM86.6574 112.992L86.6414 112.955L86.8612 112.859L86.9094 112.969C87.4474 114.196 87.3576 115.087 86.6982 115.376C86.0571 115.657 85.2609 115.286 84.7389 114.095L84.225 112.923C84.6376 114.86 84.3951 116.648 82.9638 116.97C81.931 117.204 80.6545 116.235 80.8251 114.632C80.9251 113.715 81.4661 112.757 82.0128 111.862C82.4142 111.184 83.1579 110.29 82.3597 108.718C81.9112 107.845 81.5536 107.477 81.0899 107.615C80.1179 107.888 80.1709 109.852 80.5682 111.207C80.1286 111.4 79.1884 111.397 79.0195 110.663C78.7989 109.711 79.5041 107.983 81.0119 107.387C82.1636 106.926 83.0366 107.373 83.7857 109.032L85.721 113.446C86.1306 114.38 86.4846 114.64 86.7777 114.512C87.0158 114.407 87.0991 114 86.6574 112.992ZM81.714 113.522C81.4356 114.779 82.2484 115.886 83.2548 115.641C84.4422 115.361 84.3856 113.289 83.2774 110.762L82.9401 109.992C83.0007 111.276 82.0668 112.035 81.714 113.522ZM89.6036 113.928C89.164 114.121 88.6371 113.915 88.4443 113.475C88.2516 113.036 88.4573 112.509 88.8969 112.316C89.3365 112.123 89.8635 112.329 90.0562 112.769C90.2489 113.208 90.0432 113.735 89.6036 113.928ZM93.4137 112.257C92.9741 112.45 92.4471 112.244 92.2544 111.805C92.0617 111.365 92.2674 110.838 92.707 110.646C93.1466 110.453 93.6736 110.659 93.8663 111.098C94.059 111.538 93.8533 112.065 93.4137 112.257ZM97.2238 110.587C96.7841 110.78 96.2572 110.574 96.0645 110.134C95.8717 109.695 96.0775 109.168 96.5171 108.975C96.9567 108.782 97.4836 108.988 97.6764 109.428C97.8691 109.867 97.6634 110.394 97.2238 110.587Z" fill="#C855A6"/>
</svg>
