<svg width="32" height="32" viewBox="0 0 32 32" fill="none" xmlns="http://www.w3.org/2000/svg">
<path d="M32 16C32 7.16344 24.8059 0 16 0V0C7.19413 0 7.95347e-07 7.16344 7.95347e-07 16V16C7.95347e-07 24.8366 7.19413 32 16 32V32C24.8059 32 32 24.8366 32 16V16Z" fill="#7C1C1C"/>
<path d="M24.9852 2.77039L23.7752 2.0044L6.76005 29.0684L7.96998 29.8344L24.9852 2.77039Z" fill="#FDC600"/>
<path d="M2.73663 7.00574L2.05603 8.0883L29.1201 25.2223L29.8007 24.1397L2.73663 7.00574Z" fill="#FDC600"/>
<path d="M23.6318 11.9283C22.8536 11.9321 21.8936 12.1999 20.9345 12.5602C19.1159 13.2435 17.0284 14.3659 15.5564 15.2511C14.4156 14.8327 12.806 14.3664 11.3149 14.2035C10.497 14.1142 9.66359 14.1099 8.94648 14.2868C8.22332 14.4651 7.528 14.8548 7.17476 15.616C7.00863 15.974 6.92746 16.4108 7.12702 16.8318C7.3175 17.2337 7.6821 17.4436 7.99315 17.5565C8.60232 17.7776 9.46051 17.7909 10.3132 17.7316C11.5895 17.6429 13.1145 17.3676 14.4318 17.0727L11.2602 24.7522L12.5813 25.3014L15.8354 17.4222L20.8873 23.5682L21.9905 22.6551L17.1334 16.7461C18.558 16.7004 20.2241 16.5646 21.6681 16.2752C22.6593 16.0765 23.61 15.7936 24.3092 15.3787C25.0019 14.9677 25.6437 14.2923 25.5 13.3114C25.4317 12.8455 25.1953 12.459 24.804 12.2142C24.4452 11.9898 24.0227 11.9264 23.6318 11.9283ZM9.28805 15.6804C9.77374 15.5606 10.4185 15.5491 11.1602 15.6301C11.714 15.6906 12.2936 15.7992 12.8583 15.9335C11.9474 16.1056 11.0193 16.2441 10.2142 16.3C9.37358 16.3585 8.78212 16.3168 8.47967 16.207L8.47884 16.2064C8.58728 15.9865 8.81944 15.7959 9.28805 15.6804ZM24.0849 13.5201C24.1025 13.64 24.078 13.8491 23.5812 14.1438C23.091 14.4347 22.329 14.6795 21.3881 14.868C20.4911 15.0478 19.4894 15.1647 18.5169 15.2364C19.4844 14.7333 20.5046 14.2541 21.4359 13.9042C22.362 13.5562 23.1251 13.3656 23.6388 13.363C23.8936 13.3618 24.0094 13.4083 24.0475 13.4321C24.0531 13.4356 24.0725 13.4358 24.0849 13.5201Z" fill="#FDC600"/>
</svg>
