<svg width="390" height="165" viewBox="0 0 390 165" fill="none" xmlns="http://www.w3.org/2000/svg">
<rect y="75" width="390" height="15" fill="#7C1C1C"/>
<path d="M325.967 81.5068C330.025 82.339 332.639 86.303 331.807 90.3607C331.8 90.3955 331.79 90.4298 331.783 90.4644L331.817 90.4715L318.88 153.552L302.032 161.042L317.008 88.0175C317.034 87.7947 317.067 87.5709 317.113 87.3471C317.945 83.2894 321.909 80.6746 325.967 81.5068Z" fill="#7C1C1C"/>
<rect x="267.669" y="8.48517" width="96" height="59" rx="5" transform="rotate(19.4733 267.669 8.48517)" fill="#F6DFB8"/>
<rect x="270.411" y="14.2279" width="87" height="49" rx="0.5" transform="rotate(19.4733 270.411 14.2279)" stroke="#0D2115"/>
<path d="M278.16 63.1071L262.981 57.7398L263.181 57.1742C269.366 52.7318 280.544 44.9642 283.878 35.5362C285.128 32.0007 285.38 28.5895 283.07 27.7727C279.864 26.6393 274.262 32.1359 272.028 38.4526L271.462 38.2526L276.33 24.4878L276.895 24.6878L276.812 24.9235C276.395 26.102 276.519 27.1005 277.556 27.4672C278.688 27.8672 281.138 26.1879 284.155 27.2547C287.172 28.3215 288.961 31.659 287.345 36.2316C285.244 42.1712 277.908 47.3201 266.291 55.7282L273.409 58.2451C278.594 60.0786 280.428 54.8933 282.311 49.5665L282.361 49.425L282.927 49.6251L278.16 63.1071ZM287.394 67.2206C282.868 65.6205 283.509 55.5586 286.359 47.4977C289.226 39.3896 295.069 31.1141 299.595 32.7143C304.12 34.3144 303.463 44.4234 300.596 52.5315C297.745 60.5924 291.919 68.8208 287.394 67.2206ZM289.659 48.6644C286.309 58.1395 284.028 65.341 287.61 66.6078C291.193 67.8746 293.946 60.8398 297.296 51.3647C300.663 41.8425 302.961 34.5939 299.378 33.3271C295.796 32.0603 293.026 39.1422 289.659 48.6644ZM310.891 74.6805L295.712 69.3133L295.912 68.7476C302.096 64.3053 313.275 56.5376 316.609 47.1097C317.859 43.5742 318.111 40.1629 315.801 39.3462C312.595 38.2127 306.992 43.7093 304.759 50.0261L304.193 49.826L309.06 36.0612L309.626 36.2612L309.543 36.4969C309.126 37.6754 309.25 38.674 310.287 39.0407C311.419 39.4407 313.869 37.7614 316.886 38.8282C319.903 39.8949 321.692 43.2325 320.075 47.8051C317.975 53.7447 310.639 58.8936 299.022 67.3017L306.14 69.8186C311.325 71.6521 313.159 66.4667 315.042 61.1399L315.092 60.9985L315.658 61.1985L310.891 74.6805ZM328.937 57.8859C333.51 59.5027 334.66 65.8491 332.893 70.846C331.126 75.8428 326.242 80.9571 320.868 79.0569C315.022 76.99 314.253 68.816 316.016 66.6815C317.068 65.3563 319.12 65.5517 319.846 66.4979C318.052 70.3714 316.936 76.9772 321.179 78.4774C324.573 79.6775 327.87 74.8508 329.804 69.3825C331.804 63.7258 330.997 59.4097 328.263 58.4429C326.094 57.6762 323.062 59.2026 322.454 60.4726L321.874 60.1616L329.22 44.0379L338.035 47.1549C338.93 47.4716 339.566 47.325 340.138 46.3075L340.703 46.5075L338.518 51.0381L328.43 47.4711L323.292 58.7008C324.702 57.7142 326.91 57.1691 328.937 57.8859Z" fill="#0D2115"/>
<path d="M330.289 77.7755C334.314 76.7991 338.369 79.2708 339.345 83.2963C339.354 83.3308 339.36 83.3658 339.367 83.4004L339.402 83.3921L354.581 145.971L342.531 159.927L324.959 87.4831C324.887 87.2709 324.822 87.0542 324.768 86.8321C323.792 82.8067 326.263 78.7519 330.289 77.7755Z" fill="#7C1C1C"/>
</svg>
