<svg width="390" height="156" viewBox="0 0 390 156" fill="none" xmlns="http://www.w3.org/2000/svg">
<rect y="66.5146" width="390" height="15" fill="#7C1C1C"/>
<path d="M325.967 73.0215C330.025 73.8537 332.639 77.8177 331.807 81.8754C331.8 81.9102 331.79 81.9444 331.783 81.979L331.817 81.9861L318.88 145.067L302.032 152.557L317.008 79.5321C317.034 79.3093 317.067 79.0856 317.113 78.8617C317.945 74.804 321.909 72.1893 325.967 73.0215Z" fill="#7C1C1C"/>
<rect x="267.669" width="96" height="59" rx="5" transform="rotate(19.4733 267.669 0)" fill="#F6DFB8"/>
<rect x="270.411" y="5.74282" width="87" height="49" rx="0.5" transform="rotate(19.4733 270.411 5.74282)" stroke="#0D2115"/>
<path d="M280.254 15.5897L278.8 31.3167L280.086 31.7714L279.998 32.0203L276.036 30.6195L276.124 30.3706L277.493 30.8546L278.222 24.0419L275.547 23.0958L273.323 26.7433C272.654 27.9767 272.744 29.1751 273.864 29.5711L274.05 29.6371L273.962 29.886L270.001 28.4852L270.089 28.2363L270.234 28.2877C271.354 28.6837 272.508 27.5983 273.239 26.3869L279.901 15.4651L280.254 15.5897ZM275.697 22.8689L278.269 23.7783L278.931 17.5488L275.697 22.8689ZM295.092 26.8569L295.004 27.1058L294.029 26.7611L290.905 35.597L291.88 35.9417L291.792 36.1906L288.681 35.0904L288.769 34.8415L289.702 35.1716L291.374 30.4425C290.482 30.9204 289.64 30.926 288.873 30.6546C287.773 30.2659 286.699 29.2792 287.52 26.9562L288.305 24.7369L287.371 24.4068L287.459 24.1579L290.571 25.258L290.483 25.5069L289.508 25.1622L288.862 26.9875C288.026 29.352 289.022 30.1007 289.623 30.3134C290.37 30.5774 291.168 30.2996 291.506 30.0692L292.826 26.3357L291.893 26.0057L291.981 25.7568L295.092 26.8569ZM302.398 29.44L301.136 33.0075L300.887 32.9195L300.99 32.6291C301.261 31.8617 301.48 29.3955 299.904 28.8381L299.675 28.7574L296.551 37.5933L297.526 37.938L297.438 38.1869L294.327 37.0868L294.415 36.8379L295.348 37.1679L298.472 28.332L298.244 28.2514C296.668 27.694 295.288 29.7495 295.016 30.5169L294.914 30.8073L294.665 30.7193L295.926 27.1517L302.398 29.44ZM303.135 40.5747C301.496 39.9953 300.722 37.4346 301.771 34.4686C302.819 31.5025 305.031 29.9979 306.67 30.5773C308.288 31.1494 309.104 33.7248 308.055 36.6908C307.006 39.6568 304.753 41.1468 303.135 40.5747ZM303.057 34.9233C302.301 37.0597 301.799 39.799 303.23 40.3051C304.641 40.8038 306.014 38.3725 306.769 36.2361C307.525 34.0997 307.985 31.3457 306.575 30.847C305.144 30.3409 303.812 32.7869 303.057 34.9233ZM274.518 38.6742L274.43 38.9231L273.456 38.5783L270.331 47.4142L271.306 47.7589L270.045 51.3265L269.796 51.2385L269.898 50.9481C270.17 50.1807 270.388 47.7145 268.812 47.1571L266.406 46.3063C264.83 45.7489 263.449 47.8044 263.178 48.5719L263.075 48.8622L262.827 48.7742L264.088 45.2067C266.017 45.8888 267.317 42.8716 268.175 40.4448L268.41 39.7811C268.828 38.5988 268.747 36.9135 267.876 36.6055L267.814 36.5835L267.902 36.3346L274.518 38.6742ZM265.374 45.6614L269.128 46.9889L272.253 38.153L269.598 37.2142C268.651 39.8899 269.325 38.0512 268.548 40.2498C267.623 42.8632 266.721 44.6908 265.374 45.6614ZM279.285 48.6668L279.3 48.6254L279.549 48.7134L279.505 48.8378C279.013 50.2275 278.271 50.8751 277.524 50.611C276.798 50.3543 276.439 49.4572 276.916 48.109L277.385 46.7815C276.259 48.6468 274.719 49.8992 273.328 49.0807C272.323 48.4919 272.028 46.754 273.371 45.5955C274.141 44.9345 275.296 44.5727 276.408 44.2658C277.24 44.0235 278.509 43.8656 279.051 42.0036C279.348 40.9653 279.338 40.4015 278.862 40.1633C277.876 39.6514 276.441 41.2675 275.741 42.6534C275.243 42.4774 274.491 41.7679 274.907 41.0518C275.446 40.1222 277.312 39.2654 278.97 39.9217C280.242 40.4179 280.606 41.4334 279.959 43.3282L278.192 48.327C277.818 49.3848 277.907 49.8595 278.239 49.9769C278.508 50.0722 278.882 49.8076 279.285 48.6668ZM274.919 45.373C273.75 46.1729 273.57 47.6726 274.561 48.2333C275.725 48.9015 277.238 47.1964 278.25 44.334L278.558 43.4629C277.641 44.5387 276.321 44.4452 274.919 45.373ZM289.667 44.0306L289.579 44.2795L288.604 43.9348L285.48 52.7707L286.455 53.1154L286.367 53.3643L283.255 52.2642L283.343 52.0153L284.277 52.3453L287.401 43.5094L284.746 42.5707L283.096 47.2375C282.282 49.5398 281.329 51.8396 279.951 51.4459C279.107 51.194 279.336 50.0848 279.894 49.6287C281.106 50.2909 281.952 49.68 283.001 46.7139L283.559 45.1376C283.977 43.9553 283.896 42.27 283.025 41.9619L282.962 41.9399L283.05 41.691L289.667 44.0306ZM293.401 45.3511L293.313 45.6L292.339 45.2553L290.916 49.2791L291.994 49.6605C293.986 50.3646 294.631 51.9697 294.177 53.2557C293.685 54.6454 292.219 55.2937 290.101 54.6848L286.99 53.5847L287.078 53.3358L288.011 53.6658L291.136 44.8299L290.202 44.4999L290.29 44.251L293.401 45.3511ZM289.214 54.0912L289.816 54.3039C291.371 54.8539 292.543 53.9149 292.917 52.8571C293.372 51.5712 292.902 50.2615 291.699 49.8361L290.828 49.528L289.214 54.0912ZM293.674 55.9482L293.762 55.6993L294.696 56.0293L297.82 47.1934L296.886 46.8634L296.974 46.6145L300.086 47.7146L299.998 47.9635L299.023 47.6188L295.899 56.4547L298.802 57.4815L301.927 48.6456L300.993 48.3156L301.081 48.0667L304.193 49.1668L304.105 49.4157L303.13 49.071L300.005 57.9069L302.909 58.9336L306.033 50.0977L305.1 49.7677L305.188 49.5188L308.299 50.6189L308.211 50.8678L307.237 50.5231L304.112 59.359L305.087 59.7037L304.999 59.9526L293.674 55.9482ZM308.983 54.5708C308.801 55.0198 308.632 55.4969 308.519 55.9471C307.972 58.1568 308.126 60.3584 309.661 60.9011C310.532 61.2092 311.641 60.7143 312.407 59.5384L312.635 59.619C311.831 60.9683 310.278 62.1926 308.743 61.6499C307.001 61.0338 306.226 58.4731 307.275 55.507C308.324 52.541 310.536 51.0364 312.174 51.6158C313.73 52.1658 314.469 54.0371 313.691 56.2357L308.983 54.5708ZM309.092 54.3293L311.124 55.048C312.265 55.4514 312.762 54.9037 312.918 54.002L312.925 53.9812C313.034 52.9465 312.805 52.1421 312.079 51.8854C311.001 51.5041 309.837 52.7493 309.092 54.3293ZM321.226 52.5763C320.11 54.6783 317.534 54.3741 317.05 55.7431L315.429 59.9303L315.014 59.7837L316.432 55.2448C316.962 53.6819 318.846 53.7647 320.084 51.8459C320.765 50.7797 320.884 49.1884 319.868 48.829C318.748 48.433 317.78 49.9811 317.509 50.7485C317.1 50.6506 316.565 50.2513 316.464 49.6789C316.331 48.9319 318.034 47.8773 319.756 48.4861C321.602 49.1388 322.112 50.9293 321.226 52.5763ZM313.511 62.1222C313.687 61.6244 314.248 61.3562 314.746 61.5323C315.244 61.7083 315.512 62.2698 315.336 62.7676C315.16 63.2654 314.598 63.5335 314.1 63.3575C313.603 63.1815 313.335 62.62 313.511 62.1222Z" fill="#0D2115"/>
<path d="M332.289 72.2902C336.314 71.3138 340.369 73.7855 341.345 77.8109C341.354 77.8455 341.36 77.8805 341.367 77.915L341.402 77.9068L356.581 140.486L344.531 154.442L326.959 81.9978C326.887 81.7855 326.822 81.5688 326.768 81.3468C325.792 77.3213 328.263 73.2666 332.289 72.2902Z" fill="#7C1C1C"/>
</svg>
