<svg width="120" height="169" viewBox="0 0 120 169" fill="none" xmlns="http://www.w3.org/2000/svg">
<rect width="120" height="133.792" transform="matrix(-1 0 0 1 120 35.2083)" fill="#FDC600"/>
<rect width="5.36471" height="133.792" transform="matrix(-1 0 0 1 62.1177 35.2083)" fill="#C855A6"/>
<rect width="5.35167" height="120" transform="matrix(4.38179e-08 1 1 -4.36052e-08 0 99.9917)" fill="#C855A6"/>
<rect width="5.57639" height="64.2847" transform="matrix(4.38179e-08 1 1 -4.36052e-08 28.8918 29.7407)" fill="#C855A6"/>
<rect width="5.40498" height="33.166" transform="matrix(-0.383479 0.92355 0.924208 0.381889 32.0394 17.4053)" fill="#C855A6"/>
<rect width="5.41428" height="34.3895" transform="matrix(-0.924208 0.381889 0.383479 0.92355 50.9946 1.42004)" fill="#C855A6"/>
<rect width="5.41428" height="33.7952" transform="matrix(-0.924208 -0.381889 -0.383479 0.92355 75.7288 3.48779)" fill="#C855A6"/>
<rect width="5.40498" height="30.7619" transform="matrix(-0.383479 -0.92355 -0.924208 0.381889 91.7528 22.3971)" fill="#C855A6"/>
<rect width="5.40963" height="75.6546" transform="matrix(0.707967 0.706246 0.707966 -0.706246 28.2354 60.9628)" fill="#C855A6"/>
<rect width="5.58998" height="32.529" transform="matrix(1 -8.72103e-08 -8.76357e-08 -1 57.7733 32.5289)" fill="#C855A6"/>
<rect width="5.40963" height="73.4813" transform="matrix(0.707966 -0.706246 -0.707967 -0.706246 88.1159 63.2485)" fill="#C855A6"/>
</svg>
